{
	"asset":{
		"generator":"Khronos glTF Blender I/O v3.5.30",
		"version":"2.0"
	},
	"extensionsUsed":[
		"KHR_materials_ior",
		"KHR_materials_specular"
	],
	"scene":0,
	"scenes":[
		{
			"name":"Scene",
			"nodes":[
				0,
				1,
				2
			]
		}
	],
	"nodes":[
		{
			"mesh":0,
			"name":"Scene_Root"
		},
		{
			"mesh":1,
			"name":"Scene_Root.001"
		},
		{
			"mesh":2,
			"name":"DoorFrame"
		}
	],
	"materials":[
		{
			"doubleSided":true,
			"extensions":{
				"KHR_materials_specular":{
					"specularColorFactor":[
						0,
						0,
						0
					]
				},
				"KHR_materials_ior":{
					"ior":1.4500000476837158
				}
			},
			"name":"material0.001",
			"pbrMetallicRoughness":{
				"baseColorTexture":{
					"index":0
				}
			}
		},
		{
			"doubleSided":true,
			"extensions":{
				"KHR_materials_specular":{
					"specularColorFactor":[
						0,
						0,
						0
					]
				},
				"KHR_materials_ior":{
					"ior":1.4500000476837158
				}
			},
			"name":"material0.002",
			"pbrMetallicRoughness":{
				"baseColorTexture":{
					"index":1
				}
			}
		},
		{
			"doubleSided":true,
			"extensions":{
				"KHR_materials_specular":{
					"specularColorFactor":[
						2.371357614441398,
						2.371357614441398,
						2.371357614441398
					]
				},
				"KHR_materials_ior":{
					"ior":1.4500000476837158
				}
			},
			"name":"mat0.001",
			"pbrMetallicRoughness":{
				"baseColorTexture":{
					"index":2
				},
				"metallicFactor":0,
				"roughnessFactor":0.7026983499526978
			}
		},
		{
			"doubleSided":true,
			"extensions":{
				"KHR_materials_specular":{
					"specularColorFactor":[
						2.371357614441398,
						2.371357614441398,
						2.371357614441398
					]
				},
				"KHR_materials_ior":{
					"ior":1.4500000476837158
				}
			},
			"name":"mat1",
			"pbrMetallicRoughness":{
				"metallicFactor":0,
				"roughnessFactor":0.7026983499526978
			}
		}
	],
	"meshes":[
		{
			"name":"Mesh.001",
			"primitives":[
				{
					"attributes":{
						"POSITION":0,
						"TEXCOORD_0":1,
						"NORMAL":2
					},
					"indices":3,
					"material":0
				}
			]
		},
		{
			"name":"Mesh.002",
			"primitives":[
				{
					"attributes":{
						"POSITION":4,
						"TEXCOORD_0":5,
						"NORMAL":6
					},
					"indices":3,
					"material":1
				}
			]
		},
		{
			"name":"DoorFrame",
			"primitives":[
				{
					"attributes":{
						"POSITION":7,
						"TEXCOORD_0":8,
						"NORMAL":9
					},
					"indices":10,
					"material":2
				},
				{
					"attributes":{
						"POSITION":11,
						"TEXCOORD_0":12,
						"NORMAL":13
					},
					"indices":14,
					"material":3
				}
			]
		}
	],
	"textures":[
		{
			"sampler":0,
			"source":0
		},
		{
			"sampler":0,
			"source":0
		},
		{
			"sampler":0,
			"source":0
		}
	],
	"images":[
		{
			"mimeType":"image/jpeg",
			"name":"Door01",
			"uri":"Door01.jpg"
		}
	],
	"accessors":[
		{
			"bufferView":0,
			"componentType":5126,
			"count":2100,
			"max":[
				1.0519708395004272,
				3.216214179992676,
				-0.017614014446735382
			],
			"min":[
				-1.053707242012024,
				-0.0018767411820590496,
				-0.229132741689682
			],
			"type":"VEC3"
		},
		{
			"bufferView":1,
			"componentType":5126,
			"count":2100,
			"type":"VEC2"
		},
		{
			"bufferView":2,
			"componentType":5126,
			"count":2100,
			"type":"VEC3"
		},
		{
			"bufferView":3,
			"componentType":5123,
			"count":2100,
			"type":"SCALAR"
		},
		{
			"bufferView":4,
			"componentType":5126,
			"count":2100,
			"max":[
				1.053707242012024,
				3.216214179992676,
				0.24284619092941284
			],
			"min":[
				-1.0519708395004272,
				-0.0018767411820590496,
				0.03132747858762741
			],
			"type":"VEC3"
		},
		{
			"bufferView":5,
			"componentType":5126,
			"count":2100,
			"type":"VEC2"
		},
		{
			"bufferView":6,
			"componentType":5126,
			"count":2100,
			"type":"VEC3"
		},
		{
			"bufferView":7,
			"componentType":5126,
			"count":924,
			"max":[
				1.0703626871109009,
				3.289994239807129,
				0.27000248432159424
			],
			"min":[
				-1.0703626871109009,
				-3.627689437735171e-08,
				-0.27000004053115845
			],
			"type":"VEC3"
		},
		{
			"bufferView":8,
			"componentType":5126,
			"count":924,
			"type":"VEC2"
		},
		{
			"bufferView":9,
			"componentType":5126,
			"count":924,
			"type":"VEC3"
		},
		{
			"bufferView":10,
			"componentType":5123,
			"count":1386,
			"type":"SCALAR"
		},
		{
			"bufferView":11,
			"componentType":5126,
			"count":16,
			"max":[
				1.0703626871109009,
				3.2077443599700928,
				0.24000246822834015
			],
			"min":[
				-1.0703626871109009,
				0.041124921292066574,
				-0.24000002443790436
			],
			"type":"VEC3"
		},
		{
			"bufferView":12,
			"componentType":5126,
			"count":16,
			"type":"VEC2"
		},
		{
			"bufferView":13,
			"componentType":5126,
			"count":16,
			"type":"VEC3"
		},
		{
			"bufferView":14,
			"componentType":5123,
			"count":24,
			"type":"SCALAR"
		}
	],
	"bufferViews":[
		{
			"buffer":0,
			"byteLength":25200,
			"byteOffset":0,
			"target":34962
		},
		{
			"buffer":0,
			"byteLength":16800,
			"byteOffset":25200,
			"target":34962
		},
		{
			"buffer":0,
			"byteLength":25200,
			"byteOffset":42000,
			"target":34962
		},
		{
			"buffer":0,
			"byteLength":4200,
			"byteOffset":67200,
			"target":34963
		},
		{
			"buffer":0,
			"byteLength":25200,
			"byteOffset":71400,
			"target":34962
		},
		{
			"buffer":0,
			"byteLength":16800,
			"byteOffset":96600,
			"target":34962
		},
		{
			"buffer":0,
			"byteLength":25200,
			"byteOffset":113400,
			"target":34962
		},
		{
			"buffer":0,
			"byteLength":11088,
			"byteOffset":138600,
			"target":34962
		},
		{
			"buffer":0,
			"byteLength":7392,
			"byteOffset":149688,
			"target":34962
		},
		{
			"buffer":0,
			"byteLength":11088,
			"byteOffset":157080,
			"target":34962
		},
		{
			"buffer":0,
			"byteLength":2772,
			"byteOffset":168168,
			"target":34963
		},
		{
			"buffer":0,
			"byteLength":192,
			"byteOffset":170940,
			"target":34962
		},
		{
			"buffer":0,
			"byteLength":128,
			"byteOffset":171132,
			"target":34962
		},
		{
			"buffer":0,
			"byteLength":192,
			"byteOffset":171260,
			"target":34962
		},
		{
			"buffer":0,
			"byteLength":48,
			"byteOffset":171452,
			"target":34963
		}
	],
	"samplers":[
		{
			"magFilter":9729,
			"minFilter":9987
		}
	],
	"buffers":[
		{
			"byteLength":171500,
			"uri":"door.bin"
		}
	]
}
