{
	"asset":{
		"generator":"Khronos glTF Blender I/O v3.6.27",
		"version":"2.0"
	},
	"extensionsUsed":[
		"KHR_materials_emissive_strength"
	],
	"scene":0,
	"scenes":[
		{
			"name":"Scene",
			"nodes":[
				0,
				1,
				2,
				3,
				4
			]
		}
	],
	"nodes":[
		{
			"mesh":0,
			"name":"neonLamp",
			"rotation":[
				0.7071068286895752,
				0,
				0,
				0.7071068286895752
			],
			"scale":[
				0.07999999821186066,
				1.6994327306747437,
				0.07999999821186066
			],
			"translation":[
				-0.20000000298023224,
				0.2981576919555664,
				0
			]
		},
		{
			"mesh":1,
			"name":"Protction-Cylinders",
			"rotation":[
				0,
				0,
				-0.7071068286895752,
				0.7071068286895752
			],
			"scale":[
				-0.02962055429816246,
				-0.4875700771808624,
				-0.02962055429816246
			],
			"translation":[
				0,
				0.12082314491271973,
				1.8967232704162598
			]
		},
		{
			"mesh":2,
			"name":"LampCase.Cover",
			"scale":[
				0.25780734419822693,
				0.25780734419822693,
				0.04631394147872925
			],
			"translation":[
				0,
				0.24584150314331055,
				2.0150294303894043
			]
		},
		{
			"mesh":3,
			"name":"Lamp.Case",
			"translation":[
				0,
				0.24569988250732422,
				0
			]
		},
		{
			"mesh":4,
			"name":"neonLamp.001",
			"rotation":[
				0.7071068286895752,
				0,
				0,
				0.7071068286895752
			],
			"scale":[
				0.07999999821186066,
				1.6994327306747437,
				0.07999999821186066
			],
			"translation":[
				0.20000000298023224,
				0.2981576919555664,
				0
			]
		}
	],
	"materials":[
		{
			"doubleSided":true,
			"emissiveFactor":[
				0.9907311201095581,
				1,
				0.7550046443939209
			],
			"extensions":{
				"KHR_materials_emissive_strength":{
					"emissiveStrength":20
				}
			},
			"name":"Emission.Light",
			"pbrMetallicRoughness":{
				"baseColorFactor":[
					0,
					0,
					0,
					1
				]
			}
		},
		{
			"doubleSided":true,
			"name":"lampCaseMetal",
			"pbrMetallicRoughness":{
				"baseColorFactor":[
					0.36941400170326233,
					0.36941400170326233,
					0.36941400170326233,
					1
				],
				"metallicFactor":0.9266054630279541,
				"roughnessFactor":0.23394495248794556
			}
		}
	],
	"meshes":[
		{
			"name":"Cylinder",
			"primitives":[
				{
					"attributes":{
						"POSITION":0,
						"NORMAL":1,
						"TEXCOORD_0":2
					},
					"indices":3,
					"material":0
				}
			]
		},
		{
			"name":"Cylinder.001",
			"primitives":[
				{
					"attributes":{
						"POSITION":4,
						"NORMAL":5,
						"TEXCOORD_0":6
					},
					"indices":7
				}
			]
		},
		{
			"name":"Cube",
			"primitives":[
				{
					"attributes":{
						"POSITION":8,
						"NORMAL":9,
						"TEXCOORD_0":10
					},
					"indices":11,
					"material":1
				}
			]
		},
		{
			"name":"Cube.002",
			"primitives":[
				{
					"attributes":{
						"POSITION":12,
						"NORMAL":13,
						"TEXCOORD_0":14
					},
					"indices":15,
					"material":1
				}
			]
		},
		{
			"name":"Cylinder.002",
			"primitives":[
				{
					"attributes":{
						"POSITION":16,
						"NORMAL":17,
						"TEXCOORD_0":18
					},
					"indices":3,
					"material":0
				}
			]
		}
	],
	"accessors":[
		{
			"bufferView":0,
			"componentType":5126,
			"count":130,
			"max":[
				1,
				1,
				1
			],
			"min":[
				-1,
				-1,
				-1
			],
			"type":"VEC3"
		},
		{
			"bufferView":1,
			"componentType":5126,
			"count":130,
			"type":"VEC3"
		},
		{
			"bufferView":2,
			"componentType":5126,
			"count":130,
			"type":"VEC2"
		},
		{
			"bufferView":3,
			"componentType":5123,
			"count":372,
			"type":"SCALAR"
		},
		{
			"bufferView":4,
			"componentType":5126,
			"count":192,
			"max":[
				1,
				1,
				1
			],
			"min":[
				-1,
				-1,
				-1
			],
			"type":"VEC3"
		},
		{
			"bufferView":5,
			"componentType":5126,
			"count":192,
			"type":"VEC3"
		},
		{
			"bufferView":6,
			"componentType":5126,
			"count":192,
			"type":"VEC2"
		},
		{
			"bufferView":7,
			"componentType":5123,
			"count":372,
			"type":"SCALAR"
		},
		{
			"bufferView":8,
			"componentType":5126,
			"count":40,
			"max":[
				0.9999999403953552,
				0.34906506538391113,
				0.9999999403953552
			],
			"min":[
				-0.9999999403953552,
				-0.3490700125694275,
				-0.9999999403953552
			],
			"type":"VEC3"
		},
		{
			"bufferView":9,
			"componentType":5126,
			"count":40,
			"type":"VEC3"
		},
		{
			"bufferView":10,
			"componentType":5126,
			"count":40,
			"type":"VEC2"
		},
		{
			"bufferView":11,
			"componentType":5123,
			"count":60,
			"type":"SCALAR"
		},
		{
			"bufferView":12,
			"componentType":5126,
			"count":210,
			"max":[
				0.5652722716331482,
				0.21648581326007843,
				2.040614128112793
			],
			"min":[
				-0.5652722716331482,
				-0.18761849403381348,
				-2.040614128112793
			],
			"type":"VEC3"
		},
		{
			"bufferView":13,
			"componentType":5126,
			"count":210,
			"type":"VEC3"
		},
		{
			"bufferView":14,
			"componentType":5126,
			"count":210,
			"type":"VEC2"
		},
		{
			"bufferView":15,
			"componentType":5123,
			"count":324,
			"type":"SCALAR"
		},
		{
			"bufferView":16,
			"componentType":5126,
			"count":130,
			"max":[
				1,
				1,
				1
			],
			"min":[
				-1,
				-1,
				-1
			],
			"type":"VEC3"
		},
		{
			"bufferView":17,
			"componentType":5126,
			"count":130,
			"type":"VEC3"
		},
		{
			"bufferView":18,
			"componentType":5126,
			"count":130,
			"type":"VEC2"
		}
	],
	"bufferViews":[
		{
			"buffer":0,
			"byteLength":1560,
			"byteOffset":0,
			"target":34962
		},
		{
			"buffer":0,
			"byteLength":1560,
			"byteOffset":1560,
			"target":34962
		},
		{
			"buffer":0,
			"byteLength":1040,
			"byteOffset":3120,
			"target":34962
		},
		{
			"buffer":0,
			"byteLength":744,
			"byteOffset":4160,
			"target":34963
		},
		{
			"buffer":0,
			"byteLength":2304,
			"byteOffset":4904,
			"target":34962
		},
		{
			"buffer":0,
			"byteLength":2304,
			"byteOffset":7208,
			"target":34962
		},
		{
			"buffer":0,
			"byteLength":1536,
			"byteOffset":9512,
			"target":34962
		},
		{
			"buffer":0,
			"byteLength":744,
			"byteOffset":11048,
			"target":34963
		},
		{
			"buffer":0,
			"byteLength":480,
			"byteOffset":11792,
			"target":34962
		},
		{
			"buffer":0,
			"byteLength":480,
			"byteOffset":12272,
			"target":34962
		},
		{
			"buffer":0,
			"byteLength":320,
			"byteOffset":12752,
			"target":34962
		},
		{
			"buffer":0,
			"byteLength":120,
			"byteOffset":13072,
			"target":34963
		},
		{
			"buffer":0,
			"byteLength":2520,
			"byteOffset":13192,
			"target":34962
		},
		{
			"buffer":0,
			"byteLength":2520,
			"byteOffset":15712,
			"target":34962
		},
		{
			"buffer":0,
			"byteLength":1680,
			"byteOffset":18232,
			"target":34962
		},
		{
			"buffer":0,
			"byteLength":648,
			"byteOffset":19912,
			"target":34963
		},
		{
			"buffer":0,
			"byteLength":1560,
			"byteOffset":20560,
			"target":34962
		},
		{
			"buffer":0,
			"byteLength":1560,
			"byteOffset":22120,
			"target":34962
		},
		{
			"buffer":0,
			"byteLength":1040,
			"byteOffset":23680,
			"target":34962
		}
	],
	"buffers":[
		{
			"byteLength":24720,
			"uri":"ceilingLampFlickering._bearb_CC0.bin"
		}
	]
}
