{
	"asset":{
		"generator":"Khronos glTF Blender I/O v3.6.27",
		"version":"2.0"
	},
	"scene":0,
	"scenes":[
		{
			"name":"Scene",
			"nodes":[
				0
			]
		}
	],
	"nodes":[
		{
			"mesh":0,
			"name":"079_3"
		}
	],
	"materials":[
		{
			"doubleSided":true,
			"emissiveFactor":[
				0.0010000000474974513,
				0.0010000000474974513,
				0.0010000000474974513
			],
			"name":"079_computer_2",
			"pbrMetallicRoughness":{
				"baseColorTexture":{
					"index":0
				},
				"metallicFactor":0,
				"roughnessFactor":0.6666666865348816
			}
		},
		{
			"doubleSided":true,
			"emissiveFactor":[
				0.0010000000474974513,
				0.0010000000474974513,
				0.0010000000474974513
			],
			"name":"079_computer_1",
			"pbrMetallicRoughness":{
				"baseColorTexture":{
					"index":1
				},
				"metallicFactor":0,
				"roughnessFactor":0.6666666865348816
			}
		},
		{
			"doubleSided":true,
			"name":"black",
			"pbrMetallicRoughness":{
				"baseColorFactor":[
					0.0010000000474974513,
					0.0010000000474974513,
					0.0010000000474974513,
					1
				],
				"metallicFactor":0,
				"roughnessFactor":0.6666666865348816
			}
		}
	],
	"meshes":[
		{
			"name":"079_3",
			"primitives":[
				{
					"attributes":{
						"POSITION":0,
						"NORMAL":1,
						"TEXCOORD_0":2
					},
					"indices":3,
					"material":0
				},
				{
					"attributes":{
						"POSITION":4,
						"NORMAL":5,
						"TEXCOORD_0":6
					},
					"indices":7,
					"material":1
				},
				{
					"attributes":{
						"POSITION":8,
						"NORMAL":9,
						"TEXCOORD_0":10
					},
					"indices":11,
					"material":2
				}
			]
		}
	],
	"textures":[
		{
			"sampler":0,
			"source":0
		},
		{
			"sampler":0,
			"source":1
		}
	],
	"images":[
		{
			"mimeType":"image/png",
			"name":"079_computer_2",
			"uri":"079_computer_2.png"
		},
		{
			"mimeType":"image/png",
			"name":"079_computer_1_nocopyright",
			"uri":"079_computer_1_nocopyright.png"
		}
	],
	"accessors":[
		{
			"bufferView":0,
			"componentType":5126,
			"count":2452,
			"max":[
				0.12485699355602264,
				0.04735703021287918,
				0.0992981344461441
			],
			"min":[
				-0.1491309106349945,
				-2.5241000400910707e-08,
				-0.07843992859125137
			],
			"type":"VEC3"
		},
		{
			"bufferView":1,
			"componentType":5126,
			"count":2452,
			"type":"VEC3"
		},
		{
			"bufferView":2,
			"componentType":5126,
			"count":2452,
			"type":"VEC2"
		},
		{
			"bufferView":3,
			"componentType":5123,
			"count":5406,
			"type":"SCALAR"
		},
		{
			"bufferView":4,
			"componentType":5126,
			"count":581,
			"max":[
				0.1237262487411499,
				0.04735703021287918,
				0.0992981344461441
			],
			"min":[
				-0.14800158143043518,
				0.0037087444216012955,
				-0.07843992859125137
			],
			"type":"VEC3"
		},
		{
			"bufferView":5,
			"componentType":5126,
			"count":581,
			"type":"VEC3"
		},
		{
			"bufferView":6,
			"componentType":5126,
			"count":581,
			"type":"VEC2"
		},
		{
			"bufferView":7,
			"componentType":5123,
			"count":2079,
			"type":"SCALAR"
		},
		{
			"bufferView":8,
			"componentType":5126,
			"count":297,
			"max":[
				0.12485699355602264,
				0.0410844162106514,
				0.09929811954498291
			],
			"min":[
				-0.1491309106349945,
				-2.5241000400910707e-08,
				-0.07843587547540665
			],
			"type":"VEC3"
		},
		{
			"bufferView":9,
			"componentType":5126,
			"count":297,
			"type":"VEC3"
		},
		{
			"bufferView":10,
			"componentType":5126,
			"count":297,
			"type":"VEC2"
		},
		{
			"bufferView":11,
			"componentType":5123,
			"count":732,
			"type":"SCALAR"
		}
	],
	"bufferViews":[
		{
			"buffer":0,
			"byteLength":29424,
			"byteOffset":0,
			"target":34962
		},
		{
			"buffer":0,
			"byteLength":29424,
			"byteOffset":29424,
			"target":34962
		},
		{
			"buffer":0,
			"byteLength":19616,
			"byteOffset":58848,
			"target":34962
		},
		{
			"buffer":0,
			"byteLength":10812,
			"byteOffset":78464,
			"target":34963
		},
		{
			"buffer":0,
			"byteLength":6972,
			"byteOffset":89276,
			"target":34962
		},
		{
			"buffer":0,
			"byteLength":6972,
			"byteOffset":96248,
			"target":34962
		},
		{
			"buffer":0,
			"byteLength":4648,
			"byteOffset":103220,
			"target":34962
		},
		{
			"buffer":0,
			"byteLength":4158,
			"byteOffset":107868,
			"target":34963
		},
		{
			"buffer":0,
			"byteLength":3564,
			"byteOffset":112028,
			"target":34962
		},
		{
			"buffer":0,
			"byteLength":3564,
			"byteOffset":115592,
			"target":34962
		},
		{
			"buffer":0,
			"byteLength":2376,
			"byteOffset":119156,
			"target":34962
		},
		{
			"buffer":0,
			"byteLength":1464,
			"byteOffset":121532,
			"target":34963
		}
	],
	"samplers":[
		{
			"magFilter":9729,
			"minFilter":9987
		}
	],
	"buffers":[
		{
			"byteLength":122996,
			"uri":"scp079computer.bin"
		}
	]
}
