{
    "asset" : {
        "generator" : "Khronos glTF Blender I/O v1.7.33",
        "version" : "2.0"
    },
    "scene" : 0,
    "scenes" : [
        {
            "name" : "Scene",
            "nodes" : [
                8
            ]
        }
    ],
    "nodes" : [
        {
            "mesh" : 0,
            "name" : "scp914_dial_new"
        },
        {
            "mesh" : 1,
            "name" : "gearset_planet1"
        },
        {
            "mesh" : 2,
            "name" : "gearset_planet2"
        },
        {
            "mesh" : 3,
            "name" : "gearset_planet3"
        },
        {
            "children" : [
                1,
                2,
                3
            ],
            "mesh" : 4,
            "name" : "gearset_carrier"
        },
        {
            "mesh" : 5,
            "name" : "gearset_ring1"
        },
        {
            "mesh" : 6,
            "name" : "gearset_sun1"
        },
        {
            "children" : [
                4,
                5,
                6
            ],
            "name" : "scp914_epicyclical_planetary_gearset"
        },
        {
            "children" : [
                0,
                7
            ],
            "name" : "SCP914_device_gears",
            "rotation" : [
                0.7071068286895752,
                0,
                0,
                0.7071067094802856
            ],
            "scale" : [
                0.009999999776482582,
                0.009999999776482582,
                0.009999999776482582
            ]
        }
    ],
    "materials" : [
        {
            "doubleSided" : true,
            "name" : "dial",
            "normalTexture" : {
                "index" : 0
            },
            "pbrMetallicRoughness" : {
                "baseColorTexture" : {
                    "index" : 1
                },
                "metallicRoughnessTexture" : {
                    "index" : 2
                },
                "roughnessFactor" : 0.5527864098548889
            }
        },
        {
            "doubleSided" : true,
            "name" : "gearset",
            "normalTexture" : {
                "index" : 3
            },
            "pbrMetallicRoughness" : {
                "baseColorTexture" : {
                    "index" : 4
                },
                "metallicRoughnessTexture" : {
                    "index" : 5
                },
                "roughnessFactor" : 0.5527864098548889
            }
        }
    ],
    "meshes" : [
        {
            "name" : "Mesh",
            "primitives" : [
                {
                    "attributes" : {
                        "POSITION" : 0,
                        "NORMAL" : 1,
                        "TEXCOORD_0" : 2
                    },
                    "indices" : 3,
                    "material" : 0
                }
            ]
        },
        {
            "name" : "Mesh.005",
            "primitives" : [
                {
                    "attributes" : {
                        "POSITION" : 4,
                        "NORMAL" : 5,
                        "TEXCOORD_0" : 6
                    },
                    "indices" : 7,
                    "material" : 1
                }
            ]
        },
        {
            "name" : "Mesh.004",
            "primitives" : [
                {
                    "attributes" : {
                        "POSITION" : 8,
                        "NORMAL" : 9,
                        "TEXCOORD_0" : 10
                    },
                    "indices" : 11,
                    "material" : 1
                }
            ]
        },
        {
            "name" : "Mesh.003",
            "primitives" : [
                {
                    "attributes" : {
                        "POSITION" : 12,
                        "NORMAL" : 13,
                        "TEXCOORD_0" : 14
                    },
                    "indices" : 15,
                    "material" : 1
                }
            ]
        },
        {
            "name" : "Mesh.002",
            "primitives" : [
                {
                    "attributes" : {
                        "POSITION" : 16,
                        "NORMAL" : 17,
                        "TEXCOORD_0" : 18
                    },
                    "indices" : 19,
                    "material" : 1
                }
            ]
        },
        {
            "name" : "Mesh.001",
            "primitives" : [
                {
                    "attributes" : {
                        "POSITION" : 20,
                        "NORMAL" : 21,
                        "TEXCOORD_0" : 22
                    },
                    "indices" : 23,
                    "material" : 1
                }
            ]
        },
        {
            "name" : "Mesh.006",
            "primitives" : [
                {
                    "attributes" : {
                        "POSITION" : 24,
                        "NORMAL" : 25,
                        "TEXCOORD_0" : 26
                    },
                    "indices" : 27,
                    "material" : 1
                }
            ]
        }
    ],
    "textures" : [
        {
            "sampler" : 0,
            "source" : 0
        },
        {
            "sampler" : 0,
            "source" : 1
        },
        {
            "sampler" : 0,
            "source" : 2
        },
        {
            "sampler" : 0,
            "source" : 3
        },
        {
            "sampler" : 0,
            "source" : 4
        },
        {
            "sampler" : 0,
            "source" : 5
        }
    ],
    "images" : [
        {
            "mimeType" : "image/png",
            "name" : "scp914_device_dial_Normal",
            "uri" : "scp914_device_dial_Normal.png"
        },
        {
            "mimeType" : "image/png",
            "name" : "scp914_device_dial_AlbedoTransparency",
            "uri" : "scp914_device_dial_AlbedoTransparency.png"
        },
        {
            "mimeType" : "image/png",
            "name" : "scp914_device_dial_MetallicSmoothness",
            "uri" : "scp914_device_dial_MetallicSmoothness.png"
        },
        {
            "mimeType" : "image/png",
            "name" : "scp914_device_gearset_Normal",
            "uri" : "scp914_device_gearset_Normal.png"
        },
        {
            "mimeType" : "image/png",
            "name" : "scp914_device_gearset_AlbedoTransparency",
            "uri" : "scp914_device_gearset_AlbedoTransparency.png"
        },
        {
            "mimeType" : "image/png",
            "name" : "scp914_device_gearset_MetallicSmoothness",
            "uri" : "scp914_device_gearset_MetallicSmoothness.png"
        }
    ],
    "accessors" : [
        {
            "bufferView" : 0,
            "componentType" : 5126,
            "count" : 354,
            "max" : [
                0.559539794921875,
                0.5650311708450317,
                0.5629191398620605
            ],
            "min" : [
                -0.559539794921875,
                0.2477022409439087,
                -0.6916716694831848
            ],
            "type" : "VEC3"
        },
        {
            "bufferView" : 1,
            "componentType" : 5126,
            "count" : 354,
            "type" : "VEC3"
        },
        {
            "bufferView" : 2,
            "componentType" : 5126,
            "count" : 354,
            "type" : "VEC2"
        },
        {
            "bufferView" : 3,
            "componentType" : 5123,
            "count" : 1110,
            "type" : "SCALAR"
        },
        {
            "bufferView" : 4,
            "componentType" : 5126,
            "count" : 816,
            "max" : [
                -0.39815524220466614,
                0.09134645760059357,
                -0.06463818997144699
            ],
            "min" : [
                -1.0349717140197754,
                -0.057972028851509094,
                -0.7014546394348145
            ],
            "type" : "VEC3"
        },
        {
            "bufferView" : 5,
            "componentType" : 5126,
            "count" : 816,
            "type" : "VEC3"
        },
        {
            "bufferView" : 6,
            "componentType" : 5126,
            "count" : 816,
            "type" : "VEC2"
        },
        {
            "bufferView" : 7,
            "componentType" : 5123,
            "count" : 2880,
            "type" : "SCALAR"
        },
        {
            "bufferView" : 8,
            "componentType" : 5126,
            "count" : 816,
            "max" : [
                1.0349931716918945,
                0.09134645760059357,
                -0.06461675465106964
            ],
            "min" : [
                0.3981338143348694,
                -0.057972028851509094,
                -0.701475977897644
            ],
            "type" : "VEC3"
        },
        {
            "bufferView" : 9,
            "componentType" : 5126,
            "count" : 816,
            "type" : "VEC3"
        },
        {
            "bufferView" : 10,
            "componentType" : 5126,
            "count" : 816,
            "type" : "VEC2"
        },
        {
            "bufferView" : 11,
            "componentType" : 5123,
            "count" : 2880,
            "type" : "SCALAR"
        },
        {
            "bufferView" : 12,
            "componentType" : 5126,
            "count" : 816,
            "max" : [
                0.31836432218551636,
                0.09134645760059357,
                1.1295936107635498
            ],
            "min" : [
                -0.315786212682724,
                -0.057972028851509094,
                0.49544304609298706
            ],
            "type" : "VEC3"
        },
        {
            "bufferView" : 13,
            "componentType" : 5126,
            "count" : 816,
            "type" : "VEC3"
        },
        {
            "bufferView" : 14,
            "componentType" : 5126,
            "count" : 816,
            "type" : "VEC2"
        },
        {
            "bufferView" : 15,
            "componentType" : 5123,
            "count" : 2880,
            "type" : "SCALAR"
        },
        {
            "bufferView" : 16,
            "componentType" : 5126,
            "count" : 5082,
            "max" : [
                0.907798171043396,
                0.42131584882736206,
                1.0049465894699097
            ],
            "min" : [
                -0.907798171043396,
                -0.21417465806007385,
                -0.6696891784667969
            ],
            "type" : "VEC3"
        },
        {
            "bufferView" : 17,
            "componentType" : 5126,
            "count" : 5082,
            "type" : "VEC3"
        },
        {
            "bufferView" : 18,
            "componentType" : 5126,
            "count" : 5082,
            "type" : "VEC2"
        },
        {
            "bufferView" : 19,
            "componentType" : 5123,
            "count" : 12660,
            "type" : "SCALAR"
        },
        {
            "bufferView" : 20,
            "componentType" : 5126,
            "count" : 2800,
            "max" : [
                1.3708122968673706,
                0.0395842045545578,
                1.370812177658081
            ],
            "min" : [
                -1.370811939239502,
                -0.19277238845825195,
                -1.3708117008209229
            ],
            "type" : "VEC3"
        },
        {
            "bufferView" : 21,
            "componentType" : 5126,
            "count" : 2800,
            "type" : "VEC3"
        },
        {
            "bufferView" : 22,
            "componentType" : 5126,
            "count" : 2800,
            "type" : "VEC2"
        },
        {
            "bufferView" : 23,
            "componentType" : 5123,
            "count" : 10200,
            "type" : "SCALAR"
        },
        {
            "bufferView" : 24,
            "componentType" : 5126,
            "count" : 1144,
            "max" : [
                0.5498729944229126,
                0.08594447374343872,
                0.5498729944229126
            ],
            "min" : [
                -0.5498729348182678,
                -0.08594447374343872,
                -0.5498729944229126
            ],
            "type" : "VEC3"
        },
        {
            "bufferView" : 25,
            "componentType" : 5126,
            "count" : 1144,
            "type" : "VEC3"
        },
        {
            "bufferView" : 26,
            "componentType" : 5126,
            "count" : 1144,
            "type" : "VEC2"
        },
        {
            "bufferView" : 27,
            "componentType" : 5123,
            "count" : 3744,
            "type" : "SCALAR"
        }
    ],
    "bufferViews" : [
        {
            "buffer" : 0,
            "byteLength" : 4248,
            "byteOffset" : 0
        },
        {
            "buffer" : 0,
            "byteLength" : 4248,
            "byteOffset" : 4248
        },
        {
            "buffer" : 0,
            "byteLength" : 2832,
            "byteOffset" : 8496
        },
        {
            "buffer" : 0,
            "byteLength" : 2220,
            "byteOffset" : 11328
        },
        {
            "buffer" : 0,
            "byteLength" : 9792,
            "byteOffset" : 13548
        },
        {
            "buffer" : 0,
            "byteLength" : 9792,
            "byteOffset" : 23340
        },
        {
            "buffer" : 0,
            "byteLength" : 6528,
            "byteOffset" : 33132
        },
        {
            "buffer" : 0,
            "byteLength" : 5760,
            "byteOffset" : 39660
        },
        {
            "buffer" : 0,
            "byteLength" : 9792,
            "byteOffset" : 45420
        },
        {
            "buffer" : 0,
            "byteLength" : 9792,
            "byteOffset" : 55212
        },
        {
            "buffer" : 0,
            "byteLength" : 6528,
            "byteOffset" : 65004
        },
        {
            "buffer" : 0,
            "byteLength" : 5760,
            "byteOffset" : 71532
        },
        {
            "buffer" : 0,
            "byteLength" : 9792,
            "byteOffset" : 77292
        },
        {
            "buffer" : 0,
            "byteLength" : 9792,
            "byteOffset" : 87084
        },
        {
            "buffer" : 0,
            "byteLength" : 6528,
            "byteOffset" : 96876
        },
        {
            "buffer" : 0,
            "byteLength" : 5760,
            "byteOffset" : 103404
        },
        {
            "buffer" : 0,
            "byteLength" : 60984,
            "byteOffset" : 109164
        },
        {
            "buffer" : 0,
            "byteLength" : 60984,
            "byteOffset" : 170148
        },
        {
            "buffer" : 0,
            "byteLength" : 40656,
            "byteOffset" : 231132
        },
        {
            "buffer" : 0,
            "byteLength" : 25320,
            "byteOffset" : 271788
        },
        {
            "buffer" : 0,
            "byteLength" : 33600,
            "byteOffset" : 297108
        },
        {
            "buffer" : 0,
            "byteLength" : 33600,
            "byteOffset" : 330708
        },
        {
            "buffer" : 0,
            "byteLength" : 22400,
            "byteOffset" : 364308
        },
        {
            "buffer" : 0,
            "byteLength" : 20400,
            "byteOffset" : 386708
        },
        {
            "buffer" : 0,
            "byteLength" : 13728,
            "byteOffset" : 407108
        },
        {
            "buffer" : 0,
            "byteLength" : 13728,
            "byteOffset" : 420836
        },
        {
            "buffer" : 0,
            "byteLength" : 9152,
            "byteOffset" : 434564
        },
        {
            "buffer" : 0,
            "byteLength" : 7488,
            "byteOffset" : 443716
        }
    ],
    "samplers" : [
        {
            "magFilter" : 9729,
            "minFilter" : 9987
        }
    ],
    "buffers" : [
        {
            "byteLength" : 451204,
            "uri" : "scp914gears.bin"
        }
    ]
}
