{
	"asset":{
		"generator":"Khronos glTF Blender I/O v3.6.27",
		"version":"2.0"
	},
	"scene":0,
	"scenes":[
		{
			"name":"Scene",
			"nodes":[
				0,
				1,
				2,
				3
			]
		}
	],
	"nodes":[
		{
			"mesh":0,
			"name":"scp173_MESH_cell",
			"translation":[
				-0.08593422174453735,
				1.9392671585083008,
				0.06742172688245773
			]
		},
		{
			"mesh":1,
			"name":"scp173_MESH_cell.001",
			"translation":[
				-0.030550837516784668,
				0.6289359331130981,
				-0.02725067362189293
			]
		},
		{
			"mesh":2,
			"name":"scp173_MESH_cell.002",
			"translation":[
				0.35753196477890015,
				1.8748985528945923,
				0.030224371701478958
			]
		},
		{
			"mesh":3,
			"name":"scp173_MESH",
			"rotation":[
				0.70710688829422,
				0,
				0,
				0.7071066498756409
			],
			"scale":[
				0.5499999523162842,
				0.550000011920929,
				0.5499999523162842
			],
			"translation":[
				0,
				1.2897793054580688,
				0
			]
		}
	],
	"materials":[
		{
			"doubleSided":true,
			"name":"phong2",
			"normalTexture":{
				"index":0
			},
			"pbrMetallicRoughness":{
				"baseColorTexture":{
					"index":1
				},
				"metallicRoughnessTexture":{
					"index":2
				}
			}
		}
	],
	"meshes":[
		{
			"name":"scp173_MESH_cell.002",
			"primitives":[
				{
					"attributes":{
						"POSITION":0,
						"NORMAL":1,
						"TEXCOORD_0":2
					},
					"indices":3,
					"material":0
				}
			]
		},
		{
			"name":"scp173_MESH_cell.003",
			"primitives":[
				{
					"attributes":{
						"POSITION":4,
						"NORMAL":5,
						"TEXCOORD_0":6
					},
					"indices":7,
					"material":0
				}
			]
		},
		{
			"name":"scp173_MESH_cell.001",
			"primitives":[
				{
					"attributes":{
						"POSITION":8,
						"NORMAL":9,
						"TEXCOORD_0":10
					},
					"indices":11,
					"material":0
				}
			]
		},
		{
			"name":"Untitled",
			"primitives":[
				{
					"attributes":{
						"POSITION":12,
						"NORMAL":13,
						"TEXCOORD_0":14
					},
					"indices":15,
					"material":0
				}
			]
		}
	],
	"textures":[
		{
			"sampler":0,
			"source":0
		},
		{
			"sampler":0,
			"source":1
		},
		{
			"sampler":0,
			"source":2
		}
	],
	"images":[
		{
			"mimeType":"image/png",
			"name":"scp173NEO_low_Merged_PM3D_Sphere3D4_Normal",
			"uri":"scp173NEO_low_Merged_PM3D_Sphere3D4_Normal.png"
		},
		{
			"mimeType":"image/png",
			"name":"scp173NEO_low_Merged_PM3D_Sphere3D4_AlbedoTransparency",
			"uri":"scp173NEO_low_Merged_PM3D_Sphere3D4_AlbedoTransparency.png"
		},
		{
			"mimeType":"image/png",
			"name":"scp173NEO_low_Merged_PM3D_Sphere3D4_MetallicSmoothness",
			"uri":"scp173NEO_low_Merged_PM3D_Sphere3D4_MetallicSmoothness.png"
		}
	],
	"accessors":[
		{
			"bufferView":0,
			"componentType":5126,
			"count":5614,
			"max":[
				0.3783382773399353,
				0.9191077947616577,
				0.3020833432674408
			],
			"min":[
				-0.4120554029941559,
				-1.1977280378341675,
				-0.28884223103523254
			],
			"type":"VEC3"
		},
		{
			"bufferView":1,
			"componentType":5126,
			"count":5614,
			"type":"VEC3"
		},
		{
			"bufferView":2,
			"componentType":5126,
			"count":5614,
			"type":"VEC2"
		},
		{
			"bufferView":3,
			"componentType":5123,
			"count":30822,
			"type":"SCALAR"
		},
		{
			"bufferView":4,
			"componentType":5126,
			"count":2013,
			"max":[
				0.3888694643974304,
				0.7969938516616821,
				0.30941706895828247
			],
			"min":[
				-0.34623655676841736,
				-0.6472346782684326,
				-0.5752005577087402
			],
			"type":"VEC3"
		},
		{
			"bufferView":5,
			"componentType":5126,
			"count":2013,
			"type":"VEC3"
		},
		{
			"bufferView":6,
			"componentType":5126,
			"count":2013,
			"type":"VEC2"
		},
		{
			"bufferView":7,
			"componentType":5123,
			"count":10500,
			"type":"SCALAR"
		},
		{
			"bufferView":8,
			"componentType":5126,
			"count":1475,
			"max":[
				0.14045768976211548,
				0.3444523215293884,
				0.09055294096469879
			],
			"min":[
				-0.21606165170669556,
				-0.6366252303123474,
				-0.09014210104942322
			],
			"type":"VEC3"
		},
		{
			"bufferView":9,
			"componentType":5126,
			"count":1475,
			"type":"VEC3"
		},
		{
			"bufferView":10,
			"componentType":5126,
			"count":1475,
			"type":"VEC2"
		},
		{
			"bufferView":11,
			"componentType":5123,
			"count":8016,
			"type":"SCALAR"
		},
		{
			"bufferView":12,
			"componentType":5126,
			"count":8495,
			"max":[
				0.9054357409477234,
				0.6718273758888245,
				2.378324031829834
			],
			"min":[
				-0.9054357409477234,
				-1.0953657627105713,
				-2.85199236869812
			],
			"type":"VEC3"
		},
		{
			"bufferView":13,
			"componentType":5126,
			"count":8495,
			"type":"VEC3"
		},
		{
			"bufferView":14,
			"componentType":5126,
			"count":8495,
			"type":"VEC2"
		},
		{
			"bufferView":15,
			"componentType":5123,
			"count":48312,
			"type":"SCALAR"
		}
	],
	"bufferViews":[
		{
			"buffer":0,
			"byteLength":67368,
			"byteOffset":0,
			"target":34962
		},
		{
			"buffer":0,
			"byteLength":67368,
			"byteOffset":67368,
			"target":34962
		},
		{
			"buffer":0,
			"byteLength":44912,
			"byteOffset":134736,
			"target":34962
		},
		{
			"buffer":0,
			"byteLength":61644,
			"byteOffset":179648,
			"target":34963
		},
		{
			"buffer":0,
			"byteLength":24156,
			"byteOffset":241292,
			"target":34962
		},
		{
			"buffer":0,
			"byteLength":24156,
			"byteOffset":265448,
			"target":34962
		},
		{
			"buffer":0,
			"byteLength":16104,
			"byteOffset":289604,
			"target":34962
		},
		{
			"buffer":0,
			"byteLength":21000,
			"byteOffset":305708,
			"target":34963
		},
		{
			"buffer":0,
			"byteLength":17700,
			"byteOffset":326708,
			"target":34962
		},
		{
			"buffer":0,
			"byteLength":17700,
			"byteOffset":344408,
			"target":34962
		},
		{
			"buffer":0,
			"byteLength":11800,
			"byteOffset":362108,
			"target":34962
		},
		{
			"buffer":0,
			"byteLength":16032,
			"byteOffset":373908,
			"target":34963
		},
		{
			"buffer":0,
			"byteLength":101940,
			"byteOffset":389940,
			"target":34962
		},
		{
			"buffer":0,
			"byteLength":101940,
			"byteOffset":491880,
			"target":34962
		},
		{
			"buffer":0,
			"byteLength":67960,
			"byteOffset":593820,
			"target":34962
		},
		{
			"buffer":0,
			"byteLength":96624,
			"byteOffset":661780,
			"target":34963
		}
	],
	"samplers":[
		{
			"magFilter":9729,
			"minFilter":9987
		}
	],
	"buffers":[
		{
			"byteLength":758404,
			"uri":"SCP_173_fracture.bin"
		}
	]
}
