{
	"asset":{
		"generator":"Khronos glTF Blender I/O v3.6.27",
		"version":"2.0"
	},
	"extensionsUsed":[
		"KHR_materials_specular",
		"KHR_materials_ior"
	],
	"scene":0,
	"scenes":[
		{
			"name":"Scene",
			"nodes":[
				0
			]
		}
	],
	"nodes":[
		{
			"mesh":0,
			"name":"LC_cont2_650",
			"rotation":[
				0.7071068286895752,
				0,
				0,
				0.7071068286895752
			]
		}
	],
	"materials":[
		{
			"doubleSided":true,
			"extensions":{
				"KHR_materials_specular":{
					"specularColorFactor":[
						2.371357614441398,
						2.371357614441398,
						2.371357614441398
					]
				},
				"KHR_materials_ior":{
					"ior":1.4500000476837158
				}
			},
			"name":"mat0",
			"pbrMetallicRoughness":{
				"baseColorTexture":{
					"index":0
				},
				"metallicFactor":0,
				"roughnessFactor":0.9505894184112549
			}
		},
		{
			"doubleSided":true,
			"extensions":{
				"KHR_materials_specular":{
					"specularColorFactor":[
						2.371357614441398,
						2.371357614441398,
						2.371357614441398
					]
				},
				"KHR_materials_ior":{
					"ior":1.4500000476837158
				}
			},
			"name":"mat1",
			"pbrMetallicRoughness":{
				"baseColorTexture":{
					"index":1
				},
				"metallicFactor":0,
				"roughnessFactor":0.9505894184112549
			}
		},
		{
			"doubleSided":true,
			"extensions":{
				"KHR_materials_specular":{
					"specularColorFactor":[
						2.371357614441398,
						2.371357614441398,
						2.371357614441398
					]
				},
				"KHR_materials_ior":{
					"ior":1.4500000476837158
				}
			},
			"name":"mat2",
			"pbrMetallicRoughness":{
				"baseColorTexture":{
					"index":2
				},
				"metallicFactor":0,
				"roughnessFactor":0.9505894184112549
			}
		},
		{
			"doubleSided":true,
			"extensions":{
				"KHR_materials_specular":{
					"specularColorFactor":[
						2.371357614441398,
						2.371357614441398,
						2.371357614441398
					]
				},
				"KHR_materials_ior":{
					"ior":1.4500000476837158
				}
			},
			"name":"mat3",
			"pbrMetallicRoughness":{
				"baseColorTexture":{
					"index":3
				},
				"metallicFactor":0,
				"roughnessFactor":0.9505894184112549
			}
		},
		{
			"doubleSided":true,
			"extensions":{
				"KHR_materials_specular":{
					"specularColorFactor":[
						2.371357614441398,
						2.371357614441398,
						2.371357614441398
					]
				},
				"KHR_materials_ior":{
					"ior":1.4500000476837158
				}
			},
			"name":"mat4",
			"pbrMetallicRoughness":{
				"baseColorTexture":{
					"index":4
				},
				"metallicFactor":0,
				"roughnessFactor":0.9505894184112549
			}
		},
		{
			"doubleSided":true,
			"extensions":{
				"KHR_materials_specular":{
					"specularColorFactor":[
						2.371357614441398,
						2.371357614441398,
						2.371357614441398
					]
				},
				"KHR_materials_ior":{
					"ior":1.4500000476837158
				}
			},
			"name":"mat5",
			"pbrMetallicRoughness":{
				"baseColorTexture":{
					"index":5
				},
				"metallicFactor":0,
				"roughnessFactor":0.9505894184112549
			}
		},
		{
			"doubleSided":true,
			"extensions":{
				"KHR_materials_specular":{
					"specularColorFactor":[
						2.371357614441398,
						2.371357614441398,
						2.371357614441398
					]
				},
				"KHR_materials_ior":{
					"ior":1.4500000476837158
				}
			},
			"name":"mat6",
			"pbrMetallicRoughness":{
				"baseColorTexture":{
					"index":6
				},
				"metallicFactor":0,
				"roughnessFactor":0.9505894184112549
			}
		},
		{
			"doubleSided":true,
			"extensions":{
				"KHR_materials_specular":{
					"specularColorFactor":[
						2.371357614441398,
						2.371357614441398,
						2.371357614441398
					]
				},
				"KHR_materials_ior":{
					"ior":1.4500000476837158
				}
			},
			"name":"mat7",
			"pbrMetallicRoughness":{
				"baseColorTexture":{
					"index":7
				},
				"metallicFactor":0,
				"roughnessFactor":0.9505894184112549
			}
		},
		{
			"doubleSided":true,
			"extensions":{
				"KHR_materials_specular":{
					"specularColorFactor":[
						2.371357614441398,
						2.371357614441398,
						2.371357614441398
					]
				},
				"KHR_materials_ior":{
					"ior":1.4500000476837158
				}
			},
			"name":"mat8",
			"pbrMetallicRoughness":{
				"baseColorTexture":{
					"index":8
				},
				"metallicFactor":0,
				"roughnessFactor":0.9505894184112549
			}
		},
		{
			"doubleSided":true,
			"extensions":{
				"KHR_materials_specular":{
					"specularColorFactor":[
						2.371357614441398,
						2.371357614441398,
						2.371357614441398
					]
				},
				"KHR_materials_ior":{
					"ior":1.4500000476837158
				}
			},
			"name":"mat9",
			"pbrMetallicRoughness":{
				"baseColorTexture":{
					"index":9
				},
				"metallicFactor":0,
				"roughnessFactor":0.9505894184112549
			}
		},
		{
			"doubleSided":true,
			"extensions":{
				"KHR_materials_specular":{
					"specularColorFactor":[
						2.371357614441398,
						2.371357614441398,
						2.371357614441398
					]
				},
				"KHR_materials_ior":{
					"ior":1.4500000476837158
				}
			},
			"name":"mat10",
			"pbrMetallicRoughness":{
				"baseColorTexture":{
					"index":10
				},
				"metallicFactor":0,
				"roughnessFactor":0.9505894184112549
			}
		}
	],
	"meshes":[
		{
			"name":"LC_cont2_650",
			"primitives":[
				{
					"attributes":{
						"POSITION":0,
						"NORMAL":1,
						"TEXCOORD_0":2
					},
					"indices":3,
					"material":0
				},
				{
					"attributes":{
						"POSITION":4,
						"NORMAL":5,
						"TEXCOORD_0":6
					},
					"indices":7,
					"material":1
				},
				{
					"attributes":{
						"POSITION":8,
						"NORMAL":9,
						"TEXCOORD_0":10
					},
					"indices":11,
					"material":2
				},
				{
					"attributes":{
						"POSITION":12,
						"NORMAL":13,
						"TEXCOORD_0":14
					},
					"indices":15,
					"material":3
				},
				{
					"attributes":{
						"POSITION":16,
						"NORMAL":17,
						"TEXCOORD_0":18
					},
					"indices":19,
					"material":4
				},
				{
					"attributes":{
						"POSITION":20,
						"NORMAL":21,
						"TEXCOORD_0":22
					},
					"indices":23,
					"material":5
				},
				{
					"attributes":{
						"POSITION":24,
						"NORMAL":25,
						"TEXCOORD_0":26
					},
					"indices":27,
					"material":6
				},
				{
					"attributes":{
						"POSITION":28,
						"NORMAL":29,
						"TEXCOORD_0":30
					},
					"indices":23,
					"material":7
				},
				{
					"attributes":{
						"POSITION":31,
						"NORMAL":32,
						"TEXCOORD_0":33
					},
					"indices":34,
					"material":8
				},
				{
					"attributes":{
						"POSITION":35,
						"NORMAL":36,
						"TEXCOORD_0":37
					},
					"indices":38,
					"material":9
				},
				{
					"attributes":{
						"POSITION":39,
						"NORMAL":40,
						"TEXCOORD_0":41
					},
					"indices":42,
					"material":10
				}
			]
		}
	],
	"textures":[
		{
			"sampler":0,
			"source":0
		},
		{
			"sampler":0,
			"source":1
		},
		{
			"sampler":0,
			"source":2
		},
		{
			"sampler":0,
			"source":3
		},
		{
			"sampler":0,
			"source":4
		},
		{
			"sampler":0,
			"source":5
		},
		{
			"sampler":0,
			"source":6
		},
		{
			"sampler":0,
			"source":7
		},
		{
			"sampler":0,
			"source":8
		},
		{
			"sampler":0,
			"source":9
		},
		{
			"sampler":0,
			"source":10
		}
	],
	"images":[
		{
			"mimeType":"image/jpeg",
			"name":"whitewall_2k",
			"uri":"whitewall_2k.jpg"
		},
		{
			"mimeType":"image/jpeg",
			"name":"dirtymetal",
			"uri":"dirtymetal.jpg"
		},
		{
			"mimeType":"image/jpeg",
			"name":"misc",
			"uri":"misc.jpg"
		},
		{
			"mimeType":"image/jpeg",
			"name":"whitewall",
			"uri":"whitewall.jpg"
		},
		{
			"mimeType":"image/jpeg",
			"name":"concretefloor",
			"uri":"concretefloor.jpg"
		},
		{
			"mimeType":"image/jpeg",
			"name":"tilefloor",
			"uri":"tilefloor.jpg"
		},
		{
			"mimeType":"image/jpeg",
			"name":"controlpanel",
			"uri":"controlpanel.jpg"
		},
		{
			"mimeType":"image/jpeg",
			"name":"door01",
			"uri":"door01.jpg"
		},
		{
			"mimeType":"image/jpeg",
			"name":"metal",
			"uri":"metal.jpg"
		},
		{
			"mimeType":"image/jpeg",
			"name":"controlpanel2",
			"uri":"controlpanel2.jpg"
		},
		{
			"mimeType":"image/png",
			"name":"glass",
			"uri":"glass.png"
		}
	],
	"accessors":[
		{
			"bufferView":0,
			"componentType":5126,
			"count":576,
			"max":[
				2.5600008964538574,
				10.24000072479248,
				1.9999999949504854e-06
			],
			"min":[
				-10.239999771118164,
				-10.239999771118164,
				-3.8400020599365234
			],
			"type":"VEC3"
		},
		{
			"bufferView":1,
			"componentType":5126,
			"count":576,
			"type":"VEC3"
		},
		{
			"bufferView":2,
			"componentType":5126,
			"count":576,
			"type":"VEC2"
		},
		{
			"bufferView":3,
			"componentType":5123,
			"count":864,
			"type":"SCALAR"
		},
		{
			"bufferView":4,
			"componentType":5126,
			"count":2120,
			"max":[
				2.880000114440918,
				9.920001029968262,
				0.47999900579452515
			],
			"min":[
				-9.920000076293945,
				-8.800000190734863,
				-3.840001106262207
			],
			"type":"VEC3"
		},
		{
			"bufferView":5,
			"componentType":5126,
			"count":2120,
			"type":"VEC3"
		},
		{
			"bufferView":6,
			"componentType":5126,
			"count":2120,
			"type":"VEC2"
		},
		{
			"bufferView":7,
			"componentType":5123,
			"count":2958,
			"type":"SCALAR"
		},
		{
			"bufferView":8,
			"componentType":5126,
			"count":168,
			"max":[
				0.11043799668550491,
				9.59999942779541,
				-0.039997998625040054
			],
			"min":[
				-9.59999942779541,
				-6.599998950958252,
				-3.8686819076538086
			],
			"type":"VEC3"
		},
		{
			"bufferView":9,
			"componentType":5126,
			"count":168,
			"type":"VEC3"
		},
		{
			"bufferView":10,
			"componentType":5126,
			"count":168,
			"type":"VEC2"
		},
		{
			"bufferView":11,
			"componentType":5123,
			"count":252,
			"type":"SCALAR"
		},
		{
			"bufferView":12,
			"componentType":5126,
			"count":128,
			"max":[
				3.5199999809265137,
				10.239980697631836,
				1.9999999949504854e-06
			],
			"min":[
				2.240000009536743,
				-9.920001029968262,
				-3.8400020599365234
			],
			"type":"VEC3"
		},
		{
			"bufferView":13,
			"componentType":5126,
			"count":128,
			"type":"VEC3"
		},
		{
			"bufferView":14,
			"componentType":5126,
			"count":128,
			"type":"VEC2"
		},
		{
			"bufferView":15,
			"componentType":5123,
			"count":192,
			"type":"SCALAR"
		},
		{
			"bufferView":16,
			"componentType":5126,
			"count":60,
			"max":[
				2.559999942779541,
				10.24000072479248,
				-3.8399980068206787
			],
			"min":[
				-10.239999771118164,
				-10.239998817443848,
				-3.8500020503997803
			],
			"type":"VEC3"
		},
		{
			"bufferView":17,
			"componentType":5126,
			"count":60,
			"type":"VEC3"
		},
		{
			"bufferView":18,
			"componentType":5126,
			"count":60,
			"type":"VEC2"
		},
		{
			"bufferView":19,
			"componentType":5123,
			"count":90,
			"type":"SCALAR"
		},
		{
			"bufferView":20,
			"componentType":5126,
			"count":20,
			"max":[
				2.559999942779541,
				10.239999771118164,
				0.010002000257372856
			],
			"min":[
				-10.239999771118164,
				-10.239999771118164,
				-1.9999999949504854e-06
			],
			"type":"VEC3"
		},
		{
			"bufferView":21,
			"componentType":5126,
			"count":20,
			"type":"VEC3"
		},
		{
			"bufferView":22,
			"componentType":5126,
			"count":20,
			"type":"VEC2"
		},
		{
			"bufferView":23,
			"componentType":5123,
			"count":30,
			"type":"SCALAR"
		},
		{
			"bufferView":24,
			"componentType":5126,
			"count":120,
			"max":[
				-2.799999952316284,
				1.4600000381469727,
				0.00021899999410379678
			],
			"min":[
				-3.759999990463257,
				-1.1749999523162842,
				-3.039999008178711
			],
			"type":"VEC3"
		},
		{
			"bufferView":25,
			"componentType":5126,
			"count":120,
			"type":"VEC3"
		},
		{
			"bufferView":26,
			"componentType":5126,
			"count":120,
			"type":"VEC2"
		},
		{
			"bufferView":27,
			"componentType":5123,
			"count":180,
			"type":"SCALAR"
		},
		{
			"bufferView":28,
			"componentType":5126,
			"count":20,
			"max":[
				-10.074999809265137,
				-5.434998989105225,
				-9.999999974752427e-07
			],
			"min":[
				-10.085000038146973,
				-7.355000019073486,
				-3.2000010013580322
			],
			"type":"VEC3"
		},
		{
			"bufferView":29,
			"componentType":5126,
			"count":20,
			"type":"VEC3"
		},
		{
			"bufferView":30,
			"componentType":5126,
			"count":20,
			"type":"VEC2"
		},
		{
			"bufferView":31,
			"componentType":5126,
			"count":3056,
			"max":[
				-2.8249409198760986,
				9.674548149108887,
				0
			],
			"min":[
				-8.860000610351562,
				-2.240000009536743,
				-3.648474931716919
			],
			"type":"VEC3"
		},
		{
			"bufferView":32,
			"componentType":5126,
			"count":3056,
			"type":"VEC3"
		},
		{
			"bufferView":33,
			"componentType":5126,
			"count":3056,
			"type":"VEC2"
		},
		{
			"bufferView":34,
			"componentType":5123,
			"count":4656,
			"type":"SCALAR"
		},
		{
			"bufferView":35,
			"componentType":5126,
			"count":44,
			"max":[
				2.7205989360809326,
				-7.19999885559082,
				-1.3600009679794312
			],
			"min":[
				2.3105990886688232,
				-8.800000190734863,
				-2.8000009059906006
			],
			"type":"VEC3"
		},
		{
			"bufferView":36,
			"componentType":5126,
			"count":44,
			"type":"VEC3"
		},
		{
			"bufferView":37,
			"componentType":5126,
			"count":44,
			"type":"VEC2"
		},
		{
			"bufferView":38,
			"componentType":5123,
			"count":66,
			"type":"SCALAR"
		},
		{
			"bufferView":39,
			"componentType":5126,
			"count":48,
			"max":[
				-3.0399999618530273,
				2.0799999237060547,
				-1.2799999713897705
			],
			"min":[
				-6.860000133514404,
				2.069999933242798,
				-3.200000047683716
			],
			"type":"VEC3"
		},
		{
			"bufferView":40,
			"componentType":5126,
			"count":48,
			"type":"VEC3"
		},
		{
			"bufferView":41,
			"componentType":5126,
			"count":48,
			"type":"VEC2"
		},
		{
			"bufferView":42,
			"componentType":5123,
			"count":72,
			"type":"SCALAR"
		}
	],
	"bufferViews":[
		{
			"buffer":0,
			"byteLength":6912,
			"byteOffset":0,
			"target":34962
		},
		{
			"buffer":0,
			"byteLength":6912,
			"byteOffset":6912,
			"target":34962
		},
		{
			"buffer":0,
			"byteLength":4608,
			"byteOffset":13824,
			"target":34962
		},
		{
			"buffer":0,
			"byteLength":1728,
			"byteOffset":18432,
			"target":34963
		},
		{
			"buffer":0,
			"byteLength":25440,
			"byteOffset":20160,
			"target":34962
		},
		{
			"buffer":0,
			"byteLength":25440,
			"byteOffset":45600,
			"target":34962
		},
		{
			"buffer":0,
			"byteLength":16960,
			"byteOffset":71040,
			"target":34962
		},
		{
			"buffer":0,
			"byteLength":5916,
			"byteOffset":88000,
			"target":34963
		},
		{
			"buffer":0,
			"byteLength":2016,
			"byteOffset":93916,
			"target":34962
		},
		{
			"buffer":0,
			"byteLength":2016,
			"byteOffset":95932,
			"target":34962
		},
		{
			"buffer":0,
			"byteLength":1344,
			"byteOffset":97948,
			"target":34962
		},
		{
			"buffer":0,
			"byteLength":504,
			"byteOffset":99292,
			"target":34963
		},
		{
			"buffer":0,
			"byteLength":1536,
			"byteOffset":99796,
			"target":34962
		},
		{
			"buffer":0,
			"byteLength":1536,
			"byteOffset":101332,
			"target":34962
		},
		{
			"buffer":0,
			"byteLength":1024,
			"byteOffset":102868,
			"target":34962
		},
		{
			"buffer":0,
			"byteLength":384,
			"byteOffset":103892,
			"target":34963
		},
		{
			"buffer":0,
			"byteLength":720,
			"byteOffset":104276,
			"target":34962
		},
		{
			"buffer":0,
			"byteLength":720,
			"byteOffset":104996,
			"target":34962
		},
		{
			"buffer":0,
			"byteLength":480,
			"byteOffset":105716,
			"target":34962
		},
		{
			"buffer":0,
			"byteLength":180,
			"byteOffset":106196,
			"target":34963
		},
		{
			"buffer":0,
			"byteLength":240,
			"byteOffset":106376,
			"target":34962
		},
		{
			"buffer":0,
			"byteLength":240,
			"byteOffset":106616,
			"target":34962
		},
		{
			"buffer":0,
			"byteLength":160,
			"byteOffset":106856,
			"target":34962
		},
		{
			"buffer":0,
			"byteLength":60,
			"byteOffset":107016,
			"target":34963
		},
		{
			"buffer":0,
			"byteLength":1440,
			"byteOffset":107076,
			"target":34962
		},
		{
			"buffer":0,
			"byteLength":1440,
			"byteOffset":108516,
			"target":34962
		},
		{
			"buffer":0,
			"byteLength":960,
			"byteOffset":109956,
			"target":34962
		},
		{
			"buffer":0,
			"byteLength":360,
			"byteOffset":110916,
			"target":34963
		},
		{
			"buffer":0,
			"byteLength":240,
			"byteOffset":111276,
			"target":34962
		},
		{
			"buffer":0,
			"byteLength":240,
			"byteOffset":111516,
			"target":34962
		},
		{
			"buffer":0,
			"byteLength":160,
			"byteOffset":111756,
			"target":34962
		},
		{
			"buffer":0,
			"byteLength":36672,
			"byteOffset":111916,
			"target":34962
		},
		{
			"buffer":0,
			"byteLength":36672,
			"byteOffset":148588,
			"target":34962
		},
		{
			"buffer":0,
			"byteLength":24448,
			"byteOffset":185260,
			"target":34962
		},
		{
			"buffer":0,
			"byteLength":9312,
			"byteOffset":209708,
			"target":34963
		},
		{
			"buffer":0,
			"byteLength":528,
			"byteOffset":219020,
			"target":34962
		},
		{
			"buffer":0,
			"byteLength":528,
			"byteOffset":219548,
			"target":34962
		},
		{
			"buffer":0,
			"byteLength":352,
			"byteOffset":220076,
			"target":34962
		},
		{
			"buffer":0,
			"byteLength":132,
			"byteOffset":220428,
			"target":34963
		},
		{
			"buffer":0,
			"byteLength":576,
			"byteOffset":220560,
			"target":34962
		},
		{
			"buffer":0,
			"byteLength":576,
			"byteOffset":221136,
			"target":34962
		},
		{
			"buffer":0,
			"byteLength":384,
			"byteOffset":221712,
			"target":34962
		},
		{
			"buffer":0,
			"byteLength":144,
			"byteOffset":222096,
			"target":34963
		}
	],
	"samplers":[
		{
			"magFilter":9729,
			"minFilter":9987
		}
	],
	"buffers":[
		{
			"byteLength":222240,
			"uri":"LC_cont1_650.bin"
		}
	]
}
