{
	"asset":{
		"generator":"Khronos glTF Blender I/O v3.6.27",
		"version":"2.0"
	},
	"extensionsUsed":[
		"KHR_materials_specular",
		"KHR_materials_ior"
	],
	"scene":0,
	"scenes":[
		{
			"name":"Scene",
			"nodes":[
				0
			]
		}
	],
	"nodes":[
		{
			"mesh":0,
			"name":"LC_cont2_scps",
			"rotation":[
				0.7071068286895752,
				0,
				0,
				0.7071068286895752
			]
		}
	],
	"materials":[
		{
			"doubleSided":true,
			"extensions":{
				"KHR_materials_specular":{
					"specularColorFactor":[
						2.371357614441398,
						2.371357614441398,
						2.371357614441398
					]
				},
				"KHR_materials_ior":{
					"ior":1.4500000476837158
				}
			},
			"name":"mat0.004",
			"pbrMetallicRoughness":{
				"baseColorTexture":{
					"index":0
				},
				"metallicFactor":0,
				"roughnessFactor":0.9505894184112549
			}
		},
		{
			"doubleSided":true,
			"extensions":{
				"KHR_materials_specular":{
					"specularColorFactor":[
						2.371357614441398,
						2.371357614441398,
						2.371357614441398
					]
				},
				"KHR_materials_ior":{
					"ior":1.4500000476837158
				}
			},
			"name":"mat1.004",
			"pbrMetallicRoughness":{
				"baseColorTexture":{
					"index":1
				},
				"metallicFactor":0,
				"roughnessFactor":0.9505894184112549
			}
		},
		{
			"doubleSided":true,
			"extensions":{
				"KHR_materials_specular":{
					"specularColorFactor":[
						2.371357614441398,
						2.371357614441398,
						2.371357614441398
					]
				},
				"KHR_materials_ior":{
					"ior":1.4500000476837158
				}
			},
			"name":"mat2.004",
			"pbrMetallicRoughness":{
				"baseColorTexture":{
					"index":2
				},
				"metallicFactor":0,
				"roughnessFactor":0.9505894184112549
			}
		},
		{
			"doubleSided":true,
			"extensions":{
				"KHR_materials_specular":{
					"specularColorFactor":[
						2.371357614441398,
						2.371357614441398,
						2.371357614441398
					]
				},
				"KHR_materials_ior":{
					"ior":1.4500000476837158
				}
			},
			"name":"mat3.004",
			"pbrMetallicRoughness":{
				"baseColorTexture":{
					"index":3
				},
				"metallicFactor":0,
				"roughnessFactor":0.9505894184112549
			}
		},
		{
			"doubleSided":true,
			"extensions":{
				"KHR_materials_specular":{
					"specularColorFactor":[
						2.371357614441398,
						2.371357614441398,
						2.371357614441398
					]
				},
				"KHR_materials_ior":{
					"ior":1.4500000476837158
				}
			},
			"name":"mat4.004",
			"pbrMetallicRoughness":{
				"baseColorTexture":{
					"index":4
				},
				"metallicFactor":0,
				"roughnessFactor":0.9505894184112549
			}
		},
		{
			"doubleSided":true,
			"extensions":{
				"KHR_materials_specular":{
					"specularColorFactor":[
						2.371357614441398,
						2.371357614441398,
						2.371357614441398
					]
				},
				"KHR_materials_ior":{
					"ior":1.4500000476837158
				}
			},
			"name":"mat5.003",
			"pbrMetallicRoughness":{
				"baseColorTexture":{
					"index":5
				},
				"metallicFactor":0,
				"roughnessFactor":0.9505894184112549
			}
		},
		{
			"doubleSided":true,
			"extensions":{
				"KHR_materials_specular":{
					"specularColorFactor":[
						2.371357614441398,
						2.371357614441398,
						2.371357614441398
					]
				},
				"KHR_materials_ior":{
					"ior":1.4500000476837158
				}
			},
			"name":"mat6.003",
			"pbrMetallicRoughness":{
				"baseColorTexture":{
					"index":6
				},
				"metallicFactor":0,
				"roughnessFactor":0.9505894184112549
			}
		},
		{
			"doubleSided":true,
			"extensions":{
				"KHR_materials_specular":{
					"specularColorFactor":[
						2.371357614441398,
						2.371357614441398,
						2.371357614441398
					]
				},
				"KHR_materials_ior":{
					"ior":1.4500000476837158
				}
			},
			"name":"mat7.003",
			"pbrMetallicRoughness":{
				"baseColorTexture":{
					"index":7
				},
				"metallicFactor":0,
				"roughnessFactor":0.9505894184112549
			}
		},
		{
			"doubleSided":true,
			"extensions":{
				"KHR_materials_specular":{
					"specularColorFactor":[
						2.371357614441398,
						2.371357614441398,
						2.371357614441398
					]
				},
				"KHR_materials_ior":{
					"ior":1.4500000476837158
				}
			},
			"name":"mat8.002",
			"pbrMetallicRoughness":{
				"baseColorTexture":{
					"index":8
				},
				"metallicFactor":0,
				"roughnessFactor":0.9505894184112549
			}
		},
		{
			"doubleSided":true,
			"extensions":{
				"KHR_materials_specular":{
					"specularColorFactor":[
						2.371357614441398,
						2.371357614441398,
						2.371357614441398
					]
				},
				"KHR_materials_ior":{
					"ior":1.4500000476837158
				}
			},
			"name":"mat9.003",
			"pbrMetallicRoughness":{
				"baseColorTexture":{
					"index":9
				},
				"metallicFactor":0,
				"roughnessFactor":0.9505894184112549
			}
		}
	],
	"meshes":[
		{
			"name":"LC_cont2_scps",
			"primitives":[
				{
					"attributes":{
						"POSITION":0,
						"NORMAL":1,
						"TEXCOORD_0":2
					},
					"indices":3,
					"material":0
				},
				{
					"attributes":{
						"POSITION":4,
						"NORMAL":5,
						"TEXCOORD_0":6
					},
					"indices":7,
					"material":1
				},
				{
					"attributes":{
						"POSITION":8,
						"NORMAL":9,
						"TEXCOORD_0":10
					},
					"indices":11,
					"material":2
				},
				{
					"attributes":{
						"POSITION":12,
						"NORMAL":13,
						"TEXCOORD_0":14
					},
					"indices":15,
					"material":3
				},
				{
					"attributes":{
						"POSITION":16,
						"NORMAL":17,
						"TEXCOORD_0":18
					},
					"indices":19,
					"material":4
				},
				{
					"attributes":{
						"POSITION":20,
						"NORMAL":21,
						"TEXCOORD_0":22
					},
					"indices":23,
					"material":5
				},
				{
					"attributes":{
						"POSITION":24,
						"NORMAL":25,
						"TEXCOORD_0":26
					},
					"indices":27,
					"material":6
				},
				{
					"attributes":{
						"POSITION":28,
						"NORMAL":29,
						"TEXCOORD_0":30
					},
					"indices":31,
					"material":7
				},
				{
					"attributes":{
						"POSITION":32,
						"NORMAL":33,
						"TEXCOORD_0":34
					},
					"indices":35,
					"material":8
				},
				{
					"attributes":{
						"POSITION":36,
						"NORMAL":37,
						"TEXCOORD_0":38
					},
					"indices":39,
					"material":9
				}
			]
		}
	],
	"textures":[
		{
			"sampler":0,
			"source":0
		},
		{
			"sampler":0,
			"source":1
		},
		{
			"sampler":0,
			"source":2
		},
		{
			"sampler":0,
			"source":3
		},
		{
			"sampler":0,
			"source":4
		},
		{
			"sampler":0,
			"source":5
		},
		{
			"sampler":0,
			"source":6
		},
		{
			"sampler":0,
			"source":7
		},
		{
			"sampler":0,
			"source":8
		},
		{
			"sampler":0,
			"source":9
		}
	],
	"images":[
		{
			"mimeType":"image/jpeg",
			"name":"concretefloor",
			"uri":"concretefloor.jpg"
		},
		{
			"mimeType":"image/jpeg",
			"name":"whitewall_2k",
			"uri":"whitewall_2k.jpg"
		},
		{
			"mimeType":"image/jpeg",
			"name":"white",
			"uri":"white.jpg"
		},
		{
			"mimeType":"image/jpeg",
			"name":"door01",
			"uri":"door01.jpg"
		},
		{
			"mimeType":"image/jpeg",
			"name":"metalpanels2",
			"uri":"metalpanels2.jpg"
		},
		{
			"mimeType":"image/jpeg",
			"name":"misc",
			"uri":"misc.jpg"
		},
		{
			"mimeType":"image/jpeg",
			"name":"dirtymetal",
			"uri":"dirtymetal.jpg"
		},
		{
			"mimeType":"image/png",
			"name":"scpitemsigns",
			"uri":"scpitemsigns.png"
		},
		{
			"mimeType":"image/jpeg",
			"name":"metal",
			"uri":"metal.jpg"
		},
		{
			"mimeType":"image/jpeg",
			"name":"wood",
			"uri":"wood.jpg"
		}
	],
	"accessors":[
		{
			"bufferView":0,
			"componentType":5126,
			"count":168,
			"max":[
				8.15999984741211,
				10.24000072479248,
				0.010002000257372856
			],
			"min":[
				-8.15999984741211,
				-10.239999771118164,
				-7.080000877380371
			],
			"type":"VEC3"
		},
		{
			"bufferView":1,
			"componentType":5126,
			"count":168,
			"type":"VEC3"
		},
		{
			"bufferView":2,
			"componentType":5126,
			"count":168,
			"type":"VEC2"
		},
		{
			"bufferView":3,
			"componentType":5123,
			"count":252,
			"type":"SCALAR"
		},
		{
			"bufferView":4,
			"componentType":5126,
			"count":1344,
			"max":[
				3.0400009155273438,
				10.24000072479248,
				1.9999999949504854e-06
			],
			"min":[
				-3.0400030612945557,
				-10.239999771118164,
				-7.040000915527344
			],
			"type":"VEC3"
		},
		{
			"bufferView":5,
			"componentType":5126,
			"count":1344,
			"type":"VEC3"
		},
		{
			"bufferView":6,
			"componentType":5126,
			"count":1344,
			"type":"VEC2"
		},
		{
			"bufferView":7,
			"componentType":5123,
			"count":2016,
			"type":"SCALAR"
		},
		{
			"bufferView":8,
			"componentType":5126,
			"count":360,
			"max":[
				8.160001754760742,
				10.239999771118164,
				0.010002000257372856
			],
			"min":[
				-8.160000801086426,
				-10.239999771118164,
				-3.840001106262207
			],
			"type":"VEC3"
		},
		{
			"bufferView":9,
			"componentType":5126,
			"count":360,
			"type":"VEC3"
		},
		{
			"bufferView":10,
			"componentType":5126,
			"count":360,
			"type":"VEC2"
		},
		{
			"bufferView":11,
			"componentType":5123,
			"count":540,
			"type":"SCALAR"
		},
		{
			"bufferView":12,
			"componentType":5126,
			"count":40,
			"max":[
				8.15999984741211,
				0.9550009965896606,
				0
			],
			"min":[
				-8.15999984741211,
				-1.2749990224838257,
				-3.200000047683716
			],
			"type":"VEC3"
		},
		{
			"bufferView":13,
			"componentType":5126,
			"count":40,
			"type":"VEC3"
		},
		{
			"bufferView":14,
			"componentType":5126,
			"count":40,
			"type":"VEC2"
		},
		{
			"bufferView":15,
			"componentType":5123,
			"count":60,
			"type":"SCALAR"
		},
		{
			"bufferView":16,
			"componentType":5126,
			"count":1056,
			"max":[
				3.0400009155273438,
				9.920001029968262,
				-3.499998092651367
			],
			"min":[
				-3.0400009155273438,
				-10.239998817443848,
				-5.440001010894775
			],
			"type":"VEC3"
		},
		{
			"bufferView":17,
			"componentType":5126,
			"count":1056,
			"type":"VEC3"
		},
		{
			"bufferView":18,
			"componentType":5126,
			"count":1056,
			"type":"VEC2"
		},
		{
			"bufferView":19,
			"componentType":5123,
			"count":1584,
			"type":"SCALAR"
		},
		{
			"bufferView":20,
			"componentType":5126,
			"count":144,
			"max":[
				5.8004679679870605,
				7.790439128875732,
				-3.7997701168060303
			],
			"min":[
				-5.640469074249268,
				-8,
				-7.038012981414795
			],
			"type":"VEC3"
		},
		{
			"bufferView":21,
			"componentType":5126,
			"count":144,
			"type":"VEC3"
		},
		{
			"bufferView":22,
			"componentType":5126,
			"count":144,
			"type":"VEC2"
		},
		{
			"bufferView":23,
			"componentType":5123,
			"count":216,
			"type":"SCALAR"
		},
		{
			"bufferView":24,
			"componentType":5126,
			"count":4740,
			"max":[
				6.440001010894775,
				8.320002555847168,
				-0.07999899983406067
			],
			"min":[
				-6.159997940063477,
				-8.640000343322754,
				-6.320001125335693
			],
			"type":"VEC3"
		},
		{
			"bufferView":25,
			"componentType":5126,
			"count":4740,
			"type":"VEC3"
		},
		{
			"bufferView":26,
			"componentType":5126,
			"count":4740,
			"type":"VEC2"
		},
		{
			"bufferView":27,
			"componentType":5123,
			"count":9126,
			"type":"SCALAR"
		},
		{
			"bufferView":28,
			"componentType":5126,
			"count":96,
			"max":[
				6.159999847412109,
				2.400001049041748,
				-3.2699999809265137
			],
			"min":[
				-6.159999847412109,
				-2.7200000286102295,
				-3.75
			],
			"type":"VEC3"
		},
		{
			"bufferView":29,
			"componentType":5126,
			"count":96,
			"type":"VEC3"
		},
		{
			"bufferView":30,
			"componentType":5126,
			"count":96,
			"type":"VEC2"
		},
		{
			"bufferView":31,
			"componentType":5123,
			"count":144,
			"type":"SCALAR"
		},
		{
			"bufferView":32,
			"componentType":5126,
			"count":116,
			"max":[
				-4.760001182556152,
				7.880000114440918,
				-0.07999899983406067
			],
			"min":[
				-6.28000020980835,
				6.519999980926514,
				-1.6799989938735962
			],
			"type":"VEC3"
		},
		{
			"bufferView":33,
			"componentType":5126,
			"count":116,
			"type":"VEC3"
		},
		{
			"bufferView":34,
			"componentType":5126,
			"count":116,
			"type":"VEC2"
		},
		{
			"bufferView":35,
			"componentType":5123,
			"count":186,
			"type":"SCALAR"
		},
		{
			"bufferView":36,
			"componentType":5126,
			"count":76,
			"max":[
				5.900000095367432,
				-7.259998798370361,
				-1.6000009775161743
			],
			"min":[
				5.460000038146973,
				-7.698678016662598,
				-2.0877349376678467
			],
			"type":"VEC3"
		},
		{
			"bufferView":37,
			"componentType":5126,
			"count":76,
			"type":"VEC3"
		},
		{
			"bufferView":38,
			"componentType":5126,
			"count":76,
			"type":"VEC2"
		},
		{
			"bufferView":39,
			"componentType":5123,
			"count":114,
			"type":"SCALAR"
		}
	],
	"bufferViews":[
		{
			"buffer":0,
			"byteLength":2016,
			"byteOffset":0,
			"target":34962
		},
		{
			"buffer":0,
			"byteLength":2016,
			"byteOffset":2016,
			"target":34962
		},
		{
			"buffer":0,
			"byteLength":1344,
			"byteOffset":4032,
			"target":34962
		},
		{
			"buffer":0,
			"byteLength":504,
			"byteOffset":5376,
			"target":34963
		},
		{
			"buffer":0,
			"byteLength":16128,
			"byteOffset":5880,
			"target":34962
		},
		{
			"buffer":0,
			"byteLength":16128,
			"byteOffset":22008,
			"target":34962
		},
		{
			"buffer":0,
			"byteLength":10752,
			"byteOffset":38136,
			"target":34962
		},
		{
			"buffer":0,
			"byteLength":4032,
			"byteOffset":48888,
			"target":34963
		},
		{
			"buffer":0,
			"byteLength":4320,
			"byteOffset":52920,
			"target":34962
		},
		{
			"buffer":0,
			"byteLength":4320,
			"byteOffset":57240,
			"target":34962
		},
		{
			"buffer":0,
			"byteLength":2880,
			"byteOffset":61560,
			"target":34962
		},
		{
			"buffer":0,
			"byteLength":1080,
			"byteOffset":64440,
			"target":34963
		},
		{
			"buffer":0,
			"byteLength":480,
			"byteOffset":65520,
			"target":34962
		},
		{
			"buffer":0,
			"byteLength":480,
			"byteOffset":66000,
			"target":34962
		},
		{
			"buffer":0,
			"byteLength":320,
			"byteOffset":66480,
			"target":34962
		},
		{
			"buffer":0,
			"byteLength":120,
			"byteOffset":66800,
			"target":34963
		},
		{
			"buffer":0,
			"byteLength":12672,
			"byteOffset":66920,
			"target":34962
		},
		{
			"buffer":0,
			"byteLength":12672,
			"byteOffset":79592,
			"target":34962
		},
		{
			"buffer":0,
			"byteLength":8448,
			"byteOffset":92264,
			"target":34962
		},
		{
			"buffer":0,
			"byteLength":3168,
			"byteOffset":100712,
			"target":34963
		},
		{
			"buffer":0,
			"byteLength":1728,
			"byteOffset":103880,
			"target":34962
		},
		{
			"buffer":0,
			"byteLength":1728,
			"byteOffset":105608,
			"target":34962
		},
		{
			"buffer":0,
			"byteLength":1152,
			"byteOffset":107336,
			"target":34962
		},
		{
			"buffer":0,
			"byteLength":432,
			"byteOffset":108488,
			"target":34963
		},
		{
			"buffer":0,
			"byteLength":56880,
			"byteOffset":108920,
			"target":34962
		},
		{
			"buffer":0,
			"byteLength":56880,
			"byteOffset":165800,
			"target":34962
		},
		{
			"buffer":0,
			"byteLength":37920,
			"byteOffset":222680,
			"target":34962
		},
		{
			"buffer":0,
			"byteLength":18252,
			"byteOffset":260600,
			"target":34963
		},
		{
			"buffer":0,
			"byteLength":1152,
			"byteOffset":278852,
			"target":34962
		},
		{
			"buffer":0,
			"byteLength":1152,
			"byteOffset":280004,
			"target":34962
		},
		{
			"buffer":0,
			"byteLength":768,
			"byteOffset":281156,
			"target":34962
		},
		{
			"buffer":0,
			"byteLength":288,
			"byteOffset":281924,
			"target":34963
		},
		{
			"buffer":0,
			"byteLength":1392,
			"byteOffset":282212,
			"target":34962
		},
		{
			"buffer":0,
			"byteLength":1392,
			"byteOffset":283604,
			"target":34962
		},
		{
			"buffer":0,
			"byteLength":928,
			"byteOffset":284996,
			"target":34962
		},
		{
			"buffer":0,
			"byteLength":372,
			"byteOffset":285924,
			"target":34963
		},
		{
			"buffer":0,
			"byteLength":912,
			"byteOffset":286296,
			"target":34962
		},
		{
			"buffer":0,
			"byteLength":912,
			"byteOffset":287208,
			"target":34962
		},
		{
			"buffer":0,
			"byteLength":608,
			"byteOffset":288120,
			"target":34962
		},
		{
			"buffer":0,
			"byteLength":228,
			"byteOffset":288728,
			"target":34963
		}
	],
	"samplers":[
		{
			"magFilter":9729,
			"minFilter":9987
		}
	],
	"buffers":[
		{
			"byteLength":288956,
			"uri":"LC_room2_scps.bin"
		}
	]
}
