{
	"asset":{
		"generator":"Khronos glTF Blender I/O v3.6.27",
		"version":"2.0"
	},
	"extensionsUsed":[
		"KHR_materials_specular",
		"KHR_materials_ior"
	],
	"scene":0,
	"scenes":[
		{
			"name":"Scene",
			"nodes":[
				0
			]
		}
	],
	"nodes":[
		{
			"mesh":0,
			"name":"LC_room2_sl",
			"rotation":[
				0.7071068286895752,
				0,
				0,
				0.7071068286895752
			],
			"scale":[
				0.009999999776482582,
				0.009999999776482582,
				0.009999999776482582
			]
		}
	],
	"materials":[
		{
			"doubleSided":true,
			"extensions":{
				"KHR_materials_specular":{
					"specularColorFactor":[
						2.371357614441398,
						2.371357614441398,
						2.371357614441398
					]
				},
				"KHR_materials_ior":{
					"ior":1.4500000476837158
				}
			},
			"name":"mat0.001",
			"pbrMetallicRoughness":{
				"baseColorTexture":{
					"index":0
				},
				"metallicFactor":0,
				"roughnessFactor":0.9505894184112549
			}
		},
		{
			"doubleSided":true,
			"extensions":{
				"KHR_materials_specular":{
					"specularColorFactor":[
						2.371357614441398,
						2.371357614441398,
						2.371357614441398
					]
				},
				"KHR_materials_ior":{
					"ior":1.4500000476837158
				}
			},
			"name":"mat1.001",
			"pbrMetallicRoughness":{
				"baseColorTexture":{
					"index":1
				},
				"metallicFactor":0,
				"roughnessFactor":0.9505894184112549
			}
		},
		{
			"doubleSided":true,
			"extensions":{
				"KHR_materials_specular":{
					"specularColorFactor":[
						2.371357614441398,
						2.371357614441398,
						2.371357614441398
					]
				},
				"KHR_materials_ior":{
					"ior":1.4500000476837158
				}
			},
			"name":"mat2.001",
			"pbrMetallicRoughness":{
				"baseColorTexture":{
					"index":2
				},
				"metallicFactor":0,
				"roughnessFactor":0.9505894184112549
			}
		},
		{
			"doubleSided":true,
			"extensions":{
				"KHR_materials_specular":{
					"specularColorFactor":[
						2.371357614441398,
						2.371357614441398,
						2.371357614441398
					]
				},
				"KHR_materials_ior":{
					"ior":1.4500000476837158
				}
			},
			"name":"mat3.001",
			"pbrMetallicRoughness":{
				"baseColorTexture":{
					"index":3
				},
				"metallicFactor":0,
				"roughnessFactor":0.9505894184112549
			}
		},
		{
			"doubleSided":true,
			"extensions":{
				"KHR_materials_specular":{
					"specularColorFactor":[
						2.371357614441398,
						2.371357614441398,
						2.371357614441398
					]
				},
				"KHR_materials_ior":{
					"ior":1.4500000476837158
				}
			},
			"name":"mat4.001",
			"pbrMetallicRoughness":{
				"baseColorTexture":{
					"index":4
				},
				"metallicFactor":0,
				"roughnessFactor":0.9505894184112549
			}
		},
		{
			"doubleSided":true,
			"extensions":{
				"KHR_materials_specular":{
					"specularColorFactor":[
						2.371357614441398,
						2.371357614441398,
						2.371357614441398
					]
				},
				"KHR_materials_ior":{
					"ior":1.4500000476837158
				}
			},
			"name":"mat5.001",
			"pbrMetallicRoughness":{
				"baseColorTexture":{
					"index":5
				},
				"metallicFactor":0,
				"roughnessFactor":0.9505894184112549
			}
		},
		{
			"doubleSided":true,
			"extensions":{
				"KHR_materials_specular":{
					"specularColorFactor":[
						2.371357614441398,
						2.371357614441398,
						2.371357614441398
					]
				},
				"KHR_materials_ior":{
					"ior":1.4500000476837158
				}
			},
			"name":"mat6.001",
			"pbrMetallicRoughness":{
				"baseColorTexture":{
					"index":6
				},
				"metallicFactor":0,
				"roughnessFactor":0.9505894184112549
			}
		},
		{
			"doubleSided":true,
			"extensions":{
				"KHR_materials_specular":{
					"specularColorFactor":[
						2.371357614441398,
						2.371357614441398,
						2.371357614441398
					]
				},
				"KHR_materials_ior":{
					"ior":1.4500000476837158
				}
			},
			"name":"mat7.001",
			"pbrMetallicRoughness":{
				"baseColorTexture":{
					"index":7
				},
				"metallicFactor":0,
				"roughnessFactor":0.9505894184112549
			}
		},
		{
			"doubleSided":true,
			"extensions":{
				"KHR_materials_specular":{
					"specularColorFactor":[
						2.371357614441398,
						2.371357614441398,
						2.371357614441398
					]
				},
				"KHR_materials_ior":{
					"ior":1.4500000476837158
				}
			},
			"name":"mat8.001",
			"pbrMetallicRoughness":{
				"baseColorTexture":{
					"index":8
				},
				"metallicFactor":0,
				"roughnessFactor":0.9505894184112549
			}
		},
		{
			"doubleSided":true,
			"extensions":{
				"KHR_materials_specular":{
					"specularColorFactor":[
						2.371357614441398,
						2.371357614441398,
						2.371357614441398
					]
				},
				"KHR_materials_ior":{
					"ior":1.4500000476837158
				}
			},
			"name":"mat9.001",
			"pbrMetallicRoughness":{
				"baseColorTexture":{
					"index":9
				},
				"metallicFactor":0,
				"roughnessFactor":0.9505894184112549
			}
		},
		{
			"doubleSided":true,
			"extensions":{
				"KHR_materials_specular":{
					"specularColorFactor":[
						2.371357614441398,
						2.371357614441398,
						2.371357614441398
					]
				},
				"KHR_materials_ior":{
					"ior":1.4500000476837158
				}
			},
			"name":"mat10.001",
			"pbrMetallicRoughness":{
				"baseColorTexture":{
					"index":10
				},
				"metallicFactor":0,
				"roughnessFactor":0.9505894184112549
			}
		},
		{
			"doubleSided":true,
			"extensions":{
				"KHR_materials_specular":{
					"specularColorFactor":[
						2.371357614441398,
						2.371357614441398,
						2.371357614441398
					]
				},
				"KHR_materials_ior":{
					"ior":1.4500000476837158
				}
			},
			"name":"mat11",
			"pbrMetallicRoughness":{
				"baseColorTexture":{
					"index":11
				},
				"metallicFactor":0,
				"roughnessFactor":0.9505894184112549
			}
		},
		{
			"doubleSided":true,
			"extensions":{
				"KHR_materials_specular":{
					"specularColorFactor":[
						2.371357614441398,
						2.371357614441398,
						2.371357614441398
					]
				},
				"KHR_materials_ior":{
					"ior":1.4500000476837158
				}
			},
			"name":"mat12",
			"pbrMetallicRoughness":{
				"baseColorTexture":{
					"index":12
				},
				"metallicFactor":0,
				"roughnessFactor":0.9505894184112549
			}
		}
	],
	"meshes":[
		{
			"name":"LC_room2_sl",
			"primitives":[
				{
					"attributes":{
						"POSITION":0,
						"NORMAL":1,
						"TEXCOORD_0":2
					},
					"indices":3,
					"material":0
				},
				{
					"attributes":{
						"POSITION":4,
						"NORMAL":5,
						"TEXCOORD_0":6
					},
					"indices":7,
					"material":1
				},
				{
					"attributes":{
						"POSITION":8,
						"NORMAL":9,
						"TEXCOORD_0":10
					},
					"indices":11,
					"material":2
				},
				{
					"attributes":{
						"POSITION":12,
						"NORMAL":13,
						"TEXCOORD_0":14
					},
					"indices":15,
					"material":3
				},
				{
					"attributes":{
						"POSITION":16,
						"NORMAL":17,
						"TEXCOORD_0":18
					},
					"indices":19,
					"material":4
				},
				{
					"attributes":{
						"POSITION":20,
						"NORMAL":21,
						"TEXCOORD_0":22
					},
					"indices":23,
					"material":5
				},
				{
					"attributes":{
						"POSITION":24,
						"NORMAL":25,
						"TEXCOORD_0":26
					},
					"indices":27,
					"material":6
				},
				{
					"attributes":{
						"POSITION":28,
						"NORMAL":29,
						"TEXCOORD_0":30
					},
					"indices":31,
					"material":7
				},
				{
					"attributes":{
						"POSITION":32,
						"NORMAL":33,
						"TEXCOORD_0":34
					},
					"indices":35,
					"material":8
				},
				{
					"attributes":{
						"POSITION":36,
						"NORMAL":37,
						"TEXCOORD_0":38
					},
					"indices":39,
					"material":9
				},
				{
					"attributes":{
						"POSITION":40,
						"NORMAL":41,
						"TEXCOORD_0":42
					},
					"indices":43,
					"material":10
				},
				{
					"attributes":{
						"POSITION":44,
						"NORMAL":45,
						"TEXCOORD_0":46
					},
					"indices":15,
					"material":11
				},
				{
					"attributes":{
						"POSITION":47,
						"NORMAL":48,
						"TEXCOORD_0":49
					},
					"indices":50,
					"material":12
				}
			]
		}
	],
	"textures":[
		{
			"sampler":0,
			"source":0
		},
		{
			"sampler":0,
			"source":1
		},
		{
			"sampler":0,
			"source":2
		},
		{
			"sampler":0,
			"source":3
		},
		{
			"sampler":0,
			"source":4
		},
		{
			"sampler":0,
			"source":5
		},
		{
			"sampler":0,
			"source":6
		},
		{
			"sampler":0,
			"source":7
		},
		{
			"sampler":0,
			"source":8
		},
		{
			"sampler":0,
			"source":9
		},
		{
			"sampler":0,
			"source":10
		},
		{
			"sampler":0,
			"source":11
		},
		{
			"sampler":0,
			"source":12
		}
	],
	"images":[
		{
			"mimeType":"image/jpeg",
			"name":"concretefloor",
			"uri":"concretefloor.jpg"
		},
		{
			"mimeType":"image/jpeg",
			"name":"tilefloor",
			"uri":"tilefloor.jpg"
		},
		{
			"mimeType":"image/jpeg",
			"name":"controlpanel",
			"uri":"controlpanel.jpg"
		},
		{
			"mimeType":"image/jpeg",
			"name":"chatscreen",
			"uri":"chatscreen.jpg"
		},
		{
			"mimeType":"image/jpeg",
			"name":"dirtymetal",
			"uri":"dirtymetal.jpg"
		},
		{
			"mimeType":"image/jpeg",
			"name":"miscsigns",
			"uri":"miscsigns.jpg"
		},
		{
			"mimeType":"image/jpeg",
			"name":"slh_miscsigns",
			"uri":"slh_miscsigns.jpg"
		},
		{
			"mimeType":"image/jpeg",
			"name":"white",
			"uri":"white.jpg"
		},
		{
			"mimeType":"image/jpeg",
			"name":"misc",
			"uri":"misc.jpg"
		},
		{
			"mimeType":"image/jpeg",
			"name":"whitewall",
			"uri":"whitewall.jpg"
		},
		{
			"mimeType":"image/jpeg",
			"name":"metal",
			"uri":"metal.jpg"
		},
		{
			"mimeType":"image/jpeg",
			"name":"miscsigns3",
			"uri":"miscsigns3.jpg"
		},
		{
			"mimeType":"image/jpeg",
			"name":"metalpanels2",
			"uri":"metalpanels2.jpg"
		}
	],
	"accessors":[
		{
			"bufferView":0,
			"componentType":5126,
			"count":35,
			"max":[
				1792,
				1024,
				-384
			],
			"min":[
				-304,
				-1024,
				-952
			],
			"type":"VEC3"
		},
		{
			"bufferView":1,
			"componentType":5126,
			"count":35,
			"type":"VEC3"
		},
		{
			"bufferView":2,
			"componentType":5126,
			"count":35,
			"type":"VEC2"
		},
		{
			"bufferView":3,
			"componentType":5123,
			"count":51,
			"type":"SCALAR"
		},
		{
			"bufferView":4,
			"componentType":5126,
			"count":316,
			"max":[
				1428,
				1024,
				0
			],
			"min":[
				-256.0000915527344,
				-1024,
				-480
			],
			"type":"VEC3"
		},
		{
			"bufferView":5,
			"componentType":5126,
			"count":316,
			"type":"VEC3"
		},
		{
			"bufferView":6,
			"componentType":5126,
			"count":316,
			"type":"VEC2"
		},
		{
			"bufferView":7,
			"componentType":5123,
			"count":474,
			"type":"SCALAR"
		},
		{
			"bufferView":8,
			"componentType":5126,
			"count":936,
			"max":[
				1342,
				445.27239990234375,
				-479.97821044921875
			],
			"min":[
				-116.75,
				-923.0001831054688,
				-800
			],
			"type":"VEC3"
		},
		{
			"bufferView":9,
			"componentType":5126,
			"count":936,
			"type":"VEC3"
		},
		{
			"bufferView":10,
			"componentType":5126,
			"count":936,
			"type":"VEC2"
		},
		{
			"bufferView":11,
			"componentType":5123,
			"count":1404,
			"type":"SCALAR"
		},
		{
			"bufferView":12,
			"componentType":5126,
			"count":24,
			"max":[
				365.9991149902344,
				-922.0001831054688,
				-676
			],
			"min":[
				293.9991149902344,
				-923.0001831054688,
				-732
			],
			"type":"VEC3"
		},
		{
			"bufferView":13,
			"componentType":5126,
			"count":24,
			"type":"VEC3"
		},
		{
			"bufferView":14,
			"componentType":5126,
			"count":24,
			"type":"VEC2"
		},
		{
			"bufferView":15,
			"componentType":5123,
			"count":36,
			"type":"SCALAR"
		},
		{
			"bufferView":16,
			"componentType":5126,
			"count":4738,
			"max":[
				1760,
				800.0001220703125,
				-280
			],
			"min":[
				-296,
				-960,
				-960
			],
			"type":"VEC3"
		},
		{
			"bufferView":17,
			"componentType":5126,
			"count":4738,
			"type":"VEC3"
		},
		{
			"bufferView":18,
			"componentType":5126,
			"count":4738,
			"type":"VEC2"
		},
		{
			"bufferView":19,
			"componentType":5123,
			"count":7650,
			"type":"SCALAR"
		},
		{
			"bufferView":20,
			"componentType":5126,
			"count":40,
			"max":[
				449,
				856,
				-228
			],
			"min":[
				-65.5,
				-921.5,
				-736
			],
			"type":"VEC3"
		},
		{
			"bufferView":21,
			"componentType":5126,
			"count":40,
			"type":"VEC3"
		},
		{
			"bufferView":22,
			"componentType":5126,
			"count":40,
			"type":"VEC2"
		},
		{
			"bufferView":23,
			"componentType":5123,
			"count":60,
			"type":"SCALAR"
		},
		{
			"bufferView":24,
			"componentType":5126,
			"count":8,
			"max":[
				122.5,
				-921.5,
				-762
			],
			"min":[
				-89.5,
				-921.5,
				-784
			],
			"type":"VEC3"
		},
		{
			"bufferView":25,
			"componentType":5126,
			"count":8,
			"type":"VEC3"
		},
		{
			"bufferView":26,
			"componentType":5126,
			"count":8,
			"type":"VEC2"
		},
		{
			"bufferView":27,
			"componentType":5123,
			"count":12,
			"type":"SCALAR"
		},
		{
			"bufferView":28,
			"componentType":5126,
			"count":364,
			"max":[
				1792,
				896,
				64
			],
			"min":[
				-288.0000915527344,
				-960,
				-960
			],
			"type":"VEC3"
		},
		{
			"bufferView":29,
			"componentType":5126,
			"count":364,
			"type":"VEC3"
		},
		{
			"bufferView":30,
			"componentType":5126,
			"count":364,
			"type":"VEC2"
		},
		{
			"bufferView":31,
			"componentType":5123,
			"count":546,
			"type":"SCALAR"
		},
		{
			"bufferView":32,
			"componentType":5126,
			"count":168,
			"max":[
				1157,
				787.9998779296875,
				-383.04400634765625
			],
			"min":[
				-139,
				-788.0001220703125,
				-953.823974609375
			],
			"type":"VEC3"
		},
		{
			"bufferView":33,
			"componentType":5126,
			"count":168,
			"type":"VEC3"
		},
		{
			"bufferView":34,
			"componentType":5126,
			"count":168,
			"type":"VEC2"
		},
		{
			"bufferView":35,
			"componentType":5123,
			"count":252,
			"type":"SCALAR"
		},
		{
			"bufferView":36,
			"componentType":5126,
			"count":276,
			"max":[
				1791.9998779296875,
				1024,
				0
			],
			"min":[
				-304,
				-1024,
				-952
			],
			"type":"VEC3"
		},
		{
			"bufferView":37,
			"componentType":5126,
			"count":276,
			"type":"VEC3"
		},
		{
			"bufferView":38,
			"componentType":5126,
			"count":276,
			"type":"VEC2"
		},
		{
			"bufferView":39,
			"componentType":5123,
			"count":414,
			"type":"SCALAR"
		},
		{
			"bufferView":40,
			"componentType":5126,
			"count":192,
			"max":[
				548.0001220703125,
				-448.0000915527344,
				-608
			],
			"min":[
				535.9998168945312,
				-832,
				-800
			],
			"type":"VEC3"
		},
		{
			"bufferView":41,
			"componentType":5126,
			"count":192,
			"type":"VEC3"
		},
		{
			"bufferView":42,
			"componentType":5126,
			"count":192,
			"type":"VEC2"
		},
		{
			"bufferView":43,
			"componentType":5123,
			"count":288,
			"type":"SCALAR"
		},
		{
			"bufferView":44,
			"componentType":5126,
			"count":24,
			"max":[
				449,
				856,
				-292
			],
			"min":[
				447,
				768,
				-340
			],
			"type":"VEC3"
		},
		{
			"bufferView":45,
			"componentType":5126,
			"count":24,
			"type":"VEC3"
		},
		{
			"bufferView":46,
			"componentType":5126,
			"count":24,
			"type":"VEC2"
		},
		{
			"bufferView":47,
			"componentType":5126,
			"count":142,
			"max":[
				174.37010192871094,
				-245.84390258789062,
				-625.1851806640625
			],
			"min":[
				160.5706024169922,
				-254.8966064453125,
				-643.0670776367188
			],
			"type":"VEC3"
		},
		{
			"bufferView":48,
			"componentType":5126,
			"count":142,
			"type":"VEC3"
		},
		{
			"bufferView":49,
			"componentType":5126,
			"count":142,
			"type":"VEC2"
		},
		{
			"bufferView":50,
			"componentType":5123,
			"count":180,
			"type":"SCALAR"
		}
	],
	"bufferViews":[
		{
			"buffer":0,
			"byteLength":420,
			"byteOffset":0,
			"target":34962
		},
		{
			"buffer":0,
			"byteLength":420,
			"byteOffset":420,
			"target":34962
		},
		{
			"buffer":0,
			"byteLength":280,
			"byteOffset":840,
			"target":34962
		},
		{
			"buffer":0,
			"byteLength":102,
			"byteOffset":1120,
			"target":34963
		},
		{
			"buffer":0,
			"byteLength":3792,
			"byteOffset":1224,
			"target":34962
		},
		{
			"buffer":0,
			"byteLength":3792,
			"byteOffset":5016,
			"target":34962
		},
		{
			"buffer":0,
			"byteLength":2528,
			"byteOffset":8808,
			"target":34962
		},
		{
			"buffer":0,
			"byteLength":948,
			"byteOffset":11336,
			"target":34963
		},
		{
			"buffer":0,
			"byteLength":11232,
			"byteOffset":12284,
			"target":34962
		},
		{
			"buffer":0,
			"byteLength":11232,
			"byteOffset":23516,
			"target":34962
		},
		{
			"buffer":0,
			"byteLength":7488,
			"byteOffset":34748,
			"target":34962
		},
		{
			"buffer":0,
			"byteLength":2808,
			"byteOffset":42236,
			"target":34963
		},
		{
			"buffer":0,
			"byteLength":288,
			"byteOffset":45044,
			"target":34962
		},
		{
			"buffer":0,
			"byteLength":288,
			"byteOffset":45332,
			"target":34962
		},
		{
			"buffer":0,
			"byteLength":192,
			"byteOffset":45620,
			"target":34962
		},
		{
			"buffer":0,
			"byteLength":72,
			"byteOffset":45812,
			"target":34963
		},
		{
			"buffer":0,
			"byteLength":56856,
			"byteOffset":45884,
			"target":34962
		},
		{
			"buffer":0,
			"byteLength":56856,
			"byteOffset":102740,
			"target":34962
		},
		{
			"buffer":0,
			"byteLength":37904,
			"byteOffset":159596,
			"target":34962
		},
		{
			"buffer":0,
			"byteLength":15300,
			"byteOffset":197500,
			"target":34963
		},
		{
			"buffer":0,
			"byteLength":480,
			"byteOffset":212800,
			"target":34962
		},
		{
			"buffer":0,
			"byteLength":480,
			"byteOffset":213280,
			"target":34962
		},
		{
			"buffer":0,
			"byteLength":320,
			"byteOffset":213760,
			"target":34962
		},
		{
			"buffer":0,
			"byteLength":120,
			"byteOffset":214080,
			"target":34963
		},
		{
			"buffer":0,
			"byteLength":96,
			"byteOffset":214200,
			"target":34962
		},
		{
			"buffer":0,
			"byteLength":96,
			"byteOffset":214296,
			"target":34962
		},
		{
			"buffer":0,
			"byteLength":64,
			"byteOffset":214392,
			"target":34962
		},
		{
			"buffer":0,
			"byteLength":24,
			"byteOffset":214456,
			"target":34963
		},
		{
			"buffer":0,
			"byteLength":4368,
			"byteOffset":214480,
			"target":34962
		},
		{
			"buffer":0,
			"byteLength":4368,
			"byteOffset":218848,
			"target":34962
		},
		{
			"buffer":0,
			"byteLength":2912,
			"byteOffset":223216,
			"target":34962
		},
		{
			"buffer":0,
			"byteLength":1092,
			"byteOffset":226128,
			"target":34963
		},
		{
			"buffer":0,
			"byteLength":2016,
			"byteOffset":227220,
			"target":34962
		},
		{
			"buffer":0,
			"byteLength":2016,
			"byteOffset":229236,
			"target":34962
		},
		{
			"buffer":0,
			"byteLength":1344,
			"byteOffset":231252,
			"target":34962
		},
		{
			"buffer":0,
			"byteLength":504,
			"byteOffset":232596,
			"target":34963
		},
		{
			"buffer":0,
			"byteLength":3312,
			"byteOffset":233100,
			"target":34962
		},
		{
			"buffer":0,
			"byteLength":3312,
			"byteOffset":236412,
			"target":34962
		},
		{
			"buffer":0,
			"byteLength":2208,
			"byteOffset":239724,
			"target":34962
		},
		{
			"buffer":0,
			"byteLength":828,
			"byteOffset":241932,
			"target":34963
		},
		{
			"buffer":0,
			"byteLength":2304,
			"byteOffset":242760,
			"target":34962
		},
		{
			"buffer":0,
			"byteLength":2304,
			"byteOffset":245064,
			"target":34962
		},
		{
			"buffer":0,
			"byteLength":1536,
			"byteOffset":247368,
			"target":34962
		},
		{
			"buffer":0,
			"byteLength":576,
			"byteOffset":248904,
			"target":34963
		},
		{
			"buffer":0,
			"byteLength":288,
			"byteOffset":249480,
			"target":34962
		},
		{
			"buffer":0,
			"byteLength":288,
			"byteOffset":249768,
			"target":34962
		},
		{
			"buffer":0,
			"byteLength":192,
			"byteOffset":250056,
			"target":34962
		},
		{
			"buffer":0,
			"byteLength":1704,
			"byteOffset":250248,
			"target":34962
		},
		{
			"buffer":0,
			"byteLength":1704,
			"byteOffset":251952,
			"target":34962
		},
		{
			"buffer":0,
			"byteLength":1136,
			"byteOffset":253656,
			"target":34962
		},
		{
			"buffer":0,
			"byteLength":360,
			"byteOffset":254792,
			"target":34963
		}
	],
	"samplers":[
		{
			"magFilter":9729,
			"minFilter":9987
		}
	],
	"buffers":[
		{
			"byteLength":255152,
			"uri":"LC_room2_sl.bin"
		}
	]
}
