{
	"asset":{
		"generator":"Khronos glTF Blender I/O v3.6.27",
		"version":"2.0"
	},
	"extensionsUsed":[
		"KHR_materials_specular",
		"KHR_materials_ior"
	],
	"scene":0,
	"scenes":[
		{
			"name":"Scene",
			"nodes":[
				0
			]
		}
	],
	"nodes":[
		{
			"mesh":0,
			"name":"LC_room2_vent",
			"rotation":[
				0.7071068286895752,
				0,
				0,
				0.7071068286895752
			]
		}
	],
	"materials":[
		{
			"doubleSided":true,
			"extensions":{
				"KHR_materials_specular":{
					"specularColorFactor":[
						2.371357614441398,
						2.371357614441398,
						2.371357614441398
					]
				},
				"KHR_materials_ior":{
					"ior":1.4500000476837158
				}
			},
			"name":"mat0.015",
			"pbrMetallicRoughness":{
				"baseColorTexture":{
					"index":0
				},
				"metallicFactor":0,
				"roughnessFactor":0.9505894184112549
			}
		},
		{
			"doubleSided":true,
			"extensions":{
				"KHR_materials_specular":{
					"specularColorFactor":[
						2.371357614441398,
						2.371357614441398,
						2.371357614441398
					]
				},
				"KHR_materials_ior":{
					"ior":1.4500000476837158
				}
			},
			"name":"mat1.015",
			"pbrMetallicRoughness":{
				"baseColorTexture":{
					"index":1
				},
				"metallicFactor":0,
				"roughnessFactor":0.9505894184112549
			}
		},
		{
			"doubleSided":true,
			"extensions":{
				"KHR_materials_specular":{
					"specularColorFactor":[
						2.371357614441398,
						2.371357614441398,
						2.371357614441398
					]
				},
				"KHR_materials_ior":{
					"ior":1.4500000476837158
				}
			},
			"name":"mat2.015",
			"pbrMetallicRoughness":{
				"baseColorTexture":{
					"index":2
				},
				"metallicFactor":0,
				"roughnessFactor":0.9505894184112549
			}
		},
		{
			"doubleSided":true,
			"extensions":{
				"KHR_materials_specular":{
					"specularColorFactor":[
						2.371357614441398,
						2.371357614441398,
						2.371357614441398
					]
				},
				"KHR_materials_ior":{
					"ior":1.4500000476837158
				}
			},
			"name":"mat3.014",
			"pbrMetallicRoughness":{
				"baseColorTexture":{
					"index":3
				},
				"metallicFactor":0,
				"roughnessFactor":0.9505894184112549
			}
		},
		{
			"doubleSided":true,
			"extensions":{
				"KHR_materials_specular":{
					"specularColorFactor":[
						2.371357614441398,
						2.371357614441398,
						2.371357614441398
					]
				},
				"KHR_materials_ior":{
					"ior":1.4500000476837158
				}
			},
			"name":"mat4.013",
			"pbrMetallicRoughness":{
				"baseColorTexture":{
					"index":4
				},
				"metallicFactor":0,
				"roughnessFactor":0.9505894184112549
			}
		},
		{
			"doubleSided":true,
			"extensions":{
				"KHR_materials_specular":{
					"specularColorFactor":[
						2.371357614441398,
						2.371357614441398,
						2.371357614441398
					]
				},
				"KHR_materials_ior":{
					"ior":1.4500000476837158
				}
			},
			"name":"mat5.013",
			"pbrMetallicRoughness":{
				"baseColorTexture":{
					"index":5
				},
				"metallicFactor":0,
				"roughnessFactor":0.9505894184112549
			}
		},
		{
			"doubleSided":true,
			"extensions":{
				"KHR_materials_specular":{
					"specularColorFactor":[
						2.371357614441398,
						2.371357614441398,
						2.371357614441398
					]
				},
				"KHR_materials_ior":{
					"ior":1.4500000476837158
				}
			},
			"name":"mat6.010",
			"pbrMetallicRoughness":{
				"baseColorTexture":{
					"index":6
				},
				"metallicFactor":0,
				"roughnessFactor":0.9505894184112549
			}
		},
		{
			"doubleSided":true,
			"extensions":{
				"KHR_materials_specular":{
					"specularColorFactor":[
						2.371357614441398,
						2.371357614441398,
						2.371357614441398
					]
				},
				"KHR_materials_ior":{
					"ior":1.4500000476837158
				}
			},
			"name":"mat7.010",
			"pbrMetallicRoughness":{
				"baseColorTexture":{
					"index":7
				},
				"metallicFactor":0,
				"roughnessFactor":0.9505894184112549
			}
		},
		{
			"doubleSided":true,
			"extensions":{
				"KHR_materials_specular":{
					"specularColorFactor":[
						2.371357614441398,
						2.371357614441398,
						2.371357614441398
					]
				},
				"KHR_materials_ior":{
					"ior":1.4500000476837158
				}
			},
			"name":"mat8.008",
			"pbrMetallicRoughness":{
				"baseColorTexture":{
					"index":8
				},
				"metallicFactor":0,
				"roughnessFactor":0.9505894184112549
			}
		}
	],
	"meshes":[
		{
			"name":"LC_room2_vent",
			"primitives":[
				{
					"attributes":{
						"POSITION":0,
						"NORMAL":1,
						"TEXCOORD_0":2
					},
					"indices":3,
					"material":0
				},
				{
					"attributes":{
						"POSITION":4,
						"NORMAL":5,
						"TEXCOORD_0":6
					},
					"indices":7,
					"material":1
				},
				{
					"attributes":{
						"POSITION":8,
						"NORMAL":9,
						"TEXCOORD_0":10
					},
					"indices":11,
					"material":2
				},
				{
					"attributes":{
						"POSITION":12,
						"NORMAL":13,
						"TEXCOORD_0":14
					},
					"indices":15,
					"material":3
				},
				{
					"attributes":{
						"POSITION":16,
						"NORMAL":17,
						"TEXCOORD_0":18
					},
					"indices":19,
					"material":4
				},
				{
					"attributes":{
						"POSITION":20,
						"NORMAL":21,
						"TEXCOORD_0":22
					},
					"indices":23,
					"material":5
				},
				{
					"attributes":{
						"POSITION":24,
						"NORMAL":25,
						"TEXCOORD_0":26
					},
					"indices":27,
					"material":6
				},
				{
					"attributes":{
						"POSITION":28,
						"NORMAL":29,
						"TEXCOORD_0":30
					},
					"indices":31,
					"material":7
				},
				{
					"attributes":{
						"POSITION":32,
						"NORMAL":33,
						"TEXCOORD_0":34
					},
					"indices":35,
					"material":8
				}
			]
		}
	],
	"textures":[
		{
			"sampler":0,
			"source":0
		},
		{
			"sampler":0,
			"source":1
		},
		{
			"sampler":0,
			"source":2
		},
		{
			"sampler":0,
			"source":3
		},
		{
			"sampler":0,
			"source":4
		},
		{
			"sampler":0,
			"source":5
		},
		{
			"sampler":0,
			"source":6
		},
		{
			"sampler":0,
			"source":7
		},
		{
			"sampler":0,
			"source":8
		}
	],
	"images":[
		{
			"mimeType":"image/jpeg",
			"name":"metalpanels2",
			"uri":"metalpanels2.jpg"
		},
		{
			"mimeType":"image/jpeg",
			"name":"whitewall_2k",
			"uri":"whitewall_2k.jpg"
		},
		{
			"mimeType":"image/jpeg",
			"name":"concretefloor",
			"uri":"concretefloor.jpg"
		},
		{
			"mimeType":"image/jpeg",
			"name":"misc",
			"uri":"misc.jpg"
		},
		{
			"mimeType":"image/jpeg",
			"name":"white",
			"uri":"white.jpg"
		},
		{
			"mimeType":"image/jpeg",
			"name":"vent",
			"uri":"vent.jpg"
		},
		{
			"mimeType":"image/jpeg",
			"name":"dirtymetal",
			"uri":"dirtymetal.jpg"
		},
		{
			"mimeType":"image/jpeg",
			"name":"controlpanel",
			"uri":"controlpanel.jpg"
		},
		{
			"mimeType":"image/jpeg",
			"name":"metalpanels",
			"uri":"metalpanels.jpg"
		}
	],
	"accessors":[
		{
			"bufferView":0,
			"componentType":5126,
			"count":840,
			"max":[
				3.0400009155273438,
				10.000000953674316,
				-3.499998092651367
			],
			"min":[
				-3.0399999618530273,
				-9.999999046325684,
				-5.440001010894775
			],
			"type":"VEC3"
		},
		{
			"bufferView":1,
			"componentType":5126,
			"count":840,
			"type":"VEC3"
		},
		{
			"bufferView":2,
			"componentType":5126,
			"count":840,
			"type":"VEC2"
		},
		{
			"bufferView":3,
			"componentType":5123,
			"count":1260,
			"type":"SCALAR"
		},
		{
			"bufferView":4,
			"componentType":5126,
			"count":1128,
			"max":[
				3.0400009155273438,
				10.24000072479248,
				1.9999999949504854e-06
			],
			"min":[
				-3.0399999618530273,
				-10.239999771118164,
				-7.040000915527344
			],
			"type":"VEC3"
		},
		{
			"bufferView":5,
			"componentType":5126,
			"count":1128,
			"type":"VEC3"
		},
		{
			"bufferView":6,
			"componentType":5126,
			"count":1128,
			"type":"VEC2"
		},
		{
			"bufferView":7,
			"componentType":5123,
			"count":1692,
			"type":"SCALAR"
		},
		{
			"bufferView":8,
			"componentType":5126,
			"count":32,
			"max":[
				3.0399999618530273,
				10.24000072479248,
				0.010002000257372856
			],
			"min":[
				-3.0399999618530273,
				-10.239999771118164,
				-7.05000114440918
			],
			"type":"VEC3"
		},
		{
			"bufferView":9,
			"componentType":5126,
			"count":32,
			"type":"VEC3"
		},
		{
			"bufferView":10,
			"componentType":5126,
			"count":32,
			"type":"VEC2"
		},
		{
			"bufferView":11,
			"componentType":5123,
			"count":48,
			"type":"SCALAR"
		},
		{
			"bufferView":12,
			"componentType":5126,
			"count":48,
			"max":[
				0.12956200540065765,
				3.4000000953674316,
				-7.030440807342529
			],
			"min":[
				-0.11043799668550491,
				-2.759999990463257,
				-7.06868314743042
			],
			"type":"VEC3"
		},
		{
			"bufferView":13,
			"componentType":5126,
			"count":48,
			"type":"VEC3"
		},
		{
			"bufferView":14,
			"componentType":5126,
			"count":48,
			"type":"VEC2"
		},
		{
			"bufferView":15,
			"componentType":5123,
			"count":72,
			"type":"SCALAR"
		},
		{
			"bufferView":16,
			"componentType":5126,
			"count":8,
			"max":[
				2.880000114440918,
				10.239999771118164,
				0.010002000257372856
			],
			"min":[
				-2.559999942779541,
				-10.239999771118164,
				-1.9999999949504854e-06
			],
			"type":"VEC3"
		},
		{
			"bufferView":17,
			"componentType":5126,
			"count":8,
			"type":"VEC3"
		},
		{
			"bufferView":18,
			"componentType":5126,
			"count":8,
			"type":"VEC2"
		},
		{
			"bufferView":19,
			"componentType":5123,
			"count":12,
			"type":"SCALAR"
		},
		{
			"bufferView":20,
			"componentType":5126,
			"count":168,
			"max":[
				2.25,
				9.930000305175781,
				-5.1099982261657715
			],
			"min":[
				-1.600000023841858,
				-9.929998397827148,
				-6.390000820159912
			],
			"type":"VEC3"
		},
		{
			"bufferView":21,
			"componentType":5126,
			"count":168,
			"type":"VEC3"
		},
		{
			"bufferView":22,
			"componentType":5126,
			"count":168,
			"type":"VEC2"
		},
		{
			"bufferView":23,
			"componentType":5123,
			"count":252,
			"type":"SCALAR"
		},
		{
			"bufferView":24,
			"componentType":5126,
			"count":4487,
			"max":[
				2.960000991821289,
				8.320002555847168,
				-3.680000066757202
			],
			"min":[
				-9.039999961853027,
				-8.320000648498535,
				-6.880000114440918
			],
			"type":"VEC3"
		},
		{
			"bufferView":25,
			"componentType":5126,
			"count":4487,
			"type":"VEC3"
		},
		{
			"bufferView":26,
			"componentType":5126,
			"count":4487,
			"type":"VEC2"
		},
		{
			"bufferView":27,
			"componentType":5123,
			"count":8541,
			"type":"SCALAR"
		},
		{
			"bufferView":28,
			"componentType":5126,
			"count":264,
			"max":[
				-1.0607980489730835,
				1.6000009775161743,
				-3.3896501064300537
			],
			"min":[
				-2.7792019844055176,
				-1.599998950958252,
				-7.0358381271362305
			],
			"type":"VEC3"
		},
		{
			"bufferView":29,
			"componentType":5126,
			"count":264,
			"type":"VEC3"
		},
		{
			"bufferView":30,
			"componentType":5126,
			"count":264,
			"type":"VEC2"
		},
		{
			"bufferView":31,
			"componentType":5123,
			"count":396,
			"type":"SCALAR"
		},
		{
			"bufferView":32,
			"componentType":5126,
			"count":35,
			"max":[
				-1.6799999475479126,
				1.6000009775161743,
				-3.680000066757202
			],
			"min":[
				-8,
				-1.599998950958252,
				-6.880000114440918
			],
			"type":"VEC3"
		},
		{
			"bufferView":33,
			"componentType":5126,
			"count":35,
			"type":"VEC3"
		},
		{
			"bufferView":34,
			"componentType":5126,
			"count":35,
			"type":"VEC2"
		},
		{
			"bufferView":35,
			"componentType":5123,
			"count":57,
			"type":"SCALAR"
		}
	],
	"bufferViews":[
		{
			"buffer":0,
			"byteLength":10080,
			"byteOffset":0,
			"target":34962
		},
		{
			"buffer":0,
			"byteLength":10080,
			"byteOffset":10080,
			"target":34962
		},
		{
			"buffer":0,
			"byteLength":6720,
			"byteOffset":20160,
			"target":34962
		},
		{
			"buffer":0,
			"byteLength":2520,
			"byteOffset":26880,
			"target":34963
		},
		{
			"buffer":0,
			"byteLength":13536,
			"byteOffset":29400,
			"target":34962
		},
		{
			"buffer":0,
			"byteLength":13536,
			"byteOffset":42936,
			"target":34962
		},
		{
			"buffer":0,
			"byteLength":9024,
			"byteOffset":56472,
			"target":34962
		},
		{
			"buffer":0,
			"byteLength":3384,
			"byteOffset":65496,
			"target":34963
		},
		{
			"buffer":0,
			"byteLength":384,
			"byteOffset":68880,
			"target":34962
		},
		{
			"buffer":0,
			"byteLength":384,
			"byteOffset":69264,
			"target":34962
		},
		{
			"buffer":0,
			"byteLength":256,
			"byteOffset":69648,
			"target":34962
		},
		{
			"buffer":0,
			"byteLength":96,
			"byteOffset":69904,
			"target":34963
		},
		{
			"buffer":0,
			"byteLength":576,
			"byteOffset":70000,
			"target":34962
		},
		{
			"buffer":0,
			"byteLength":576,
			"byteOffset":70576,
			"target":34962
		},
		{
			"buffer":0,
			"byteLength":384,
			"byteOffset":71152,
			"target":34962
		},
		{
			"buffer":0,
			"byteLength":144,
			"byteOffset":71536,
			"target":34963
		},
		{
			"buffer":0,
			"byteLength":96,
			"byteOffset":71680,
			"target":34962
		},
		{
			"buffer":0,
			"byteLength":96,
			"byteOffset":71776,
			"target":34962
		},
		{
			"buffer":0,
			"byteLength":64,
			"byteOffset":71872,
			"target":34962
		},
		{
			"buffer":0,
			"byteLength":24,
			"byteOffset":71936,
			"target":34963
		},
		{
			"buffer":0,
			"byteLength":2016,
			"byteOffset":71960,
			"target":34962
		},
		{
			"buffer":0,
			"byteLength":2016,
			"byteOffset":73976,
			"target":34962
		},
		{
			"buffer":0,
			"byteLength":1344,
			"byteOffset":75992,
			"target":34962
		},
		{
			"buffer":0,
			"byteLength":504,
			"byteOffset":77336,
			"target":34963
		},
		{
			"buffer":0,
			"byteLength":53844,
			"byteOffset":77840,
			"target":34962
		},
		{
			"buffer":0,
			"byteLength":53844,
			"byteOffset":131684,
			"target":34962
		},
		{
			"buffer":0,
			"byteLength":35896,
			"byteOffset":185528,
			"target":34962
		},
		{
			"buffer":0,
			"byteLength":17082,
			"byteOffset":221424,
			"target":34963
		},
		{
			"buffer":0,
			"byteLength":3168,
			"byteOffset":238508,
			"target":34962
		},
		{
			"buffer":0,
			"byteLength":3168,
			"byteOffset":241676,
			"target":34962
		},
		{
			"buffer":0,
			"byteLength":2112,
			"byteOffset":244844,
			"target":34962
		},
		{
			"buffer":0,
			"byteLength":792,
			"byteOffset":246956,
			"target":34963
		},
		{
			"buffer":0,
			"byteLength":420,
			"byteOffset":247748,
			"target":34962
		},
		{
			"buffer":0,
			"byteLength":420,
			"byteOffset":248168,
			"target":34962
		},
		{
			"buffer":0,
			"byteLength":280,
			"byteOffset":248588,
			"target":34962
		},
		{
			"buffer":0,
			"byteLength":114,
			"byteOffset":248868,
			"target":34963
		}
	],
	"samplers":[
		{
			"magFilter":9729,
			"minFilter":9987
		}
	],
	"buffers":[
		{
			"byteLength":248984,
			"uri":"LC_room2_vent.bin"
		}
	]
}
