{
	"asset":{
		"generator":"Khronos glTF Blender I/O v3.6.27",
		"version":"2.0"
	},
	"scene":0,
	"scenes":[
		{
			"name":"Scene",
			"nodes":[
				0,
				1,
				2,
				3,
				4,
				5,
				6,
				7,
				8
			]
		}
	],
	"nodes":[
		{
			"mesh":0,
			"name":"Plane.003"
		},
		{
			"mesh":1,
			"name":"Cube"
		},
		{
			"mesh":2,
			"name":"Cube.001"
		},
		{
			"mesh":3,
			"name":"DoorPath.002"
		},
		{
			"mesh":4,
			"name":"LCZWall.003"
		},
		{
			"mesh":5,
			"name":"LCZWall.004"
		},
		{
			"mesh":6,
			"name":"Ceiling.001"
		},
		{
			"mesh":7,
			"name":"Floor"
		},
		{
			"mesh":8,
			"name":"DoorPath.004"
		}
	],
	"materials":[
		{
			"doubleSided":true,
			"name":"Material.001",
			"normalTexture":{
				"index":0
			},
			"pbrMetallicRoughness":{
				"baseColorTexture":{
					"index":1
				},
				"metallicFactor":0,
				"metallicRoughnessTexture":{
					"index":2
				}
			}
		},
		{
			"doubleSided":true,
			"name":"Material.010",
			"normalTexture":{
				"index":3
			},
			"pbrMetallicRoughness":{
				"baseColorTexture":{
					"index":4
				},
				"metallicFactor":0,
				"metallicRoughnessTexture":{
					"index":5
				}
			}
		},
		{
			"doubleSided":true,
			"name":"Material.011",
			"normalTexture":{
				"index":6
			},
			"pbrMetallicRoughness":{
				"baseColorTexture":{
					"index":7
				},
				"metallicFactor":0,
				"metallicRoughnessTexture":{
					"index":8
				}
			}
		},
		{
			"doubleSided":true,
			"name":"Material.012",
			"normalTexture":{
				"index":9
			},
			"pbrMetallicRoughness":{
				"baseColorTexture":{
					"index":10
				},
				"metallicRoughnessTexture":{
					"index":11
				}
			}
		},
		{
			"doubleSided":true,
			"name":"Material.013",
			"normalTexture":{
				"index":12
			},
			"pbrMetallicRoughness":{
				"baseColorTexture":{
					"index":13
				},
				"metallicFactor":0,
				"metallicRoughnessTexture":{
					"index":14
				}
			}
		},
		{
			"doubleSided":true,
			"name":"Material.015",
			"normalTexture":{
				"index":15
			},
			"pbrMetallicRoughness":{
				"baseColorTexture":{
					"index":16
				},
				"metallicFactor":0,
				"metallicRoughnessTexture":{
					"index":17
				}
			}
		}
	],
	"meshes":[
		{
			"name":"Plane.003",
			"primitives":[
				{
					"attributes":{
						"POSITION":0,
						"NORMAL":1,
						"TEXCOORD_0":2
					},
					"indices":3,
					"material":0
				}
			]
		},
		{
			"name":"Cube",
			"primitives":[
				{
					"attributes":{
						"POSITION":4,
						"NORMAL":5,
						"TEXCOORD_0":6
					},
					"indices":7,
					"material":0
				}
			]
		},
		{
			"name":"Cube.001",
			"primitives":[
				{
					"attributes":{
						"POSITION":8,
						"NORMAL":9,
						"TEXCOORD_0":10
					},
					"indices":11,
					"material":0
				}
			]
		},
		{
			"name":"Plane.006",
			"primitives":[
				{
					"attributes":{
						"POSITION":12,
						"NORMAL":13,
						"TEXCOORD_0":14
					},
					"indices":15,
					"material":0
				}
			]
		},
		{
			"name":"Plane.007",
			"primitives":[
				{
					"attributes":{
						"POSITION":16,
						"NORMAL":17,
						"TEXCOORD_0":18
					},
					"indices":19,
					"material":1
				}
			]
		},
		{
			"name":"Plane.002",
			"primitives":[
				{
					"attributes":{
						"POSITION":20,
						"NORMAL":21,
						"TEXCOORD_0":22
					},
					"indices":23,
					"material":2
				}
			]
		},
		{
			"name":"Plane.005",
			"primitives":[
				{
					"attributes":{
						"POSITION":24,
						"NORMAL":25,
						"TEXCOORD_0":26
					},
					"indices":27,
					"material":3
				}
			]
		},
		{
			"name":"Plane.008",
			"primitives":[
				{
					"attributes":{
						"POSITION":28,
						"NORMAL":29,
						"TEXCOORD_0":30
					},
					"indices":31,
					"material":4
				}
			]
		},
		{
			"name":"Plane.010",
			"primitives":[
				{
					"attributes":{
						"POSITION":32,
						"NORMAL":33,
						"TEXCOORD_0":34
					},
					"indices":35,
					"material":5
				}
			]
		}
	],
	"textures":[
		{
			"sampler":0,
			"source":0
		},
		{
			"sampler":0,
			"source":1
		},
		{
			"sampler":0,
			"source":2
		},
		{
			"sampler":0,
			"source":3
		},
		{
			"sampler":0,
			"source":4
		},
		{
			"sampler":0,
			"source":5
		},
		{
			"sampler":0,
			"source":3
		},
		{
			"sampler":0,
			"source":4
		},
		{
			"sampler":0,
			"source":5
		},
		{
			"sampler":0,
			"source":6
		},
		{
			"sampler":0,
			"source":7
		},
		{
			"sampler":0,
			"source":8
		},
		{
			"sampler":0,
			"source":9
		},
		{
			"sampler":0,
			"source":10
		},
		{
			"sampler":0,
			"source":11
		},
		{
			"sampler":0,
			"source":12
		},
		{
			"sampler":0,
			"source":13
		},
		{
			"sampler":0,
			"source":2
		}
	],
	"images":[
		{
			"mimeType":"image/png",
			"name":"Plaster001_2K_NormalGL",
			"uri":"Plaster001_2K_NormalGL.png"
		},
		{
			"mimeType":"image/png",
			"name":"Plaster001_2K_Color",
			"uri":"Plaster001_2K_Color.png"
		},
		{
			"mimeType":"image/png",
			"name":"Plaster001_2K_Roughness",
			"uri":"Plaster001_2K_Roughness.png"
		},
		{
			"mimeType":"image/png",
			"name":"LCZWall_2K_NormalGL",
			"uri":"LCZWall_2K_NormalGL.png"
		},
		{
			"mimeType":"image/png",
			"name":"LCZWall_2K_Color",
			"uri":"LCZWall_2K_Color.png"
		},
		{
			"mimeType":"image/png",
			"name":"LCZWall_2K_Roughness",
			"uri":"LCZWall_2K_Roughness.png"
		},
		{
			"mimeType":"image/png",
			"name":"OfficeCeiling001_2K_NormalGL",
			"uri":"OfficeCeiling001_2K_NormalGL.png"
		},
		{
			"mimeType":"image/png",
			"name":"OfficeCeiling001_2K_Color",
			"uri":"OfficeCeiling001_2K_Color.png"
		},
		{
			"mimeType":"image/png",
			"name":"OfficeCeiling001_2K_Metalness.png-OfficeCeiling001_2K_Roughness.png",
			"uri":"OfficeCeiling001_2K_Metalness_png-OfficeCeiling001_2K_Roughness_png.png"
		},
		{
			"mimeType":"image/png",
			"name":"Tiles107_2K_NormalGL",
			"uri":"Tiles107_2K_NormalGL.png"
		},
		{
			"mimeType":"image/png",
			"name":"Tiles107_2K_Color",
			"uri":"Tiles107_2K_Color.png"
		},
		{
			"mimeType":"image/png",
			"name":"Tiles107_2K_Roughness",
			"uri":"Tiles107_2K_Roughness.png"
		},
		{
			"mimeType":"image/png",
			"name":"Plaster001_2K_NormalGL",
			"uri":"Plaster001_2K_NormalGL-1.png"
		},
		{
			"mimeType":"image/png",
			"name":"Plaster001_2K_Color",
			"uri":"Plaster001_2K_Color-1.png"
		}
	],
	"accessors":[
		{
			"bufferView":0,
			"componentType":5126,
			"count":710,
			"max":[
				2.2217674255371094,
				6.996889114379883,
				0.5211169719696045
			],
			"min":[
				-8.161969184875488,
				-0.0031108856201171875,
				-9.918769836425781
			],
			"type":"VEC3"
		},
		{
			"bufferView":1,
			"componentType":5126,
			"count":710,
			"type":"VEC3"
		},
		{
			"bufferView":2,
			"componentType":5126,
			"count":710,
			"type":"VEC2"
		},
		{
			"bufferView":3,
			"componentType":5123,
			"count":2364,
			"type":"SCALAR"
		},
		{
			"bufferView":4,
			"componentType":5126,
			"count":24,
			"max":[
				-8.107049942016602,
				7.102725028991699,
				0.328122615814209
			],
			"min":[
				-8.377817153930664,
				-0.10576725006103516,
				-10.042526245117188
			],
			"type":"VEC3"
		},
		{
			"bufferView":5,
			"componentType":5126,
			"count":24,
			"type":"VEC3"
		},
		{
			"bufferView":6,
			"componentType":5126,
			"count":24,
			"type":"VEC2"
		},
		{
			"bufferView":7,
			"componentType":5123,
			"count":36,
			"type":"SCALAR"
		},
		{
			"bufferView":8,
			"componentType":5126,
			"count":24,
			"max":[
				8.20998764038086,
				7.102725028991699,
				-9.78659725189209
			],
			"min":[
				-8.20998764038086,
				-0.10576725006103516,
				-10.057364463806152
			],
			"type":"VEC3"
		},
		{
			"bufferView":9,
			"componentType":5126,
			"count":24,
			"type":"VEC3"
		},
		{
			"bufferView":10,
			"componentType":5126,
			"count":24,
			"type":"VEC2"
		},
		{
			"bufferView":11,
			"componentType":5123,
			"count":36,
			"type":"SCALAR"
		},
		{
			"bufferView":12,
			"componentType":5126,
			"count":154,
			"max":[
				7.7036452293396,
				6.996889114379883,
				0.46627140045166016
			],
			"min":[
				2.120579957962036,
				-0.0031108942348510027,
				0.24575233459472656
			],
			"type":"VEC3"
		},
		{
			"bufferView":13,
			"componentType":5126,
			"count":154,
			"type":"VEC3"
		},
		{
			"bufferView":14,
			"componentType":5126,
			"count":154,
			"type":"VEC2"
		},
		{
			"bufferView":15,
			"componentType":5123,
			"count":252,
			"type":"SCALAR"
		},
		{
			"bufferView":16,
			"componentType":5126,
			"count":56,
			"max":[
				-7.327614784240723,
				6.989880561828613,
				10.109539985656738
			],
			"min":[
				-7.80000114440918,
				0.010661125183105469,
				-0.012111976742744446
			],
			"type":"VEC3"
		},
		{
			"bufferView":17,
			"componentType":5126,
			"count":56,
			"type":"VEC3"
		},
		{
			"bufferView":18,
			"componentType":5126,
			"count":56,
			"type":"VEC2"
		},
		{
			"bufferView":19,
			"componentType":5123,
			"count":84,
			"type":"SCALAR"
		},
		{
			"bufferView":20,
			"componentType":5126,
			"count":56,
			"max":[
				7.800000190734863,
				6.989880561828613,
				10.08602237701416
			],
			"min":[
				7.327615737915039,
				0.010661125183105469,
				-10.109539031982422
			],
			"type":"VEC3"
		},
		{
			"bufferView":21,
			"componentType":5126,
			"count":56,
			"type":"VEC3"
		},
		{
			"bufferView":22,
			"componentType":5126,
			"count":56,
			"type":"VEC2"
		},
		{
			"bufferView":23,
			"componentType":5123,
			"count":84,
			"type":"SCALAR"
		},
		{
			"bufferView":24,
			"componentType":5126,
			"count":4,
			"max":[
				10,
				6.99613094329834,
				10
			],
			"min":[
				-10,
				6.99613094329834,
				-10
			],
			"type":"VEC3"
		},
		{
			"bufferView":25,
			"componentType":5126,
			"count":4,
			"type":"VEC3"
		},
		{
			"bufferView":26,
			"componentType":5126,
			"count":4,
			"type":"VEC2"
		},
		{
			"bufferView":27,
			"componentType":5123,
			"count":6,
			"type":"SCALAR"
		},
		{
			"bufferView":28,
			"componentType":5126,
			"count":4,
			"max":[
				10,
				3.755558282136917e-07,
				10.238296508789062
			],
			"min":[
				-10,
				3.755558282136917e-07,
				-10.238296508789062
			],
			"type":"VEC3"
		},
		{
			"bufferView":29,
			"componentType":5126,
			"count":4,
			"type":"VEC3"
		},
		{
			"bufferView":30,
			"componentType":5126,
			"count":4,
			"type":"VEC2"
		},
		{
			"bufferView":31,
			"componentType":5123,
			"count":6,
			"type":"SCALAR"
		},
		{
			"bufferView":32,
			"componentType":5126,
			"count":57,
			"max":[
				8.00000286102295,
				6.996889114379883,
				10.238296508789062
			],
			"min":[
				-7.999997615814209,
				-0.0031108856201171875,
				9.9354829788208
			],
			"type":"VEC3"
		},
		{
			"bufferView":33,
			"componentType":5126,
			"count":57,
			"type":"VEC3"
		},
		{
			"bufferView":34,
			"componentType":5126,
			"count":57,
			"type":"VEC2"
		},
		{
			"bufferView":35,
			"componentType":5123,
			"count":129,
			"type":"SCALAR"
		}
	],
	"bufferViews":[
		{
			"buffer":0,
			"byteLength":8520,
			"byteOffset":0,
			"target":34962
		},
		{
			"buffer":0,
			"byteLength":8520,
			"byteOffset":8520,
			"target":34962
		},
		{
			"buffer":0,
			"byteLength":5680,
			"byteOffset":17040,
			"target":34962
		},
		{
			"buffer":0,
			"byteLength":4728,
			"byteOffset":22720,
			"target":34963
		},
		{
			"buffer":0,
			"byteLength":288,
			"byteOffset":27448,
			"target":34962
		},
		{
			"buffer":0,
			"byteLength":288,
			"byteOffset":27736,
			"target":34962
		},
		{
			"buffer":0,
			"byteLength":192,
			"byteOffset":28024,
			"target":34962
		},
		{
			"buffer":0,
			"byteLength":72,
			"byteOffset":28216,
			"target":34963
		},
		{
			"buffer":0,
			"byteLength":288,
			"byteOffset":28288,
			"target":34962
		},
		{
			"buffer":0,
			"byteLength":288,
			"byteOffset":28576,
			"target":34962
		},
		{
			"buffer":0,
			"byteLength":192,
			"byteOffset":28864,
			"target":34962
		},
		{
			"buffer":0,
			"byteLength":72,
			"byteOffset":29056,
			"target":34963
		},
		{
			"buffer":0,
			"byteLength":1848,
			"byteOffset":29128,
			"target":34962
		},
		{
			"buffer":0,
			"byteLength":1848,
			"byteOffset":30976,
			"target":34962
		},
		{
			"buffer":0,
			"byteLength":1232,
			"byteOffset":32824,
			"target":34962
		},
		{
			"buffer":0,
			"byteLength":504,
			"byteOffset":34056,
			"target":34963
		},
		{
			"buffer":0,
			"byteLength":672,
			"byteOffset":34560,
			"target":34962
		},
		{
			"buffer":0,
			"byteLength":672,
			"byteOffset":35232,
			"target":34962
		},
		{
			"buffer":0,
			"byteLength":448,
			"byteOffset":35904,
			"target":34962
		},
		{
			"buffer":0,
			"byteLength":168,
			"byteOffset":36352,
			"target":34963
		},
		{
			"buffer":0,
			"byteLength":672,
			"byteOffset":36520,
			"target":34962
		},
		{
			"buffer":0,
			"byteLength":672,
			"byteOffset":37192,
			"target":34962
		},
		{
			"buffer":0,
			"byteLength":448,
			"byteOffset":37864,
			"target":34962
		},
		{
			"buffer":0,
			"byteLength":168,
			"byteOffset":38312,
			"target":34963
		},
		{
			"buffer":0,
			"byteLength":48,
			"byteOffset":38480,
			"target":34962
		},
		{
			"buffer":0,
			"byteLength":48,
			"byteOffset":38528,
			"target":34962
		},
		{
			"buffer":0,
			"byteLength":32,
			"byteOffset":38576,
			"target":34962
		},
		{
			"buffer":0,
			"byteLength":12,
			"byteOffset":38608,
			"target":34963
		},
		{
			"buffer":0,
			"byteLength":48,
			"byteOffset":38620,
			"target":34962
		},
		{
			"buffer":0,
			"byteLength":48,
			"byteOffset":38668,
			"target":34962
		},
		{
			"buffer":0,
			"byteLength":32,
			"byteOffset":38716,
			"target":34962
		},
		{
			"buffer":0,
			"byteLength":12,
			"byteOffset":38748,
			"target":34963
		},
		{
			"buffer":0,
			"byteLength":684,
			"byteOffset":38760,
			"target":34962
		},
		{
			"buffer":0,
			"byteLength":684,
			"byteOffset":39444,
			"target":34962
		},
		{
			"buffer":0,
			"byteLength":456,
			"byteOffset":40128,
			"target":34962
		},
		{
			"buffer":0,
			"byteLength":258,
			"byteOffset":40584,
			"target":34963
		}
	],
	"samplers":[
		{
			"magFilter":9729,
			"minFilter":9987
		}
	],
	"buffers":[
		{
			"byteLength":40844,
			"uri":"LC_cont1_079.bin"
		}
	]
}
