{
	"asset":{
		"generator":"Khronos glTF Blender I/O v3.6.27",
		"version":"2.0"
	},
	"scene":0,
	"scenes":[
		{
			"name":"Scene",
			"nodes":[
				0,
				1,
				2,
				3,
				4,
				5,
				6,
				7,
				8,
				9
			]
		}
	],
	"nodes":[
		{
			"mesh":0,
			"name":"LCZWallCurve"
		},
		{
			"mesh":1,
			"name":"Floor.001"
		},
		{
			"mesh":2,
			"name":"DoorPath.004"
		},
		{
			"mesh":3,
			"name":"DoorPath.003"
		},
		{
			"mesh":4,
			"name":"DoorPath.002"
		},
		{
			"mesh":5,
			"name":"DoorPath.001"
		},
		{
			"mesh":6,
			"name":"Ceiling"
		},
		{
			"mesh":7,
			"name":"LCZWallCurve.001"
		},
		{
			"mesh":8,
			"name":"LCZWallCurve.002"
		},
		{
			"mesh":9,
			"name":"LCZWallCurve.003"
		}
	],
	"materials":[
		{
			"doubleSided":true,
			"name":"Material.001",
			"normalTexture":{
				"index":0
			},
			"pbrMetallicRoughness":{
				"baseColorTexture":{
					"index":1
				},
				"metallicFactor":0,
				"roughnessFactor":0.5
			}
		},
		{
			"doubleSided":true,
			"name":"Material.013",
			"normalTexture":{
				"index":2
			},
			"pbrMetallicRoughness":{
				"baseColorTexture":{
					"index":3
				},
				"metallicFactor":0,
				"metallicRoughnessTexture":{
					"index":4
				}
			}
		},
		{
			"doubleSided":true,
			"name":"Material.015",
			"normalTexture":{
				"index":5
			},
			"pbrMetallicRoughness":{
				"baseColorTexture":{
					"index":6
				},
				"metallicFactor":0,
				"metallicRoughnessTexture":{
					"index":7
				}
			}
		},
		{
			"doubleSided":true,
			"name":"Material.008",
			"normalTexture":{
				"index":8
			},
			"pbrMetallicRoughness":{
				"baseColorTexture":{
					"index":9
				},
				"metallicFactor":0,
				"metallicRoughnessTexture":{
					"index":10
				}
			}
		},
		{
			"doubleSided":true,
			"name":"Material.007",
			"normalTexture":{
				"index":11
			},
			"pbrMetallicRoughness":{
				"baseColorTexture":{
					"index":12
				},
				"metallicFactor":0,
				"metallicRoughnessTexture":{
					"index":13
				}
			}
		},
		{
			"doubleSided":true,
			"name":"Material.002",
			"normalTexture":{
				"index":14
			},
			"pbrMetallicRoughness":{
				"baseColorTexture":{
					"index":15
				},
				"metallicFactor":0,
				"metallicRoughnessTexture":{
					"index":16
				}
			}
		},
		{
			"doubleSided":true,
			"name":"Material.004",
			"normalTexture":{
				"index":17
			},
			"pbrMetallicRoughness":{
				"baseColorTexture":{
					"index":18
				},
				"metallicRoughnessTexture":{
					"index":19
				}
			}
		},
		{
			"doubleSided":true,
			"name":"Material.003",
			"normalTexture":{
				"index":20
			},
			"pbrMetallicRoughness":{
				"baseColorTexture":{
					"index":21
				},
				"metallicFactor":0,
				"roughnessFactor":0.5
			}
		},
		{
			"doubleSided":true,
			"name":"Material.005",
			"normalTexture":{
				"index":22
			},
			"pbrMetallicRoughness":{
				"baseColorTexture":{
					"index":23
				},
				"metallicFactor":0,
				"roughnessFactor":0.5
			}
		},
		{
			"doubleSided":true,
			"name":"Material.006",
			"normalTexture":{
				"index":24
			},
			"pbrMetallicRoughness":{
				"baseColorTexture":{
					"index":25
				},
				"metallicFactor":0,
				"roughnessFactor":0.5
			}
		}
	],
	"meshes":[
		{
			"name":"Plane.018",
			"primitives":[
				{
					"attributes":{
						"POSITION":0,
						"NORMAL":1,
						"TEXCOORD_0":2
					},
					"indices":3,
					"material":0
				}
			]
		},
		{
			"name":"Plane.008",
			"primitives":[
				{
					"attributes":{
						"POSITION":4,
						"NORMAL":5,
						"TEXCOORD_0":6
					},
					"indices":7,
					"material":1
				}
			]
		},
		{
			"name":"Plane.010",
			"primitives":[
				{
					"attributes":{
						"POSITION":8,
						"NORMAL":9,
						"TEXCOORD_0":10
					},
					"indices":11,
					"material":2
				}
			]
		},
		{
			"name":"Plane.015",
			"primitives":[
				{
					"attributes":{
						"POSITION":12,
						"NORMAL":13,
						"TEXCOORD_0":14
					},
					"indices":15,
					"material":3
				}
			]
		},
		{
			"name":"Plane.014",
			"primitives":[
				{
					"attributes":{
						"POSITION":16,
						"NORMAL":17,
						"TEXCOORD_0":18
					},
					"indices":19,
					"material":4
				}
			]
		},
		{
			"name":"Plane.001",
			"primitives":[
				{
					"attributes":{
						"POSITION":20,
						"NORMAL":21,
						"TEXCOORD_0":22
					},
					"indices":23,
					"material":5
				}
			]
		},
		{
			"name":"Plane.005",
			"primitives":[
				{
					"attributes":{
						"POSITION":24,
						"NORMAL":25,
						"TEXCOORD_0":26
					},
					"indices":27,
					"material":6
				}
			]
		},
		{
			"name":"Plane.002",
			"primitives":[
				{
					"attributes":{
						"POSITION":28,
						"NORMAL":29,
						"TEXCOORD_0":30
					},
					"indices":31,
					"material":7
				}
			]
		},
		{
			"name":"Plane.003",
			"primitives":[
				{
					"attributes":{
						"POSITION":32,
						"NORMAL":33,
						"TEXCOORD_0":34
					},
					"indices":35,
					"material":8
				}
			]
		},
		{
			"name":"Plane.004",
			"primitives":[
				{
					"attributes":{
						"POSITION":36,
						"NORMAL":37,
						"TEXCOORD_0":38
					},
					"indices":39,
					"material":9
				}
			]
		}
	],
	"textures":[
		{
			"sampler":0,
			"source":0
		},
		{
			"sampler":0,
			"source":1
		},
		{
			"sampler":0,
			"source":2
		},
		{
			"sampler":0,
			"source":3
		},
		{
			"sampler":0,
			"source":4
		},
		{
			"sampler":0,
			"source":5
		},
		{
			"sampler":0,
			"source":6
		},
		{
			"sampler":0,
			"source":7
		},
		{
			"sampler":0,
			"source":5
		},
		{
			"sampler":0,
			"source":6
		},
		{
			"sampler":0,
			"source":7
		},
		{
			"sampler":0,
			"source":5
		},
		{
			"sampler":0,
			"source":6
		},
		{
			"sampler":0,
			"source":7
		},
		{
			"sampler":0,
			"source":5
		},
		{
			"sampler":0,
			"source":6
		},
		{
			"sampler":0,
			"source":7
		},
		{
			"sampler":0,
			"source":8
		},
		{
			"sampler":0,
			"source":9
		},
		{
			"sampler":0,
			"source":10
		},
		{
			"sampler":0,
			"source":0
		},
		{
			"sampler":0,
			"source":1
		},
		{
			"sampler":0,
			"source":0
		},
		{
			"sampler":0,
			"source":1
		},
		{
			"sampler":0,
			"source":0
		},
		{
			"sampler":0,
			"source":1
		}
	],
	"images":[
		{
			"mimeType":"image/png",
			"name":"Plaster001_2K_NormalGL",
			"uri":"Plaster001_2K_NormalGL.png"
		},
		{
			"mimeType":"image/png",
			"name":"Plaster001_2K_Color",
			"uri":"Plaster001_2K_Color.png"
		},
		{
			"mimeType":"image/png",
			"name":"Tiles107_2K_NormalGL",
			"uri":"Tiles107_2K_NormalGL.png"
		},
		{
			"mimeType":"image/png",
			"name":"Tiles107_2K_Color",
			"uri":"Tiles107_2K_Color.png"
		},
		{
			"mimeType":"image/png",
			"name":"Tiles107_2K_Roughness",
			"uri":"Tiles107_2K_Roughness.png"
		},
		{
			"mimeType":"image/png",
			"name":"Plaster001_2K_NormalGL",
			"uri":"Plaster001_2K_NormalGL-1.png"
		},
		{
			"mimeType":"image/png",
			"name":"Plaster001_2K_Color",
			"uri":"Plaster001_2K_Color-1.png"
		},
		{
			"mimeType":"image/png",
			"name":"Plaster001_2K_Roughness",
			"uri":"Plaster001_2K_Roughness.png"
		},
		{
			"mimeType":"image/png",
			"name":"OfficeCeiling001_2K_NormalGL",
			"uri":"OfficeCeiling001_2K_NormalGL.png"
		},
		{
			"mimeType":"image/png",
			"name":"OfficeCeiling001_2K_Color",
			"uri":"OfficeCeiling001_2K_Color.png"
		},
		{
			"mimeType":"image/png",
			"name":"OfficeCeiling001_2K_Metalness-OfficeCeiling001_2K_Roughness",
			"uri":"OfficeCeiling001_2K_Metalness-OfficeCeiling001_2K_Roughness.png"
		}
	],
	"accessors":[
		{
			"bufferView":0,
			"componentType":5126,
			"count":108,
			"max":[
				10.141385078430176,
				7.02259635925293,
				-2.034972906112671
			],
			"min":[
				2.3377885818481445,
				-0.12169766426086426,
				-10.076848983764648
			],
			"type":"VEC3"
		},
		{
			"bufferView":1,
			"componentType":5126,
			"count":108,
			"type":"VEC3"
		},
		{
			"bufferView":2,
			"componentType":5126,
			"count":108,
			"type":"VEC2"
		},
		{
			"bufferView":3,
			"componentType":5123,
			"count":162,
			"type":"SCALAR"
		},
		{
			"bufferView":4,
			"componentType":5126,
			"count":4,
			"max":[
				10.238296508789062,
				3.755558282136917e-07,
				10.238296508789062
			],
			"min":[
				-10.238295555114746,
				3.755558282136917e-07,
				-10.238296508789062
			],
			"type":"VEC3"
		},
		{
			"bufferView":5,
			"componentType":5126,
			"count":4,
			"type":"VEC3"
		},
		{
			"bufferView":6,
			"componentType":5126,
			"count":4,
			"type":"VEC2"
		},
		{
			"bufferView":7,
			"componentType":5123,
			"count":6,
			"type":"SCALAR"
		},
		{
			"bufferView":8,
			"componentType":5126,
			"count":57,
			"max":[
				7.999996662139893,
				6.996889114379883,
				-9.935482025146484
			],
			"min":[
				-8.000003814697266,
				-0.0031108856201171875,
				-10.238296508789062
			],
			"type":"VEC3"
		},
		{
			"bufferView":9,
			"componentType":5126,
			"count":57,
			"type":"VEC3"
		},
		{
			"bufferView":10,
			"componentType":5126,
			"count":57,
			"type":"VEC2"
		},
		{
			"bufferView":11,
			"componentType":5123,
			"count":129,
			"type":"SCALAR"
		},
		{
			"bufferView":12,
			"componentType":5126,
			"count":57,
			"max":[
				-9.9354829788208,
				6.996889114379883,
				8.00000286102295
			],
			"min":[
				-10.238296508789062,
				-0.0031108856201171875,
				-7.999998092651367
			],
			"type":"VEC3"
		},
		{
			"bufferView":13,
			"componentType":5126,
			"count":57,
			"type":"VEC3"
		},
		{
			"bufferView":14,
			"componentType":5126,
			"count":57,
			"type":"VEC2"
		},
		{
			"bufferView":15,
			"componentType":5123,
			"count":129,
			"type":"SCALAR"
		},
		{
			"bufferView":16,
			"componentType":5126,
			"count":57,
			"max":[
				10.238296508789062,
				6.996889114379883,
				7.999997138977051
			],
			"min":[
				9.9354829788208,
				-0.0031108856201171875,
				-8.00000286102295
			],
			"type":"VEC3"
		},
		{
			"bufferView":17,
			"componentType":5126,
			"count":57,
			"type":"VEC3"
		},
		{
			"bufferView":18,
			"componentType":5126,
			"count":57,
			"type":"VEC2"
		},
		{
			"bufferView":19,
			"componentType":5123,
			"count":129,
			"type":"SCALAR"
		},
		{
			"bufferView":20,
			"componentType":5126,
			"count":57,
			"max":[
				8.00000286102295,
				6.996889114379883,
				10.238296508789062
			],
			"min":[
				-7.999997615814209,
				-0.0031108856201171875,
				9.9354829788208
			],
			"type":"VEC3"
		},
		{
			"bufferView":21,
			"componentType":5126,
			"count":57,
			"type":"VEC3"
		},
		{
			"bufferView":22,
			"componentType":5126,
			"count":57,
			"type":"VEC2"
		},
		{
			"bufferView":23,
			"componentType":5123,
			"count":129,
			"type":"SCALAR"
		},
		{
			"bufferView":24,
			"componentType":5126,
			"count":4,
			"max":[
				10,
				6.99613094329834,
				10
			],
			"min":[
				-10,
				6.99613094329834,
				-10
			],
			"type":"VEC3"
		},
		{
			"bufferView":25,
			"componentType":5126,
			"count":4,
			"type":"VEC3"
		},
		{
			"bufferView":26,
			"componentType":5126,
			"count":4,
			"type":"VEC2"
		},
		{
			"bufferView":27,
			"componentType":5123,
			"count":6,
			"type":"SCALAR"
		},
		{
			"bufferView":28,
			"componentType":5126,
			"count":108,
			"max":[
				-2.2849924564361572,
				7.02259635925293,
				-2.034971237182617
			],
			"min":[
				-10.088587760925293,
				-0.12169814109802246,
				-10.076848983764648
			],
			"type":"VEC3"
		},
		{
			"bufferView":29,
			"componentType":5126,
			"count":108,
			"type":"VEC3"
		},
		{
			"bufferView":30,
			"componentType":5126,
			"count":108,
			"type":"VEC2"
		},
		{
			"bufferView":31,
			"componentType":5123,
			"count":162,
			"type":"SCALAR"
		},
		{
			"bufferView":32,
			"componentType":5126,
			"count":108,
			"max":[
				10.088587760925293,
				7.02259635925293,
				10.076848983764648
			],
			"min":[
				2.28499174118042,
				-0.12169814109802246,
				2.0349721908569336
			],
			"type":"VEC3"
		},
		{
			"bufferView":33,
			"componentType":5126,
			"count":108,
			"type":"VEC3"
		},
		{
			"bufferView":34,
			"componentType":5126,
			"count":108,
			"type":"VEC2"
		},
		{
			"bufferView":35,
			"componentType":5123,
			"count":162,
			"type":"SCALAR"
		},
		{
			"bufferView":36,
			"componentType":5126,
			"count":108,
			"max":[
				-2.337789535522461,
				7.02259635925293,
				10.076848983764648
			],
			"min":[
				-10.141385078430176,
				-0.12169766426086426,
				2.0349721908569336
			],
			"type":"VEC3"
		},
		{
			"bufferView":37,
			"componentType":5126,
			"count":108,
			"type":"VEC3"
		},
		{
			"bufferView":38,
			"componentType":5126,
			"count":108,
			"type":"VEC2"
		},
		{
			"bufferView":39,
			"componentType":5123,
			"count":162,
			"type":"SCALAR"
		}
	],
	"bufferViews":[
		{
			"buffer":0,
			"byteLength":1296,
			"byteOffset":0,
			"target":34962
		},
		{
			"buffer":0,
			"byteLength":1296,
			"byteOffset":1296,
			"target":34962
		},
		{
			"buffer":0,
			"byteLength":864,
			"byteOffset":2592,
			"target":34962
		},
		{
			"buffer":0,
			"byteLength":324,
			"byteOffset":3456,
			"target":34963
		},
		{
			"buffer":0,
			"byteLength":48,
			"byteOffset":3780,
			"target":34962
		},
		{
			"buffer":0,
			"byteLength":48,
			"byteOffset":3828,
			"target":34962
		},
		{
			"buffer":0,
			"byteLength":32,
			"byteOffset":3876,
			"target":34962
		},
		{
			"buffer":0,
			"byteLength":12,
			"byteOffset":3908,
			"target":34963
		},
		{
			"buffer":0,
			"byteLength":684,
			"byteOffset":3920,
			"target":34962
		},
		{
			"buffer":0,
			"byteLength":684,
			"byteOffset":4604,
			"target":34962
		},
		{
			"buffer":0,
			"byteLength":456,
			"byteOffset":5288,
			"target":34962
		},
		{
			"buffer":0,
			"byteLength":258,
			"byteOffset":5744,
			"target":34963
		},
		{
			"buffer":0,
			"byteLength":684,
			"byteOffset":6004,
			"target":34962
		},
		{
			"buffer":0,
			"byteLength":684,
			"byteOffset":6688,
			"target":34962
		},
		{
			"buffer":0,
			"byteLength":456,
			"byteOffset":7372,
			"target":34962
		},
		{
			"buffer":0,
			"byteLength":258,
			"byteOffset":7828,
			"target":34963
		},
		{
			"buffer":0,
			"byteLength":684,
			"byteOffset":8088,
			"target":34962
		},
		{
			"buffer":0,
			"byteLength":684,
			"byteOffset":8772,
			"target":34962
		},
		{
			"buffer":0,
			"byteLength":456,
			"byteOffset":9456,
			"target":34962
		},
		{
			"buffer":0,
			"byteLength":258,
			"byteOffset":9912,
			"target":34963
		},
		{
			"buffer":0,
			"byteLength":684,
			"byteOffset":10172,
			"target":34962
		},
		{
			"buffer":0,
			"byteLength":684,
			"byteOffset":10856,
			"target":34962
		},
		{
			"buffer":0,
			"byteLength":456,
			"byteOffset":11540,
			"target":34962
		},
		{
			"buffer":0,
			"byteLength":258,
			"byteOffset":11996,
			"target":34963
		},
		{
			"buffer":0,
			"byteLength":48,
			"byteOffset":12256,
			"target":34962
		},
		{
			"buffer":0,
			"byteLength":48,
			"byteOffset":12304,
			"target":34962
		},
		{
			"buffer":0,
			"byteLength":32,
			"byteOffset":12352,
			"target":34962
		},
		{
			"buffer":0,
			"byteLength":12,
			"byteOffset":12384,
			"target":34963
		},
		{
			"buffer":0,
			"byteLength":1296,
			"byteOffset":12396,
			"target":34962
		},
		{
			"buffer":0,
			"byteLength":1296,
			"byteOffset":13692,
			"target":34962
		},
		{
			"buffer":0,
			"byteLength":864,
			"byteOffset":14988,
			"target":34962
		},
		{
			"buffer":0,
			"byteLength":324,
			"byteOffset":15852,
			"target":34963
		},
		{
			"buffer":0,
			"byteLength":1296,
			"byteOffset":16176,
			"target":34962
		},
		{
			"buffer":0,
			"byteLength":1296,
			"byteOffset":17472,
			"target":34962
		},
		{
			"buffer":0,
			"byteLength":864,
			"byteOffset":18768,
			"target":34962
		},
		{
			"buffer":0,
			"byteLength":324,
			"byteOffset":19632,
			"target":34963
		},
		{
			"buffer":0,
			"byteLength":1296,
			"byteOffset":19956,
			"target":34962
		},
		{
			"buffer":0,
			"byteLength":1296,
			"byteOffset":21252,
			"target":34962
		},
		{
			"buffer":0,
			"byteLength":864,
			"byteOffset":22548,
			"target":34962
		},
		{
			"buffer":0,
			"byteLength":324,
			"byteOffset":23412,
			"target":34963
		}
	],
	"samplers":[
		{
			"magFilter":9729,
			"minFilter":9987
		}
	],
	"buffers":[
		{
			"byteLength":23736,
			"uri":"LC_room4.bin"
		}
	]
}
