{
	"asset":{
		"generator":"Khronos glTF Blender I/O v3.6.27",
		"version":"2.0"
	},
	"extensionsUsed":[
		"KHR_materials_specular",
		"KHR_materials_ior"
	],
	"scene":0,
	"scenes":[
		{
			"name":"Scene",
			"nodes":[
				0
			]
		}
	],
	"nodes":[
		{
			"mesh":0,
			"name":"PD_basement",
			"rotation":[
				0.70710688829422,
				0,
				0,
				0.7071066498756409
			],
			"scale":[
				0.009999999776482582,
				0.010000000707805157,
				0.010000000707805157
			]
		}
	],
	"materials":[
		{
			"doubleSided":true,
			"extensions":{
				"KHR_materials_specular":{
					"specularColorFactor":[
						2.371357614441398,
						2.371357614441398,
						2.371357614441398
					]
				},
				"KHR_materials_ior":{
					"ior":1.4500000476837158
				}
			},
			"name":"mat0.001",
			"normalTexture":{
				"index":0
			},
			"pbrMetallicRoughness":{
				"baseColorTexture":{
					"index":1
				},
				"metallicFactor":0,
				"metallicRoughnessTexture":{
					"index":2
				}
			}
		},
		{
			"doubleSided":true,
			"extensions":{
				"KHR_materials_specular":{
					"specularColorFactor":[
						2.371357614441398,
						2.371357614441398,
						2.371357614441398
					]
				},
				"KHR_materials_ior":{
					"ior":1.4500000476837158
				}
			},
			"name":"mat1.001",
			"normalTexture":{
				"index":3
			},
			"pbrMetallicRoughness":{
				"baseColorTexture":{
					"index":4
				},
				"metallicFactor":0,
				"metallicRoughnessTexture":{
					"index":5
				}
			}
		},
		{
			"doubleSided":true,
			"extensions":{
				"KHR_materials_specular":{
					"specularColorFactor":[
						2.371357614441398,
						2.371357614441398,
						2.371357614441398
					]
				},
				"KHR_materials_ior":{
					"ior":1.4500000476837158
				}
			},
			"name":"mat2",
			"pbrMetallicRoughness":{
				"baseColorTexture":{
					"index":6
				},
				"metallicFactor":0,
				"roughnessFactor":0.9505894184112549
			}
		},
		{
			"doubleSided":true,
			"extensions":{
				"KHR_materials_specular":{
					"specularColorFactor":[
						2.371357614441398,
						2.371357614441398,
						2.371357614441398
					]
				},
				"KHR_materials_ior":{
					"ior":1.4500000476837158
				}
			},
			"name":"mat3",
			"normalTexture":{
				"index":7
			},
			"pbrMetallicRoughness":{
				"baseColorTexture":{
					"index":8
				},
				"metallicRoughnessTexture":{
					"index":9
				}
			}
		}
	],
	"meshes":[
		{
			"name":"PD_basement",
			"primitives":[
				{
					"attributes":{
						"POSITION":0,
						"NORMAL":1,
						"TEXCOORD_0":2
					},
					"indices":3,
					"material":0
				},
				{
					"attributes":{
						"POSITION":4,
						"NORMAL":5,
						"TEXCOORD_0":6
					},
					"indices":7,
					"material":1
				},
				{
					"attributes":{
						"POSITION":8,
						"NORMAL":9,
						"TEXCOORD_0":10
					},
					"indices":11,
					"material":2
				},
				{
					"attributes":{
						"POSITION":12,
						"NORMAL":13,
						"TEXCOORD_0":14
					},
					"indices":15,
					"material":3
				}
			]
		}
	],
	"textures":[
		{
			"sampler":0,
			"source":0
		},
		{
			"sampler":0,
			"source":1
		},
		{
			"sampler":0,
			"source":2
		},
		{
			"sampler":0,
			"source":3
		},
		{
			"sampler":0,
			"source":4
		},
		{
			"sampler":0,
			"source":5
		},
		{
			"sampler":0,
			"source":6
		},
		{
			"sampler":0,
			"source":7
		},
		{
			"sampler":0,
			"source":8
		},
		{
			"sampler":0,
			"source":9
		}
	],
	"images":[
		{
			"mimeType":"image/png",
			"name":"PaintedBricks003_2K_NormalGL",
			"uri":"PaintedBricks003_2K_NormalGL.png"
		},
		{
			"mimeType":"image/png",
			"name":"PaintedBricks003_2K_Color",
			"uri":"PaintedBricks003_2K_Color.png"
		},
		{
			"mimeType":"image/png",
			"name":"PaintedBricks003_2K_Roughness",
			"uri":"PaintedBricks003_2K_Roughness.png"
		},
		{
			"mimeType":"image/png",
			"name":"Tiles107_2K_NormalGL",
			"uri":"Tiles107_2K_NormalGL.png"
		},
		{
			"mimeType":"image/png",
			"name":"Tiles107_2K_Color",
			"uri":"Tiles107_2K_Color.png"
		},
		{
			"mimeType":"image/png",
			"name":"Tiles107_2K_Roughness",
			"uri":"Tiles107_2K_Roughness.png"
		},
		{
			"mimeType":"image/jpeg",
			"name":"dirtymetal",
			"uri":"dirtymetal.jpg"
		},
		{
			"mimeType":"image/png",
			"name":"OfficeCeiling001_2K_NormalGL",
			"uri":"OfficeCeiling001_2K_NormalGL.png"
		},
		{
			"mimeType":"image/png",
			"name":"OfficeCeiling001_2K_Color",
			"uri":"OfficeCeiling001_2K_Color.png"
		},
		{
			"mimeType":"image/png",
			"name":"OfficeCeiling001_2K_Metalness-OfficeCeiling001_2K_Roughness",
			"uri":"OfficeCeiling001_2K_Metalness-OfficeCeiling001_2K_Roughness.png"
		}
	],
	"accessors":[
		{
			"bufferView":0,
			"componentType":5126,
			"count":1464,
			"max":[
				2048.00048828125,
				1440,
				0
			],
			"min":[
				-1024,
				-2816,
				-896.0001220703125
			],
			"type":"VEC3"
		},
		{
			"bufferView":1,
			"componentType":5126,
			"count":1464,
			"type":"VEC3"
		},
		{
			"bufferView":2,
			"componentType":5126,
			"count":1464,
			"type":"VEC2"
		},
		{
			"bufferView":3,
			"componentType":5123,
			"count":2196,
			"type":"SCALAR"
		},
		{
			"bufferView":4,
			"componentType":5126,
			"count":432,
			"max":[
				2016,
				1408.0006103515625,
				1
			],
			"min":[
				-1024,
				-2784,
				-480
			],
			"type":"VEC3"
		},
		{
			"bufferView":5,
			"componentType":5126,
			"count":432,
			"type":"VEC3"
		},
		{
			"bufferView":6,
			"componentType":5126,
			"count":432,
			"type":"VEC2"
		},
		{
			"bufferView":7,
			"componentType":5123,
			"count":648,
			"type":"SCALAR"
		},
		{
			"bufferView":8,
			"componentType":5126,
			"count":1008,
			"max":[
				2136,
				-2048,
				2.9999990463256836
			],
			"min":[
				704,
				-2824,
				2
			],
			"type":"VEC3"
		},
		{
			"bufferView":9,
			"componentType":5126,
			"count":1008,
			"type":"VEC3"
		},
		{
			"bufferView":10,
			"componentType":5126,
			"count":1008,
			"type":"VEC2"
		},
		{
			"bufferView":11,
			"componentType":5123,
			"count":1848,
			"type":"SCALAR"
		},
		{
			"bufferView":12,
			"componentType":5126,
			"count":24,
			"max":[
				2015.9990234375,
				991.9996948242188,
				-448
			],
			"min":[
				-992,
				-2016.000244140625,
				-449
			],
			"type":"VEC3"
		},
		{
			"bufferView":13,
			"componentType":5126,
			"count":24,
			"type":"VEC3"
		},
		{
			"bufferView":14,
			"componentType":5126,
			"count":24,
			"type":"VEC2"
		},
		{
			"bufferView":15,
			"componentType":5123,
			"count":36,
			"type":"SCALAR"
		}
	],
	"bufferViews":[
		{
			"buffer":0,
			"byteLength":17568,
			"byteOffset":0,
			"target":34962
		},
		{
			"buffer":0,
			"byteLength":17568,
			"byteOffset":17568,
			"target":34962
		},
		{
			"buffer":0,
			"byteLength":11712,
			"byteOffset":35136,
			"target":34962
		},
		{
			"buffer":0,
			"byteLength":4392,
			"byteOffset":46848,
			"target":34963
		},
		{
			"buffer":0,
			"byteLength":5184,
			"byteOffset":51240,
			"target":34962
		},
		{
			"buffer":0,
			"byteLength":5184,
			"byteOffset":56424,
			"target":34962
		},
		{
			"buffer":0,
			"byteLength":3456,
			"byteOffset":61608,
			"target":34962
		},
		{
			"buffer":0,
			"byteLength":1296,
			"byteOffset":65064,
			"target":34963
		},
		{
			"buffer":0,
			"byteLength":12096,
			"byteOffset":66360,
			"target":34962
		},
		{
			"buffer":0,
			"byteLength":12096,
			"byteOffset":78456,
			"target":34962
		},
		{
			"buffer":0,
			"byteLength":8064,
			"byteOffset":90552,
			"target":34962
		},
		{
			"buffer":0,
			"byteLength":3696,
			"byteOffset":98616,
			"target":34963
		},
		{
			"buffer":0,
			"byteLength":288,
			"byteOffset":102312,
			"target":34962
		},
		{
			"buffer":0,
			"byteLength":288,
			"byteOffset":102600,
			"target":34962
		},
		{
			"buffer":0,
			"byteLength":192,
			"byteOffset":102888,
			"target":34962
		},
		{
			"buffer":0,
			"byteLength":72,
			"byteOffset":103080,
			"target":34963
		}
	],
	"samplers":[
		{
			"magFilter":9729,
			"minFilter":9987
		}
	],
	"buffers":[
		{
			"byteLength":103152,
			"uri":"PD_basement.bin"
		}
	]
}
