{
	"asset":{
		"generator":"Khronos glTF Blender I/O v3.6.27",
		"version":"2.0"
	},
	"extensionsUsed":[
		"KHR_materials_specular",
		"KHR_materials_ior"
	],
	"scene":0,
	"scenes":[
		{
			"name":"Scene",
			"nodes":[
				0
			]
		}
	],
	"nodes":[
		{
			"mesh":0,
			"name":"PD_startroom"
		}
	],
	"materials":[
		{
			"doubleSided":true,
			"extensions":{
				"KHR_materials_specular":{
					"specularColorFactor":[
						2.371357614441398,
						2.371357614441398,
						2.371357614441398
					]
				},
				"KHR_materials_ior":{
					"ior":1.4500000476837158
				}
			},
			"name":"mat0",
			"normalTexture":{
				"index":0
			},
			"pbrMetallicRoughness":{
				"baseColorTexture":{
					"index":1
				},
				"metallicFactor":0,
				"metallicRoughnessTexture":{
					"index":2
				}
			}
		},
		{
			"doubleSided":true,
			"extensions":{
				"KHR_materials_specular":{
					"specularColorFactor":[
						2.371357614441398,
						2.371357614441398,
						2.371357614441398
					]
				},
				"KHR_materials_ior":{
					"ior":1.4500000476837158
				}
			},
			"name":"mat1",
			"pbrMetallicRoughness":{
				"baseColorTexture":{
					"index":3
				},
				"metallicFactor":0,
				"roughnessFactor":0.9505894184112549
			}
		}
	],
	"meshes":[
		{
			"name":"PD_startroom",
			"primitives":[
				{
					"attributes":{
						"POSITION":0,
						"NORMAL":1,
						"TEXCOORD_0":2
					},
					"indices":3,
					"material":0
				},
				{
					"attributes":{
						"POSITION":4,
						"NORMAL":5,
						"TEXCOORD_0":6
					},
					"indices":7,
					"material":1
				}
			]
		}
	],
	"textures":[
		{
			"sampler":0,
			"source":0
		},
		{
			"sampler":0,
			"source":1
		},
		{
			"sampler":0,
			"source":2
		},
		{
			"sampler":0,
			"source":3
		}
	],
	"images":[
		{
			"mimeType":"image/png",
			"name":"Rock046S_2K_NormalGL",
			"uri":"Rock046S_2K_NormalGL.png"
		},
		{
			"mimeType":"image/png",
			"name":"Rock046S_2K_Color",
			"uri":"Rock046S_2K_Color.png"
		},
		{
			"mimeType":"image/png",
			"name":"Rock046S_2K_Roughness",
			"uri":"Rock046S_2K_Roughness.png"
		},
		{
			"mimeType":"image/jpeg",
			"name":"rockmoss",
			"uri":"rockmoss.jpg"
		}
	],
	"accessors":[
		{
			"bufferView":0,
			"componentType":5126,
			"count":4632,
			"max":[
				14.080000877380371,
				10.559999465942383,
				14.079999923706055
			],
			"min":[
				-14.080000877380371,
				-6.40000057220459,
				-14.079999923706055
			],
			"type":"VEC3"
		},
		{
			"bufferView":1,
			"componentType":5126,
			"count":4632,
			"type":"VEC3"
		},
		{
			"bufferView":2,
			"componentType":5126,
			"count":4632,
			"type":"VEC2"
		},
		{
			"bufferView":3,
			"componentType":5123,
			"count":6984,
			"type":"SCALAR"
		},
		{
			"bufferView":4,
			"componentType":5126,
			"count":32,
			"max":[
				5.119999885559082,
				9.920000076293945,
				-0.9599997401237488
			],
			"min":[
				2.0137250423431396,
				-1.9327461586726713e-07,
				-4.8000006675720215
			],
			"type":"VEC3"
		},
		{
			"bufferView":5,
			"componentType":5126,
			"count":32,
			"type":"VEC3"
		},
		{
			"bufferView":6,
			"componentType":5126,
			"count":32,
			"type":"VEC2"
		},
		{
			"bufferView":7,
			"componentType":5123,
			"count":48,
			"type":"SCALAR"
		}
	],
	"bufferViews":[
		{
			"buffer":0,
			"byteLength":55584,
			"byteOffset":0,
			"target":34962
		},
		{
			"buffer":0,
			"byteLength":55584,
			"byteOffset":55584,
			"target":34962
		},
		{
			"buffer":0,
			"byteLength":37056,
			"byteOffset":111168,
			"target":34962
		},
		{
			"buffer":0,
			"byteLength":13968,
			"byteOffset":148224,
			"target":34963
		},
		{
			"buffer":0,
			"byteLength":384,
			"byteOffset":162192,
			"target":34962
		},
		{
			"buffer":0,
			"byteLength":384,
			"byteOffset":162576,
			"target":34962
		},
		{
			"buffer":0,
			"byteLength":256,
			"byteOffset":162960,
			"target":34962
		},
		{
			"buffer":0,
			"byteLength":96,
			"byteOffset":163216,
			"target":34963
		}
	],
	"samplers":[
		{
			"magFilter":9729,
			"minFilter":9987
		}
	],
	"buffers":[
		{
			"byteLength":163312,
			"uri":"PD_startroom.bin"
		}
	]
}
