{
	"asset":{
		"generator":"Khronos glTF Blender I/O v3.6.27",
		"version":"2.0"
	},
	"extensionsUsed":[
		"KHR_materials_specular",
		"KHR_materials_ior"
	],
	"scene":0,
	"scenes":[
		{
			"name":"Scene",
			"nodes":[
				0,
				1,
				2,
				3,
				4,
				5,
				6,
				7,
				8
			]
		}
	],
	"nodes":[
		{
			"mesh":0,
			"name":"scp983_body_low",
			"rotation":[
				0.70710688829422,
				0,
				0,
				0.7071066498756409
			],
			"scale":[
				0.009999999776482582,
				0.009999999776482582,
				0.009999999776482582
			]
		},
		{
			"mesh":1,
			"name":"scp983_teeh_low",
			"rotation":[
				0.70710688829422,
				0,
				0,
				0.7071066498756409
			],
			"scale":[
				0.009999999776482582,
				0.009999999776482582,
				0.009999999776482582
			]
		},
		{
			"mesh":2,
			"name":"scp983_eyes_low",
			"rotation":[
				0.70710688829422,
				0,
				0,
				0.7071066498756409
			],
			"scale":[
				0.009999999776482582,
				0.009999999776482582,
				0.009999999776482582
			]
		},
		{
			"mesh":3,
			"name":"scp983_buttons_low",
			"rotation":[
				0.70710688829422,
				0,
				0,
				0.7071066498756409
			],
			"scale":[
				0.009999999776482582,
				0.009999999776482582,
				0.009999999776482582
			]
		},
		{
			"mesh":4,
			"name":"scp983_hoop_low",
			"rotation":[
				0.70710688829422,
				0,
				0,
				0.7071066498756409
			],
			"scale":[
				0.009999999776482582,
				0.009999999776482582,
				0.009999999776482582
			]
		},
		{
			"mesh":5,
			"name":"scp983_bell_low",
			"rotation":[
				0.70710688829422,
				0,
				0,
				0.7071066498756409
			],
			"scale":[
				0.009999999776482582,
				0.009999999776482582,
				0.009999999776482582
			]
		},
		{
			"mesh":6,
			"name":"scp983_handle_low",
			"rotation":[
				0.70710688829422,
				0,
				0,
				0.7071066498756409
			],
			"scale":[
				0.009999999776482582,
				0.009999999776482582,
				0.009999999776482582
			]
		},
		{
			"mesh":7,
			"name":"scp983_clapper_low",
			"rotation":[
				0.70710688829422,
				0,
				0,
				0.7071066498756409
			],
			"scale":[
				0.009999999776482582,
				0.009999999776482582,
				0.009999999776482582
			]
		},
		{
			"mesh":8,
			"name":"scp983_hammer_low",
			"rotation":[
				0.70710688829422,
				0,
				0,
				0.7071066498756409
			],
			"scale":[
				0.009999999776482582,
				0.009999999776482582,
				0.009999999776482582
			]
		}
	],
	"materials":[
		{
			"doubleSided":true,
			"emissiveFactor":[
				1,
				1,
				1
			],
			"emissiveTexture":{
				"index":0
			},
			"extensions":{
				"KHR_materials_specular":{
					"specularColorFactor":[
						2.371357614441398,
						2.371357614441398,
						2.371357614441398
					]
				},
				"KHR_materials_ior":{
					"ior":1.4500000476837158
				}
			},
			"name":"1001",
			"normalTexture":{
				"index":1
			},
			"pbrMetallicRoughness":{
				"baseColorTexture":{
					"index":2
				},
				"metallicRoughnessTexture":{
					"index":3
				}
			}
		}
	],
	"meshes":[
		{
			"name":"scp983_body_low",
			"primitives":[
				{
					"attributes":{
						"POSITION":0,
						"NORMAL":1,
						"TEXCOORD_0":2
					},
					"indices":3,
					"material":0
				}
			]
		},
		{
			"name":"scp983_teeh_low",
			"primitives":[
				{
					"attributes":{
						"POSITION":4,
						"NORMAL":5,
						"TEXCOORD_0":6
					},
					"indices":7,
					"material":0
				}
			]
		},
		{
			"name":"scp983_eyes_low",
			"primitives":[
				{
					"attributes":{
						"POSITION":8,
						"NORMAL":9,
						"TEXCOORD_0":10
					},
					"indices":11,
					"material":0
				}
			]
		},
		{
			"name":"scp983_buttons_low",
			"primitives":[
				{
					"attributes":{
						"POSITION":12,
						"NORMAL":13,
						"TEXCOORD_0":14
					},
					"indices":15,
					"material":0
				}
			]
		},
		{
			"name":"scp983_hoop_low",
			"primitives":[
				{
					"attributes":{
						"POSITION":16,
						"NORMAL":17,
						"TEXCOORD_0":18
					},
					"indices":19,
					"material":0
				}
			]
		},
		{
			"name":"scp983_bell_low",
			"primitives":[
				{
					"attributes":{
						"POSITION":20,
						"NORMAL":21,
						"TEXCOORD_0":22
					},
					"indices":23,
					"material":0
				}
			]
		},
		{
			"name":"scp983_handle_low",
			"primitives":[
				{
					"attributes":{
						"POSITION":24,
						"NORMAL":25,
						"TEXCOORD_0":26
					},
					"indices":27,
					"material":0
				}
			]
		},
		{
			"name":"scp983_clapper_low",
			"primitives":[
				{
					"attributes":{
						"POSITION":28,
						"NORMAL":29,
						"TEXCOORD_0":30
					},
					"indices":31,
					"material":0
				}
			]
		},
		{
			"name":"scp983_hammer_low",
			"primitives":[
				{
					"attributes":{
						"POSITION":32,
						"NORMAL":33,
						"TEXCOORD_0":34
					},
					"indices":35,
					"material":0
				}
			]
		}
	],
	"textures":[
		{
			"sampler":0,
			"source":0
		},
		{
			"sampler":0,
			"source":1
		},
		{
			"sampler":0,
			"source":2
		},
		{
			"sampler":0,
			"source":3
		}
	],
	"images":[
		{
			"mimeType":"image/png",
			"name":"1001_Emissive",
			"uri":"1001_Emissive.png"
		},
		{
			"mimeType":"image/png",
			"name":"1001_Normal_OpenGL",
			"uri":"1001_Normal_OpenGL.png"
		},
		{
			"mimeType":"image/png",
			"name":"1001_Base_Color",
			"uri":"1001_Base_Color.png"
		},
		{
			"mimeType":"image/png",
			"name":"1001_Metallic-1001_Roughness",
			"uri":"1001_Metallic-1001_Roughness.png"
		}
	],
	"accessors":[
		{
			"bufferView":0,
			"componentType":5126,
			"count":3578,
			"max":[
				1.41083824634552,
				1.7352218627929688,
				3.3110499382019043
			],
			"min":[
				-1.5579580068588257,
				-0.8969981074333191,
				-0.6871457099914551
			],
			"type":"VEC3"
		},
		{
			"bufferView":1,
			"componentType":5126,
			"count":3578,
			"type":"VEC3"
		},
		{
			"bufferView":2,
			"componentType":5126,
			"count":3578,
			"type":"VEC2"
		},
		{
			"bufferView":3,
			"componentType":5123,
			"count":19782,
			"type":"SCALAR"
		},
		{
			"bufferView":4,
			"componentType":5126,
			"count":196,
			"max":[
				0.29636600613594055,
				0.5511659979820251,
				0.42704904079437256
			],
			"min":[
				-0.29636600613594055,
				0.2310349941253662,
				0.18210983276367188
			],
			"type":"VEC3"
		},
		{
			"bufferView":5,
			"componentType":5126,
			"count":196,
			"type":"VEC3"
		},
		{
			"bufferView":6,
			"componentType":5126,
			"count":196,
			"type":"VEC2"
		},
		{
			"bufferView":7,
			"componentType":5123,
			"count":504,
			"type":"SCALAR"
		},
		{
			"bufferView":8,
			"componentType":5126,
			"count":228,
			"max":[
				0.3091770112514496,
				0.30943799018859863,
				0.0029659271240234375
			],
			"min":[
				-0.3091770112514496,
				0.08823397755622864,
				-0.21667301654815674
			],
			"type":"VEC3"
		},
		{
			"bufferView":9,
			"componentType":5126,
			"count":228,
			"type":"VEC3"
		},
		{
			"bufferView":10,
			"componentType":5126,
			"count":228,
			"type":"VEC2"
		},
		{
			"bufferView":11,
			"componentType":5123,
			"count":1152,
			"type":"SCALAR"
		},
		{
			"bufferView":12,
			"componentType":5126,
			"count":576,
			"max":[
				0.10883499681949615,
				0.4387510120868683,
				1.8804830312728882
			],
			"min":[
				-0.12406100332736969,
				0.2712840139865875,
				1.1187829971313477
			],
			"type":"VEC3"
		},
		{
			"bufferView":13,
			"componentType":5126,
			"count":576,
			"type":"VEC3"
		},
		{
			"bufferView":14,
			"componentType":5126,
			"count":576,
			"type":"VEC2"
		},
		{
			"bufferView":15,
			"componentType":5123,
			"count":2856,
			"type":"SCALAR"
		},
		{
			"bufferView":16,
			"componentType":5126,
			"count":77,
			"max":[
				-0.2956179976463318,
				1.304720163345337,
				0.24412786960601807
			],
			"min":[
				-0.48805001378059387,
				1.1122870445251465,
				0.11525285243988037
			],
			"type":"VEC3"
		},
		{
			"bufferView":17,
			"componentType":5126,
			"count":77,
			"type":"VEC3"
		},
		{
			"bufferView":18,
			"componentType":5126,
			"count":77,
			"type":"VEC2"
		},
		{
			"bufferView":19,
			"componentType":5123,
			"count":360,
			"type":"SCALAR"
		},
		{
			"bufferView":20,
			"componentType":5126,
			"count":308,
			"max":[
				0.010609008371829987,
				1.6109468936920166,
				0.9252480268478394
			],
			"min":[
				-0.794277012348175,
				0.8060600757598877,
				0.23883891105651855
			],
			"type":"VEC3"
		},
		{
			"bufferView":21,
			"componentType":5126,
			"count":308,
			"type":"VEC3"
		},
		{
			"bufferView":22,
			"componentType":5126,
			"count":308,
			"type":"VEC2"
		},
		{
			"bufferView":23,
			"componentType":5123,
			"count":1632,
			"type":"SCALAR"
		},
		{
			"bufferView":24,
			"componentType":5126,
			"count":310,
			"max":[
				-0.23618800938129425,
				1.364150047302246,
				0.2554600238800049
			],
			"min":[
				-0.8859770894050598,
				0.7143599987030029,
				-0.48500704765319824
			],
			"type":"VEC3"
		},
		{
			"bufferView":25,
			"componentType":5126,
			"count":310,
			"type":"VEC3"
		},
		{
			"bufferView":26,
			"componentType":5126,
			"count":310,
			"type":"VEC2"
		},
		{
			"bufferView":27,
			"componentType":5123,
			"count":1416,
			"type":"SCALAR"
		},
		{
			"bufferView":28,
			"componentType":5126,
			"count":118,
			"max":[
				-0.31512099504470825,
				1.285217046737671,
				0.8804829716682434
			],
			"min":[
				-0.4685480296611786,
				1.131790041923523,
				0.39423394203186035
			],
			"type":"VEC3"
		},
		{
			"bufferView":29,
			"componentType":5126,
			"count":118,
			"type":"VEC3"
		},
		{
			"bufferView":30,
			"componentType":5126,
			"count":118,
			"type":"VEC2"
		},
		{
			"bufferView":31,
			"componentType":5123,
			"count":552,
			"type":"SCALAR"
		},
		{
			"bufferView":32,
			"componentType":5126,
			"count":260,
			"max":[
				0.7041730284690857,
				1.6285202503204346,
				0.6526780128479004
			],
			"min":[
				-0.08859799802303314,
				0.7874540090560913,
				0.04239189624786377
			],
			"type":"VEC3"
		},
		{
			"bufferView":33,
			"componentType":5126,
			"count":260,
			"type":"VEC3"
		},
		{
			"bufferView":34,
			"componentType":5126,
			"count":260,
			"type":"VEC2"
		},
		{
			"bufferView":35,
			"componentType":5123,
			"count":768,
			"type":"SCALAR"
		}
	],
	"bufferViews":[
		{
			"buffer":0,
			"byteLength":42936,
			"byteOffset":0,
			"target":34962
		},
		{
			"buffer":0,
			"byteLength":42936,
			"byteOffset":42936,
			"target":34962
		},
		{
			"buffer":0,
			"byteLength":28624,
			"byteOffset":85872,
			"target":34962
		},
		{
			"buffer":0,
			"byteLength":39564,
			"byteOffset":114496,
			"target":34963
		},
		{
			"buffer":0,
			"byteLength":2352,
			"byteOffset":154060,
			"target":34962
		},
		{
			"buffer":0,
			"byteLength":2352,
			"byteOffset":156412,
			"target":34962
		},
		{
			"buffer":0,
			"byteLength":1568,
			"byteOffset":158764,
			"target":34962
		},
		{
			"buffer":0,
			"byteLength":1008,
			"byteOffset":160332,
			"target":34963
		},
		{
			"buffer":0,
			"byteLength":2736,
			"byteOffset":161340,
			"target":34962
		},
		{
			"buffer":0,
			"byteLength":2736,
			"byteOffset":164076,
			"target":34962
		},
		{
			"buffer":0,
			"byteLength":1824,
			"byteOffset":166812,
			"target":34962
		},
		{
			"buffer":0,
			"byteLength":2304,
			"byteOffset":168636,
			"target":34963
		},
		{
			"buffer":0,
			"byteLength":6912,
			"byteOffset":170940,
			"target":34962
		},
		{
			"buffer":0,
			"byteLength":6912,
			"byteOffset":177852,
			"target":34962
		},
		{
			"buffer":0,
			"byteLength":4608,
			"byteOffset":184764,
			"target":34962
		},
		{
			"buffer":0,
			"byteLength":5712,
			"byteOffset":189372,
			"target":34963
		},
		{
			"buffer":0,
			"byteLength":924,
			"byteOffset":195084,
			"target":34962
		},
		{
			"buffer":0,
			"byteLength":924,
			"byteOffset":196008,
			"target":34962
		},
		{
			"buffer":0,
			"byteLength":616,
			"byteOffset":196932,
			"target":34962
		},
		{
			"buffer":0,
			"byteLength":720,
			"byteOffset":197548,
			"target":34963
		},
		{
			"buffer":0,
			"byteLength":3696,
			"byteOffset":198268,
			"target":34962
		},
		{
			"buffer":0,
			"byteLength":3696,
			"byteOffset":201964,
			"target":34962
		},
		{
			"buffer":0,
			"byteLength":2464,
			"byteOffset":205660,
			"target":34962
		},
		{
			"buffer":0,
			"byteLength":3264,
			"byteOffset":208124,
			"target":34963
		},
		{
			"buffer":0,
			"byteLength":3720,
			"byteOffset":211388,
			"target":34962
		},
		{
			"buffer":0,
			"byteLength":3720,
			"byteOffset":215108,
			"target":34962
		},
		{
			"buffer":0,
			"byteLength":2480,
			"byteOffset":218828,
			"target":34962
		},
		{
			"buffer":0,
			"byteLength":2832,
			"byteOffset":221308,
			"target":34963
		},
		{
			"buffer":0,
			"byteLength":1416,
			"byteOffset":224140,
			"target":34962
		},
		{
			"buffer":0,
			"byteLength":1416,
			"byteOffset":225556,
			"target":34962
		},
		{
			"buffer":0,
			"byteLength":944,
			"byteOffset":226972,
			"target":34962
		},
		{
			"buffer":0,
			"byteLength":1104,
			"byteOffset":227916,
			"target":34963
		},
		{
			"buffer":0,
			"byteLength":3120,
			"byteOffset":229020,
			"target":34962
		},
		{
			"buffer":0,
			"byteLength":3120,
			"byteOffset":232140,
			"target":34962
		},
		{
			"buffer":0,
			"byteLength":2080,
			"byteOffset":235260,
			"target":34962
		},
		{
			"buffer":0,
			"byteLength":1536,
			"byteOffset":237340,
			"target":34963
		}
	],
	"samplers":[
		{
			"magFilter":9729,
			"minFilter":9987
		}
	],
	"buffers":[
		{
			"byteLength":238876,
			"uri":"scp983.bin"
		}
	]
}
