{
	"asset":{
		"generator":"Khronos glTF Blender I/O v3.6.27",
		"version":"2.0"
	},
	"scene":0,
	"scenes":[
		{
			"name":"Scene",
			"nodes":[
				0,
				1,
				2,
				3,
				4,
				5,
				6,
				7,
				8,
				9,
				10,
				11,
				12,
				13
			]
		}
	],
	"nodes":[
		{
			"mesh":0,
			"name":"Cube",
			"scale":[
				1.284246563911438,
				1.284246563911438,
				1.284246563911438
			],
			"translation":[
				0,
				1.0159066915512085,
				0.25395911931991577
			]
		},
		{
			"mesh":1,
			"name":"Cube.001",
			"translation":[
				0,
				0.9876868724822998,
				0
			]
		},
		{
			"mesh":2,
			"name":"Cube.002",
			"scale":[
				1.1131138801574707,
				1.1131138801574707,
				1.1131138801574707
			],
			"translation":[
				0,
				0.9876868724822998,
				0.3730114996433258
			]
		},
		{
			"mesh":3,
			"name":"Cube.003",
			"scale":[
				1.0457490682601929,
				1.0457490682601929,
				1.0457490682601929
			],
			"translation":[
				0.09252460300922394,
				0.9876868724822998,
				-1.6407901048660278
			]
		},
		{
			"mesh":4,
			"name":"Cube.004",
			"scale":[
				0.07183820009231567,
				0.23513738811016083,
				2.9423019886016846
			],
			"translation":[
				0,
				-0.741693913936615,
				-2.6228020191192627
			]
		},
		{
			"mesh":5,
			"name":"Cylinder",
			"scale":[
				0.10138057917356491,
				0.38162630796432495,
				0.10138057917356491
			],
			"translation":[
				0,
				-0.6297001838684082,
				0.28866639733314514
			]
		},
		{
			"mesh":6,
			"name":"Cube.005",
			"scale":[
				0.2522512674331665,
				0.2522512674331665,
				0.2707136571407318
			],
			"translation":[
				0,
				-0.04147335886955261,
				0.28106269240379333
			]
		},
		{
			"mesh":7,
			"name":"Cube.006",
			"scale":[
				0.15722841024398804,
				0.15722841024398804,
				0.15722841024398804
			],
			"translation":[
				0,
				0.22418910264968872,
				-1.5937196016311646
			]
		},
		{
			"mesh":8,
			"name":"Cylinder.001",
			"scale":[
				0.02973121590912342,
				0.11191704869270325,
				0.02973121590912342
			],
			"translation":[
				0,
				0.28987348079681396,
				0.4564128816127777
			]
		},
		{
			"mesh":9,
			"name":"Cylinder.002",
			"scale":[
				0.02973121590912342,
				0.11191704869270325,
				0.02973121590912342
			],
			"translation":[
				0,
				0.28987348079681396,
				0.09136226773262024
			]
		},
		{
			"mesh":10,
			"name":"Cylinder.003",
			"rotation":[
				0,
				-0.7071068286895752,
				0.7071068286895752,
				1.1520234011186403e-07
			],
			"scale":[
				-0.05103825405240059,
				-0.05103825405240059,
				-0.05103825405240059
			],
			"translation":[
				0.8380513787269592,
				1.0683870315551758,
				2.374217987060547
			]
		},
		{
			"mesh":11,
			"name":"Cylinder.004",
			"rotation":[
				0,
				-0.7071068286895752,
				0.7071068286895752,
				1.1520234011186403e-07
			],
			"scale":[
				-0.05103825405240059,
				-0.05103825405240059,
				-0.05103825405240059
			],
			"translation":[
				-0.8482760787010193,
				1.0683870315551758,
				2.374217987060547
			]
		},
		{
			"mesh":12,
			"name":"Cylinder.006",
			"rotation":[
				0,
				-0.7071068286895752,
				0.7071068286895752,
				1.1520234011186403e-07
			],
			"scale":[
				-0.05103825405240059,
				-0.05103825405240059,
				-0.05103825405240059
			],
			"translation":[
				0.8380513787269592,
				0.36575061082839966,
				2.374217987060547
			]
		},
		{
			"mesh":13,
			"name":"Cylinder.005",
			"rotation":[
				0,
				-0.7071068286895752,
				0.7071068286895752,
				1.1520234011186403e-07
			],
			"scale":[
				-0.05103825405240059,
				-0.05103825405240059,
				-0.05103825405240059
			],
			"translation":[
				-0.8482760787010193,
				0.36575061082839966,
				2.374217987060547
			]
		}
	],
	"materials":[
		{
			"doubleSided":true,
			"name":"Material.002",
			"pbrMetallicRoughness":{
				"baseColorFactor":[
					0.800000011920929,
					0.800000011920929,
					0.800000011920929,
					1
				],
				"metallicFactor":0.04411764815449715,
				"roughnessFactor":0.17238560318946838
			}
		},
		{
			"doubleSided":true,
			"name":"Material.001",
			"pbrMetallicRoughness":{
				"baseColorFactor":[
					0.36723822355270386,
					0.36723822355270386,
					0.36723822355270386,
					1
				],
				"metallicFactor":0,
				"roughnessFactor":0.5
			}
		},
		{
			"doubleSided":true,
			"name":"Material.005",
			"pbrMetallicRoughness":{
				"baseColorFactor":[
					0.7007254362106323,
					0.8000000715255737,
					0.4968966245651245,
					1
				],
				"metallicFactor":0,
				"roughnessFactor":0.5
			}
		},
		{
			"doubleSided":true,
			"name":"Material.003",
			"pbrMetallicRoughness":{
				"baseColorFactor":[
					0.2140350043773651,
					0.2140350043773651,
					0.2140350043773651,
					1
				],
				"metallicFactor":0,
				"roughnessFactor":0.5
			}
		},
		{
			"doubleSided":true,
			"name":"Material.004",
			"pbrMetallicRoughness":{}
		},
		{
			"doubleSided":true,
			"name":"Material",
			"pbrMetallicRoughness":{
				"baseColorFactor":[
					0.800000011920929,
					0.800000011920929,
					0.800000011920929,
					1
				],
				"metallicFactor":0,
				"roughnessFactor":0.4000000059604645
			}
		},
		{
			"doubleSided":true,
			"name":"SILVER",
			"pbrMetallicRoughness":{
				"baseColorFactor":[
					0.800000011920929,
					0.800000011920929,
					0.800000011920929,
					1
				],
				"metallicFactor":0.875,
				"roughnessFactor":0.18382352590560913
			}
		},
		{
			"doubleSided":true,
			"name":"SILVER.001",
			"pbrMetallicRoughness":{
				"baseColorFactor":[
					0.800000011920929,
					0.800000011920929,
					0.800000011920929,
					1
				],
				"metallicFactor":0.875,
				"roughnessFactor":0.18382352590560913
			}
		},
		{
			"doubleSided":true,
			"name":"SILVER.003",
			"pbrMetallicRoughness":{
				"baseColorFactor":[
					0.800000011920929,
					0.800000011920929,
					0.800000011920929,
					1
				],
				"metallicFactor":0.875,
				"roughnessFactor":0.18382352590560913
			}
		},
		{
			"doubleSided":true,
			"name":"SILVER.002",
			"pbrMetallicRoughness":{
				"baseColorFactor":[
					0.800000011920929,
					0.800000011920929,
					0.800000011920929,
					1
				],
				"metallicFactor":0.875,
				"roughnessFactor":0.18382352590560913
			}
		}
	],
	"meshes":[
		{
			"name":"Cube.001",
			"primitives":[
				{
					"attributes":{
						"POSITION":0,
						"NORMAL":1,
						"TEXCOORD_0":2
					},
					"indices":3,
					"material":0
				}
			]
		},
		{
			"name":"Cube.002",
			"primitives":[
				{
					"attributes":{
						"POSITION":4,
						"NORMAL":5,
						"TEXCOORD_0":6
					},
					"indices":7,
					"material":1
				},
				{
					"attributes":{
						"POSITION":8,
						"NORMAL":9,
						"TEXCOORD_0":10
					},
					"indices":11,
					"material":2
				}
			]
		},
		{
			"name":"Cube.003",
			"primitives":[
				{
					"attributes":{
						"POSITION":12,
						"NORMAL":13,
						"TEXCOORD_0":14
					},
					"indices":15,
					"material":3
				}
			]
		},
		{
			"name":"Cube.004",
			"primitives":[
				{
					"attributes":{
						"POSITION":16,
						"NORMAL":17,
						"TEXCOORD_0":18
					},
					"indices":19,
					"material":4
				}
			]
		},
		{
			"name":"Cube.005",
			"primitives":[
				{
					"attributes":{
						"POSITION":20,
						"NORMAL":21,
						"TEXCOORD_0":22
					},
					"indices":23,
					"material":5
				}
			]
		},
		{
			"name":"Cylinder",
			"primitives":[
				{
					"attributes":{
						"POSITION":24,
						"NORMAL":25,
						"TEXCOORD_0":26
					},
					"indices":27
				}
			]
		},
		{
			"name":"Cube.006",
			"primitives":[
				{
					"attributes":{
						"POSITION":28,
						"NORMAL":29,
						"TEXCOORD_0":30
					},
					"indices":31,
					"material":3
				}
			]
		},
		{
			"name":"Cube.008",
			"primitives":[
				{
					"attributes":{
						"POSITION":32,
						"NORMAL":33,
						"TEXCOORD_0":34
					},
					"indices":35,
					"material":6
				}
			]
		},
		{
			"name":"Cylinder.001",
			"primitives":[
				{
					"attributes":{
						"POSITION":36,
						"NORMAL":37,
						"TEXCOORD_0":38
					},
					"indices":27,
					"material":6
				}
			]
		},
		{
			"name":"Cylinder.002",
			"primitives":[
				{
					"attributes":{
						"POSITION":39,
						"NORMAL":40,
						"TEXCOORD_0":41
					},
					"indices":27,
					"material":6
				}
			]
		},
		{
			"name":"Cylinder.003",
			"primitives":[
				{
					"attributes":{
						"POSITION":42,
						"NORMAL":43,
						"TEXCOORD_0":44
					},
					"indices":45,
					"material":6
				}
			]
		},
		{
			"name":"Cylinder.004",
			"primitives":[
				{
					"attributes":{
						"POSITION":46,
						"NORMAL":47,
						"TEXCOORD_0":48
					},
					"indices":45,
					"material":7
				}
			]
		},
		{
			"name":"Cylinder.006",
			"primitives":[
				{
					"attributes":{
						"POSITION":49,
						"NORMAL":50,
						"TEXCOORD_0":51
					},
					"indices":45,
					"material":8
				}
			]
		},
		{
			"name":"Cylinder.005",
			"primitives":[
				{
					"attributes":{
						"POSITION":52,
						"NORMAL":53,
						"TEXCOORD_0":54
					},
					"indices":45,
					"material":9
				}
			]
		}
	],
	"accessors":[
		{
			"bufferView":0,
			"componentType":5126,
			"count":32,
			"max":[
				1,
				0.7833186984062195,
				2.4136385917663574
			],
			"min":[
				-1,
				0,
				-2.4136385917663574
			],
			"type":"VEC3"
		},
		{
			"bufferView":1,
			"componentType":5126,
			"count":32,
			"type":"VEC3"
		},
		{
			"bufferView":2,
			"componentType":5126,
			"count":32,
			"type":"VEC2"
		},
		{
			"bufferView":3,
			"componentType":5123,
			"count":84,
			"type":"SCALAR"
		},
		{
			"bufferView":4,
			"componentType":5126,
			"count":2123,
			"max":[
				1,
				0.7833186984062195,
				2.6342360973358154
			],
			"min":[
				-1,
				-0.7833187580108643,
				-2.4136385917663574
			],
			"type":"VEC3"
		},
		{
			"bufferView":5,
			"componentType":5126,
			"count":2123,
			"type":"VEC3"
		},
		{
			"bufferView":6,
			"componentType":5126,
			"count":2123,
			"type":"VEC2"
		},
		{
			"bufferView":7,
			"componentType":5123,
			"count":6525,
			"type":"SCALAR"
		},
		{
			"bufferView":8,
			"componentType":5126,
			"count":10,
			"max":[
				1,
				-0.10293221473693848,
				2.2076022624969482
			],
			"min":[
				1,
				-0.40360286831855774,
				1.3725347518920898
			],
			"type":"VEC3"
		},
		{
			"bufferView":9,
			"componentType":5126,
			"count":10,
			"type":"VEC3"
		},
		{
			"bufferView":10,
			"componentType":5126,
			"count":10,
			"type":"VEC2"
		},
		{
			"bufferView":11,
			"componentType":5123,
			"count":24,
			"type":"SCALAR"
		},
		{
			"bufferView":12,
			"componentType":5126,
			"count":50,
			"max":[
				1,
				0.7833186984062195,
				2.4136385917663574
			],
			"min":[
				-1,
				0,
				-2.4136385917663574
			],
			"type":"VEC3"
		},
		{
			"bufferView":13,
			"componentType":5126,
			"count":50,
			"type":"VEC3"
		},
		{
			"bufferView":14,
			"componentType":5126,
			"count":50,
			"type":"VEC2"
		},
		{
			"bufferView":15,
			"componentType":5123,
			"count":138,
			"type":"SCALAR"
		},
		{
			"bufferView":16,
			"componentType":5126,
			"count":167,
			"max":[
				0.6521931290626526,
				0.5368945598602295,
				3.8454675674438477
			],
			"min":[
				-0.7335239052772522,
				-0.5368945002555847,
				3.77546763420105
			],
			"type":"VEC3"
		},
		{
			"bufferView":17,
			"componentType":5126,
			"count":167,
			"type":"VEC3"
		},
		{
			"bufferView":18,
			"componentType":5126,
			"count":167,
			"type":"VEC2"
		},
		{
			"bufferView":19,
			"componentType":5123,
			"count":336,
			"type":"SCALAR"
		},
		{
			"bufferView":20,
			"componentType":5126,
			"count":24,
			"max":[
				1,
				1,
				1
			],
			"min":[
				-1,
				-1,
				-1
			],
			"type":"VEC3"
		},
		{
			"bufferView":21,
			"componentType":5126,
			"count":24,
			"type":"VEC3"
		},
		{
			"bufferView":22,
			"componentType":5126,
			"count":24,
			"type":"VEC2"
		},
		{
			"bufferView":23,
			"componentType":5123,
			"count":36,
			"type":"SCALAR"
		},
		{
			"bufferView":24,
			"componentType":5126,
			"count":724,
			"max":[
				1,
				1.1649143695831299,
				1
			],
			"min":[
				-1,
				-0.9930049777030945,
				-1
			],
			"type":"VEC3"
		},
		{
			"bufferView":25,
			"componentType":5126,
			"count":724,
			"type":"VEC3"
		},
		{
			"bufferView":26,
			"componentType":5126,
			"count":724,
			"type":"VEC2"
		},
		{
			"bufferView":27,
			"componentType":5123,
			"count":2106,
			"type":"SCALAR"
		},
		{
			"bufferView":28,
			"componentType":5126,
			"count":556,
			"max":[
				0.9801920056343079,
				1,
				1
			],
			"min":[
				-0.9782039523124695,
				-0.9895962476730347,
				-1
			],
			"type":"VEC3"
		},
		{
			"bufferView":29,
			"componentType":5126,
			"count":556,
			"type":"VEC3"
		},
		{
			"bufferView":30,
			"componentType":5126,
			"count":556,
			"type":"VEC2"
		},
		{
			"bufferView":31,
			"componentType":5123,
			"count":936,
			"type":"SCALAR"
		},
		{
			"bufferView":32,
			"componentType":5126,
			"count":48,
			"max":[
				1,
				1,
				1
			],
			"min":[
				-1,
				-1,
				-1
			],
			"type":"VEC3"
		},
		{
			"bufferView":33,
			"componentType":5126,
			"count":48,
			"type":"VEC3"
		},
		{
			"bufferView":34,
			"componentType":5126,
			"count":48,
			"type":"VEC2"
		},
		{
			"bufferView":35,
			"componentType":5123,
			"count":84,
			"type":"SCALAR"
		},
		{
			"bufferView":36,
			"componentType":5126,
			"count":724,
			"max":[
				1,
				1.1649143695831299,
				1
			],
			"min":[
				-1,
				-0.9930049777030945,
				-1
			],
			"type":"VEC3"
		},
		{
			"bufferView":37,
			"componentType":5126,
			"count":724,
			"type":"VEC3"
		},
		{
			"bufferView":38,
			"componentType":5126,
			"count":724,
			"type":"VEC2"
		},
		{
			"bufferView":39,
			"componentType":5126,
			"count":724,
			"max":[
				1,
				1.1649143695831299,
				1
			],
			"min":[
				-1,
				-0.9930049777030945,
				-1
			],
			"type":"VEC3"
		},
		{
			"bufferView":40,
			"componentType":5126,
			"count":724,
			"type":"VEC3"
		},
		{
			"bufferView":41,
			"componentType":5126,
			"count":724,
			"type":"VEC2"
		},
		{
			"bufferView":42,
			"componentType":5126,
			"count":231,
			"max":[
				1,
				1,
				1
			],
			"min":[
				-1,
				-1,
				-1
			],
			"type":"VEC3"
		},
		{
			"bufferView":43,
			"componentType":5126,
			"count":231,
			"type":"VEC3"
		},
		{
			"bufferView":44,
			"componentType":5126,
			"count":231,
			"type":"VEC2"
		},
		{
			"bufferView":45,
			"componentType":5123,
			"count":540,
			"type":"SCALAR"
		},
		{
			"bufferView":46,
			"componentType":5126,
			"count":231,
			"max":[
				1,
				1,
				1
			],
			"min":[
				-1,
				-1,
				-1
			],
			"type":"VEC3"
		},
		{
			"bufferView":47,
			"componentType":5126,
			"count":231,
			"type":"VEC3"
		},
		{
			"bufferView":48,
			"componentType":5126,
			"count":231,
			"type":"VEC2"
		},
		{
			"bufferView":49,
			"componentType":5126,
			"count":231,
			"max":[
				1,
				1,
				1
			],
			"min":[
				-1,
				-1,
				-1
			],
			"type":"VEC3"
		},
		{
			"bufferView":50,
			"componentType":5126,
			"count":231,
			"type":"VEC3"
		},
		{
			"bufferView":51,
			"componentType":5126,
			"count":231,
			"type":"VEC2"
		},
		{
			"bufferView":52,
			"componentType":5126,
			"count":231,
			"max":[
				1,
				1,
				1
			],
			"min":[
				-1,
				-1,
				-1
			],
			"type":"VEC3"
		},
		{
			"bufferView":53,
			"componentType":5126,
			"count":231,
			"type":"VEC3"
		},
		{
			"bufferView":54,
			"componentType":5126,
			"count":231,
			"type":"VEC2"
		}
	],
	"bufferViews":[
		{
			"buffer":0,
			"byteLength":384,
			"byteOffset":0,
			"target":34962
		},
		{
			"buffer":0,
			"byteLength":384,
			"byteOffset":384,
			"target":34962
		},
		{
			"buffer":0,
			"byteLength":256,
			"byteOffset":768,
			"target":34962
		},
		{
			"buffer":0,
			"byteLength":168,
			"byteOffset":1024,
			"target":34963
		},
		{
			"buffer":0,
			"byteLength":25476,
			"byteOffset":1192,
			"target":34962
		},
		{
			"buffer":0,
			"byteLength":25476,
			"byteOffset":26668,
			"target":34962
		},
		{
			"buffer":0,
			"byteLength":16984,
			"byteOffset":52144,
			"target":34962
		},
		{
			"buffer":0,
			"byteLength":13050,
			"byteOffset":69128,
			"target":34963
		},
		{
			"buffer":0,
			"byteLength":120,
			"byteOffset":82180,
			"target":34962
		},
		{
			"buffer":0,
			"byteLength":120,
			"byteOffset":82300,
			"target":34962
		},
		{
			"buffer":0,
			"byteLength":80,
			"byteOffset":82420,
			"target":34962
		},
		{
			"buffer":0,
			"byteLength":48,
			"byteOffset":82500,
			"target":34963
		},
		{
			"buffer":0,
			"byteLength":600,
			"byteOffset":82548,
			"target":34962
		},
		{
			"buffer":0,
			"byteLength":600,
			"byteOffset":83148,
			"target":34962
		},
		{
			"buffer":0,
			"byteLength":400,
			"byteOffset":83748,
			"target":34962
		},
		{
			"buffer":0,
			"byteLength":276,
			"byteOffset":84148,
			"target":34963
		},
		{
			"buffer":0,
			"byteLength":2004,
			"byteOffset":84424,
			"target":34962
		},
		{
			"buffer":0,
			"byteLength":2004,
			"byteOffset":86428,
			"target":34962
		},
		{
			"buffer":0,
			"byteLength":1336,
			"byteOffset":88432,
			"target":34962
		},
		{
			"buffer":0,
			"byteLength":672,
			"byteOffset":89768,
			"target":34963
		},
		{
			"buffer":0,
			"byteLength":288,
			"byteOffset":90440,
			"target":34962
		},
		{
			"buffer":0,
			"byteLength":288,
			"byteOffset":90728,
			"target":34962
		},
		{
			"buffer":0,
			"byteLength":192,
			"byteOffset":91016,
			"target":34962
		},
		{
			"buffer":0,
			"byteLength":72,
			"byteOffset":91208,
			"target":34963
		},
		{
			"buffer":0,
			"byteLength":8688,
			"byteOffset":91280,
			"target":34962
		},
		{
			"buffer":0,
			"byteLength":8688,
			"byteOffset":99968,
			"target":34962
		},
		{
			"buffer":0,
			"byteLength":5792,
			"byteOffset":108656,
			"target":34962
		},
		{
			"buffer":0,
			"byteLength":4212,
			"byteOffset":114448,
			"target":34963
		},
		{
			"buffer":0,
			"byteLength":6672,
			"byteOffset":118660,
			"target":34962
		},
		{
			"buffer":0,
			"byteLength":6672,
			"byteOffset":125332,
			"target":34962
		},
		{
			"buffer":0,
			"byteLength":4448,
			"byteOffset":132004,
			"target":34962
		},
		{
			"buffer":0,
			"byteLength":1872,
			"byteOffset":136452,
			"target":34963
		},
		{
			"buffer":0,
			"byteLength":576,
			"byteOffset":138324,
			"target":34962
		},
		{
			"buffer":0,
			"byteLength":576,
			"byteOffset":138900,
			"target":34962
		},
		{
			"buffer":0,
			"byteLength":384,
			"byteOffset":139476,
			"target":34962
		},
		{
			"buffer":0,
			"byteLength":168,
			"byteOffset":139860,
			"target":34963
		},
		{
			"buffer":0,
			"byteLength":8688,
			"byteOffset":140028,
			"target":34962
		},
		{
			"buffer":0,
			"byteLength":8688,
			"byteOffset":148716,
			"target":34962
		},
		{
			"buffer":0,
			"byteLength":5792,
			"byteOffset":157404,
			"target":34962
		},
		{
			"buffer":0,
			"byteLength":8688,
			"byteOffset":163196,
			"target":34962
		},
		{
			"buffer":0,
			"byteLength":8688,
			"byteOffset":171884,
			"target":34962
		},
		{
			"buffer":0,
			"byteLength":5792,
			"byteOffset":180572,
			"target":34962
		},
		{
			"buffer":0,
			"byteLength":2772,
			"byteOffset":186364,
			"target":34962
		},
		{
			"buffer":0,
			"byteLength":2772,
			"byteOffset":189136,
			"target":34962
		},
		{
			"buffer":0,
			"byteLength":1848,
			"byteOffset":191908,
			"target":34962
		},
		{
			"buffer":0,
			"byteLength":1080,
			"byteOffset":193756,
			"target":34963
		},
		{
			"buffer":0,
			"byteLength":2772,
			"byteOffset":194836,
			"target":34962
		},
		{
			"buffer":0,
			"byteLength":2772,
			"byteOffset":197608,
			"target":34962
		},
		{
			"buffer":0,
			"byteLength":1848,
			"byteOffset":200380,
			"target":34962
		},
		{
			"buffer":0,
			"byteLength":2772,
			"byteOffset":202228,
			"target":34962
		},
		{
			"buffer":0,
			"byteLength":2772,
			"byteOffset":205000,
			"target":34962
		},
		{
			"buffer":0,
			"byteLength":1848,
			"byteOffset":207772,
			"target":34962
		},
		{
			"buffer":0,
			"byteLength":2772,
			"byteOffset":209620,
			"target":34962
		},
		{
			"buffer":0,
			"byteLength":2772,
			"byteOffset":212392,
			"target":34962
		},
		{
			"buffer":0,
			"byteLength":1848,
			"byteOffset":215164,
			"target":34962
		}
	],
	"buffers":[
		{
			"byteLength":217012,
			"uri":"cctv-camera.bin"
		}
	]
}
