{
	"asset":{
		"generator":"Khronos glTF Blender I/O v3.5.30",
		"version":"2.0"
	},
	"extensionsUsed":[
		"KHR_materials_specular",
		"KHR_materials_ior"
	],
	"scene":0,
	"scenes":[
		{
			"name":"Scene",
			"nodes":[
				0
			]
		}
	],
	"nodes":[
		{
			"mesh":0,
			"name":"RZ_exit1_gatea",
			"rotation":[
				0.7071068286895752,
				0,
				0,
				0.7071068286895752
			]
		}
	],
	"materials":[
		{
			"doubleSided":true,
			"extensions":{
				"KHR_materials_specular":{
					"specularColorFactor":[
						2.371357614441398,
						2.371357614441398,
						2.371357614441398
					]
				},
				"KHR_materials_ior":{
					"ior":1.4500000476837158
				}
			},
			"name":"mat0",
			"pbrMetallicRoughness":{
				"baseColorTexture":{
					"index":0
				},
				"metallicFactor":0,
				"roughnessFactor":0.9505894184112549
			}
		},
		{
			"doubleSided":true,
			"extensions":{
				"KHR_materials_specular":{
					"specularColorFactor":[
						2.371357614441398,
						2.371357614441398,
						2.371357614441398
					]
				},
				"KHR_materials_ior":{
					"ior":1.4500000476837158
				}
			},
			"name":"mat1",
			"pbrMetallicRoughness":{
				"baseColorTexture":{
					"index":1
				},
				"metallicFactor":0,
				"roughnessFactor":0.9505894184112549
			}
		},
		{
			"doubleSided":true,
			"extensions":{
				"KHR_materials_specular":{
					"specularColorFactor":[
						2.371357614441398,
						2.371357614441398,
						2.371357614441398
					]
				},
				"KHR_materials_ior":{
					"ior":1.4500000476837158
				}
			},
			"name":"mat2",
			"pbrMetallicRoughness":{
				"baseColorTexture":{
					"index":2
				},
				"metallicFactor":0,
				"roughnessFactor":0.9505894184112549
			}
		},
		{
			"doubleSided":true,
			"extensions":{
				"KHR_materials_specular":{
					"specularColorFactor":[
						2.371357614441398,
						2.371357614441398,
						2.371357614441398
					]
				},
				"KHR_materials_ior":{
					"ior":1.4500000476837158
				}
			},
			"name":"mat3",
			"pbrMetallicRoughness":{
				"baseColorTexture":{
					"index":3
				},
				"metallicFactor":0,
				"roughnessFactor":0.9505894184112549
			}
		},
		{
			"doubleSided":true,
			"extensions":{
				"KHR_materials_specular":{
					"specularColorFactor":[
						2.371357614441398,
						2.371357614441398,
						2.371357614441398
					]
				},
				"KHR_materials_ior":{
					"ior":1.4500000476837158
				}
			},
			"name":"mat4",
			"pbrMetallicRoughness":{
				"baseColorTexture":{
					"index":4
				},
				"metallicFactor":0,
				"roughnessFactor":0.9505894184112549
			}
		},
		{
			"doubleSided":true,
			"extensions":{
				"KHR_materials_specular":{
					"specularColorFactor":[
						2.371357614441398,
						2.371357614441398,
						2.371357614441398
					]
				},
				"KHR_materials_ior":{
					"ior":1.4500000476837158
				}
			},
			"name":"mat5",
			"pbrMetallicRoughness":{
				"baseColorTexture":{
					"index":5
				},
				"metallicFactor":0,
				"roughnessFactor":0.9505894184112549
			}
		},
		{
			"doubleSided":true,
			"extensions":{
				"KHR_materials_specular":{
					"specularColorFactor":[
						2.371357614441398,
						2.371357614441398,
						2.371357614441398
					]
				},
				"KHR_materials_ior":{
					"ior":1.4500000476837158
				}
			},
			"name":"mat6",
			"pbrMetallicRoughness":{
				"baseColorTexture":{
					"index":6
				},
				"metallicFactor":0,
				"roughnessFactor":0.9505894184112549
			}
		},
		{
			"doubleSided":true,
			"extensions":{
				"KHR_materials_specular":{
					"specularColorFactor":[
						2.371357614441398,
						2.371357614441398,
						2.371357614441398
					]
				},
				"KHR_materials_ior":{
					"ior":1.4500000476837158
				}
			},
			"name":"mat7",
			"pbrMetallicRoughness":{
				"baseColorTexture":{
					"index":7
				},
				"metallicFactor":0,
				"roughnessFactor":0.9505894184112549
			}
		},
		{
			"doubleSided":true,
			"extensions":{
				"KHR_materials_specular":{
					"specularColorFactor":[
						2.371357614441398,
						2.371357614441398,
						2.371357614441398
					]
				},
				"KHR_materials_ior":{
					"ior":1.4500000476837158
				}
			},
			"name":"mat8",
			"pbrMetallicRoughness":{
				"baseColorTexture":{
					"index":8
				},
				"metallicFactor":0,
				"roughnessFactor":0.9505894184112549
			}
		},
		{
			"doubleSided":true,
			"extensions":{
				"KHR_materials_specular":{
					"specularColorFactor":[
						2.371357614441398,
						2.371357614441398,
						2.371357614441398
					]
				},
				"KHR_materials_ior":{
					"ior":1.4500000476837158
				}
			},
			"name":"mat9",
			"pbrMetallicRoughness":{
				"baseColorTexture":{
					"index":9
				},
				"metallicFactor":0,
				"roughnessFactor":0.9505894184112549
			}
		},
		{
			"doubleSided":true,
			"extensions":{
				"KHR_materials_specular":{
					"specularColorFactor":[
						2.371357614441398,
						2.371357614441398,
						2.371357614441398
					]
				},
				"KHR_materials_ior":{
					"ior":1.4500000476837158
				}
			},
			"name":"mat10",
			"pbrMetallicRoughness":{
				"baseColorTexture":{
					"index":10
				},
				"metallicFactor":0,
				"roughnessFactor":0.9505894184112549
			}
		},
		{
			"doubleSided":true,
			"extensions":{
				"KHR_materials_specular":{
					"specularColorFactor":[
						2.371357614441398,
						2.371357614441398,
						2.371357614441398
					]
				},
				"KHR_materials_ior":{
					"ior":1.4500000476837158
				}
			},
			"name":"mat11",
			"pbrMetallicRoughness":{
				"baseColorTexture":{
					"index":11
				},
				"metallicFactor":0,
				"roughnessFactor":0.9505894184112549
			}
		}
	],
	"meshes":[
		{
			"name":"RZ_exit1_gatea",
			"primitives":[
				{
					"attributes":{
						"POSITION":0,
						"TEXCOORD_0":1,
						"NORMAL":2
					},
					"indices":3,
					"material":0
				},
				{
					"attributes":{
						"POSITION":4,
						"TEXCOORD_0":5,
						"NORMAL":6
					},
					"indices":7,
					"material":1
				},
				{
					"attributes":{
						"POSITION":8,
						"TEXCOORD_0":9,
						"NORMAL":10
					},
					"indices":11,
					"material":2
				},
				{
					"attributes":{
						"POSITION":12,
						"TEXCOORD_0":13,
						"NORMAL":14
					},
					"indices":15,
					"material":3
				},
				{
					"attributes":{
						"POSITION":16,
						"TEXCOORD_0":17,
						"NORMAL":18
					},
					"indices":19,
					"material":4
				},
				{
					"attributes":{
						"POSITION":20,
						"TEXCOORD_0":21,
						"NORMAL":22
					},
					"indices":23,
					"material":5
				},
				{
					"attributes":{
						"POSITION":24,
						"TEXCOORD_0":25,
						"NORMAL":26
					},
					"indices":27,
					"material":6
				},
				{
					"attributes":{
						"POSITION":28,
						"TEXCOORD_0":29,
						"NORMAL":30
					},
					"indices":31,
					"material":7
				},
				{
					"attributes":{
						"POSITION":32,
						"TEXCOORD_0":33,
						"NORMAL":34
					},
					"indices":35,
					"material":8
				},
				{
					"attributes":{
						"POSITION":36,
						"TEXCOORD_0":37,
						"NORMAL":38
					},
					"indices":35,
					"material":9
				},
				{
					"attributes":{
						"POSITION":39,
						"TEXCOORD_0":40,
						"NORMAL":41
					},
					"indices":42,
					"material":10
				},
				{
					"attributes":{
						"POSITION":43,
						"TEXCOORD_0":44,
						"NORMAL":45
					},
					"indices":11,
					"material":11
				}
			]
		}
	],
	"textures":[
		{
			"sampler":0,
			"source":0
		},
		{
			"sampler":0,
			"source":1
		},
		{
			"sampler":0,
			"source":2
		},
		{
			"sampler":0,
			"source":3
		},
		{
			"sampler":0,
			"source":4
		},
		{
			"sampler":0,
			"source":5
		},
		{
			"sampler":0,
			"source":6
		},
		{
			"sampler":0,
			"source":7
		},
		{
			"sampler":0,
			"source":8
		},
		{
			"sampler":0,
			"source":9
		},
		{
			"sampler":0,
			"source":10
		},
		{
			"sampler":0,
			"source":11
		}
	],
	"images":[
		{
			"mimeType":"image/jpeg",
			"name":"dirtymetal",
			"uri":"dirtymetal.jpg"
		},
		{
			"mimeType":"image/jpeg",
			"name":"tilefloor",
			"uri":"tilefloor.jpg"
		},
		{
			"mimeType":"image/jpeg",
			"name":"metal3",
			"uri":"metal3.jpg"
		},
		{
			"mimeType":"image/jpeg",
			"name":"officewall",
			"uri":"officewall.jpg"
		},
		{
			"mimeType":"image/jpeg",
			"name":"concretefloor",
			"uri":"concretefloor.jpg"
		},
		{
			"mimeType":"image/jpeg",
			"name":"metal",
			"uri":"metal.jpg"
		},
		{
			"mimeType":"image/jpeg",
			"name":"metalpanels2",
			"uri":"metalpanels2.jpg"
		},
		{
			"mimeType":"image/jpeg",
			"name":"misc",
			"uri":"misc.jpg"
		},
		{
			"mimeType":"image/jpeg",
			"name":"miscsigns2",
			"uri":"miscsigns2.jpg"
		},
		{
			"mimeType":"image/jpeg",
			"name":"scplogo",
			"uri":"scplogo.jpg"
		},
		{
			"mimeType":"image/jpeg",
			"name":"white",
			"uri":"white.jpg"
		},
		{
			"mimeType":"image/png",
			"name":"ctconcretewalls",
			"uri":"ctconcretewalls.png"
		}
	],
	"accessors":[
		{
			"bufferView":0,
			"componentType":5126,
			"count":3553,
			"max":[
				13.279999732971191,
				9.920000076293945,
				9.999999974752427e-07
			],
			"min":[
				-7.119999885559082,
				-12.399999618530273,
				-13.279999732971191
			],
			"type":"VEC3"
		},
		{
			"bufferView":1,
			"componentType":5126,
			"count":3553,
			"type":"VEC2"
		},
		{
			"bufferView":2,
			"componentType":5126,
			"count":3553,
			"type":"VEC3"
		},
		{
			"bufferView":3,
			"componentType":5123,
			"count":5784,
			"type":"SCALAR"
		},
		{
			"bufferView":4,
			"componentType":5126,
			"count":40,
			"max":[
				7.360000133514404,
				10.238595962524414,
				0.010001000016927719
			],
			"min":[
				-7.199999809265137,
				-11.200000762939453,
				-9.999999974752427e-07
			],
			"type":"VEC3"
		},
		{
			"bufferView":5,
			"componentType":5126,
			"count":40,
			"type":"VEC2"
		},
		{
			"bufferView":6,
			"componentType":5126,
			"count":40,
			"type":"VEC3"
		},
		{
			"bufferView":7,
			"componentType":5123,
			"count":60,
			"type":"SCALAR"
		},
		{
			"bufferView":8,
			"componentType":5126,
			"count":16,
			"max":[
				13.59999942779541,
				-2.0799999237060547,
				0.3200010061264038
			],
			"min":[
				7.360000133514404,
				-8,
				0
			],
			"type":"VEC3"
		},
		{
			"bufferView":9,
			"componentType":5126,
			"count":16,
			"type":"VEC2"
		},
		{
			"bufferView":10,
			"componentType":5126,
			"count":16,
			"type":"VEC3"
		},
		{
			"bufferView":11,
			"componentType":5123,
			"count":24,
			"type":"SCALAR"
		},
		{
			"bufferView":12,
			"componentType":5126,
			"count":868,
			"max":[
				7.360000133514404,
				10.239999771118164,
				9.999999974752427e-07
			],
			"min":[
				-7.199999809265137,
				-11.200000762939453,
				-7.040000915527344
			],
			"type":"VEC3"
		},
		{
			"bufferView":13,
			"componentType":5126,
			"count":868,
			"type":"VEC2"
		},
		{
			"bufferView":14,
			"componentType":5126,
			"count":868,
			"type":"VEC3"
		},
		{
			"bufferView":15,
			"componentType":5123,
			"count":1302,
			"type":"SCALAR"
		},
		{
			"bufferView":16,
			"componentType":5126,
			"count":232,
			"max":[
				13.279999732971191,
				10.239998817443848,
				9.999999974752427e-07
			],
			"min":[
				-7.199999809265137,
				-11.200000762939453,
				-13.279999732971191
			],
			"type":"VEC3"
		},
		{
			"bufferView":17,
			"componentType":5126,
			"count":232,
			"type":"VEC2"
		},
		{
			"bufferView":18,
			"componentType":5126,
			"count":232,
			"type":"VEC3"
		},
		{
			"bufferView":19,
			"componentType":5123,
			"count":342,
			"type":"SCALAR"
		},
		{
			"bufferView":20,
			"componentType":5126,
			"count":60,
			"max":[
				13.59999942779541,
				-2.0799999237060547,
				9.999999974752427e-07
			],
			"min":[
				7.360000133514404,
				-8.15999984741211,
				-5.119999885559082
			],
			"type":"VEC3"
		},
		{
			"bufferView":21,
			"componentType":5126,
			"count":60,
			"type":"VEC2"
		},
		{
			"bufferView":22,
			"componentType":5126,
			"count":60,
			"type":"VEC3"
		},
		{
			"bufferView":23,
			"componentType":5123,
			"count":90,
			"type":"SCALAR"
		},
		{
			"bufferView":24,
			"componentType":5126,
			"count":772,
			"max":[
				6.880000114440918,
				10.239999771118164,
				-3.4999990463256836
			],
			"min":[
				-7.199999809265137,
				-10.239999771118164,
				-5.440001010894775
			],
			"type":"VEC3"
		},
		{
			"bufferView":25,
			"componentType":5126,
			"count":772,
			"type":"VEC2"
		},
		{
			"bufferView":26,
			"componentType":5126,
			"count":772,
			"type":"VEC3"
		},
		{
			"bufferView":27,
			"componentType":5123,
			"count":1152,
			"type":"SCALAR"
		},
		{
			"bufferView":28,
			"componentType":5126,
			"count":96,
			"max":[
				10.719999313354492,
				7.879999160766602,
				-4.759998798370361
			],
			"min":[
				-2.0495619773864746,
				-5.320000171661377,
				-9.468680381774902
			],
			"type":"VEC3"
		},
		{
			"bufferView":29,
			"componentType":5126,
			"count":96,
			"type":"VEC2"
		},
		{
			"bufferView":30,
			"componentType":5126,
			"count":96,
			"type":"VEC3"
		},
		{
			"bufferView":31,
			"componentType":5123,
			"count":144,
			"type":"SCALAR"
		},
		{
			"bufferView":32,
			"componentType":5126,
			"count":8,
			"max":[
				3.259999990463257,
				4.8199992179870605,
				-4.639998912811279
			],
			"min":[
				-3.262355089187622,
				-10.220000267028809,
				-6.563634872436523
			],
			"type":"VEC3"
		},
		{
			"bufferView":33,
			"componentType":5126,
			"count":8,
			"type":"VEC2"
		},
		{
			"bufferView":34,
			"componentType":5126,
			"count":8,
			"type":"VEC3"
		},
		{
			"bufferView":35,
			"componentType":5123,
			"count":12,
			"type":"SCALAR"
		},
		{
			"bufferView":36,
			"componentType":5126,
			"count":8,
			"max":[
				3.259999990463257,
				4.789844989776611,
				-4.639998912811279
			],
			"min":[
				-3.262355089187622,
				-10.248592376708984,
				-6.563634872436523
			],
			"type":"VEC3"
		},
		{
			"bufferView":37,
			"componentType":5126,
			"count":8,
			"type":"VEC2"
		},
		{
			"bufferView":38,
			"componentType":5126,
			"count":8,
			"type":"VEC3"
		},
		{
			"bufferView":39,
			"componentType":5126,
			"count":20,
			"max":[
				4.888893127441406,
				7.840001106262207,
				-3.5199990272521973
			],
			"min":[
				-7.128893852233887,
				-8.640002250671387,
				-7.039999961853027
			],
			"type":"VEC3"
		},
		{
			"bufferView":40,
			"componentType":5126,
			"count":20,
			"type":"VEC2"
		},
		{
			"bufferView":41,
			"componentType":5126,
			"count":20,
			"type":"VEC3"
		},
		{
			"bufferView":42,
			"componentType":5123,
			"count":30,
			"type":"SCALAR"
		},
		{
			"bufferView":43,
			"componentType":5126,
			"count":16,
			"max":[
				2.240000009536743,
				-2.2400009632110596,
				-13.279998779296875
			],
			"min":[
				-2.240000009536743,
				-6.560000896453857,
				-13.4399995803833
			],
			"type":"VEC3"
		},
		{
			"bufferView":44,
			"componentType":5126,
			"count":16,
			"type":"VEC2"
		},
		{
			"bufferView":45,
			"componentType":5126,
			"count":16,
			"type":"VEC3"
		}
	],
	"bufferViews":[
		{
			"buffer":0,
			"byteLength":42636,
			"byteOffset":0,
			"target":34962
		},
		{
			"buffer":0,
			"byteLength":28424,
			"byteOffset":42636,
			"target":34962
		},
		{
			"buffer":0,
			"byteLength":42636,
			"byteOffset":71060,
			"target":34962
		},
		{
			"buffer":0,
			"byteLength":11568,
			"byteOffset":113696,
			"target":34963
		},
		{
			"buffer":0,
			"byteLength":480,
			"byteOffset":125264,
			"target":34962
		},
		{
			"buffer":0,
			"byteLength":320,
			"byteOffset":125744,
			"target":34962
		},
		{
			"buffer":0,
			"byteLength":480,
			"byteOffset":126064,
			"target":34962
		},
		{
			"buffer":0,
			"byteLength":120,
			"byteOffset":126544,
			"target":34963
		},
		{
			"buffer":0,
			"byteLength":192,
			"byteOffset":126664,
			"target":34962
		},
		{
			"buffer":0,
			"byteLength":128,
			"byteOffset":126856,
			"target":34962
		},
		{
			"buffer":0,
			"byteLength":192,
			"byteOffset":126984,
			"target":34962
		},
		{
			"buffer":0,
			"byteLength":48,
			"byteOffset":127176,
			"target":34963
		},
		{
			"buffer":0,
			"byteLength":10416,
			"byteOffset":127224,
			"target":34962
		},
		{
			"buffer":0,
			"byteLength":6944,
			"byteOffset":137640,
			"target":34962
		},
		{
			"buffer":0,
			"byteLength":10416,
			"byteOffset":144584,
			"target":34962
		},
		{
			"buffer":0,
			"byteLength":2604,
			"byteOffset":155000,
			"target":34963
		},
		{
			"buffer":0,
			"byteLength":2784,
			"byteOffset":157604,
			"target":34962
		},
		{
			"buffer":0,
			"byteLength":1856,
			"byteOffset":160388,
			"target":34962
		},
		{
			"buffer":0,
			"byteLength":2784,
			"byteOffset":162244,
			"target":34962
		},
		{
			"buffer":0,
			"byteLength":684,
			"byteOffset":165028,
			"target":34963
		},
		{
			"buffer":0,
			"byteLength":720,
			"byteOffset":165712,
			"target":34962
		},
		{
			"buffer":0,
			"byteLength":480,
			"byteOffset":166432,
			"target":34962
		},
		{
			"buffer":0,
			"byteLength":720,
			"byteOffset":166912,
			"target":34962
		},
		{
			"buffer":0,
			"byteLength":180,
			"byteOffset":167632,
			"target":34963
		},
		{
			"buffer":0,
			"byteLength":9264,
			"byteOffset":167812,
			"target":34962
		},
		{
			"buffer":0,
			"byteLength":6176,
			"byteOffset":177076,
			"target":34962
		},
		{
			"buffer":0,
			"byteLength":9264,
			"byteOffset":183252,
			"target":34962
		},
		{
			"buffer":0,
			"byteLength":2304,
			"byteOffset":192516,
			"target":34963
		},
		{
			"buffer":0,
			"byteLength":1152,
			"byteOffset":194820,
			"target":34962
		},
		{
			"buffer":0,
			"byteLength":768,
			"byteOffset":195972,
			"target":34962
		},
		{
			"buffer":0,
			"byteLength":1152,
			"byteOffset":196740,
			"target":34962
		},
		{
			"buffer":0,
			"byteLength":288,
			"byteOffset":197892,
			"target":34963
		},
		{
			"buffer":0,
			"byteLength":96,
			"byteOffset":198180,
			"target":34962
		},
		{
			"buffer":0,
			"byteLength":64,
			"byteOffset":198276,
			"target":34962
		},
		{
			"buffer":0,
			"byteLength":96,
			"byteOffset":198340,
			"target":34962
		},
		{
			"buffer":0,
			"byteLength":24,
			"byteOffset":198436,
			"target":34963
		},
		{
			"buffer":0,
			"byteLength":96,
			"byteOffset":198460,
			"target":34962
		},
		{
			"buffer":0,
			"byteLength":64,
			"byteOffset":198556,
			"target":34962
		},
		{
			"buffer":0,
			"byteLength":96,
			"byteOffset":198620,
			"target":34962
		},
		{
			"buffer":0,
			"byteLength":240,
			"byteOffset":198716,
			"target":34962
		},
		{
			"buffer":0,
			"byteLength":160,
			"byteOffset":198956,
			"target":34962
		},
		{
			"buffer":0,
			"byteLength":240,
			"byteOffset":199116,
			"target":34962
		},
		{
			"buffer":0,
			"byteLength":60,
			"byteOffset":199356,
			"target":34963
		},
		{
			"buffer":0,
			"byteLength":192,
			"byteOffset":199416,
			"target":34962
		},
		{
			"buffer":0,
			"byteLength":128,
			"byteOffset":199608,
			"target":34962
		},
		{
			"buffer":0,
			"byteLength":192,
			"byteOffset":199736,
			"target":34962
		}
	],
	"samplers":[
		{
			"magFilter":9729,
			"minFilter":9987
		}
	],
	"buffers":[
		{
			"byteLength":199928,
			"uri":"RZ_exit1_gatea.bin"
		}
	]
}
