{
	"asset":{
		"generator":"Khronos glTF Blender I/O v3.6.27",
		"version":"2.0"
	},
	"extensionsUsed":[
		"KHR_materials_specular",
		"KHR_materials_ior"
	],
	"scene":0,
	"scenes":[
		{
			"name":"Scene",
			"nodes":[
				0
			]
		}
	],
	"nodes":[
		{
			"mesh":0,
			"name":"OZ_room3",
			"rotation":[
				0.7071068286895752,
				0,
				0,
				0.7071068286895752
			]
		}
	],
	"materials":[
		{
			"doubleSided":true,
			"extensions":{
				"KHR_materials_specular":{
					"specularColorFactor":[
						2.371357614441398,
						2.371357614441398,
						2.371357614441398
					]
				},
				"KHR_materials_ior":{
					"ior":1.4500000476837158
				}
			},
			"name":"mat0.004",
			"pbrMetallicRoughness":{
				"baseColorTexture":{
					"index":0
				},
				"metallicFactor":0
			}
		},
		{
			"doubleSided":true,
			"extensions":{
				"KHR_materials_specular":{
					"specularColorFactor":[
						2.371357614441398,
						2.371357614441398,
						2.371357614441398
					]
				},
				"KHR_materials_ior":{
					"ior":1.4500000476837158
				}
			},
			"name":"mat1.004",
			"pbrMetallicRoughness":{
				"baseColorTexture":{
					"index":1
				},
				"metallicFactor":0
			}
		},
		{
			"doubleSided":true,
			"extensions":{
				"KHR_materials_specular":{
					"specularColorFactor":[
						2.371357614441398,
						2.371357614441398,
						2.371357614441398
					]
				},
				"KHR_materials_ior":{
					"ior":1.4500000476837158
				}
			},
			"name":"mat2.004",
			"pbrMetallicRoughness":{
				"baseColorTexture":{
					"index":2
				},
				"metallicFactor":0
			}
		},
		{
			"doubleSided":true,
			"extensions":{
				"KHR_materials_specular":{
					"specularColorFactor":[
						2.371357614441398,
						2.371357614441398,
						2.371357614441398
					]
				},
				"KHR_materials_ior":{
					"ior":1.4500000476837158
				}
			},
			"name":"mat3.004",
			"pbrMetallicRoughness":{
				"baseColorTexture":{
					"index":3
				},
				"metallicFactor":0
			}
		},
		{
			"doubleSided":true,
			"extensions":{
				"KHR_materials_specular":{
					"specularColorFactor":[
						2.371357614441398,
						2.371357614441398,
						2.371357614441398
					]
				},
				"KHR_materials_ior":{
					"ior":1.4500000476837158
				}
			},
			"name":"mat4.004",
			"pbrMetallicRoughness":{
				"baseColorTexture":{
					"index":4
				},
				"metallicFactor":0
			}
		},
		{
			"doubleSided":true,
			"extensions":{
				"KHR_materials_specular":{
					"specularColorFactor":[
						2.371357614441398,
						2.371357614441398,
						2.371357614441398
					]
				},
				"KHR_materials_ior":{
					"ior":1.4500000476837158
				}
			},
			"name":"mat5.004",
			"pbrMetallicRoughness":{
				"baseColorTexture":{
					"index":5
				},
				"metallicFactor":0
			}
		},
		{
			"doubleSided":true,
			"extensions":{
				"KHR_materials_specular":{
					"specularColorFactor":[
						2.371357614441398,
						2.371357614441398,
						2.371357614441398
					]
				},
				"KHR_materials_ior":{
					"ior":1.4500000476837158
				}
			},
			"name":"mat6.004",
			"pbrMetallicRoughness":{
				"baseColorTexture":{
					"index":6
				},
				"metallicFactor":0
			}
		}
	],
	"meshes":[
		{
			"name":"OZ_room3",
			"primitives":[
				{
					"attributes":{
						"POSITION":0,
						"NORMAL":1,
						"TEXCOORD_0":2
					},
					"indices":3,
					"material":0
				},
				{
					"attributes":{
						"POSITION":4,
						"NORMAL":5,
						"TEXCOORD_0":6
					},
					"indices":7,
					"material":1
				},
				{
					"attributes":{
						"POSITION":8,
						"NORMAL":9,
						"TEXCOORD_0":10
					},
					"indices":11,
					"material":2
				},
				{
					"attributes":{
						"POSITION":12,
						"NORMAL":13,
						"TEXCOORD_0":14
					},
					"indices":15,
					"material":3
				},
				{
					"attributes":{
						"POSITION":16,
						"NORMAL":17,
						"TEXCOORD_0":18
					},
					"indices":19,
					"material":4
				},
				{
					"attributes":{
						"POSITION":20,
						"NORMAL":21,
						"TEXCOORD_0":22
					},
					"indices":23,
					"material":5
				},
				{
					"attributes":{
						"POSITION":24,
						"NORMAL":25,
						"TEXCOORD_0":26
					},
					"indices":27,
					"material":6
				}
			]
		}
	],
	"textures":[
		{
			"sampler":0,
			"source":0
		},
		{
			"sampler":0,
			"source":1
		},
		{
			"sampler":0,
			"source":2
		},
		{
			"sampler":0,
			"source":3
		},
		{
			"sampler":0,
			"source":4
		},
		{
			"sampler":0,
			"source":5
		},
		{
			"sampler":0,
			"source":6
		}
	],
	"images":[
		{
			"mimeType":"image/jpeg",
			"name":"officewall",
			"uri":"officewall.jpg"
		},
		{
			"mimeType":"image/jpeg",
			"name":"ceiling",
			"uri":"ceiling.jpg"
		},
		{
			"mimeType":"image/jpeg",
			"name":"misc",
			"uri":"misc.jpg"
		},
		{
			"mimeType":"image/jpeg",
			"name":"tilefloor",
			"uri":"tilefloor.jpg"
		},
		{
			"mimeType":"image/jpeg",
			"name":"dirtymetal",
			"uri":"dirtymetal.jpg"
		},
		{
			"mimeType":"image/jpeg",
			"name":"metal",
			"uri":"metal.jpg"
		},
		{
			"mimeType":"image/jpeg",
			"name":"metalpanels",
			"uri":"metalpanels.jpg"
		}
	],
	"accessors":[
		{
			"bufferView":0,
			"componentType":5126,
			"count":116,
			"max":[
				10.239999771118164,
				5.760000228881836,
				9.999999974752427e-07
			],
			"min":[
				-10.239999771118164,
				-10.239999771118164,
				-3.8400020599365234
			],
			"type":"VEC3"
		},
		{
			"bufferView":1,
			"componentType":5126,
			"count":116,
			"type":"VEC3"
		},
		{
			"bufferView":2,
			"componentType":5126,
			"count":116,
			"type":"VEC2"
		},
		{
			"bufferView":3,
			"componentType":5123,
			"count":174,
			"type":"SCALAR"
		},
		{
			"bufferView":4,
			"componentType":5126,
			"count":60,
			"max":[
				10.239999771118164,
				2.5600008964538574,
				-3.839998960494995
			],
			"min":[
				-10.239999771118164,
				-10.239998817443848,
				-4.160000801086426
			],
			"type":"VEC3"
		},
		{
			"bufferView":5,
			"componentType":5126,
			"count":60,
			"type":"VEC3"
		},
		{
			"bufferView":6,
			"componentType":5126,
			"count":60,
			"type":"VEC2"
		},
		{
			"bufferView":7,
			"componentType":5123,
			"count":90,
			"type":"SCALAR"
		},
		{
			"bufferView":8,
			"componentType":5126,
			"count":52,
			"max":[
				10.239999771118164,
				2.489561080932617,
				-3.790440082550049
			],
			"min":[
				-10.239999771118164,
				-10.239998817443848,
				-4.160000801086426
			],
			"type":"VEC3"
		},
		{
			"bufferView":9,
			"componentType":5126,
			"count":52,
			"type":"VEC3"
		},
		{
			"bufferView":10,
			"componentType":5126,
			"count":52,
			"type":"VEC2"
		},
		{
			"bufferView":11,
			"componentType":5123,
			"count":78,
			"type":"SCALAR"
		},
		{
			"bufferView":12,
			"componentType":5126,
			"count":4,
			"max":[
				10.239999771118164,
				5.760000228881836,
				9.999999974752427e-07
			],
			"min":[
				-10.239999771118164,
				-10.239999771118164,
				-1.9999999949504854e-06
			],
			"type":"VEC3"
		},
		{
			"bufferView":13,
			"componentType":5126,
			"count":4,
			"type":"VEC3"
		},
		{
			"bufferView":14,
			"componentType":5126,
			"count":4,
			"type":"VEC2"
		},
		{
			"bufferView":15,
			"componentType":5123,
			"count":6,
			"type":"SCALAR"
		},
		{
			"bufferView":16,
			"componentType":5126,
			"count":92,
			"max":[
				3.5999999046325684,
				2.489561080932617,
				-3.790440082550049
			],
			"min":[
				-3.5999999046325684,
				-3.599998950958252,
				-3.8399999141693115
			],
			"type":"VEC3"
		},
		{
			"bufferView":17,
			"componentType":5126,
			"count":92,
			"type":"VEC3"
		},
		{
			"bufferView":18,
			"componentType":5126,
			"count":92,
			"type":"VEC2"
		},
		{
			"bufferView":19,
			"componentType":5123,
			"count":138,
			"type":"SCALAR"
		},
		{
			"bufferView":20,
			"componentType":5126,
			"count":484,
			"max":[
				3.5199999809265137,
				5.760000228881836,
				9.999999974752427e-07
			],
			"min":[
				-3.5199999809265137,
				-3.5199990272521973,
				-3.8399999141693115
			],
			"type":"VEC3"
		},
		{
			"bufferView":21,
			"componentType":5126,
			"count":484,
			"type":"VEC3"
		},
		{
			"bufferView":22,
			"componentType":5126,
			"count":484,
			"type":"VEC2"
		},
		{
			"bufferView":23,
			"componentType":5123,
			"count":726,
			"type":"SCALAR"
		},
		{
			"bufferView":24,
			"componentType":5126,
			"count":432,
			"max":[
				2.700000047683716,
				5.370914936065674,
				-0.6999989748001099
			],
			"min":[
				-2.700000047683716,
				4.699999809265137,
				-1.2211430072784424
			],
			"type":"VEC3"
		},
		{
			"bufferView":25,
			"componentType":5126,
			"count":432,
			"type":"VEC3"
		},
		{
			"bufferView":26,
			"componentType":5126,
			"count":432,
			"type":"VEC2"
		},
		{
			"bufferView":27,
			"componentType":5123,
			"count":648,
			"type":"SCALAR"
		}
	],
	"bufferViews":[
		{
			"buffer":0,
			"byteLength":1392,
			"byteOffset":0,
			"target":34962
		},
		{
			"buffer":0,
			"byteLength":1392,
			"byteOffset":1392,
			"target":34962
		},
		{
			"buffer":0,
			"byteLength":928,
			"byteOffset":2784,
			"target":34962
		},
		{
			"buffer":0,
			"byteLength":348,
			"byteOffset":3712,
			"target":34963
		},
		{
			"buffer":0,
			"byteLength":720,
			"byteOffset":4060,
			"target":34962
		},
		{
			"buffer":0,
			"byteLength":720,
			"byteOffset":4780,
			"target":34962
		},
		{
			"buffer":0,
			"byteLength":480,
			"byteOffset":5500,
			"target":34962
		},
		{
			"buffer":0,
			"byteLength":180,
			"byteOffset":5980,
			"target":34963
		},
		{
			"buffer":0,
			"byteLength":624,
			"byteOffset":6160,
			"target":34962
		},
		{
			"buffer":0,
			"byteLength":624,
			"byteOffset":6784,
			"target":34962
		},
		{
			"buffer":0,
			"byteLength":416,
			"byteOffset":7408,
			"target":34962
		},
		{
			"buffer":0,
			"byteLength":156,
			"byteOffset":7824,
			"target":34963
		},
		{
			"buffer":0,
			"byteLength":48,
			"byteOffset":7980,
			"target":34962
		},
		{
			"buffer":0,
			"byteLength":48,
			"byteOffset":8028,
			"target":34962
		},
		{
			"buffer":0,
			"byteLength":32,
			"byteOffset":8076,
			"target":34962
		},
		{
			"buffer":0,
			"byteLength":12,
			"byteOffset":8108,
			"target":34963
		},
		{
			"buffer":0,
			"byteLength":1104,
			"byteOffset":8120,
			"target":34962
		},
		{
			"buffer":0,
			"byteLength":1104,
			"byteOffset":9224,
			"target":34962
		},
		{
			"buffer":0,
			"byteLength":736,
			"byteOffset":10328,
			"target":34962
		},
		{
			"buffer":0,
			"byteLength":276,
			"byteOffset":11064,
			"target":34963
		},
		{
			"buffer":0,
			"byteLength":5808,
			"byteOffset":11340,
			"target":34962
		},
		{
			"buffer":0,
			"byteLength":5808,
			"byteOffset":17148,
			"target":34962
		},
		{
			"buffer":0,
			"byteLength":3872,
			"byteOffset":22956,
			"target":34962
		},
		{
			"buffer":0,
			"byteLength":1452,
			"byteOffset":26828,
			"target":34963
		},
		{
			"buffer":0,
			"byteLength":5184,
			"byteOffset":28280,
			"target":34962
		},
		{
			"buffer":0,
			"byteLength":5184,
			"byteOffset":33464,
			"target":34962
		},
		{
			"buffer":0,
			"byteLength":3456,
			"byteOffset":38648,
			"target":34962
		},
		{
			"buffer":0,
			"byteLength":1296,
			"byteOffset":42104,
			"target":34963
		}
	],
	"samplers":[
		{
			"magFilter":9729,
			"minFilter":9987
		}
	],
	"buffers":[
		{
			"byteLength":43400,
			"uri":"RZ_room3.bin"
		}
	]
}
