{
	"asset":{
		"generator":"Khronos glTF Blender I/O v3.6.27",
		"version":"2.0"
	},
	"extensionsUsed":[
		"KHR_materials_specular",
		"KHR_materials_ior"
	],
	"scene":0,
	"scenes":[
		{
			"name":"Scene",
			"nodes":[
				0
			]
		}
	],
	"nodes":[
		{
			"mesh":0,
			"name":"RZ_room4"
		}
	],
	"materials":[
		{
			"doubleSided":true,
			"extensions":{
				"KHR_materials_specular":{
					"specularColorFactor":[
						2.371357614441398,
						2.371357614441398,
						2.371357614441398
					]
				},
				"KHR_materials_ior":{
					"ior":1.4500000476837158
				}
			},
			"name":"mat0.001",
			"pbrMetallicRoughness":{
				"baseColorTexture":{
					"index":0
				},
				"metallicFactor":0,
				"roughnessFactor":0.9505894184112549
			}
		},
		{
			"doubleSided":true,
			"extensions":{
				"KHR_materials_specular":{
					"specularColorFactor":[
						2.371357614441398,
						2.371357614441398,
						2.371357614441398
					]
				},
				"KHR_materials_ior":{
					"ior":1.4500000476837158
				}
			},
			"name":"mat1.001",
			"pbrMetallicRoughness":{
				"baseColorTexture":{
					"index":1
				},
				"metallicFactor":0,
				"roughnessFactor":0.9505894184112549
			}
		},
		{
			"doubleSided":true,
			"extensions":{
				"KHR_materials_specular":{
					"specularColorFactor":[
						2.371357614441398,
						2.371357614441398,
						2.371357614441398
					]
				},
				"KHR_materials_ior":{
					"ior":1.4500000476837158
				}
			},
			"name":"mat2.001",
			"pbrMetallicRoughness":{
				"baseColorTexture":{
					"index":2
				},
				"metallicFactor":0,
				"roughnessFactor":0.9505894184112549
			}
		},
		{
			"doubleSided":true,
			"extensions":{
				"KHR_materials_specular":{
					"specularColorFactor":[
						2.371357614441398,
						2.371357614441398,
						2.371357614441398
					]
				},
				"KHR_materials_ior":{
					"ior":1.4500000476837158
				}
			},
			"name":"mat3.001",
			"pbrMetallicRoughness":{
				"baseColorTexture":{
					"index":3
				},
				"metallicFactor":0,
				"roughnessFactor":0.9505894184112549
			}
		},
		{
			"doubleSided":true,
			"extensions":{
				"KHR_materials_specular":{
					"specularColorFactor":[
						2.371357614441398,
						2.371357614441398,
						2.371357614441398
					]
				},
				"KHR_materials_ior":{
					"ior":1.4500000476837158
				}
			},
			"name":"mat4.001",
			"pbrMetallicRoughness":{
				"baseColorTexture":{
					"index":4
				},
				"metallicFactor":0,
				"roughnessFactor":0.9505894184112549
			}
		},
		{
			"doubleSided":true,
			"extensions":{
				"KHR_materials_specular":{
					"specularColorFactor":[
						2.371357614441398,
						2.371357614441398,
						2.371357614441398
					]
				},
				"KHR_materials_ior":{
					"ior":1.4500000476837158
				}
			},
			"name":"mat5.001",
			"pbrMetallicRoughness":{
				"baseColorTexture":{
					"index":5
				},
				"metallicFactor":0,
				"roughnessFactor":0.9505894184112549
			}
		},
		{
			"doubleSided":true,
			"extensions":{
				"KHR_materials_specular":{
					"specularColorFactor":[
						2.371357614441398,
						2.371357614441398,
						2.371357614441398
					]
				},
				"KHR_materials_ior":{
					"ior":1.4500000476837158
				}
			},
			"name":"mat6",
			"pbrMetallicRoughness":{
				"baseColorTexture":{
					"index":6
				},
				"metallicFactor":0,
				"roughnessFactor":0.9505894184112549
			}
		},
		{
			"doubleSided":true,
			"extensions":{
				"KHR_materials_specular":{
					"specularColorFactor":[
						2.371357614441398,
						2.371357614441398,
						2.371357614441398
					]
				},
				"KHR_materials_ior":{
					"ior":1.4500000476837158
				}
			},
			"name":"mat7",
			"pbrMetallicRoughness":{
				"baseColorTexture":{
					"index":7
				},
				"metallicFactor":0,
				"roughnessFactor":0.9505894184112549
			}
		}
	],
	"meshes":[
		{
			"name":"RZ_room4",
			"primitives":[
				{
					"attributes":{
						"POSITION":0,
						"NORMAL":1,
						"TEXCOORD_0":2
					},
					"indices":3,
					"material":0
				},
				{
					"attributes":{
						"POSITION":4,
						"NORMAL":5,
						"TEXCOORD_0":6
					},
					"indices":7,
					"material":1
				},
				{
					"attributes":{
						"POSITION":8,
						"NORMAL":9,
						"TEXCOORD_0":10
					},
					"indices":11,
					"material":2
				},
				{
					"attributes":{
						"POSITION":12,
						"NORMAL":13,
						"TEXCOORD_0":14
					},
					"indices":15,
					"material":3
				},
				{
					"attributes":{
						"POSITION":16,
						"NORMAL":17,
						"TEXCOORD_0":18
					},
					"indices":11,
					"material":4
				},
				{
					"attributes":{
						"POSITION":19,
						"NORMAL":20,
						"TEXCOORD_0":21
					},
					"indices":22,
					"material":5
				},
				{
					"attributes":{
						"POSITION":23,
						"NORMAL":24,
						"TEXCOORD_0":25
					},
					"indices":26,
					"material":6
				},
				{
					"attributes":{
						"POSITION":27,
						"NORMAL":28,
						"TEXCOORD_0":29
					},
					"indices":30,
					"material":7
				}
			]
		}
	],
	"textures":[
		{
			"sampler":0,
			"source":0
		},
		{
			"sampler":0,
			"source":1
		},
		{
			"sampler":0,
			"source":2
		},
		{
			"sampler":0,
			"source":3
		},
		{
			"sampler":0,
			"source":4
		},
		{
			"sampler":0,
			"source":5
		},
		{
			"sampler":0,
			"source":6
		},
		{
			"sampler":0,
			"source":7
		}
	],
	"images":[
		{
			"mimeType":"image/jpeg",
			"name":"metal",
			"uri":"metal.jpg"
		},
		{
			"mimeType":"image/jpeg",
			"name":"tilefloor",
			"uri":"tilefloor.jpg"
		},
		{
			"mimeType":"image/jpeg",
			"name":"white",
			"uri":"white.jpg"
		},
		{
			"mimeType":"image/jpeg",
			"name":"ceiling",
			"uri":"ceiling.jpg"
		},
		{
			"mimeType":"image/jpeg",
			"name":"dirtymetal",
			"uri":"dirtymetal.jpg"
		},
		{
			"mimeType":"image/jpeg",
			"name":"officewall",
			"uri":"officewall.jpg"
		},
		{
			"mimeType":"image/jpeg",
			"name":"misc",
			"uri":"misc.jpg"
		},
		{
			"mimeType":"image/jpeg",
			"name":"metalpanels",
			"uri":"metalpanels.jpg"
		}
	],
	"accessors":[
		{
			"bufferView":0,
			"componentType":5126,
			"count":486,
			"max":[
				9.229999542236328,
				1.2599998712539673,
				-1.46999990940094
			],
			"min":[
				4.049999713897705,
				-1.6005553504783165e-07,
				-2.200000047683716
			],
			"type":"VEC3"
		},
		{
			"bufferView":1,
			"componentType":5126,
			"count":486,
			"type":"VEC3"
		},
		{
			"bufferView":2,
			"componentType":5126,
			"count":486,
			"type":"VEC2"
		},
		{
			"bufferView":3,
			"componentType":5123,
			"count":720,
			"type":"SCALAR"
		},
		{
			"bufferView":4,
			"componentType":5126,
			"count":24,
			"max":[
				10.239999771118164,
				7.730984634690685e-07,
				10.239999771118164
			],
			"min":[
				-10.239999771118164,
				-0.010000772774219513,
				-10.239999771118164
			],
			"type":"VEC3"
		},
		{
			"bufferView":5,
			"componentType":5126,
			"count":24,
			"type":"VEC3"
		},
		{
			"bufferView":6,
			"componentType":5126,
			"count":24,
			"type":"VEC2"
		},
		{
			"bufferView":7,
			"componentType":5123,
			"count":36,
			"type":"SCALAR"
		},
		{
			"bufferView":8,
			"componentType":5126,
			"count":136,
			"max":[
				3.8399999141693115,
				5.440000534057617,
				3.8399994373321533
			],
			"min":[
				-3.8399999141693115,
				3.839998960494995,
				-3.8400003910064697
			],
			"type":"VEC3"
		},
		{
			"bufferView":9,
			"componentType":5126,
			"count":136,
			"type":"VEC3"
		},
		{
			"bufferView":10,
			"componentType":5126,
			"count":136,
			"type":"VEC2"
		},
		{
			"bufferView":11,
			"componentType":5123,
			"count":204,
			"type":"SCALAR"
		},
		{
			"bufferView":12,
			"componentType":5126,
			"count":80,
			"max":[
				10.239999771118164,
				4.160000324249268,
				10.239999771118164
			],
			"min":[
				-10.239999771118164,
				3.839999198913574,
				-10.239999771118164
			],
			"type":"VEC3"
		},
		{
			"bufferView":13,
			"componentType":5126,
			"count":80,
			"type":"VEC3"
		},
		{
			"bufferView":14,
			"componentType":5126,
			"count":80,
			"type":"VEC2"
		},
		{
			"bufferView":15,
			"componentType":5123,
			"count":120,
			"type":"SCALAR"
		},
		{
			"bufferView":16,
			"componentType":5126,
			"count":136,
			"max":[
				3.5999999046325684,
				4.759120464324951,
				3.5999996662139893
			],
			"min":[
				-3.5999999046325684,
				3.8199996948242188,
				-3.6000001430511475
			],
			"type":"VEC3"
		},
		{
			"bufferView":17,
			"componentType":5126,
			"count":136,
			"type":"VEC3"
		},
		{
			"bufferView":18,
			"componentType":5126,
			"count":136,
			"type":"VEC2"
		},
		{
			"bufferView":19,
			"componentType":5126,
			"count":144,
			"max":[
				10.239999771118164,
				3.840000629425049,
				10.239999771118164
			],
			"min":[
				-10.239999771118164,
				-7.730984634690685e-07,
				-10.239999771118164
			],
			"type":"VEC3"
		},
		{
			"bufferView":20,
			"componentType":5126,
			"count":144,
			"type":"VEC3"
		},
		{
			"bufferView":21,
			"componentType":5126,
			"count":144,
			"type":"VEC2"
		},
		{
			"bufferView":22,
			"componentType":5123,
			"count":216,
			"type":"SCALAR"
		},
		{
			"bufferView":23,
			"componentType":5126,
			"count":72,
			"max":[
				10.239999771118164,
				4.759120464324951,
				10.239999771118164
			],
			"min":[
				-10.239999771118164,
				3.839999198913574,
				-10.239999771118164
			],
			"type":"VEC3"
		},
		{
			"bufferView":24,
			"componentType":5126,
			"count":72,
			"type":"VEC3"
		},
		{
			"bufferView":25,
			"componentType":5126,
			"count":72,
			"type":"VEC2"
		},
		{
			"bufferView":26,
			"componentType":5123,
			"count":108,
			"type":"SCALAR"
		},
		{
			"bufferView":27,
			"componentType":5126,
			"count":444,
			"max":[
				9.09999942779541,
				1.2211438417434692,
				-1.5
			],
			"min":[
				4.179999828338623,
				0.6999998092651367,
				-2.17091703414917
			],
			"type":"VEC3"
		},
		{
			"bufferView":28,
			"componentType":5126,
			"count":444,
			"type":"VEC3"
		},
		{
			"bufferView":29,
			"componentType":5126,
			"count":444,
			"type":"VEC2"
		},
		{
			"bufferView":30,
			"componentType":5123,
			"count":648,
			"type":"SCALAR"
		}
	],
	"bufferViews":[
		{
			"buffer":0,
			"byteLength":5832,
			"byteOffset":0,
			"target":34962
		},
		{
			"buffer":0,
			"byteLength":5832,
			"byteOffset":5832,
			"target":34962
		},
		{
			"buffer":0,
			"byteLength":3888,
			"byteOffset":11664,
			"target":34962
		},
		{
			"buffer":0,
			"byteLength":1440,
			"byteOffset":15552,
			"target":34963
		},
		{
			"buffer":0,
			"byteLength":288,
			"byteOffset":16992,
			"target":34962
		},
		{
			"buffer":0,
			"byteLength":288,
			"byteOffset":17280,
			"target":34962
		},
		{
			"buffer":0,
			"byteLength":192,
			"byteOffset":17568,
			"target":34962
		},
		{
			"buffer":0,
			"byteLength":72,
			"byteOffset":17760,
			"target":34963
		},
		{
			"buffer":0,
			"byteLength":1632,
			"byteOffset":17832,
			"target":34962
		},
		{
			"buffer":0,
			"byteLength":1632,
			"byteOffset":19464,
			"target":34962
		},
		{
			"buffer":0,
			"byteLength":1088,
			"byteOffset":21096,
			"target":34962
		},
		{
			"buffer":0,
			"byteLength":408,
			"byteOffset":22184,
			"target":34963
		},
		{
			"buffer":0,
			"byteLength":960,
			"byteOffset":22592,
			"target":34962
		},
		{
			"buffer":0,
			"byteLength":960,
			"byteOffset":23552,
			"target":34962
		},
		{
			"buffer":0,
			"byteLength":640,
			"byteOffset":24512,
			"target":34962
		},
		{
			"buffer":0,
			"byteLength":240,
			"byteOffset":25152,
			"target":34963
		},
		{
			"buffer":0,
			"byteLength":1632,
			"byteOffset":25392,
			"target":34962
		},
		{
			"buffer":0,
			"byteLength":1632,
			"byteOffset":27024,
			"target":34962
		},
		{
			"buffer":0,
			"byteLength":1088,
			"byteOffset":28656,
			"target":34962
		},
		{
			"buffer":0,
			"byteLength":1728,
			"byteOffset":29744,
			"target":34962
		},
		{
			"buffer":0,
			"byteLength":1728,
			"byteOffset":31472,
			"target":34962
		},
		{
			"buffer":0,
			"byteLength":1152,
			"byteOffset":33200,
			"target":34962
		},
		{
			"buffer":0,
			"byteLength":432,
			"byteOffset":34352,
			"target":34963
		},
		{
			"buffer":0,
			"byteLength":864,
			"byteOffset":34784,
			"target":34962
		},
		{
			"buffer":0,
			"byteLength":864,
			"byteOffset":35648,
			"target":34962
		},
		{
			"buffer":0,
			"byteLength":576,
			"byteOffset":36512,
			"target":34962
		},
		{
			"buffer":0,
			"byteLength":216,
			"byteOffset":37088,
			"target":34963
		},
		{
			"buffer":0,
			"byteLength":5328,
			"byteOffset":37304,
			"target":34962
		},
		{
			"buffer":0,
			"byteLength":5328,
			"byteOffset":42632,
			"target":34962
		},
		{
			"buffer":0,
			"byteLength":3552,
			"byteOffset":47960,
			"target":34962
		},
		{
			"buffer":0,
			"byteLength":1296,
			"byteOffset":51512,
			"target":34963
		}
	],
	"samplers":[
		{
			"magFilter":9729,
			"minFilter":9987
		}
	],
	"buffers":[
		{
			"byteLength":52808,
			"uri":"RZ_room4.bin"
		}
	]
}
