{
	"asset":{
		"generator":"Khronos glTF Blender I/O v3.5.30",
		"version":"2.0"
	},
	"extensionsUsed":[
		"KHR_materials_specular",
		"KHR_materials_ior"
	],
	"scene":0,
	"scenes":[
		{
			"name":"Scene",
			"nodes":[
				0
			]
		}
	],
	"nodes":[
		{
			"mesh":0,
			"name":"RZ_room2_medibay",
			"rotation":[
				0.7071068286895752,
				0,
				0,
				0.7071068286895752
			]
		}
	],
	"materials":[
		{
			"doubleSided":true,
			"extensions":{
				"KHR_materials_specular":{
					"specularColorFactor":[
						2.371357614441398,
						2.371357614441398,
						2.371357614441398
					]
				},
				"KHR_materials_ior":{
					"ior":1.4500000476837158
				}
			},
			"name":"mat0.002",
			"pbrMetallicRoughness":{
				"baseColorTexture":{
					"index":0
				},
				"metallicFactor":0,
				"roughnessFactor":0.9505894184112549
			}
		},
		{
			"doubleSided":true,
			"extensions":{
				"KHR_materials_specular":{
					"specularColorFactor":[
						2.371357614441398,
						2.371357614441398,
						2.371357614441398
					]
				},
				"KHR_materials_ior":{
					"ior":1.4500000476837158
				}
			},
			"name":"mat1.002",
			"pbrMetallicRoughness":{
				"baseColorTexture":{
					"index":1
				},
				"metallicFactor":0,
				"roughnessFactor":0.9505894184112549
			}
		},
		{
			"doubleSided":true,
			"extensions":{
				"KHR_materials_specular":{
					"specularColorFactor":[
						2.371357614441398,
						2.371357614441398,
						2.371357614441398
					]
				},
				"KHR_materials_ior":{
					"ior":1.4500000476837158
				}
			},
			"name":"mat2.002",
			"pbrMetallicRoughness":{
				"baseColorTexture":{
					"index":2
				},
				"metallicFactor":0,
				"roughnessFactor":0.9505894184112549
			}
		},
		{
			"doubleSided":true,
			"extensions":{
				"KHR_materials_specular":{
					"specularColorFactor":[
						2.371357614441398,
						2.371357614441398,
						2.371357614441398
					]
				},
				"KHR_materials_ior":{
					"ior":1.4500000476837158
				}
			},
			"name":"mat3.002",
			"pbrMetallicRoughness":{
				"baseColorTexture":{
					"index":3
				},
				"metallicFactor":0,
				"roughnessFactor":0.9505894184112549
			}
		},
		{
			"doubleSided":true,
			"extensions":{
				"KHR_materials_specular":{
					"specularColorFactor":[
						2.371357614441398,
						2.371357614441398,
						2.371357614441398
					]
				},
				"KHR_materials_ior":{
					"ior":1.4500000476837158
				}
			},
			"name":"mat4.002",
			"pbrMetallicRoughness":{
				"baseColorTexture":{
					"index":4
				},
				"metallicFactor":0,
				"roughnessFactor":0.9505894184112549
			}
		},
		{
			"doubleSided":true,
			"extensions":{
				"KHR_materials_specular":{
					"specularColorFactor":[
						2.371357614441398,
						2.371357614441398,
						2.371357614441398
					]
				},
				"KHR_materials_ior":{
					"ior":1.4500000476837158
				}
			},
			"name":"mat5.002",
			"pbrMetallicRoughness":{
				"baseColorTexture":{
					"index":5
				},
				"metallicFactor":0,
				"roughnessFactor":0.9505894184112549
			}
		},
		{
			"doubleSided":true,
			"extensions":{
				"KHR_materials_specular":{
					"specularColorFactor":[
						2.371357614441398,
						2.371357614441398,
						2.371357614441398
					]
				},
				"KHR_materials_ior":{
					"ior":1.4500000476837158
				}
			},
			"name":"mat6.002",
			"pbrMetallicRoughness":{
				"baseColorTexture":{
					"index":6
				},
				"metallicFactor":0,
				"roughnessFactor":0.9505894184112549
			}
		},
		{
			"doubleSided":true,
			"extensions":{
				"KHR_materials_specular":{
					"specularColorFactor":[
						2.371357614441398,
						2.371357614441398,
						2.371357614441398
					]
				},
				"KHR_materials_ior":{
					"ior":1.4500000476837158
				}
			},
			"name":"mat7.002",
			"pbrMetallicRoughness":{
				"baseColorTexture":{
					"index":7
				},
				"metallicFactor":0,
				"roughnessFactor":0.9505894184112549
			}
		},
		{
			"doubleSided":true,
			"extensions":{
				"KHR_materials_specular":{
					"specularColorFactor":[
						2.371357614441398,
						2.371357614441398,
						2.371357614441398
					]
				},
				"KHR_materials_ior":{
					"ior":1.4500000476837158
				}
			},
			"name":"mat8.002",
			"pbrMetallicRoughness":{
				"baseColorTexture":{
					"index":8
				},
				"metallicFactor":0,
				"roughnessFactor":0.9505894184112549
			}
		},
		{
			"doubleSided":true,
			"extensions":{
				"KHR_materials_specular":{
					"specularColorFactor":[
						2.371357614441398,
						2.371357614441398,
						2.371357614441398
					]
				},
				"KHR_materials_ior":{
					"ior":1.4500000476837158
				}
			},
			"name":"mat9.002",
			"pbrMetallicRoughness":{
				"baseColorTexture":{
					"index":9
				},
				"metallicFactor":0,
				"roughnessFactor":0.9505894184112549
			}
		},
		{
			"doubleSided":true,
			"extensions":{
				"KHR_materials_specular":{
					"specularColorFactor":[
						2.371357614441398,
						2.371357614441398,
						2.371357614441398
					]
				},
				"KHR_materials_ior":{
					"ior":1.4500000476837158
				}
			},
			"name":"mat10.002",
			"pbrMetallicRoughness":{
				"baseColorTexture":{
					"index":10
				},
				"metallicFactor":0,
				"roughnessFactor":0.9505894184112549
			}
		},
		{
			"doubleSided":true,
			"extensions":{
				"KHR_materials_specular":{
					"specularColorFactor":[
						2.371357614441398,
						2.371357614441398,
						2.371357614441398
					]
				},
				"KHR_materials_ior":{
					"ior":1.4500000476837158
				}
			},
			"name":"mat11.002",
			"pbrMetallicRoughness":{
				"baseColorTexture":{
					"index":11
				},
				"metallicFactor":0,
				"roughnessFactor":0.9505894184112549
			}
		}
	],
	"meshes":[
		{
			"name":"RZ_room2_medibay",
			"primitives":[
				{
					"attributes":{
						"POSITION":0,
						"TEXCOORD_0":1,
						"NORMAL":2
					},
					"indices":3,
					"material":0
				},
				{
					"attributes":{
						"POSITION":4,
						"TEXCOORD_0":5,
						"NORMAL":6
					},
					"indices":7,
					"material":1
				},
				{
					"attributes":{
						"POSITION":8,
						"TEXCOORD_0":9,
						"NORMAL":10
					},
					"indices":11,
					"material":2
				},
				{
					"attributes":{
						"POSITION":12,
						"TEXCOORD_0":13,
						"NORMAL":14
					},
					"indices":3,
					"material":3
				},
				{
					"attributes":{
						"POSITION":15,
						"TEXCOORD_0":16,
						"NORMAL":17
					},
					"indices":18,
					"material":4
				},
				{
					"attributes":{
						"POSITION":19,
						"TEXCOORD_0":20,
						"NORMAL":21
					},
					"indices":22,
					"material":5
				},
				{
					"attributes":{
						"POSITION":23,
						"TEXCOORD_0":24,
						"NORMAL":25
					},
					"indices":26,
					"material":6
				},
				{
					"attributes":{
						"POSITION":27,
						"TEXCOORD_0":28,
						"NORMAL":29
					},
					"indices":30,
					"material":7
				},
				{
					"attributes":{
						"POSITION":31,
						"TEXCOORD_0":32,
						"NORMAL":33
					},
					"indices":34,
					"material":8
				},
				{
					"attributes":{
						"POSITION":35,
						"TEXCOORD_0":36,
						"NORMAL":37
					},
					"indices":18,
					"material":9
				},
				{
					"attributes":{
						"POSITION":38,
						"TEXCOORD_0":39,
						"NORMAL":40
					},
					"indices":3,
					"material":10
				},
				{
					"attributes":{
						"POSITION":41,
						"TEXCOORD_0":42,
						"NORMAL":43
					},
					"indices":44,
					"material":11
				}
			]
		}
	],
	"textures":[
		{
			"sampler":0,
			"source":0
		},
		{
			"sampler":0,
			"source":1
		},
		{
			"sampler":0,
			"source":2
		},
		{
			"sampler":0,
			"source":3
		},
		{
			"sampler":0,
			"source":4
		},
		{
			"sampler":0,
			"source":5
		},
		{
			"sampler":0,
			"source":6
		},
		{
			"sampler":0,
			"source":7
		},
		{
			"sampler":0,
			"source":8
		},
		{
			"sampler":0,
			"source":9
		},
		{
			"sampler":0,
			"source":10
		},
		{
			"sampler":0,
			"source":11
		}
	],
	"images":[
		{
			"mimeType":"image/jpeg",
			"name":"concretefloor",
			"uri":"concretefloor.jpg"
		},
		{
			"mimeType":"image/jpeg",
			"name":"misc",
			"uri":"misc.jpg"
		},
		{
			"mimeType":"image/jpeg",
			"name":"metal",
			"uri":"metal.jpg"
		},
		{
			"mimeType":"image/jpeg",
			"name":"tilefloor",
			"uri":"tilefloor.jpg"
		},
		{
			"mimeType":"image/jpeg",
			"name":"officewall",
			"uri":"officewall.jpg"
		},
		{
			"mimeType":"image/jpeg",
			"name":"labelmedicalbay",
			"uri":"labelmedicalbay.jpg"
		},
		{
			"mimeType":"image/jpeg",
			"name":"dirtymetal",
			"uri":"dirtymetal.jpg"
		},
		{
			"mimeType":"image/jpeg",
			"name":"medibay",
			"uri":"medibay.jpg"
		},
		{
			"mimeType":"image/jpeg",
			"name":"whitewall",
			"uri":"whitewall.jpg"
		},
		{
			"mimeType":"image/jpeg",
			"name":"controlpanel",
			"uri":"controlpanel.jpg"
		},
		{
			"mimeType":"image/jpeg",
			"name":"door01",
			"uri":"door01.jpg"
		},
		{
			"mimeType":"image/jpeg",
			"name":"metalpanels",
			"uri":"metalpanels.jpg"
		}
	],
	"accessors":[
		{
			"bufferView":0,
			"componentType":5126,
			"count":4,
			"max":[
				2.559999942779541,
				10.239999771118164,
				-3.839998960494995
			],
			"min":[
				-10.239999771118164,
				-10.239999771118164,
				-3.840001106262207
			],
			"type":"VEC3"
		},
		{
			"bufferView":1,
			"componentType":5126,
			"count":4,
			"type":"VEC2"
		},
		{
			"bufferView":2,
			"componentType":5126,
			"count":4,
			"type":"VEC3"
		},
		{
			"bufferView":3,
			"componentType":5123,
			"count":6,
			"type":"SCALAR"
		},
		{
			"bufferView":4,
			"componentType":5126,
			"count":140,
			"max":[
				0.11043799668550491,
				9.479999542236328,
				-3.8304390907287598
			],
			"min":[
				-6.5,
				-9.479999542236328,
				-3.8686819076538086
			],
			"type":"VEC3"
		},
		{
			"bufferView":5,
			"componentType":5126,
			"count":140,
			"type":"VEC2"
		},
		{
			"bufferView":6,
			"componentType":5126,
			"count":140,
			"type":"VEC3"
		},
		{
			"bufferView":7,
			"componentType":5123,
			"count":210,
			"type":"SCALAR"
		},
		{
			"bufferView":8,
			"componentType":5126,
			"count":1020,
			"max":[
				-1.6349999904632568,
				0.2750000059604645,
				0
			],
			"min":[
				-3.504941940307617,
				-4.90500020980835,
				-2.197143077850342
			],
			"type":"VEC3"
		},
		{
			"bufferView":9,
			"componentType":5126,
			"count":1020,
			"type":"VEC2"
		},
		{
			"bufferView":10,
			"componentType":5126,
			"count":1020,
			"type":"VEC3"
		},
		{
			"bufferView":11,
			"componentType":5123,
			"count":1530,
			"type":"SCALAR"
		},
		{
			"bufferView":12,
			"componentType":5126,
			"count":4,
			"max":[
				2.559999942779541,
				10.239999771118164,
				9.999999974752427e-07
			],
			"min":[
				-10.239999771118164,
				-10.239999771118164,
				-9.999999974752427e-07
			],
			"type":"VEC3"
		},
		{
			"bufferView":13,
			"componentType":5126,
			"count":4,
			"type":"VEC2"
		},
		{
			"bufferView":14,
			"componentType":5126,
			"count":4,
			"type":"VEC3"
		},
		{
			"bufferView":15,
			"componentType":5126,
			"count":112,
			"max":[
				2.880000114440918,
				10.25,
				9.999999974752427e-07
			],
			"min":[
				-2.7200000286102295,
				-10.239999771118164,
				-3.840001106262207
			],
			"type":"VEC3"
		},
		{
			"bufferView":16,
			"componentType":5126,
			"count":112,
			"type":"VEC2"
		},
		{
			"bufferView":17,
			"componentType":5126,
			"count":112,
			"type":"VEC3"
		},
		{
			"bufferView":18,
			"componentType":5123,
			"count":168,
			"type":"SCALAR"
		},
		{
			"bufferView":19,
			"componentType":5126,
			"count":20,
			"max":[
				-2.380000114440918,
				-4.079999923706055,
				-1.9199999570846558
			],
			"min":[
				-2.4000000953674316,
				-5,
				-2.7200000286102295
			],
			"type":"VEC3"
		},
		{
			"bufferView":20,
			"componentType":5126,
			"count":20,
			"type":"VEC2"
		},
		{
			"bufferView":21,
			"componentType":5126,
			"count":20,
			"type":"VEC3"
		},
		{
			"bufferView":22,
			"componentType":5123,
			"count":30,
			"type":"SCALAR"
		},
		{
			"bufferView":23,
			"componentType":5126,
			"count":80,
			"max":[
				2.880000114440918,
				9.920000076293945,
				9.999999974752427e-07
			],
			"min":[
				-2.799999952316284,
				-9.920000076293945,
				-3.1999990940093994
			],
			"type":"VEC3"
		},
		{
			"bufferView":24,
			"componentType":5126,
			"count":80,
			"type":"VEC2"
		},
		{
			"bufferView":25,
			"componentType":5126,
			"count":80,
			"type":"VEC3"
		},
		{
			"bufferView":26,
			"componentType":5123,
			"count":108,
			"type":"SCALAR"
		},
		{
			"bufferView":27,
			"componentType":5126,
			"count":88,
			"max":[
				-2.559999942779541,
				9.920000076293945,
				9.999999974752427e-07
			],
			"min":[
				-10.239999771118164,
				-9.920000076293945,
				-3.840001106262207
			],
			"type":"VEC3"
		},
		{
			"bufferView":28,
			"componentType":5126,
			"count":88,
			"type":"VEC2"
		},
		{
			"bufferView":29,
			"componentType":5126,
			"count":88,
			"type":"VEC3"
		},
		{
			"bufferView":30,
			"componentType":5123,
			"count":132,
			"type":"SCALAR"
		},
		{
			"bufferView":31,
			"componentType":5126,
			"count":12,
			"max":[
				-2.4000000953674316,
				-3.5999999046325684,
				-3.1999990940093994
			],
			"min":[
				-10.239999771118164,
				-7.360000133514404,
				-3.200000047683716
			],
			"type":"VEC3"
		},
		{
			"bufferView":32,
			"componentType":5126,
			"count":12,
			"type":"VEC2"
		},
		{
			"bufferView":33,
			"componentType":5126,
			"count":12,
			"type":"VEC3"
		},
		{
			"bufferView":34,
			"componentType":5123,
			"count":18,
			"type":"SCALAR"
		},
		{
			"bufferView":35,
			"componentType":5126,
			"count":112,
			"max":[
				-2.799999952316284,
				1.4600000381469727,
				0.00021899999410379678
			],
			"min":[
				-3.759999990463257,
				-1.1749999523162842,
				-3.039999008178711
			],
			"type":"VEC3"
		},
		{
			"bufferView":36,
			"componentType":5126,
			"count":112,
			"type":"VEC2"
		},
		{
			"bufferView":37,
			"componentType":5126,
			"count":112,
			"type":"VEC3"
		},
		{
			"bufferView":38,
			"componentType":5126,
			"count":4,
			"max":[
				-10.074999809265137,
				-5.434999942779541,
				9.999999974752427e-07
			],
			"min":[
				-10.074999809265137,
				-7.355000019073486,
				-3.1999990940093994
			],
			"type":"VEC3"
		},
		{
			"bufferView":39,
			"componentType":5126,
			"count":4,
			"type":"VEC2"
		},
		{
			"bufferView":40,
			"componentType":5126,
			"count":4,
			"type":"VEC3"
		},
		{
			"bufferView":41,
			"componentType":5126,
			"count":434,
			"max":[
				-1.6649999618530273,
				0.14499999582767487,
				-0.7111110091209412
			],
			"min":[
				-2.3359169960021973,
				-4.775000095367432,
				-1.2405279874801636
			],
			"type":"VEC3"
		},
		{
			"bufferView":42,
			"componentType":5126,
			"count":434,
			"type":"VEC2"
		},
		{
			"bufferView":43,
			"componentType":5126,
			"count":434,
			"type":"VEC3"
		},
		{
			"bufferView":44,
			"componentType":5123,
			"count":648,
			"type":"SCALAR"
		}
	],
	"bufferViews":[
		{
			"buffer":0,
			"byteLength":48,
			"byteOffset":0,
			"target":34962
		},
		{
			"buffer":0,
			"byteLength":32,
			"byteOffset":48,
			"target":34962
		},
		{
			"buffer":0,
			"byteLength":48,
			"byteOffset":80,
			"target":34962
		},
		{
			"buffer":0,
			"byteLength":12,
			"byteOffset":128,
			"target":34963
		},
		{
			"buffer":0,
			"byteLength":1680,
			"byteOffset":140,
			"target":34962
		},
		{
			"buffer":0,
			"byteLength":1120,
			"byteOffset":1820,
			"target":34962
		},
		{
			"buffer":0,
			"byteLength":1680,
			"byteOffset":2940,
			"target":34962
		},
		{
			"buffer":0,
			"byteLength":420,
			"byteOffset":4620,
			"target":34963
		},
		{
			"buffer":0,
			"byteLength":12240,
			"byteOffset":5040,
			"target":34962
		},
		{
			"buffer":0,
			"byteLength":8160,
			"byteOffset":17280,
			"target":34962
		},
		{
			"buffer":0,
			"byteLength":12240,
			"byteOffset":25440,
			"target":34962
		},
		{
			"buffer":0,
			"byteLength":3060,
			"byteOffset":37680,
			"target":34963
		},
		{
			"buffer":0,
			"byteLength":48,
			"byteOffset":40740,
			"target":34962
		},
		{
			"buffer":0,
			"byteLength":32,
			"byteOffset":40788,
			"target":34962
		},
		{
			"buffer":0,
			"byteLength":48,
			"byteOffset":40820,
			"target":34962
		},
		{
			"buffer":0,
			"byteLength":1344,
			"byteOffset":40868,
			"target":34962
		},
		{
			"buffer":0,
			"byteLength":896,
			"byteOffset":42212,
			"target":34962
		},
		{
			"buffer":0,
			"byteLength":1344,
			"byteOffset":43108,
			"target":34962
		},
		{
			"buffer":0,
			"byteLength":336,
			"byteOffset":44452,
			"target":34963
		},
		{
			"buffer":0,
			"byteLength":240,
			"byteOffset":44788,
			"target":34962
		},
		{
			"buffer":0,
			"byteLength":160,
			"byteOffset":45028,
			"target":34962
		},
		{
			"buffer":0,
			"byteLength":240,
			"byteOffset":45188,
			"target":34962
		},
		{
			"buffer":0,
			"byteLength":60,
			"byteOffset":45428,
			"target":34963
		},
		{
			"buffer":0,
			"byteLength":960,
			"byteOffset":45488,
			"target":34962
		},
		{
			"buffer":0,
			"byteLength":640,
			"byteOffset":46448,
			"target":34962
		},
		{
			"buffer":0,
			"byteLength":960,
			"byteOffset":47088,
			"target":34962
		},
		{
			"buffer":0,
			"byteLength":216,
			"byteOffset":48048,
			"target":34963
		},
		{
			"buffer":0,
			"byteLength":1056,
			"byteOffset":48264,
			"target":34962
		},
		{
			"buffer":0,
			"byteLength":704,
			"byteOffset":49320,
			"target":34962
		},
		{
			"buffer":0,
			"byteLength":1056,
			"byteOffset":50024,
			"target":34962
		},
		{
			"buffer":0,
			"byteLength":264,
			"byteOffset":51080,
			"target":34963
		},
		{
			"buffer":0,
			"byteLength":144,
			"byteOffset":51344,
			"target":34962
		},
		{
			"buffer":0,
			"byteLength":96,
			"byteOffset":51488,
			"target":34962
		},
		{
			"buffer":0,
			"byteLength":144,
			"byteOffset":51584,
			"target":34962
		},
		{
			"buffer":0,
			"byteLength":36,
			"byteOffset":51728,
			"target":34963
		},
		{
			"buffer":0,
			"byteLength":1344,
			"byteOffset":51764,
			"target":34962
		},
		{
			"buffer":0,
			"byteLength":896,
			"byteOffset":53108,
			"target":34962
		},
		{
			"buffer":0,
			"byteLength":1344,
			"byteOffset":54004,
			"target":34962
		},
		{
			"buffer":0,
			"byteLength":48,
			"byteOffset":55348,
			"target":34962
		},
		{
			"buffer":0,
			"byteLength":32,
			"byteOffset":55396,
			"target":34962
		},
		{
			"buffer":0,
			"byteLength":48,
			"byteOffset":55428,
			"target":34962
		},
		{
			"buffer":0,
			"byteLength":5208,
			"byteOffset":55476,
			"target":34962
		},
		{
			"buffer":0,
			"byteLength":3472,
			"byteOffset":60684,
			"target":34962
		},
		{
			"buffer":0,
			"byteLength":5208,
			"byteOffset":64156,
			"target":34962
		},
		{
			"buffer":0,
			"byteLength":1296,
			"byteOffset":69364,
			"target":34963
		}
	],
	"samplers":[
		{
			"magFilter":9729,
			"minFilter":9987
		}
	],
	"buffers":[
		{
			"byteLength":70660,
			"uri":"RZ_room2_medibay.bin"
		}
	]
}
