{
	"asset":{
		"generator":"Khronos glTF Blender I/O v3.5.30",
		"version":"2.0"
	},
	"extensionsUsed":[
		"KHR_materials_specular",
		"KHR_materials_ior"
	],
	"scene":0,
	"scenes":[
		{
			"name":"Scene",
			"nodes":[
				0
			]
		}
	],
	"nodes":[
		{
			"mesh":0,
			"name":"RZ_room2_offices2"
		}
	],
	"materials":[
		{
			"doubleSided":true,
			"extensions":{
				"KHR_materials_specular":{
					"specularColorFactor":[
						2.371357614441398,
						2.371357614441398,
						2.371357614441398
					]
				},
				"KHR_materials_ior":{
					"ior":1.4500000476837158
				}
			},
			"name":"mat0.004",
			"pbrMetallicRoughness":{
				"baseColorTexture":{
					"index":0
				},
				"metallicFactor":0,
				"roughnessFactor":0.9505894184112549
			}
		},
		{
			"doubleSided":true,
			"extensions":{
				"KHR_materials_specular":{
					"specularColorFactor":[
						2.371357614441398,
						2.371357614441398,
						2.371357614441398
					]
				},
				"KHR_materials_ior":{
					"ior":1.4500000476837158
				}
			},
			"name":"mat1.004",
			"pbrMetallicRoughness":{
				"baseColorTexture":{
					"index":1
				},
				"metallicFactor":0,
				"roughnessFactor":0.9505894184112549
			}
		},
		{
			"doubleSided":true,
			"extensions":{
				"KHR_materials_specular":{
					"specularColorFactor":[
						2.371357614441398,
						2.371357614441398,
						2.371357614441398
					]
				},
				"KHR_materials_ior":{
					"ior":1.4500000476837158
				}
			},
			"name":"mat2.004",
			"pbrMetallicRoughness":{
				"baseColorTexture":{
					"index":2
				},
				"metallicFactor":0,
				"roughnessFactor":0.9505894184112549
			}
		},
		{
			"doubleSided":true,
			"extensions":{
				"KHR_materials_specular":{
					"specularColorFactor":[
						2.371357614441398,
						2.371357614441398,
						2.371357614441398
					]
				},
				"KHR_materials_ior":{
					"ior":1.4500000476837158
				}
			},
			"name":"mat3.004",
			"pbrMetallicRoughness":{
				"baseColorTexture":{
					"index":3
				},
				"metallicFactor":0,
				"roughnessFactor":0.9505894184112549
			}
		},
		{
			"doubleSided":true,
			"extensions":{
				"KHR_materials_specular":{
					"specularColorFactor":[
						2.371357614441398,
						2.371357614441398,
						2.371357614441398
					]
				},
				"KHR_materials_ior":{
					"ior":1.4500000476837158
				}
			},
			"name":"mat4.004",
			"pbrMetallicRoughness":{
				"baseColorTexture":{
					"index":4
				},
				"metallicFactor":0,
				"roughnessFactor":0.9505894184112549
			}
		},
		{
			"doubleSided":true,
			"extensions":{
				"KHR_materials_specular":{
					"specularColorFactor":[
						2.371357614441398,
						2.371357614441398,
						2.371357614441398
					]
				},
				"KHR_materials_ior":{
					"ior":1.4500000476837158
				}
			},
			"name":"mat5.004",
			"pbrMetallicRoughness":{
				"baseColorTexture":{
					"index":5
				},
				"metallicFactor":0,
				"roughnessFactor":0.9505894184112549
			}
		},
		{
			"doubleSided":true,
			"extensions":{
				"KHR_materials_specular":{
					"specularColorFactor":[
						2.371357614441398,
						2.371357614441398,
						2.371357614441398
					]
				},
				"KHR_materials_ior":{
					"ior":1.4500000476837158
				}
			},
			"name":"mat6.004",
			"pbrMetallicRoughness":{
				"baseColorTexture":{
					"index":6
				},
				"metallicFactor":0,
				"roughnessFactor":0.9505894184112549
			}
		},
		{
			"doubleSided":true,
			"extensions":{
				"KHR_materials_specular":{
					"specularColorFactor":[
						2.371357614441398,
						2.371357614441398,
						2.371357614441398
					]
				},
				"KHR_materials_ior":{
					"ior":1.4500000476837158
				}
			},
			"name":"mat7.004",
			"pbrMetallicRoughness":{
				"baseColorTexture":{
					"index":7
				},
				"metallicFactor":0,
				"roughnessFactor":0.9505894184112549
			}
		},
		{
			"doubleSided":true,
			"extensions":{
				"KHR_materials_specular":{
					"specularColorFactor":[
						2.371357614441398,
						2.371357614441398,
						2.371357614441398
					]
				},
				"KHR_materials_ior":{
					"ior":1.4500000476837158
				}
			},
			"name":"mat8.004",
			"pbrMetallicRoughness":{
				"baseColorTexture":{
					"index":8
				},
				"metallicFactor":0,
				"roughnessFactor":0.9505894184112549
			}
		}
	],
	"meshes":[
		{
			"name":"RZ_room2_offices2",
			"primitives":[
				{
					"attributes":{
						"POSITION":0,
						"TEXCOORD_0":1,
						"NORMAL":2
					},
					"indices":3,
					"material":0
				},
				{
					"attributes":{
						"POSITION":4,
						"TEXCOORD_0":5,
						"NORMAL":6
					},
					"indices":7,
					"material":1
				},
				{
					"attributes":{
						"POSITION":8,
						"TEXCOORD_0":9,
						"NORMAL":10
					},
					"indices":11,
					"material":2
				},
				{
					"attributes":{
						"POSITION":12,
						"TEXCOORD_0":13,
						"NORMAL":14
					},
					"indices":15,
					"material":3
				},
				{
					"attributes":{
						"POSITION":16,
						"TEXCOORD_0":17,
						"NORMAL":18
					},
					"indices":19,
					"material":4
				},
				{
					"attributes":{
						"POSITION":20,
						"TEXCOORD_0":21,
						"NORMAL":22
					},
					"indices":23,
					"material":5
				},
				{
					"attributes":{
						"POSITION":24,
						"TEXCOORD_0":25,
						"NORMAL":26
					},
					"indices":27,
					"material":6
				},
				{
					"attributes":{
						"POSITION":28,
						"TEXCOORD_0":29,
						"NORMAL":30
					},
					"indices":31,
					"material":7
				},
				{
					"attributes":{
						"POSITION":32,
						"TEXCOORD_0":33,
						"NORMAL":34
					},
					"indices":35,
					"material":8
				}
			]
		}
	],
	"textures":[
		{
			"sampler":0,
			"source":0
		},
		{
			"sampler":0,
			"source":1
		},
		{
			"sampler":0,
			"source":2
		},
		{
			"sampler":0,
			"source":3
		},
		{
			"sampler":0,
			"source":4
		},
		{
			"sampler":0,
			"source":5
		},
		{
			"sampler":0,
			"source":6
		},
		{
			"sampler":0,
			"source":7
		},
		{
			"sampler":0,
			"source":8
		}
	],
	"images":[
		{
			"mimeType":"image/jpeg",
			"name":"misc",
			"uri":"misc.jpg"
		},
		{
			"mimeType":"image/jpeg",
			"name":"ceiling",
			"uri":"ceiling.jpg"
		},
		{
			"mimeType":"image/jpeg",
			"name":"metal",
			"uri":"metal.jpg"
		},
		{
			"mimeType":"image/jpeg",
			"name":"dirtymetal",
			"uri":"dirtymetal.jpg"
		},
		{
			"mimeType":"image/jpeg",
			"name":"tilefloor",
			"uri":"tilefloor.jpg"
		},
		{
			"mimeType":"image/jpeg",
			"name":"white",
			"uri":"white.jpg"
		},
		{
			"mimeType":"image/jpeg",
			"name":"officewall",
			"uri":"officewall.jpg"
		},
		{
			"mimeType":"image/jpeg",
			"name":"controlpanel",
			"uri":"controlpanel.jpg"
		},
		{
			"mimeType":"image/jpeg",
			"name":"miscsigns3",
			"uri":"miscsigns3.jpg"
		}
	],
	"accessors":[
		{
			"bufferView":0,
			"componentType":5126,
			"count":144,
			"max":[
				0.2095620036125183,
				3.8686819076538086,
				9.94956111907959
			],
			"min":[
				-9.939997673034668,
				2.159120798110962,
				-9.949562072753906
			],
			"type":"VEC3"
		},
		{
			"bufferView":1,
			"componentType":5126,
			"count":144,
			"type":"VEC2"
		},
		{
			"bufferView":2,
			"componentType":5126,
			"count":144,
			"type":"VEC3"
		},
		{
			"bufferView":3,
			"componentType":5123,
			"count":216,
			"type":"SCALAR"
		},
		{
			"bufferView":4,
			"componentType":5126,
			"count":4,
			"max":[
				2.880000114440918,
				3.840000867843628,
				10.240001678466797
			],
			"min":[
				-10.239999771118164,
				3.8400001525878906,
				-10.239999771118164
			],
			"type":"VEC3"
		},
		{
			"bufferView":5,
			"componentType":5126,
			"count":4,
			"type":"VEC2"
		},
		{
			"bufferView":6,
			"componentType":5126,
			"count":4,
			"type":"VEC3"
		},
		{
			"bufferView":7,
			"componentType":5123,
			"count":6,
			"type":"SCALAR"
		},
		{
			"bufferView":8,
			"componentType":5126,
			"count":3866,
			"max":[
				-1.5927929878234863,
				5.616199700853031e-07,
				5.162217617034912
			],
			"min":[
				-9.844942092895508,
				-1.9200009107589722,
				-5.116177558898926
			],
			"type":"VEC3"
		},
		{
			"bufferView":9,
			"componentType":5126,
			"count":3866,
			"type":"VEC2"
		},
		{
			"bufferView":10,
			"componentType":5126,
			"count":3866,
			"type":"VEC3"
		},
		{
			"bufferView":11,
			"componentType":5123,
			"count":5796,
			"type":"SCALAR"
		},
		{
			"bufferView":12,
			"componentType":5126,
			"count":2016,
			"max":[
				-1.5900009870529175,
				5.629636348203348e-07,
				5.07457160949707
			],
			"min":[
				-9.847732543945312,
				-1.9200009107589722,
				-5.080000877380371
			],
			"type":"VEC3"
		},
		{
			"bufferView":13,
			"componentType":5126,
			"count":2016,
			"type":"VEC2"
		},
		{
			"bufferView":14,
			"componentType":5126,
			"count":2016,
			"type":"VEC3"
		},
		{
			"bufferView":15,
			"componentType":5123,
			"count":3024,
			"type":"SCALAR"
		},
		{
			"bufferView":16,
			"componentType":5126,
			"count":140,
			"max":[
				2.880000114440918,
				3.758345883397851e-07,
				10.24000072479248
			],
			"min":[
				-10.239999771118164,
				-1.920000672340393,
				-10.24000072479248
			],
			"type":"VEC3"
		},
		{
			"bufferView":17,
			"componentType":5126,
			"count":140,
			"type":"VEC2"
		},
		{
			"bufferView":18,
			"componentType":5126,
			"count":140,
			"type":"VEC3"
		},
		{
			"bufferView":19,
			"componentType":5123,
			"count":210,
			"type":"SCALAR"
		},
		{
			"bufferView":20,
			"componentType":5126,
			"count":84,
			"max":[
				-0.9599999785423279,
				3.758345883397851e-07,
				10.24000072479248
			],
			"min":[
				-10.239999771118164,
				-1.920000672340393,
				-10.24000072479248
			],
			"type":"VEC3"
		},
		{
			"bufferView":21,
			"componentType":5126,
			"count":84,
			"type":"VEC2"
		},
		{
			"bufferView":22,
			"componentType":5126,
			"count":84,
			"type":"VEC3"
		},
		{
			"bufferView":23,
			"componentType":5123,
			"count":126,
			"type":"SCALAR"
		},
		{
			"bufferView":24,
			"componentType":5126,
			"count":184,
			"max":[
				2.880000114440918,
				3.840000867843628,
				10.240001678466797
			],
			"min":[
				-10.239999771118164,
				-8.760197260926361e-07,
				-10.24000072479248
			],
			"type":"VEC3"
		},
		{
			"bufferView":25,
			"componentType":5126,
			"count":184,
			"type":"VEC2"
		},
		{
			"bufferView":26,
			"componentType":5126,
			"count":184,
			"type":"VEC3"
		},
		{
			"bufferView":27,
			"componentType":5123,
			"count":276,
			"type":"SCALAR"
		},
		{
			"bufferView":28,
			"componentType":5126,
			"count":48,
			"max":[
				2.5607810020446777,
				2.7199995517730713,
				5.620000839233398
			],
			"min":[
				2.5207788944244385,
				1.9199985265731812,
				0.8200003504753113
			],
			"type":"VEC3"
		},
		{
			"bufferView":29,
			"componentType":5126,
			"count":48,
			"type":"VEC2"
		},
		{
			"bufferView":30,
			"componentType":5126,
			"count":48,
			"type":"VEC3"
		},
		{
			"bufferView":31,
			"componentType":5123,
			"count":72,
			"type":"SCALAR"
		},
		{
			"bufferView":32,
			"componentType":5126,
			"count":8,
			"max":[
				2.880000114440918,
				2.8800008296966553,
				-2.4799997806549072
			],
			"min":[
				2.549999952316284,
				1.200000524520874,
				-3.640000343322754
			],
			"type":"VEC3"
		},
		{
			"bufferView":33,
			"componentType":5126,
			"count":8,
			"type":"VEC2"
		},
		{
			"bufferView":34,
			"componentType":5126,
			"count":8,
			"type":"VEC3"
		},
		{
			"bufferView":35,
			"componentType":5123,
			"count":12,
			"type":"SCALAR"
		}
	],
	"bufferViews":[
		{
			"buffer":0,
			"byteLength":1728,
			"byteOffset":0,
			"target":34962
		},
		{
			"buffer":0,
			"byteLength":1152,
			"byteOffset":1728,
			"target":34962
		},
		{
			"buffer":0,
			"byteLength":1728,
			"byteOffset":2880,
			"target":34962
		},
		{
			"buffer":0,
			"byteLength":432,
			"byteOffset":4608,
			"target":34963
		},
		{
			"buffer":0,
			"byteLength":48,
			"byteOffset":5040,
			"target":34962
		},
		{
			"buffer":0,
			"byteLength":32,
			"byteOffset":5088,
			"target":34962
		},
		{
			"buffer":0,
			"byteLength":48,
			"byteOffset":5120,
			"target":34962
		},
		{
			"buffer":0,
			"byteLength":12,
			"byteOffset":5168,
			"target":34963
		},
		{
			"buffer":0,
			"byteLength":46392,
			"byteOffset":5180,
			"target":34962
		},
		{
			"buffer":0,
			"byteLength":30928,
			"byteOffset":51572,
			"target":34962
		},
		{
			"buffer":0,
			"byteLength":46392,
			"byteOffset":82500,
			"target":34962
		},
		{
			"buffer":0,
			"byteLength":11592,
			"byteOffset":128892,
			"target":34963
		},
		{
			"buffer":0,
			"byteLength":24192,
			"byteOffset":140484,
			"target":34962
		},
		{
			"buffer":0,
			"byteLength":16128,
			"byteOffset":164676,
			"target":34962
		},
		{
			"buffer":0,
			"byteLength":24192,
			"byteOffset":180804,
			"target":34962
		},
		{
			"buffer":0,
			"byteLength":6048,
			"byteOffset":204996,
			"target":34963
		},
		{
			"buffer":0,
			"byteLength":1680,
			"byteOffset":211044,
			"target":34962
		},
		{
			"buffer":0,
			"byteLength":1120,
			"byteOffset":212724,
			"target":34962
		},
		{
			"buffer":0,
			"byteLength":1680,
			"byteOffset":213844,
			"target":34962
		},
		{
			"buffer":0,
			"byteLength":420,
			"byteOffset":215524,
			"target":34963
		},
		{
			"buffer":0,
			"byteLength":1008,
			"byteOffset":215944,
			"target":34962
		},
		{
			"buffer":0,
			"byteLength":672,
			"byteOffset":216952,
			"target":34962
		},
		{
			"buffer":0,
			"byteLength":1008,
			"byteOffset":217624,
			"target":34962
		},
		{
			"buffer":0,
			"byteLength":252,
			"byteOffset":218632,
			"target":34963
		},
		{
			"buffer":0,
			"byteLength":2208,
			"byteOffset":218884,
			"target":34962
		},
		{
			"buffer":0,
			"byteLength":1472,
			"byteOffset":221092,
			"target":34962
		},
		{
			"buffer":0,
			"byteLength":2208,
			"byteOffset":222564,
			"target":34962
		},
		{
			"buffer":0,
			"byteLength":552,
			"byteOffset":224772,
			"target":34963
		},
		{
			"buffer":0,
			"byteLength":576,
			"byteOffset":225324,
			"target":34962
		},
		{
			"buffer":0,
			"byteLength":384,
			"byteOffset":225900,
			"target":34962
		},
		{
			"buffer":0,
			"byteLength":576,
			"byteOffset":226284,
			"target":34962
		},
		{
			"buffer":0,
			"byteLength":144,
			"byteOffset":226860,
			"target":34963
		},
		{
			"buffer":0,
			"byteLength":96,
			"byteOffset":227004,
			"target":34962
		},
		{
			"buffer":0,
			"byteLength":64,
			"byteOffset":227100,
			"target":34962
		},
		{
			"buffer":0,
			"byteLength":96,
			"byteOffset":227164,
			"target":34962
		},
		{
			"buffer":0,
			"byteLength":24,
			"byteOffset":227260,
			"target":34963
		}
	],
	"samplers":[
		{
			"magFilter":9729,
			"minFilter":9987
		}
	],
	"buffers":[
		{
			"byteLength":227284,
			"uri":"RZ_room2_offices2.bin"
		}
	]
}
