{
	"asset":{
		"generator":"Khronos glTF Blender I/O v3.6.27",
		"version":"2.0"
	},
	"extensionsUsed":[
		"KHR_materials_specular",
		"KHR_materials_ior"
	],
	"scene":0,
	"scenes":[
		{
			"name":"Scene",
			"nodes":[
				0
			]
		}
	],
	"nodes":[
		{
			"mesh":0,
			"name":"RZ_room2_cafeteria"
		}
	],
	"materials":[
		{
			"doubleSided":true,
			"extensions":{
				"KHR_materials_specular":{
					"specularColorFactor":[
						2.371357614441398,
						2.371357614441398,
						2.371357614441398
					]
				},
				"KHR_materials_ior":{
					"ior":1.4500000476837158
				}
			},
			"name":"mat0.001",
			"pbrMetallicRoughness":{
				"baseColorTexture":{
					"index":0
				},
				"metallicFactor":0,
				"roughnessFactor":0.9505894184112549
			}
		},
		{
			"doubleSided":true,
			"extensions":{
				"KHR_materials_specular":{
					"specularColorFactor":[
						2.371357614441398,
						2.371357614441398,
						2.371357614441398
					]
				},
				"KHR_materials_ior":{
					"ior":1.4500000476837158
				}
			},
			"name":"mat1.001",
			"pbrMetallicRoughness":{
				"baseColorTexture":{
					"index":1
				},
				"metallicFactor":0,
				"roughnessFactor":0.9505894184112549
			}
		},
		{
			"doubleSided":true,
			"extensions":{
				"KHR_materials_specular":{
					"specularColorFactor":[
						2.371357614441398,
						2.371357614441398,
						2.371357614441398
					]
				},
				"KHR_materials_ior":{
					"ior":1.4500000476837158
				}
			},
			"name":"mat2.001",
			"pbrMetallicRoughness":{
				"baseColorTexture":{
					"index":2
				},
				"metallicFactor":0,
				"roughnessFactor":0.9505894184112549
			}
		},
		{
			"doubleSided":true,
			"extensions":{
				"KHR_materials_specular":{
					"specularColorFactor":[
						2.371357614441398,
						2.371357614441398,
						2.371357614441398
					]
				},
				"KHR_materials_ior":{
					"ior":1.4500000476837158
				}
			},
			"name":"mat3.001",
			"pbrMetallicRoughness":{
				"baseColorTexture":{
					"index":3
				},
				"metallicFactor":0,
				"roughnessFactor":0.9505894184112549
			}
		},
		{
			"doubleSided":true,
			"extensions":{
				"KHR_materials_specular":{
					"specularColorFactor":[
						2.371357614441398,
						2.371357614441398,
						2.371357614441398
					]
				},
				"KHR_materials_ior":{
					"ior":1.4500000476837158
				}
			},
			"name":"mat4.001",
			"pbrMetallicRoughness":{
				"baseColorTexture":{
					"index":4
				},
				"metallicFactor":0,
				"roughnessFactor":0.9505894184112549
			}
		},
		{
			"doubleSided":true,
			"extensions":{
				"KHR_materials_specular":{
					"specularColorFactor":[
						2.371357614441398,
						2.371357614441398,
						2.371357614441398
					]
				},
				"KHR_materials_ior":{
					"ior":1.4500000476837158
				}
			},
			"name":"mat5.001",
			"pbrMetallicRoughness":{
				"baseColorTexture":{
					"index":5
				},
				"metallicFactor":0,
				"roughnessFactor":0.9505894184112549
			}
		},
		{
			"doubleSided":true,
			"extensions":{
				"KHR_materials_specular":{
					"specularColorFactor":[
						2.371357614441398,
						2.371357614441398,
						2.371357614441398
					]
				},
				"KHR_materials_ior":{
					"ior":1.4500000476837158
				}
			},
			"name":"mat6",
			"pbrMetallicRoughness":{
				"baseColorTexture":{
					"index":6
				},
				"metallicFactor":0,
				"roughnessFactor":0.9505894184112549
			}
		},
		{
			"doubleSided":true,
			"extensions":{
				"KHR_materials_specular":{
					"specularColorFactor":[
						2.371357614441398,
						2.371357614441398,
						2.371357614441398
					]
				},
				"KHR_materials_ior":{
					"ior":1.4500000476837158
				}
			},
			"name":"mat7",
			"pbrMetallicRoughness":{
				"baseColorTexture":{
					"index":7
				},
				"metallicFactor":0,
				"roughnessFactor":0.9505894184112549
			}
		},
		{
			"doubleSided":true,
			"extensions":{
				"KHR_materials_specular":{
					"specularColorFactor":[
						2.371357614441398,
						2.371357614441398,
						2.371357614441398
					]
				},
				"KHR_materials_ior":{
					"ior":1.4500000476837158
				}
			},
			"name":"mat8",
			"pbrMetallicRoughness":{
				"baseColorTexture":{
					"index":8
				},
				"metallicFactor":0,
				"roughnessFactor":0.9505894184112549
			}
		},
		{
			"doubleSided":true,
			"extensions":{
				"KHR_materials_specular":{
					"specularColorFactor":[
						2.371357614441398,
						2.371357614441398,
						2.371357614441398
					]
				},
				"KHR_materials_ior":{
					"ior":1.4500000476837158
				}
			},
			"name":"mat9",
			"pbrMetallicRoughness":{
				"baseColorTexture":{
					"index":9
				},
				"metallicFactor":0,
				"roughnessFactor":0.9505894184112549
			}
		},
		{
			"doubleSided":true,
			"extensions":{
				"KHR_materials_specular":{
					"specularColorFactor":[
						2.371357614441398,
						2.371357614441398,
						2.371357614441398
					]
				},
				"KHR_materials_ior":{
					"ior":1.4500000476837158
				}
			},
			"name":"mat10",
			"pbrMetallicRoughness":{
				"baseColorTexture":{
					"index":10
				},
				"metallicFactor":0,
				"roughnessFactor":0.9505894184112549
			}
		},
		{
			"doubleSided":true,
			"extensions":{
				"KHR_materials_specular":{
					"specularColorFactor":[
						2.371357614441398,
						2.371357614441398,
						2.371357614441398
					]
				},
				"KHR_materials_ior":{
					"ior":1.4500000476837158
				}
			},
			"name":"mat11",
			"pbrMetallicRoughness":{
				"baseColorTexture":{
					"index":11
				},
				"metallicFactor":0,
				"roughnessFactor":0.9505894184112549
			}
		}
	],
	"meshes":[
		{
			"name":"RZ_room2_cafeteria",
			"primitives":[
				{
					"attributes":{
						"POSITION":0,
						"NORMAL":1,
						"TEXCOORD_0":2
					},
					"indices":3,
					"material":0
				},
				{
					"attributes":{
						"POSITION":4,
						"NORMAL":5,
						"TEXCOORD_0":6
					},
					"indices":7,
					"material":1
				},
				{
					"attributes":{
						"POSITION":8,
						"NORMAL":9,
						"TEXCOORD_0":10
					},
					"indices":11,
					"material":2
				},
				{
					"attributes":{
						"POSITION":12,
						"NORMAL":13,
						"TEXCOORD_0":14
					},
					"indices":15,
					"material":3
				},
				{
					"attributes":{
						"POSITION":16,
						"NORMAL":17,
						"TEXCOORD_0":18
					},
					"indices":19,
					"material":4
				},
				{
					"attributes":{
						"POSITION":20,
						"NORMAL":21,
						"TEXCOORD_0":22
					},
					"indices":23,
					"material":5
				},
				{
					"attributes":{
						"POSITION":24,
						"NORMAL":25,
						"TEXCOORD_0":26
					},
					"indices":27,
					"material":6
				},
				{
					"attributes":{
						"POSITION":28,
						"NORMAL":29,
						"TEXCOORD_0":30
					},
					"indices":31,
					"material":7
				},
				{
					"attributes":{
						"POSITION":32,
						"NORMAL":33,
						"TEXCOORD_0":34
					},
					"indices":35,
					"material":8
				},
				{
					"attributes":{
						"POSITION":36,
						"NORMAL":37,
						"TEXCOORD_0":38
					},
					"indices":35,
					"material":9
				},
				{
					"attributes":{
						"POSITION":39,
						"NORMAL":40,
						"TEXCOORD_0":41
					},
					"indices":42,
					"material":10
				},
				{
					"attributes":{
						"POSITION":43,
						"NORMAL":44,
						"TEXCOORD_0":45
					},
					"indices":15,
					"material":11
				}
			]
		}
	],
	"textures":[
		{
			"sampler":0,
			"source":0
		},
		{
			"sampler":0,
			"source":1
		},
		{
			"sampler":0,
			"source":2
		},
		{
			"sampler":0,
			"source":3
		},
		{
			"sampler":0,
			"source":4
		},
		{
			"sampler":0,
			"source":5
		},
		{
			"sampler":0,
			"source":6
		},
		{
			"sampler":0,
			"source":7
		},
		{
			"sampler":0,
			"source":8
		},
		{
			"sampler":0,
			"source":9
		},
		{
			"sampler":0,
			"source":10
		},
		{
			"sampler":0,
			"source":11
		}
	],
	"images":[
		{
			"mimeType":"image/jpeg",
			"name":"metal",
			"uri":"metal.jpg"
		},
		{
			"mimeType":"image/jpeg",
			"name":"tilefloor",
			"uri":"tilefloor.jpg"
		},
		{
			"mimeType":"image/jpeg",
			"name":"ceiling",
			"uri":"ceiling.jpg"
		},
		{
			"mimeType":"image/jpeg",
			"name":"misc",
			"uri":"misc.jpg"
		},
		{
			"mimeType":"image/jpeg",
			"name":"officewall",
			"uri":"officewall.jpg"
		},
		{
			"mimeType":"image/jpeg",
			"name":"white",
			"uri":"white.jpg"
		},
		{
			"mimeType":"image/jpeg",
			"name":"door01",
			"uri":"door01.jpg"
		},
		{
			"mimeType":"image/jpeg",
			"name":"dirtymetal",
			"uri":"dirtymetal.jpg"
		},
		{
			"mimeType":"image/jpeg",
			"name":"miscsigns3",
			"uri":"miscsigns3.jpg"
		},
		{
			"mimeType":"image/jpeg",
			"name":"concretefloor",
			"uri":"concretefloor.jpg"
		},
		{
			"mimeType":"image/jpeg",
			"name":"papertexture",
			"uri":"papertexture.jpg"
		},
		{
			"mimeType":"image/jpeg",
			"name":"red",
			"uri":"red.jpg"
		}
	],
	"accessors":[
		{
			"bufferView":0,
			"componentType":5126,
			"count":2620,
			"max":[
				9.359999656677246,
				3.239999771118164,
				9.920000076293945
			],
			"min":[
				-9.59999942779541,
				-3.8400001525878906,
				-10
			],
			"type":"VEC3"
		},
		{
			"bufferView":1,
			"componentType":5126,
			"count":2620,
			"type":"VEC3"
		},
		{
			"bufferView":2,
			"componentType":5126,
			"count":2620,
			"type":"VEC2"
		},
		{
			"bufferView":3,
			"componentType":5123,
			"count":3888,
			"type":"SCALAR"
		},
		{
			"bufferView":4,
			"componentType":5126,
			"count":296,
			"max":[
				10.239998817443848,
				7.730984634690685e-07,
				10.239999771118164
			],
			"min":[
				-10.240002632141113,
				-3.840000629425049,
				-10.239999771118164
			],
			"type":"VEC3"
		},
		{
			"bufferView":5,
			"componentType":5126,
			"count":296,
			"type":"VEC3"
		},
		{
			"bufferView":6,
			"componentType":5126,
			"count":296,
			"type":"VEC2"
		},
		{
			"bufferView":7,
			"componentType":5123,
			"count":444,
			"type":"SCALAR"
		},
		{
			"bufferView":8,
			"componentType":5126,
			"count":4,
			"max":[
				10.239998817443848,
				7.040000915527344,
				10.239998817443848
			],
			"min":[
				-10.240002632141113,
				7.039999008178711,
				-10.24000072479248
			],
			"type":"VEC3"
		},
		{
			"bufferView":9,
			"componentType":5126,
			"count":4,
			"type":"VEC3"
		},
		{
			"bufferView":10,
			"componentType":5126,
			"count":4,
			"type":"VEC2"
		},
		{
			"bufferView":11,
			"componentType":5123,
			"count":6,
			"type":"SCALAR"
		},
		{
			"bufferView":12,
			"componentType":5126,
			"count":12,
			"max":[
				0.12043820321559906,
				7.010439872741699,
				3.240000009536743
			],
			"min":[
				-0.11956179141998291,
				-0.3495596945285797,
				-2.760000467300415
			],
			"type":"VEC3"
		},
		{
			"bufferView":13,
			"componentType":5126,
			"count":12,
			"type":"VEC3"
		},
		{
			"bufferView":14,
			"componentType":5126,
			"count":12,
			"type":"VEC2"
		},
		{
			"bufferView":15,
			"componentType":5123,
			"count":18,
			"type":"SCALAR"
		},
		{
			"bufferView":16,
			"componentType":5126,
			"count":306,
			"max":[
				10.239999771118164,
				3.679999351501465,
				10.239999771118164
			],
			"min":[
				-10.24000072479248,
				-3.119999885559082,
				-10.239999771118164
			],
			"type":"VEC3"
		},
		{
			"bufferView":17,
			"componentType":5126,
			"count":306,
			"type":"VEC3"
		},
		{
			"bufferView":18,
			"componentType":5126,
			"count":306,
			"type":"VEC2"
		},
		{
			"bufferView":19,
			"componentType":5123,
			"count":462,
			"type":"SCALAR"
		},
		{
			"bufferView":20,
			"componentType":5126,
			"count":232,
			"max":[
				10.239998817443848,
				7.040000915527344,
				10.239999771118164
			],
			"min":[
				-10.240002632141113,
				-3.840000629425049,
				-10.240005493164062
			],
			"type":"VEC3"
		},
		{
			"bufferView":21,
			"componentType":5126,
			"count":232,
			"type":"VEC3"
		},
		{
			"bufferView":22,
			"componentType":5126,
			"count":232,
			"type":"VEC2"
		},
		{
			"bufferView":23,
			"componentType":5123,
			"count":348,
			"type":"SCALAR"
		},
		{
			"bufferView":24,
			"componentType":5126,
			"count":20,
			"max":[
				0.9599999785423279,
				-0.6400007605552673,
				-9.90999984741211
			],
			"min":[
				-0.9599999785423279,
				-3.840000629425049,
				-10.239999771118164
			],
			"type":"VEC3"
		},
		{
			"bufferView":25,
			"componentType":5126,
			"count":20,
			"type":"VEC3"
		},
		{
			"bufferView":26,
			"componentType":5126,
			"count":20,
			"type":"VEC2"
		},
		{
			"bufferView":27,
			"componentType":5123,
			"count":30,
			"type":"SCALAR"
		},
		{
			"bufferView":28,
			"componentType":5126,
			"count":776,
			"max":[
				10.24000072479248,
				7.048680782318115,
				9.919718742370605
			],
			"min":[
				-10.240002632141113,
				-3.8400003910064697,
				-9.919718742370605
			],
			"type":"VEC3"
		},
		{
			"bufferView":29,
			"componentType":5126,
			"count":776,
			"type":"VEC3"
		},
		{
			"bufferView":30,
			"componentType":5126,
			"count":776,
			"type":"VEC2"
		},
		{
			"bufferView":31,
			"componentType":5123,
			"count":1158,
			"type":"SCALAR"
		},
		{
			"bufferView":32,
			"componentType":5126,
			"count":16,
			"max":[
				10.239999771118164,
				2.520000696182251,
				8.15999984741211
			],
			"min":[
				-10.239999771118164,
				-2.2800004482269287,
				-6.399999618530273
			],
			"type":"VEC3"
		},
		{
			"bufferView":33,
			"componentType":5126,
			"count":16,
			"type":"VEC3"
		},
		{
			"bufferView":34,
			"componentType":5126,
			"count":16,
			"type":"VEC2"
		},
		{
			"bufferView":35,
			"componentType":5123,
			"count":24,
			"type":"SCALAR"
		},
		{
			"bufferView":36,
			"componentType":5126,
			"count":16,
			"max":[
				10.239998817443848,
				7.080000877380371,
				10.239998817443848
			],
			"min":[
				-10.240002632141113,
				7.039999008178711,
				-10.24000072479248
			],
			"type":"VEC3"
		},
		{
			"bufferView":37,
			"componentType":5126,
			"count":16,
			"type":"VEC3"
		},
		{
			"bufferView":38,
			"componentType":5126,
			"count":16,
			"type":"VEC2"
		},
		{
			"bufferView":39,
			"componentType":5126,
			"count":60,
			"max":[
				7.119999885559082,
				-2.6100001335144043,
				-4.640002727508545
			],
			"min":[
				6.306950092315674,
				-2.6409385204315186,
				-5.382536888122559
			],
			"type":"VEC3"
		},
		{
			"bufferView":40,
			"componentType":5126,
			"count":60,
			"type":"VEC3"
		},
		{
			"bufferView":41,
			"componentType":5126,
			"count":60,
			"type":"VEC2"
		},
		{
			"bufferView":42,
			"componentType":5123,
			"count":90,
			"type":"SCALAR"
		},
		{
			"bufferView":43,
			"componentType":5126,
			"count":12,
			"max":[
				6.87999963760376,
				-2.6100001335144043,
				-4.640002727508545
			],
			"min":[
				6.306950092315674,
				-2.6409385204315186,
				-4.966843605041504
			],
			"type":"VEC3"
		},
		{
			"bufferView":44,
			"componentType":5126,
			"count":12,
			"type":"VEC3"
		},
		{
			"bufferView":45,
			"componentType":5126,
			"count":12,
			"type":"VEC2"
		}
	],
	"bufferViews":[
		{
			"buffer":0,
			"byteLength":31440,
			"byteOffset":0,
			"target":34962
		},
		{
			"buffer":0,
			"byteLength":31440,
			"byteOffset":31440,
			"target":34962
		},
		{
			"buffer":0,
			"byteLength":20960,
			"byteOffset":62880,
			"target":34962
		},
		{
			"buffer":0,
			"byteLength":7776,
			"byteOffset":83840,
			"target":34963
		},
		{
			"buffer":0,
			"byteLength":3552,
			"byteOffset":91616,
			"target":34962
		},
		{
			"buffer":0,
			"byteLength":3552,
			"byteOffset":95168,
			"target":34962
		},
		{
			"buffer":0,
			"byteLength":2368,
			"byteOffset":98720,
			"target":34962
		},
		{
			"buffer":0,
			"byteLength":888,
			"byteOffset":101088,
			"target":34963
		},
		{
			"buffer":0,
			"byteLength":48,
			"byteOffset":101976,
			"target":34962
		},
		{
			"buffer":0,
			"byteLength":48,
			"byteOffset":102024,
			"target":34962
		},
		{
			"buffer":0,
			"byteLength":32,
			"byteOffset":102072,
			"target":34962
		},
		{
			"buffer":0,
			"byteLength":12,
			"byteOffset":102104,
			"target":34963
		},
		{
			"buffer":0,
			"byteLength":144,
			"byteOffset":102116,
			"target":34962
		},
		{
			"buffer":0,
			"byteLength":144,
			"byteOffset":102260,
			"target":34962
		},
		{
			"buffer":0,
			"byteLength":96,
			"byteOffset":102404,
			"target":34962
		},
		{
			"buffer":0,
			"byteLength":36,
			"byteOffset":102500,
			"target":34963
		},
		{
			"buffer":0,
			"byteLength":3672,
			"byteOffset":102536,
			"target":34962
		},
		{
			"buffer":0,
			"byteLength":3672,
			"byteOffset":106208,
			"target":34962
		},
		{
			"buffer":0,
			"byteLength":2448,
			"byteOffset":109880,
			"target":34962
		},
		{
			"buffer":0,
			"byteLength":924,
			"byteOffset":112328,
			"target":34963
		},
		{
			"buffer":0,
			"byteLength":2784,
			"byteOffset":113252,
			"target":34962
		},
		{
			"buffer":0,
			"byteLength":2784,
			"byteOffset":116036,
			"target":34962
		},
		{
			"buffer":0,
			"byteLength":1856,
			"byteOffset":118820,
			"target":34962
		},
		{
			"buffer":0,
			"byteLength":696,
			"byteOffset":120676,
			"target":34963
		},
		{
			"buffer":0,
			"byteLength":240,
			"byteOffset":121372,
			"target":34962
		},
		{
			"buffer":0,
			"byteLength":240,
			"byteOffset":121612,
			"target":34962
		},
		{
			"buffer":0,
			"byteLength":160,
			"byteOffset":121852,
			"target":34962
		},
		{
			"buffer":0,
			"byteLength":60,
			"byteOffset":122012,
			"target":34963
		},
		{
			"buffer":0,
			"byteLength":9312,
			"byteOffset":122072,
			"target":34962
		},
		{
			"buffer":0,
			"byteLength":9312,
			"byteOffset":131384,
			"target":34962
		},
		{
			"buffer":0,
			"byteLength":6208,
			"byteOffset":140696,
			"target":34962
		},
		{
			"buffer":0,
			"byteLength":2316,
			"byteOffset":146904,
			"target":34963
		},
		{
			"buffer":0,
			"byteLength":192,
			"byteOffset":149220,
			"target":34962
		},
		{
			"buffer":0,
			"byteLength":192,
			"byteOffset":149412,
			"target":34962
		},
		{
			"buffer":0,
			"byteLength":128,
			"byteOffset":149604,
			"target":34962
		},
		{
			"buffer":0,
			"byteLength":48,
			"byteOffset":149732,
			"target":34963
		},
		{
			"buffer":0,
			"byteLength":192,
			"byteOffset":149780,
			"target":34962
		},
		{
			"buffer":0,
			"byteLength":192,
			"byteOffset":149972,
			"target":34962
		},
		{
			"buffer":0,
			"byteLength":128,
			"byteOffset":150164,
			"target":34962
		},
		{
			"buffer":0,
			"byteLength":720,
			"byteOffset":150292,
			"target":34962
		},
		{
			"buffer":0,
			"byteLength":720,
			"byteOffset":151012,
			"target":34962
		},
		{
			"buffer":0,
			"byteLength":480,
			"byteOffset":151732,
			"target":34962
		},
		{
			"buffer":0,
			"byteLength":180,
			"byteOffset":152212,
			"target":34963
		},
		{
			"buffer":0,
			"byteLength":144,
			"byteOffset":152392,
			"target":34962
		},
		{
			"buffer":0,
			"byteLength":144,
			"byteOffset":152536,
			"target":34962
		},
		{
			"buffer":0,
			"byteLength":96,
			"byteOffset":152680,
			"target":34962
		}
	],
	"samplers":[
		{
			"magFilter":9729,
			"minFilter":9987
		}
	],
	"buffers":[
		{
			"byteLength":152776,
			"uri":"RZ_room2_cafeteria.bin"
		}
	]
}
