{
	"asset":{
		"generator":"Khronos glTF Blender I/O v3.5.30",
		"version":"2.0"
	},
	"extensionsUsed":[
		"KHR_materials_specular",
		"KHR_materials_ior"
	],
	"scene":0,
	"scenes":[
		{
			"name":"Scene",
			"nodes":[
				0
			]
		}
	],
	"nodes":[
		{
			"mesh":0,
			"name":"RZ_room2_offices"
		}
	],
	"materials":[
		{
			"doubleSided":true,
			"extensions":{
				"KHR_materials_specular":{
					"specularColorFactor":[
						2.371357614441398,
						2.371357614441398,
						2.371357614441398
					]
				},
				"KHR_materials_ior":{
					"ior":1.4500000476837158
				}
			},
			"name":"mat0.003",
			"pbrMetallicRoughness":{
				"baseColorTexture":{
					"index":0
				},
				"metallicFactor":0,
				"roughnessFactor":0.9505894184112549
			}
		},
		{
			"doubleSided":true,
			"extensions":{
				"KHR_materials_specular":{
					"specularColorFactor":[
						2.371357614441398,
						2.371357614441398,
						2.371357614441398
					]
				},
				"KHR_materials_ior":{
					"ior":1.4500000476837158
				}
			},
			"name":"mat1.003",
			"pbrMetallicRoughness":{
				"baseColorTexture":{
					"index":1
				},
				"metallicFactor":0,
				"roughnessFactor":0.9505894184112549
			}
		},
		{
			"doubleSided":true,
			"extensions":{
				"KHR_materials_specular":{
					"specularColorFactor":[
						2.371357614441398,
						2.371357614441398,
						2.371357614441398
					]
				},
				"KHR_materials_ior":{
					"ior":1.4500000476837158
				}
			},
			"name":"mat2.003",
			"pbrMetallicRoughness":{
				"baseColorTexture":{
					"index":2
				},
				"metallicFactor":0,
				"roughnessFactor":0.9505894184112549
			}
		},
		{
			"doubleSided":true,
			"extensions":{
				"KHR_materials_specular":{
					"specularColorFactor":[
						2.371357614441398,
						2.371357614441398,
						2.371357614441398
					]
				},
				"KHR_materials_ior":{
					"ior":1.4500000476837158
				}
			},
			"name":"mat3.003",
			"pbrMetallicRoughness":{
				"baseColorTexture":{
					"index":3
				},
				"metallicFactor":0,
				"roughnessFactor":0.9505894184112549
			}
		},
		{
			"doubleSided":true,
			"extensions":{
				"KHR_materials_specular":{
					"specularColorFactor":[
						2.371357614441398,
						2.371357614441398,
						2.371357614441398
					]
				},
				"KHR_materials_ior":{
					"ior":1.4500000476837158
				}
			},
			"name":"mat4.003",
			"pbrMetallicRoughness":{
				"baseColorTexture":{
					"index":4
				},
				"metallicFactor":0,
				"roughnessFactor":0.9505894184112549
			}
		},
		{
			"doubleSided":true,
			"extensions":{
				"KHR_materials_specular":{
					"specularColorFactor":[
						2.371357614441398,
						2.371357614441398,
						2.371357614441398
					]
				},
				"KHR_materials_ior":{
					"ior":1.4500000476837158
				}
			},
			"name":"mat5.003",
			"pbrMetallicRoughness":{
				"baseColorTexture":{
					"index":5
				},
				"metallicFactor":0,
				"roughnessFactor":0.9505894184112549
			}
		},
		{
			"doubleSided":true,
			"extensions":{
				"KHR_materials_specular":{
					"specularColorFactor":[
						2.371357614441398,
						2.371357614441398,
						2.371357614441398
					]
				},
				"KHR_materials_ior":{
					"ior":1.4500000476837158
				}
			},
			"name":"mat6.003",
			"pbrMetallicRoughness":{
				"baseColorTexture":{
					"index":6
				},
				"metallicFactor":0,
				"roughnessFactor":0.9505894184112549
			}
		},
		{
			"doubleSided":true,
			"extensions":{
				"KHR_materials_specular":{
					"specularColorFactor":[
						2.371357614441398,
						2.371357614441398,
						2.371357614441398
					]
				},
				"KHR_materials_ior":{
					"ior":1.4500000476837158
				}
			},
			"name":"mat7.003",
			"pbrMetallicRoughness":{
				"baseColorTexture":{
					"index":7
				},
				"metallicFactor":0,
				"roughnessFactor":0.9505894184112549
			}
		},
		{
			"doubleSided":true,
			"extensions":{
				"KHR_materials_specular":{
					"specularColorFactor":[
						2.371357614441398,
						2.371357614441398,
						2.371357614441398
					]
				},
				"KHR_materials_ior":{
					"ior":1.4500000476837158
				}
			},
			"name":"mat8.003",
			"pbrMetallicRoughness":{
				"baseColorTexture":{
					"index":8
				},
				"metallicFactor":0,
				"roughnessFactor":0.9505894184112549
			}
		},
		{
			"doubleSided":true,
			"extensions":{
				"KHR_materials_specular":{
					"specularColorFactor":[
						2.371357614441398,
						2.371357614441398,
						2.371357614441398
					]
				},
				"KHR_materials_ior":{
					"ior":1.4500000476837158
				}
			},
			"name":"mat9.003",
			"pbrMetallicRoughness":{
				"baseColorTexture":{
					"index":9
				},
				"metallicFactor":0,
				"roughnessFactor":0.9505894184112549
			}
		},
		{
			"doubleSided":true,
			"extensions":{
				"KHR_materials_specular":{
					"specularColorFactor":[
						2.371357614441398,
						2.371357614441398,
						2.371357614441398
					]
				},
				"KHR_materials_ior":{
					"ior":1.4500000476837158
				}
			},
			"name":"mat10.003",
			"pbrMetallicRoughness":{
				"baseColorTexture":{
					"index":10
				},
				"metallicFactor":0,
				"roughnessFactor":0.9505894184112549
			}
		}
	],
	"meshes":[
		{
			"name":"RZ_room2_offices",
			"primitives":[
				{
					"attributes":{
						"POSITION":0,
						"TEXCOORD_0":1,
						"NORMAL":2
					},
					"indices":3,
					"material":0
				},
				{
					"attributes":{
						"POSITION":4,
						"TEXCOORD_0":5,
						"NORMAL":6
					},
					"indices":7,
					"material":1
				},
				{
					"attributes":{
						"POSITION":8,
						"TEXCOORD_0":9,
						"NORMAL":10
					},
					"indices":3,
					"material":2
				},
				{
					"attributes":{
						"POSITION":11,
						"TEXCOORD_0":12,
						"NORMAL":13
					},
					"indices":14,
					"material":3
				},
				{
					"attributes":{
						"POSITION":15,
						"TEXCOORD_0":16,
						"NORMAL":17
					},
					"indices":18,
					"material":4
				},
				{
					"attributes":{
						"POSITION":19,
						"TEXCOORD_0":20,
						"NORMAL":21
					},
					"indices":22,
					"material":5
				},
				{
					"attributes":{
						"POSITION":23,
						"TEXCOORD_0":24,
						"NORMAL":25
					},
					"indices":26,
					"material":6
				},
				{
					"attributes":{
						"POSITION":27,
						"TEXCOORD_0":28,
						"NORMAL":29
					},
					"indices":30,
					"material":7
				},
				{
					"attributes":{
						"POSITION":31,
						"TEXCOORD_0":32,
						"NORMAL":33
					},
					"indices":34,
					"material":8
				},
				{
					"attributes":{
						"POSITION":35,
						"TEXCOORD_0":36,
						"NORMAL":37
					},
					"indices":38,
					"material":9
				},
				{
					"attributes":{
						"POSITION":39,
						"TEXCOORD_0":40,
						"NORMAL":41
					},
					"indices":22,
					"material":10
				}
			]
		}
	],
	"textures":[
		{
			"sampler":0,
			"source":0
		},
		{
			"sampler":0,
			"source":1
		},
		{
			"sampler":0,
			"source":2
		},
		{
			"sampler":0,
			"source":3
		},
		{
			"sampler":0,
			"source":4
		},
		{
			"sampler":0,
			"source":5
		},
		{
			"sampler":0,
			"source":6
		},
		{
			"sampler":0,
			"source":7
		},
		{
			"sampler":0,
			"source":8
		},
		{
			"sampler":0,
			"source":9
		},
		{
			"sampler":0,
			"source":10
		}
	],
	"images":[
		{
			"mimeType":"image/jpeg",
			"name":"ceiling",
			"uri":"ceiling.jpg"
		},
		{
			"mimeType":"image/jpeg",
			"name":"misc",
			"uri":"misc.jpg"
		},
		{
			"mimeType":"image/jpeg",
			"name":"tilefloor",
			"uri":"tilefloor.jpg"
		},
		{
			"mimeType":"image/jpeg",
			"name":"officewall",
			"uri":"officewall.jpg"
		},
		{
			"mimeType":"image/jpeg",
			"name":"controlpanel",
			"uri":"controlpanel.jpg"
		},
		{
			"mimeType":"image/jpeg",
			"name":"chatscreen",
			"uri":"chatscreen.jpg"
		},
		{
			"mimeType":"image/jpeg",
			"name":"dirtymetal",
			"uri":"dirtymetal.jpg"
		},
		{
			"mimeType":"image/jpeg",
			"name":"metal",
			"uri":"metal.jpg"
		},
		{
			"mimeType":"image/jpeg",
			"name":"scplogo",
			"uri":"scplogo.jpg"
		},
		{
			"mimeType":"image/jpeg",
			"name":"papertexture",
			"uri":"papertexture.jpg"
		},
		{
			"mimeType":"image/jpeg",
			"name":"red",
			"uri":"red.jpg"
		}
	],
	"accessors":[
		{
			"bufferView":0,
			"componentType":5126,
			"count":4,
			"max":[
				10.239999771118164,
				3.840000867843628,
				10.240001678466797
			],
			"min":[
				-6.079999923706055,
				3.8400001525878906,
				-10.239999771118164
			],
			"type":"VEC3"
		},
		{
			"bufferView":1,
			"componentType":5126,
			"count":4,
			"type":"VEC2"
		},
		{
			"bufferView":2,
			"componentType":5126,
			"count":4,
			"type":"VEC3"
		},
		{
			"bufferView":3,
			"componentType":5123,
			"count":6,
			"type":"SCALAR"
		},
		{
			"bufferView":4,
			"componentType":5126,
			"count":128,
			"max":[
				5.409562110900879,
				3.8686819076538086,
				6.5199995040893555
			],
			"min":[
				-0.030438000336289406,
				2.635000467300415,
				-9.687882423400879
			],
			"type":"VEC3"
		},
		{
			"bufferView":5,
			"componentType":5126,
			"count":128,
			"type":"VEC2"
		},
		{
			"bufferView":6,
			"componentType":5126,
			"count":128,
			"type":"VEC3"
		},
		{
			"bufferView":7,
			"componentType":5123,
			"count":192,
			"type":"SCALAR"
		},
		{
			"bufferView":8,
			"componentType":5126,
			"count":4,
			"max":[
				10.239999771118164,
				3.758345883397851e-07,
				10.24000072479248
			],
			"min":[
				-6.079999923706055,
				-3.758345883397851e-07,
				-10.24000072479248
			],
			"type":"VEC3"
		},
		{
			"bufferView":9,
			"componentType":5126,
			"count":4,
			"type":"VEC2"
		},
		{
			"bufferView":10,
			"componentType":5126,
			"count":4,
			"type":"VEC3"
		},
		{
			"bufferView":11,
			"componentType":5126,
			"count":96,
			"max":[
				10.239999771118164,
				3.840000867843628,
				10.240001678466797
			],
			"min":[
				-6.079999923706055,
				-3.758345883397851e-07,
				-10.24000072479248
			],
			"type":"VEC3"
		},
		{
			"bufferView":12,
			"componentType":5126,
			"count":96,
			"type":"VEC2"
		},
		{
			"bufferView":13,
			"componentType":5126,
			"count":96,
			"type":"VEC3"
		},
		{
			"bufferView":14,
			"componentType":5123,
			"count":144,
			"type":"SCALAR"
		},
		{
			"bufferView":15,
			"componentType":5126,
			"count":144,
			"max":[
				8.979999542236328,
				3.3600001335144043,
				9.920001029968262
			],
			"min":[
				3.2207798957824707,
				2.5599987506866455,
				9.879996299743652
			],
			"type":"VEC3"
		},
		{
			"bufferView":16,
			"componentType":5126,
			"count":144,
			"type":"VEC2"
		},
		{
			"bufferView":17,
			"componentType":5126,
			"count":144,
			"type":"VEC3"
		},
		{
			"bufferView":18,
			"componentType":5123,
			"count":216,
			"type":"SCALAR"
		},
		{
			"bufferView":19,
			"componentType":5126,
			"count":24,
			"max":[
				8.860004425048828,
				3.240000009536743,
				9.91999626159668
			],
			"min":[
				8.140005111694336,
				2.679999828338623,
				9.909996032714844
			],
			"type":"VEC3"
		},
		{
			"bufferView":20,
			"componentType":5126,
			"count":24,
			"type":"VEC2"
		},
		{
			"bufferView":21,
			"componentType":5126,
			"count":24,
			"type":"VEC3"
		},
		{
			"bufferView":22,
			"componentType":5123,
			"count":36,
			"type":"SCALAR"
		},
		{
			"bufferView":23,
			"componentType":5126,
			"count":4176,
			"max":[
				9.16572093963623,
				3.2000010013580322,
				9.919150352478027
			],
			"min":[
				-5.68773078918457,
				-7.309787974918436e-07,
				-9.775961875915527
			],
			"type":"VEC3"
		},
		{
			"bufferView":24,
			"componentType":5126,
			"count":4176,
			"type":"VEC2"
		},
		{
			"bufferView":25,
			"componentType":5126,
			"count":4176,
			"type":"VEC3"
		},
		{
			"bufferView":26,
			"componentType":5123,
			"count":6264,
			"type":"SCALAR"
		},
		{
			"bufferView":27,
			"componentType":5126,
			"count":6880,
			"max":[
				9.919998168945312,
				3.6000003814697266,
				9.839716911315918
			],
			"min":[
				-5.760000228881836,
				-2.939254954981152e-07,
				-9.775961875915527
			],
			"type":"VEC3"
		},
		{
			"bufferView":28,
			"componentType":5126,
			"count":6880,
			"type":"VEC2"
		},
		{
			"bufferView":29,
			"componentType":5126,
			"count":6880,
			"type":"VEC3"
		},
		{
			"bufferView":30,
			"componentType":5123,
			"count":10308,
			"type":"SCALAR"
		},
		{
			"bufferView":31,
			"componentType":5126,
			"count":20,
			"max":[
				-5.699999809265137,
				3.443635940551758,
				8.762356758117676
			],
			"min":[
				-5.760000228881836,
				0.31636282801628113,
				3.717649459838867
			],
			"type":"VEC3"
		},
		{
			"bufferView":32,
			"componentType":5126,
			"count":20,
			"type":"VEC2"
		},
		{
			"bufferView":33,
			"componentType":5126,
			"count":20,
			"type":"VEC3"
		},
		{
			"bufferView":34,
			"componentType":5123,
			"count":30,
			"type":"SCALAR"
		},
		{
			"bufferView":35,
			"componentType":5126,
			"count":138,
			"max":[
				6.018397808074951,
				2.7200005054473877,
				-4.286299705505371
			],
			"min":[
				-1.6388100385665894,
				1.199062705039978,
				-9.705525398254395
			],
			"type":"VEC3"
		},
		{
			"bufferView":36,
			"componentType":5126,
			"count":138,
			"type":"VEC2"
		},
		{
			"bufferView":37,
			"componentType":5126,
			"count":138,
			"type":"VEC3"
		},
		{
			"bufferView":38,
			"componentType":5123,
			"count":204,
			"type":"SCALAR"
		},
		{
			"bufferView":39,
			"componentType":5126,
			"count":24,
			"max":[
				5.976562976837158,
				1.3900004625320435,
				-4.328133583068848
			],
			"min":[
				-1.6388100385665894,
				1.199062705039978,
				-9.705525398254395
			],
			"type":"VEC3"
		},
		{
			"bufferView":40,
			"componentType":5126,
			"count":24,
			"type":"VEC2"
		},
		{
			"bufferView":41,
			"componentType":5126,
			"count":24,
			"type":"VEC3"
		}
	],
	"bufferViews":[
		{
			"buffer":0,
			"byteLength":48,
			"byteOffset":0,
			"target":34962
		},
		{
			"buffer":0,
			"byteLength":32,
			"byteOffset":48,
			"target":34962
		},
		{
			"buffer":0,
			"byteLength":48,
			"byteOffset":80,
			"target":34962
		},
		{
			"buffer":0,
			"byteLength":12,
			"byteOffset":128,
			"target":34963
		},
		{
			"buffer":0,
			"byteLength":1536,
			"byteOffset":140,
			"target":34962
		},
		{
			"buffer":0,
			"byteLength":1024,
			"byteOffset":1676,
			"target":34962
		},
		{
			"buffer":0,
			"byteLength":1536,
			"byteOffset":2700,
			"target":34962
		},
		{
			"buffer":0,
			"byteLength":384,
			"byteOffset":4236,
			"target":34963
		},
		{
			"buffer":0,
			"byteLength":48,
			"byteOffset":4620,
			"target":34962
		},
		{
			"buffer":0,
			"byteLength":32,
			"byteOffset":4668,
			"target":34962
		},
		{
			"buffer":0,
			"byteLength":48,
			"byteOffset":4700,
			"target":34962
		},
		{
			"buffer":0,
			"byteLength":1152,
			"byteOffset":4748,
			"target":34962
		},
		{
			"buffer":0,
			"byteLength":768,
			"byteOffset":5900,
			"target":34962
		},
		{
			"buffer":0,
			"byteLength":1152,
			"byteOffset":6668,
			"target":34962
		},
		{
			"buffer":0,
			"byteLength":288,
			"byteOffset":7820,
			"target":34963
		},
		{
			"buffer":0,
			"byteLength":1728,
			"byteOffset":8108,
			"target":34962
		},
		{
			"buffer":0,
			"byteLength":1152,
			"byteOffset":9836,
			"target":34962
		},
		{
			"buffer":0,
			"byteLength":1728,
			"byteOffset":10988,
			"target":34962
		},
		{
			"buffer":0,
			"byteLength":432,
			"byteOffset":12716,
			"target":34963
		},
		{
			"buffer":0,
			"byteLength":288,
			"byteOffset":13148,
			"target":34962
		},
		{
			"buffer":0,
			"byteLength":192,
			"byteOffset":13436,
			"target":34962
		},
		{
			"buffer":0,
			"byteLength":288,
			"byteOffset":13628,
			"target":34962
		},
		{
			"buffer":0,
			"byteLength":72,
			"byteOffset":13916,
			"target":34963
		},
		{
			"buffer":0,
			"byteLength":50112,
			"byteOffset":13988,
			"target":34962
		},
		{
			"buffer":0,
			"byteLength":33408,
			"byteOffset":64100,
			"target":34962
		},
		{
			"buffer":0,
			"byteLength":50112,
			"byteOffset":97508,
			"target":34962
		},
		{
			"buffer":0,
			"byteLength":12528,
			"byteOffset":147620,
			"target":34963
		},
		{
			"buffer":0,
			"byteLength":82560,
			"byteOffset":160148,
			"target":34962
		},
		{
			"buffer":0,
			"byteLength":55040,
			"byteOffset":242708,
			"target":34962
		},
		{
			"buffer":0,
			"byteLength":82560,
			"byteOffset":297748,
			"target":34962
		},
		{
			"buffer":0,
			"byteLength":20616,
			"byteOffset":380308,
			"target":34963
		},
		{
			"buffer":0,
			"byteLength":240,
			"byteOffset":400924,
			"target":34962
		},
		{
			"buffer":0,
			"byteLength":160,
			"byteOffset":401164,
			"target":34962
		},
		{
			"buffer":0,
			"byteLength":240,
			"byteOffset":401324,
			"target":34962
		},
		{
			"buffer":0,
			"byteLength":60,
			"byteOffset":401564,
			"target":34963
		},
		{
			"buffer":0,
			"byteLength":1656,
			"byteOffset":401624,
			"target":34962
		},
		{
			"buffer":0,
			"byteLength":1104,
			"byteOffset":403280,
			"target":34962
		},
		{
			"buffer":0,
			"byteLength":1656,
			"byteOffset":404384,
			"target":34962
		},
		{
			"buffer":0,
			"byteLength":408,
			"byteOffset":406040,
			"target":34963
		},
		{
			"buffer":0,
			"byteLength":288,
			"byteOffset":406448,
			"target":34962
		},
		{
			"buffer":0,
			"byteLength":192,
			"byteOffset":406736,
			"target":34962
		},
		{
			"buffer":0,
			"byteLength":288,
			"byteOffset":406928,
			"target":34962
		}
	],
	"samplers":[
		{
			"magFilter":9729,
			"minFilter":9987
		}
	],
	"buffers":[
		{
			"byteLength":407216,
			"uri":"RZ_room2_offices.bin"
		}
	]
}
