{
	"asset":{
		"generator":"Khronos glTF Blender I/O v3.5.30",
		"version":"2.0"
	},
	"extensionsUsed":[
		"KHR_materials_specular",
		"KHR_materials_ior"
	],
	"scene":0,
	"scenes":[
		{
			"name":"Scene",
			"nodes":[
				0
			]
		}
	],
	"nodes":[
		{
			"mesh":0,
			"name":"RZ_room2_servers",
			"rotation":[
				0.7071068286895752,
				0,
				0,
				0.7071068286895752
			]
		}
	],
	"materials":[
		{
			"doubleSided":true,
			"extensions":{
				"KHR_materials_specular":{
					"specularColorFactor":[
						2.371357614441398,
						2.371357614441398,
						2.371357614441398
					]
				},
				"KHR_materials_ior":{
					"ior":1.4500000476837158
				}
			},
			"name":"mat0.006",
			"pbrMetallicRoughness":{
				"baseColorTexture":{
					"index":0
				},
				"metallicFactor":0,
				"roughnessFactor":0.9505894184112549
			}
		},
		{
			"doubleSided":true,
			"extensions":{
				"KHR_materials_specular":{
					"specularColorFactor":[
						2.371357614441398,
						2.371357614441398,
						2.371357614441398
					]
				},
				"KHR_materials_ior":{
					"ior":1.4500000476837158
				}
			},
			"name":"mat1.006",
			"pbrMetallicRoughness":{
				"baseColorTexture":{
					"index":1
				},
				"metallicFactor":0,
				"roughnessFactor":0.9505894184112549
			}
		},
		{
			"doubleSided":true,
			"extensions":{
				"KHR_materials_specular":{
					"specularColorFactor":[
						2.371357614441398,
						2.371357614441398,
						2.371357614441398
					]
				},
				"KHR_materials_ior":{
					"ior":1.4500000476837158
				}
			},
			"name":"mat2.006",
			"pbrMetallicRoughness":{
				"baseColorTexture":{
					"index":2
				},
				"metallicFactor":0,
				"roughnessFactor":0.9505894184112549
			}
		},
		{
			"doubleSided":true,
			"extensions":{
				"KHR_materials_specular":{
					"specularColorFactor":[
						2.371357614441398,
						2.371357614441398,
						2.371357614441398
					]
				},
				"KHR_materials_ior":{
					"ior":1.4500000476837158
				}
			},
			"name":"mat3.006",
			"pbrMetallicRoughness":{
				"baseColorTexture":{
					"index":3
				},
				"metallicFactor":0,
				"roughnessFactor":0.9505894184112549
			}
		},
		{
			"doubleSided":true,
			"extensions":{
				"KHR_materials_specular":{
					"specularColorFactor":[
						2.371357614441398,
						2.371357614441398,
						2.371357614441398
					]
				},
				"KHR_materials_ior":{
					"ior":1.4500000476837158
				}
			},
			"name":"mat4.006",
			"pbrMetallicRoughness":{
				"baseColorTexture":{
					"index":4
				},
				"metallicFactor":0,
				"roughnessFactor":0.9505894184112549
			}
		},
		{
			"doubleSided":true,
			"extensions":{
				"KHR_materials_specular":{
					"specularColorFactor":[
						2.371357614441398,
						2.371357614441398,
						2.371357614441398
					]
				},
				"KHR_materials_ior":{
					"ior":1.4500000476837158
				}
			},
			"name":"mat5.006",
			"pbrMetallicRoughness":{
				"baseColorTexture":{
					"index":5
				},
				"metallicFactor":0,
				"roughnessFactor":0.9505894184112549
			}
		},
		{
			"doubleSided":true,
			"extensions":{
				"KHR_materials_specular":{
					"specularColorFactor":[
						2.371357614441398,
						2.371357614441398,
						2.371357614441398
					]
				},
				"KHR_materials_ior":{
					"ior":1.4500000476837158
				}
			},
			"name":"mat6.006",
			"pbrMetallicRoughness":{
				"baseColorTexture":{
					"index":6
				},
				"metallicFactor":0,
				"roughnessFactor":0.9505894184112549
			}
		},
		{
			"doubleSided":true,
			"extensions":{
				"KHR_materials_specular":{
					"specularColorFactor":[
						2.371357614441398,
						2.371357614441398,
						2.371357614441398
					]
				},
				"KHR_materials_ior":{
					"ior":1.4500000476837158
				}
			},
			"name":"mat7.006",
			"pbrMetallicRoughness":{
				"baseColorTexture":{
					"index":7
				},
				"metallicFactor":0,
				"roughnessFactor":0.9505894184112549
			}
		},
		{
			"doubleSided":true,
			"extensions":{
				"KHR_materials_specular":{
					"specularColorFactor":[
						2.371357614441398,
						2.371357614441398,
						2.371357614441398
					]
				},
				"KHR_materials_ior":{
					"ior":1.4500000476837158
				}
			},
			"name":"mat8.006",
			"pbrMetallicRoughness":{
				"baseColorTexture":{
					"index":8
				},
				"metallicFactor":0,
				"roughnessFactor":0.9505894184112549
			}
		},
		{
			"doubleSided":true,
			"extensions":{
				"KHR_materials_specular":{
					"specularColorFactor":[
						2.371357614441398,
						2.371357614441398,
						2.371357614441398
					]
				},
				"KHR_materials_ior":{
					"ior":1.4500000476837158
				}
			},
			"name":"mat9.005",
			"pbrMetallicRoughness":{
				"baseColorTexture":{
					"index":9
				},
				"metallicFactor":0,
				"roughnessFactor":0.9505894184112549
			}
		},
		{
			"doubleSided":true,
			"extensions":{
				"KHR_materials_specular":{
					"specularColorFactor":[
						2.371357614441398,
						2.371357614441398,
						2.371357614441398
					]
				},
				"KHR_materials_ior":{
					"ior":1.4500000476837158
				}
			},
			"name":"mat10.005",
			"pbrMetallicRoughness":{
				"baseColorTexture":{
					"index":10
				},
				"metallicFactor":0,
				"roughnessFactor":0.9505894184112549
			}
		},
		{
			"doubleSided":true,
			"extensions":{
				"KHR_materials_specular":{
					"specularColorFactor":[
						2.371357614441398,
						2.371357614441398,
						2.371357614441398
					]
				},
				"KHR_materials_ior":{
					"ior":1.4500000476837158
				}
			},
			"name":"mat11.004",
			"pbrMetallicRoughness":{
				"baseColorTexture":{
					"index":11
				},
				"metallicFactor":0,
				"roughnessFactor":0.9505894184112549
			}
		}
	],
	"meshes":[
		{
			"name":"RZ_room2_servers",
			"primitives":[
				{
					"attributes":{
						"POSITION":0,
						"TEXCOORD_0":1,
						"NORMAL":2
					},
					"indices":3,
					"material":0
				},
				{
					"attributes":{
						"POSITION":4,
						"TEXCOORD_0":5,
						"NORMAL":6
					},
					"indices":7,
					"material":1
				},
				{
					"attributes":{
						"POSITION":8,
						"TEXCOORD_0":9,
						"NORMAL":10
					},
					"indices":11,
					"material":2
				},
				{
					"attributes":{
						"POSITION":12,
						"TEXCOORD_0":13,
						"NORMAL":14
					},
					"indices":15,
					"material":3
				},
				{
					"attributes":{
						"POSITION":16,
						"TEXCOORD_0":17,
						"NORMAL":18
					},
					"indices":19,
					"material":4
				},
				{
					"attributes":{
						"POSITION":20,
						"TEXCOORD_0":21,
						"NORMAL":22
					},
					"indices":23,
					"material":5
				},
				{
					"attributes":{
						"POSITION":24,
						"TEXCOORD_0":25,
						"NORMAL":26
					},
					"indices":27,
					"material":6
				},
				{
					"attributes":{
						"POSITION":28,
						"TEXCOORD_0":29,
						"NORMAL":30
					},
					"indices":31,
					"material":7
				},
				{
					"attributes":{
						"POSITION":32,
						"TEXCOORD_0":33,
						"NORMAL":34
					},
					"indices":35,
					"material":8
				},
				{
					"attributes":{
						"POSITION":36,
						"TEXCOORD_0":37,
						"NORMAL":38
					},
					"indices":39,
					"material":9
				},
				{
					"attributes":{
						"POSITION":40,
						"TEXCOORD_0":41,
						"NORMAL":42
					},
					"indices":39,
					"material":10
				},
				{
					"attributes":{
						"POSITION":43,
						"TEXCOORD_0":44,
						"NORMAL":45
					},
					"indices":23,
					"material":11
				}
			]
		}
	],
	"textures":[
		{
			"sampler":0,
			"source":0
		},
		{
			"sampler":0,
			"source":1
		},
		{
			"sampler":0,
			"source":2
		},
		{
			"sampler":0,
			"source":3
		},
		{
			"sampler":0,
			"source":4
		},
		{
			"sampler":0,
			"source":5
		},
		{
			"sampler":0,
			"source":6
		},
		{
			"sampler":0,
			"source":7
		},
		{
			"sampler":0,
			"source":8
		},
		{
			"sampler":0,
			"source":9
		},
		{
			"sampler":0,
			"source":10
		},
		{
			"sampler":0,
			"source":11
		}
	],
	"images":[
		{
			"mimeType":"image/jpeg",
			"name":"concretefloor",
			"uri":"concretefloor.jpg"
		},
		{
			"mimeType":"image/jpeg",
			"name":"white",
			"uri":"white.jpg"
		},
		{
			"mimeType":"image/jpeg",
			"name":"misc",
			"uri":"misc.jpg"
		},
		{
			"mimeType":"image/jpeg",
			"name":"ceiling",
			"uri":"ceiling.jpg"
		},
		{
			"mimeType":"image/jpeg",
			"name":"officewall",
			"uri":"officewall.jpg"
		},
		{
			"mimeType":"image/jpeg",
			"name":"tilefloor",
			"uri":"tilefloor.jpg"
		},
		{
			"mimeType":"image/jpeg",
			"name":"dirtymetal",
			"uri":"dirtymetal.jpg"
		},
		{
			"mimeType":"image/jpeg",
			"name":"servers1",
			"uri":"servers1.jpg"
		},
		{
			"mimeType":"image/jpeg",
			"name":"controlpanel",
			"uri":"controlpanel.jpg"
		},
		{
			"mimeType":"image/jpeg",
			"name":"metal",
			"uri":"metal.jpg"
		},
		{
			"mimeType":"image/jpeg",
			"name":"metalpanels2",
			"uri":"metalpanels2.jpg"
		},
		{
			"mimeType":"image/png",
			"name":"glass",
			"uri":"glass.png"
		}
	],
	"accessors":[
		{
			"bufferView":0,
			"componentType":5126,
			"count":216,
			"max":[
				8.15999984741211,
				10.239999771118164,
				7.679998874664307
			],
			"min":[
				-10.239999771118164,
				-10.239999771118164,
				-3.8399999141693115
			],
			"type":"VEC3"
		},
		{
			"bufferView":1,
			"componentType":5126,
			"count":216,
			"type":"VEC2"
		},
		{
			"bufferView":2,
			"componentType":5126,
			"count":216,
			"type":"VEC3"
		},
		{
			"bufferView":3,
			"componentType":5123,
			"count":324,
			"type":"SCALAR"
		},
		{
			"bufferView":4,
			"componentType":5126,
			"count":188,
			"max":[
				8.15999984741211,
				10.489981651306152,
				8
			],
			"min":[
				-10.239999771118164,
				-10.239999771118164,
				-3.840001106262207
			],
			"type":"VEC3"
		},
		{
			"bufferView":5,
			"componentType":5126,
			"count":188,
			"type":"VEC2"
		},
		{
			"bufferView":6,
			"componentType":5126,
			"count":188,
			"type":"VEC3"
		},
		{
			"bufferView":7,
			"componentType":5123,
			"count":282,
			"type":"SCALAR"
		},
		{
			"bufferView":8,
			"componentType":5126,
			"count":104,
			"max":[
				0.11999999731779099,
				7.879999160766602,
				2.600227117538452
			],
			"min":[
				-3.7995309829711914,
				-7.880000114440918,
				-3.858241081237793
			],
			"type":"VEC3"
		},
		{
			"bufferView":9,
			"componentType":5126,
			"count":104,
			"type":"VEC2"
		},
		{
			"bufferView":10,
			"componentType":5126,
			"count":104,
			"type":"VEC3"
		},
		{
			"bufferView":11,
			"componentType":5123,
			"count":156,
			"type":"SCALAR"
		},
		{
			"bufferView":12,
			"componentType":5126,
			"count":4,
			"max":[
				2.4000000953674316,
				10.239999771118164,
				-3.839998960494995
			],
			"min":[
				-2.880000114440918,
				-10.239999771118164,
				-3.840001106262207
			],
			"type":"VEC3"
		},
		{
			"bufferView":13,
			"componentType":5126,
			"count":4,
			"type":"VEC2"
		},
		{
			"bufferView":14,
			"componentType":5126,
			"count":4,
			"type":"VEC3"
		},
		{
			"bufferView":15,
			"componentType":5123,
			"count":6,
			"type":"SCALAR"
		},
		{
			"bufferView":16,
			"componentType":5126,
			"count":264,
			"max":[
				3.0399999618530273,
				10.25,
				0.1600009948015213
			],
			"min":[
				-3.0399999618530273,
				-10.239999771118164,
				-3.840001106262207
			],
			"type":"VEC3"
		},
		{
			"bufferView":17,
			"componentType":5126,
			"count":264,
			"type":"VEC2"
		},
		{
			"bufferView":18,
			"componentType":5126,
			"count":264,
			"type":"VEC3"
		},
		{
			"bufferView":19,
			"componentType":5123,
			"count":396,
			"type":"SCALAR"
		},
		{
			"bufferView":20,
			"componentType":5126,
			"count":8,
			"max":[
				8.160000801086426,
				10.24000072479248,
				7.679999828338623
			],
			"min":[
				-10.239999771118164,
				-9.279998779296875,
				7.679998874664307
			],
			"type":"VEC3"
		},
		{
			"bufferView":21,
			"componentType":5126,
			"count":8,
			"type":"VEC2"
		},
		{
			"bufferView":22,
			"componentType":5126,
			"count":8,
			"type":"VEC3"
		},
		{
			"bufferView":23,
			"componentType":5123,
			"count":12,
			"type":"SCALAR"
		},
		{
			"bufferView":24,
			"componentType":5126,
			"count":3839,
			"max":[
				3.1400539875030518,
				10.239999771118164,
				7.679999828338623
			],
			"min":[
				-10.079999923706055,
				-8.960000991821289,
				-3.440000057220459
			],
			"type":"VEC3"
		},
		{
			"bufferView":25,
			"componentType":5126,
			"count":3839,
			"type":"VEC2"
		},
		{
			"bufferView":26,
			"componentType":5126,
			"count":3839,
			"type":"VEC3"
		},
		{
			"bufferView":27,
			"componentType":5123,
			"count":6384,
			"type":"SCALAR"
		},
		{
			"bufferView":28,
			"componentType":5126,
			"count":888,
			"max":[
				1.684999942779541,
				2.8650009632110596,
				8.000219345092773
			],
			"min":[
				-9.75500202178955,
				-8.255000114440918,
				4.29723596572876
			],
			"type":"VEC3"
		},
		{
			"bufferView":29,
			"componentType":5126,
			"count":888,
			"type":"VEC2"
		},
		{
			"bufferView":30,
			"componentType":5126,
			"count":888,
			"type":"VEC3"
		},
		{
			"bufferView":31,
			"componentType":5123,
			"count":1332,
			"type":"SCALAR"
		},
		{
			"bufferView":32,
			"componentType":5126,
			"count":1640,
			"max":[
				2.680000066757202,
				4.539999961853027,
				8.000000953674316
			],
			"min":[
				-10.8149995803833,
				-8.255000114440918,
				4.29723596572876
			],
			"type":"VEC3"
		},
		{
			"bufferView":33,
			"componentType":5126,
			"count":1640,
			"type":"VEC2"
		},
		{
			"bufferView":34,
			"componentType":5126,
			"count":1640,
			"type":"VEC3"
		},
		{
			"bufferView":35,
			"componentType":5123,
			"count":2460,
			"type":"SCALAR"
		},
		{
			"bufferView":36,
			"componentType":5126,
			"count":24,
			"max":[
				-0.07427799701690674,
				4.559999942779541,
				6.572307109832764
			],
			"min":[
				-2.321485996246338,
				3.603822946548462,
				6.4799981117248535
			],
			"type":"VEC3"
		},
		{
			"bufferView":37,
			"componentType":5126,
			"count":24,
			"type":"VEC2"
		},
		{
			"bufferView":38,
			"componentType":5126,
			"count":24,
			"type":"VEC3"
		},
		{
			"bufferView":39,
			"componentType":5123,
			"count":36,
			"type":"SCALAR"
		},
		{
			"bufferView":40,
			"componentType":5126,
			"count":24,
			"max":[
				-2.950000047683716,
				8.300000190734863,
				-3.5
			],
			"min":[
				-2.9700000286102295,
				7.039999008178711,
				-3.5400009155273438
			],
			"type":"VEC3"
		},
		{
			"bufferView":41,
			"componentType":5126,
			"count":24,
			"type":"VEC2"
		},
		{
			"bufferView":42,
			"componentType":5126,
			"count":24,
			"type":"VEC3"
		},
		{
			"bufferView":43,
			"componentType":5126,
			"count":8,
			"max":[
				3.200000047683716,
				3.4000000953674316,
				6.399999141693115
			],
			"min":[
				-2.240000009536743,
				3.319999933242798,
				4.480000019073486
			],
			"type":"VEC3"
		},
		{
			"bufferView":44,
			"componentType":5126,
			"count":8,
			"type":"VEC2"
		},
		{
			"bufferView":45,
			"componentType":5126,
			"count":8,
			"type":"VEC3"
		}
	],
	"bufferViews":[
		{
			"buffer":0,
			"byteLength":2592,
			"byteOffset":0,
			"target":34962
		},
		{
			"buffer":0,
			"byteLength":1728,
			"byteOffset":2592,
			"target":34962
		},
		{
			"buffer":0,
			"byteLength":2592,
			"byteOffset":4320,
			"target":34962
		},
		{
			"buffer":0,
			"byteLength":648,
			"byteOffset":6912,
			"target":34963
		},
		{
			"buffer":0,
			"byteLength":2256,
			"byteOffset":7560,
			"target":34962
		},
		{
			"buffer":0,
			"byteLength":1504,
			"byteOffset":9816,
			"target":34962
		},
		{
			"buffer":0,
			"byteLength":2256,
			"byteOffset":11320,
			"target":34962
		},
		{
			"buffer":0,
			"byteLength":564,
			"byteOffset":13576,
			"target":34963
		},
		{
			"buffer":0,
			"byteLength":1248,
			"byteOffset":14140,
			"target":34962
		},
		{
			"buffer":0,
			"byteLength":832,
			"byteOffset":15388,
			"target":34962
		},
		{
			"buffer":0,
			"byteLength":1248,
			"byteOffset":16220,
			"target":34962
		},
		{
			"buffer":0,
			"byteLength":312,
			"byteOffset":17468,
			"target":34963
		},
		{
			"buffer":0,
			"byteLength":48,
			"byteOffset":17780,
			"target":34962
		},
		{
			"buffer":0,
			"byteLength":32,
			"byteOffset":17828,
			"target":34962
		},
		{
			"buffer":0,
			"byteLength":48,
			"byteOffset":17860,
			"target":34962
		},
		{
			"buffer":0,
			"byteLength":12,
			"byteOffset":17908,
			"target":34963
		},
		{
			"buffer":0,
			"byteLength":3168,
			"byteOffset":17920,
			"target":34962
		},
		{
			"buffer":0,
			"byteLength":2112,
			"byteOffset":21088,
			"target":34962
		},
		{
			"buffer":0,
			"byteLength":3168,
			"byteOffset":23200,
			"target":34962
		},
		{
			"buffer":0,
			"byteLength":792,
			"byteOffset":26368,
			"target":34963
		},
		{
			"buffer":0,
			"byteLength":96,
			"byteOffset":27160,
			"target":34962
		},
		{
			"buffer":0,
			"byteLength":64,
			"byteOffset":27256,
			"target":34962
		},
		{
			"buffer":0,
			"byteLength":96,
			"byteOffset":27320,
			"target":34962
		},
		{
			"buffer":0,
			"byteLength":24,
			"byteOffset":27416,
			"target":34963
		},
		{
			"buffer":0,
			"byteLength":46068,
			"byteOffset":27440,
			"target":34962
		},
		{
			"buffer":0,
			"byteLength":30712,
			"byteOffset":73508,
			"target":34962
		},
		{
			"buffer":0,
			"byteLength":46068,
			"byteOffset":104220,
			"target":34962
		},
		{
			"buffer":0,
			"byteLength":12768,
			"byteOffset":150288,
			"target":34963
		},
		{
			"buffer":0,
			"byteLength":10656,
			"byteOffset":163056,
			"target":34962
		},
		{
			"buffer":0,
			"byteLength":7104,
			"byteOffset":173712,
			"target":34962
		},
		{
			"buffer":0,
			"byteLength":10656,
			"byteOffset":180816,
			"target":34962
		},
		{
			"buffer":0,
			"byteLength":2664,
			"byteOffset":191472,
			"target":34963
		},
		{
			"buffer":0,
			"byteLength":19680,
			"byteOffset":194136,
			"target":34962
		},
		{
			"buffer":0,
			"byteLength":13120,
			"byteOffset":213816,
			"target":34962
		},
		{
			"buffer":0,
			"byteLength":19680,
			"byteOffset":226936,
			"target":34962
		},
		{
			"buffer":0,
			"byteLength":4920,
			"byteOffset":246616,
			"target":34963
		},
		{
			"buffer":0,
			"byteLength":288,
			"byteOffset":251536,
			"target":34962
		},
		{
			"buffer":0,
			"byteLength":192,
			"byteOffset":251824,
			"target":34962
		},
		{
			"buffer":0,
			"byteLength":288,
			"byteOffset":252016,
			"target":34962
		},
		{
			"buffer":0,
			"byteLength":72,
			"byteOffset":252304,
			"target":34963
		},
		{
			"buffer":0,
			"byteLength":288,
			"byteOffset":252376,
			"target":34962
		},
		{
			"buffer":0,
			"byteLength":192,
			"byteOffset":252664,
			"target":34962
		},
		{
			"buffer":0,
			"byteLength":288,
			"byteOffset":252856,
			"target":34962
		},
		{
			"buffer":0,
			"byteLength":96,
			"byteOffset":253144,
			"target":34962
		},
		{
			"buffer":0,
			"byteLength":64,
			"byteOffset":253240,
			"target":34962
		},
		{
			"buffer":0,
			"byteLength":96,
			"byteOffset":253304,
			"target":34962
		}
	],
	"samplers":[
		{
			"magFilter":9729,
			"minFilter":9987
		}
	],
	"buffers":[
		{
			"byteLength":253400,
			"uri":"RZ_room2_servers.bin"
		}
	]
}
