{
	"asset":{
		"generator":"Khronos glTF Blender I/O v3.6.27",
		"version":"2.0"
	},
	"extensionsUsed":[
		"KHR_materials_specular",
		"KHR_materials_ior"
	],
	"scene":0,
	"scenes":[
		{
			"name":"Scene",
			"nodes":[
				0
			]
		}
	],
	"nodes":[
		{
			"mesh":0,
			"name":"OZ_room2.001",
			"rotation":[
				0.7071068286895752,
				0,
				0,
				0.7071068286895752
			]
		}
	],
	"materials":[
		{
			"doubleSided":true,
			"extensions":{
				"KHR_materials_specular":{
					"specularColorFactor":[
						2.371357614441398,
						2.371357614441398,
						2.371357614441398
					]
				},
				"KHR_materials_ior":{
					"ior":1.4500000476837158
				}
			},
			"name":"mat0.005",
			"pbrMetallicRoughness":{
				"baseColorTexture":{
					"index":0
				},
				"metallicFactor":0
			}
		},
		{
			"doubleSided":true,
			"extensions":{
				"KHR_materials_specular":{
					"specularColorFactor":[
						2.371357614441398,
						2.371357614441398,
						2.371357614441398
					]
				},
				"KHR_materials_ior":{
					"ior":1.4500000476837158
				}
			},
			"name":"mat1.005",
			"pbrMetallicRoughness":{
				"baseColorTexture":{
					"index":1
				},
				"metallicFactor":0
			}
		},
		{
			"doubleSided":true,
			"extensions":{
				"KHR_materials_specular":{
					"specularColorFactor":[
						2.371357614441398,
						2.371357614441398,
						2.371357614441398
					]
				},
				"KHR_materials_ior":{
					"ior":1.4500000476837158
				}
			},
			"name":"mat2.005",
			"pbrMetallicRoughness":{
				"baseColorTexture":{
					"index":2
				},
				"metallicFactor":0
			}
		},
		{
			"doubleSided":true,
			"extensions":{
				"KHR_materials_specular":{
					"specularColorFactor":[
						2.371357614441398,
						2.371357614441398,
						2.371357614441398
					]
				},
				"KHR_materials_ior":{
					"ior":1.4500000476837158
				}
			},
			"name":"mat3.005",
			"pbrMetallicRoughness":{
				"baseColorTexture":{
					"index":3
				},
				"metallicFactor":0
			}
		},
		{
			"doubleSided":true,
			"extensions":{
				"KHR_materials_specular":{
					"specularColorFactor":[
						2.371357614441398,
						2.371357614441398,
						2.371357614441398
					]
				},
				"KHR_materials_ior":{
					"ior":1.4500000476837158
				}
			},
			"name":"mat4.005",
			"pbrMetallicRoughness":{
				"baseColorTexture":{
					"index":4
				},
				"metallicFactor":0
			}
		},
		{
			"doubleSided":true,
			"extensions":{
				"KHR_materials_specular":{
					"specularColorFactor":[
						2.371357614441398,
						2.371357614441398,
						2.371357614441398
					]
				},
				"KHR_materials_ior":{
					"ior":1.4500000476837158
				}
			},
			"name":"mat5.005",
			"pbrMetallicRoughness":{
				"baseColorTexture":{
					"index":5
				},
				"metallicFactor":0
			}
		}
	],
	"meshes":[
		{
			"name":"OZ_room2.001",
			"primitives":[
				{
					"attributes":{
						"POSITION":0,
						"NORMAL":1,
						"TEXCOORD_0":2
					},
					"indices":3,
					"material":0
				},
				{
					"attributes":{
						"POSITION":4,
						"NORMAL":5,
						"TEXCOORD_0":6
					},
					"indices":7,
					"material":1
				},
				{
					"attributes":{
						"POSITION":8,
						"NORMAL":9,
						"TEXCOORD_0":10
					},
					"indices":11,
					"material":2
				},
				{
					"attributes":{
						"POSITION":12,
						"NORMAL":13,
						"TEXCOORD_0":14
					},
					"indices":15,
					"material":3
				},
				{
					"attributes":{
						"POSITION":16,
						"NORMAL":17,
						"TEXCOORD_0":18
					},
					"indices":19,
					"material":4
				},
				{
					"attributes":{
						"POSITION":20,
						"NORMAL":21,
						"TEXCOORD_0":22
					},
					"indices":23,
					"material":5
				}
			]
		}
	],
	"textures":[
		{
			"sampler":0,
			"source":0
		},
		{
			"sampler":0,
			"source":1
		},
		{
			"sampler":0,
			"source":2
		},
		{
			"sampler":0,
			"source":3
		},
		{
			"sampler":0,
			"source":4
		},
		{
			"sampler":0,
			"source":5
		}
	],
	"images":[
		{
			"mimeType":"image/jpeg",
			"name":"officewall",
			"uri":"officewall.jpg"
		},
		{
			"mimeType":"image/jpeg",
			"name":"ceiling",
			"uri":"ceiling.jpg"
		},
		{
			"mimeType":"image/jpeg",
			"name":"misc",
			"uri":"misc.jpg"
		},
		{
			"mimeType":"image/jpeg",
			"name":"tilefloor",
			"uri":"tilefloor.jpg"
		},
		{
			"mimeType":"image/jpeg",
			"name":"metal",
			"uri":"metal.jpg"
		},
		{
			"mimeType":"image/jpeg",
			"name":"metalpanels",
			"uri":"metalpanels.jpg"
		}
	],
	"accessors":[
		{
			"bufferView":0,
			"componentType":5126,
			"count":60,
			"max":[
				2.559999942779541,
				10.240001678466797,
				1.9999999949504854e-06
			],
			"min":[
				-2.559999942779541,
				-10.239999771118164,
				-3.8400020599365234
			],
			"type":"VEC3"
		},
		{
			"bufferView":1,
			"componentType":5126,
			"count":60,
			"type":"VEC3"
		},
		{
			"bufferView":2,
			"componentType":5126,
			"count":60,
			"type":"VEC2"
		},
		{
			"bufferView":3,
			"componentType":5123,
			"count":90,
			"type":"SCALAR"
		},
		{
			"bufferView":4,
			"componentType":5126,
			"count":40,
			"max":[
				2.559999942779541,
				10.24000072479248,
				-3.8399980068206787
			],
			"min":[
				-2.559999942779541,
				-10.239998817443848,
				-4.160000801086426
			],
			"type":"VEC3"
		},
		{
			"bufferView":5,
			"componentType":5126,
			"count":40,
			"type":"VEC3"
		},
		{
			"bufferView":6,
			"componentType":5126,
			"count":40,
			"type":"VEC2"
		},
		{
			"bufferView":7,
			"componentType":5123,
			"count":60,
			"type":"SCALAR"
		},
		{
			"bufferView":8,
			"componentType":5126,
			"count":32,
			"max":[
				0.8399999737739563,
				10.24000072479248,
				-3.8399980068206787
			],
			"min":[
				-0.8399999737739563,
				-9.919999122619629,
				-4.160000801086426
			],
			"type":"VEC3"
		},
		{
			"bufferView":9,
			"componentType":5126,
			"count":32,
			"type":"VEC3"
		},
		{
			"bufferView":10,
			"componentType":5126,
			"count":32,
			"type":"VEC2"
		},
		{
			"bufferView":11,
			"componentType":5123,
			"count":48,
			"type":"SCALAR"
		},
		{
			"bufferView":12,
			"componentType":5126,
			"count":24,
			"max":[
				2.559999942779541,
				10.239999771118164,
				0.010002000257372856
			],
			"min":[
				-2.559999942779541,
				-10.239999771118164,
				-1.9999999949504854e-06
			],
			"type":"VEC3"
		},
		{
			"bufferView":13,
			"componentType":5126,
			"count":24,
			"type":"VEC3"
		},
		{
			"bufferView":14,
			"componentType":5126,
			"count":24,
			"type":"VEC2"
		},
		{
			"bufferView":15,
			"componentType":5123,
			"count":36,
			"type":"SCALAR"
		},
		{
			"bufferView":16,
			"componentType":5126,
			"count":480,
			"max":[
				-1.475000023841858,
				-4.695000171661377,
				-9.999999974752427e-07
			],
			"min":[
				-2.2049999237060547,
				-9.875,
				-1.2600020170211792
			],
			"type":"VEC3"
		},
		{
			"bufferView":17,
			"componentType":5126,
			"count":480,
			"type":"VEC3"
		},
		{
			"bufferView":18,
			"componentType":5126,
			"count":480,
			"type":"VEC2"
		},
		{
			"bufferView":19,
			"componentType":5123,
			"count":720,
			"type":"SCALAR"
		},
		{
			"bufferView":20,
			"componentType":5126,
			"count":432,
			"max":[
				-1.5049999952316284,
				-4.824999809265137,
				-0.7000010013580322
			],
			"min":[
				-2.175916910171509,
				-9.744999885559082,
				-1.2211459875106812
			],
			"type":"VEC3"
		},
		{
			"bufferView":21,
			"componentType":5126,
			"count":432,
			"type":"VEC3"
		},
		{
			"bufferView":22,
			"componentType":5126,
			"count":432,
			"type":"VEC2"
		},
		{
			"bufferView":23,
			"componentType":5123,
			"count":648,
			"type":"SCALAR"
		}
	],
	"bufferViews":[
		{
			"buffer":0,
			"byteLength":720,
			"byteOffset":0,
			"target":34962
		},
		{
			"buffer":0,
			"byteLength":720,
			"byteOffset":720,
			"target":34962
		},
		{
			"buffer":0,
			"byteLength":480,
			"byteOffset":1440,
			"target":34962
		},
		{
			"buffer":0,
			"byteLength":180,
			"byteOffset":1920,
			"target":34963
		},
		{
			"buffer":0,
			"byteLength":480,
			"byteOffset":2100,
			"target":34962
		},
		{
			"buffer":0,
			"byteLength":480,
			"byteOffset":2580,
			"target":34962
		},
		{
			"buffer":0,
			"byteLength":320,
			"byteOffset":3060,
			"target":34962
		},
		{
			"buffer":0,
			"byteLength":120,
			"byteOffset":3380,
			"target":34963
		},
		{
			"buffer":0,
			"byteLength":384,
			"byteOffset":3500,
			"target":34962
		},
		{
			"buffer":0,
			"byteLength":384,
			"byteOffset":3884,
			"target":34962
		},
		{
			"buffer":0,
			"byteLength":256,
			"byteOffset":4268,
			"target":34962
		},
		{
			"buffer":0,
			"byteLength":96,
			"byteOffset":4524,
			"target":34963
		},
		{
			"buffer":0,
			"byteLength":288,
			"byteOffset":4620,
			"target":34962
		},
		{
			"buffer":0,
			"byteLength":288,
			"byteOffset":4908,
			"target":34962
		},
		{
			"buffer":0,
			"byteLength":192,
			"byteOffset":5196,
			"target":34962
		},
		{
			"buffer":0,
			"byteLength":72,
			"byteOffset":5388,
			"target":34963
		},
		{
			"buffer":0,
			"byteLength":5760,
			"byteOffset":5460,
			"target":34962
		},
		{
			"buffer":0,
			"byteLength":5760,
			"byteOffset":11220,
			"target":34962
		},
		{
			"buffer":0,
			"byteLength":3840,
			"byteOffset":16980,
			"target":34962
		},
		{
			"buffer":0,
			"byteLength":1440,
			"byteOffset":20820,
			"target":34963
		},
		{
			"buffer":0,
			"byteLength":5184,
			"byteOffset":22260,
			"target":34962
		},
		{
			"buffer":0,
			"byteLength":5184,
			"byteOffset":27444,
			"target":34962
		},
		{
			"buffer":0,
			"byteLength":3456,
			"byteOffset":32628,
			"target":34962
		},
		{
			"buffer":0,
			"byteLength":1296,
			"byteOffset":36084,
			"target":34963
		}
	],
	"samplers":[
		{
			"magFilter":9729,
			"minFilter":9987
		}
	],
	"buffers":[
		{
			"byteLength":37380,
			"uri":"RZ_room2.bin"
		}
	]
}
