{
	"asset":{
		"generator":"Khronos glTF Blender I/O v3.5.30",
		"version":"2.0"
	},
	"extensionsUsed":[
		"KHR_materials_specular",
		"KHR_materials_ior"
	],
	"scene":0,
	"scenes":[
		{
			"name":"Scene",
			"nodes":[
				0
			]
		}
	],
	"nodes":[
		{
			"mesh":0,
			"name":"room2toilets"
		}
	],
	"materials":[
		{
			"doubleSided":true,
			"extensions":{
				"KHR_materials_specular":{
					"specularColorFactor":[
						2.371357614441398,
						2.371357614441398,
						2.371357614441398
					]
				},
				"KHR_materials_ior":{
					"ior":1.4500000476837158
				}
			},
			"name":"mat0.002",
			"pbrMetallicRoughness":{
				"baseColorTexture":{
					"index":0
				},
				"metallicFactor":0
			}
		},
		{
			"doubleSided":true,
			"extensions":{
				"KHR_materials_specular":{
					"specularColorFactor":[
						2.371357614441398,
						2.371357614441398,
						2.371357614441398
					]
				},
				"KHR_materials_ior":{
					"ior":1.4500000476837158
				}
			},
			"name":"mat1.002",
			"pbrMetallicRoughness":{
				"baseColorTexture":{
					"index":1
				},
				"metallicFactor":0
			}
		},
		{
			"doubleSided":true,
			"extensions":{
				"KHR_materials_specular":{
					"specularColorFactor":[
						2.371357614441398,
						2.371357614441398,
						2.371357614441398
					]
				},
				"KHR_materials_ior":{
					"ior":1.4500000476837158
				}
			},
			"name":"mat2.002",
			"pbrMetallicRoughness":{
				"baseColorTexture":{
					"index":2
				},
				"metallicFactor":0
			}
		},
		{
			"doubleSided":true,
			"extensions":{
				"KHR_materials_specular":{
					"specularColorFactor":[
						2.371357614441398,
						2.371357614441398,
						2.371357614441398
					]
				},
				"KHR_materials_ior":{
					"ior":1.4500000476837158
				}
			},
			"name":"mat3.002",
			"pbrMetallicRoughness":{
				"baseColorTexture":{
					"index":3
				},
				"metallicFactor":0
			}
		},
		{
			"doubleSided":true,
			"extensions":{
				"KHR_materials_specular":{
					"specularColorFactor":[
						2.371357614441398,
						2.371357614441398,
						2.371357614441398
					]
				},
				"KHR_materials_ior":{
					"ior":1.4500000476837158
				}
			},
			"name":"mat4.002",
			"pbrMetallicRoughness":{
				"baseColorTexture":{
					"index":4
				},
				"metallicFactor":0
			}
		},
		{
			"doubleSided":true,
			"extensions":{
				"KHR_materials_specular":{
					"specularColorFactor":[
						2.371357614441398,
						2.371357614441398,
						2.371357614441398
					]
				},
				"KHR_materials_ior":{
					"ior":1.4500000476837158
				}
			},
			"name":"mat5.002",
			"pbrMetallicRoughness":{
				"baseColorTexture":{
					"index":5
				},
				"metallicFactor":0
			}
		},
		{
			"doubleSided":true,
			"extensions":{
				"KHR_materials_specular":{
					"specularColorFactor":[
						2.371357614441398,
						2.371357614441398,
						2.371357614441398
					]
				},
				"KHR_materials_ior":{
					"ior":1.4500000476837158
				}
			},
			"name":"mat6.002",
			"pbrMetallicRoughness":{
				"baseColorTexture":{
					"index":6
				},
				"metallicFactor":0
			}
		},
		{
			"doubleSided":true,
			"extensions":{
				"KHR_materials_specular":{
					"specularColorFactor":[
						2.371357614441398,
						2.371357614441398,
						2.371357614441398
					]
				},
				"KHR_materials_ior":{
					"ior":1.4500000476837158
				}
			},
			"name":"mat7.002",
			"pbrMetallicRoughness":{
				"baseColorTexture":{
					"index":7
				},
				"metallicFactor":0
			}
		},
		{
			"doubleSided":true,
			"extensions":{
				"KHR_materials_specular":{
					"specularColorFactor":[
						2.371357614441398,
						2.371357614441398,
						2.371357614441398
					]
				},
				"KHR_materials_ior":{
					"ior":1.4500000476837158
				}
			},
			"name":"mat8.002",
			"pbrMetallicRoughness":{
				"baseColorTexture":{
					"index":8
				},
				"metallicFactor":0
			}
		}
	],
	"meshes":[
		{
			"name":"room2toilets",
			"primitives":[
				{
					"attributes":{
						"POSITION":0,
						"TEXCOORD_0":1,
						"NORMAL":2
					},
					"indices":3,
					"material":0
				},
				{
					"attributes":{
						"POSITION":4,
						"TEXCOORD_0":5,
						"NORMAL":6
					},
					"indices":7,
					"material":1
				},
				{
					"attributes":{
						"POSITION":8,
						"TEXCOORD_0":9,
						"NORMAL":10
					},
					"indices":11,
					"material":2
				},
				{
					"attributes":{
						"POSITION":12,
						"TEXCOORD_0":13,
						"NORMAL":14
					},
					"indices":15,
					"material":3
				},
				{
					"attributes":{
						"POSITION":16,
						"TEXCOORD_0":17,
						"NORMAL":18
					},
					"indices":19,
					"material":4
				},
				{
					"attributes":{
						"POSITION":20,
						"TEXCOORD_0":21,
						"NORMAL":22
					},
					"indices":23,
					"material":5
				},
				{
					"attributes":{
						"POSITION":24,
						"TEXCOORD_0":25,
						"NORMAL":26
					},
					"indices":11,
					"material":6
				},
				{
					"attributes":{
						"POSITION":27,
						"TEXCOORD_0":28,
						"NORMAL":29
					},
					"indices":30,
					"material":7
				},
				{
					"attributes":{
						"POSITION":31,
						"TEXCOORD_0":32,
						"NORMAL":33
					},
					"indices":34,
					"material":8
				}
			]
		}
	],
	"textures":[
		{
			"sampler":0,
			"source":0
		},
		{
			"sampler":0,
			"source":1
		},
		{
			"sampler":0,
			"source":2
		},
		{
			"sampler":0,
			"source":3
		},
		{
			"sampler":0,
			"source":4
		},
		{
			"sampler":0,
			"source":5
		},
		{
			"sampler":0,
			"source":6
		},
		{
			"sampler":0,
			"source":7
		},
		{
			"sampler":0,
			"source":8
		}
	],
	"images":[
		{
			"mimeType":"image/jpeg",
			"name":"whitewall",
			"uri":"whitewall.jpg"
		},
		{
			"mimeType":"image/jpeg",
			"name":"white",
			"uri":"white.jpg"
		},
		{
			"mimeType":"image/jpeg",
			"name":"concretefloor",
			"uri":"concretefloor.jpg"
		},
		{
			"mimeType":"image/jpeg",
			"name":"misc",
			"uri":"misc.jpg"
		},
		{
			"mimeType":"image/jpeg",
			"name":"dirtymetal",
			"uri":"dirtymetal.jpg"
		},
		{
			"mimeType":"image/jpeg",
			"name":"metal",
			"uri":"metal.jpg"
		},
		{
			"mimeType":"image/jpeg",
			"name":"tilefloor",
			"uri":"tilefloor.jpg"
		},
		{
			"mimeType":"image/jpeg",
			"name":"miscsigns",
			"uri":"miscsigns.jpg"
		},
		{
			"mimeType":"image/jpeg",
			"name":"officewall",
			"uri":"officewall.jpg"
		}
	],
	"accessors":[
		{
			"bufferView":0,
			"componentType":5126,
			"count":3002,
			"max":[
				-2.559999942779541,
				3.8400042057037354,
				8.000000953674316
			],
			"min":[
				-15.679999351501465,
				-5.423569746199064e-06,
				-7.999999523162842
			],
			"type":"VEC3"
		},
		{
			"bufferView":1,
			"componentType":5126,
			"count":3002,
			"type":"VEC2"
		},
		{
			"bufferView":2,
			"componentType":5126,
			"count":3002,
			"type":"VEC3"
		},
		{
			"bufferView":3,
			"componentType":5123,
			"count":10152,
			"type":"SCALAR"
		},
		{
			"bufferView":4,
			"componentType":5126,
			"count":3564,
			"max":[
				-2.559999942779541,
				3.8400042057037354,
				8.000000953674316
			],
			"min":[
				-15.359999656677246,
				-5.423569746199064e-06,
				-7.999999523162842
			],
			"type":"VEC3"
		},
		{
			"bufferView":5,
			"componentType":5126,
			"count":3564,
			"type":"VEC2"
		},
		{
			"bufferView":6,
			"componentType":5126,
			"count":3564,
			"type":"VEC3"
		},
		{
			"bufferView":7,
			"componentType":5123,
			"count":8370,
			"type":"SCALAR"
		},
		{
			"bufferView":8,
			"componentType":5126,
			"count":4,
			"max":[
				3.200000047683716,
				3.840005874633789,
				10.240001678466797
			],
			"min":[
				-15.679999351501465,
				3.839993715286255,
				-10.239995956420898
			],
			"type":"VEC3"
		},
		{
			"bufferView":9,
			"componentType":5126,
			"count":4,
			"type":"VEC2"
		},
		{
			"bufferView":10,
			"componentType":5126,
			"count":4,
			"type":"VEC3"
		},
		{
			"bufferView":11,
			"componentType":5123,
			"count":6,
			"type":"SCALAR"
		},
		{
			"bufferView":12,
			"componentType":5126,
			"count":264,
			"max":[
				0.11043799668550491,
				3.8686845302581787,
				7.5199995040893555
			],
			"min":[
				-13.279999732971191,
				-4.278155756765045e-06,
				-7.5199995040893555
			],
			"type":"VEC3"
		},
		{
			"bufferView":13,
			"componentType":5126,
			"count":264,
			"type":"VEC2"
		},
		{
			"bufferView":14,
			"componentType":5126,
			"count":264,
			"type":"VEC3"
		},
		{
			"bufferView":15,
			"componentType":5123,
			"count":396,
			"type":"SCALAR"
		},
		{
			"bufferView":16,
			"componentType":5126,
			"count":4686,
			"max":[
				2.9600000381469727,
				3.7799997329711914,
				8.960002899169922
			],
			"min":[
				-15.279999732971191,
				0.6399980783462524,
				-7.679995536804199
			],
			"type":"VEC3"
		},
		{
			"bufferView":17,
			"componentType":5126,
			"count":4686,
			"type":"VEC2"
		},
		{
			"bufferView":18,
			"componentType":5126,
			"count":4686,
			"type":"VEC3"
		},
		{
			"bufferView":19,
			"componentType":5123,
			"count":7668,
			"type":"SCALAR"
		},
		{
			"bufferView":20,
			"componentType":5126,
			"count":24,
			"max":[
				-6.119999885559082,
				3.5200014114379883,
				2.6400017738342285
			],
			"min":[
				-15.239999771118164,
				0.319998174905777,
				-2.6310367584228516
			],
			"type":"VEC3"
		},
		{
			"bufferView":21,
			"componentType":5126,
			"count":24,
			"type":"VEC2"
		},
		{
			"bufferView":22,
			"componentType":5126,
			"count":24,
			"type":"VEC3"
		},
		{
			"bufferView":23,
			"componentType":5123,
			"count":36,
			"type":"SCALAR"
		},
		{
			"bufferView":24,
			"componentType":5126,
			"count":4,
			"max":[
				2.559999942779541,
				6.102169209043495e-06,
				10.239998817443848
			],
			"min":[
				-15.679999351501465,
				-6.102169209043495e-06,
				-10.239998817443848
			],
			"type":"VEC3"
		},
		{
			"bufferView":25,
			"componentType":5126,
			"count":4,
			"type":"VEC2"
		},
		{
			"bufferView":26,
			"componentType":5126,
			"count":4,
			"type":"VEC3"
		},
		{
			"bufferView":27,
			"componentType":5126,
			"count":72,
			"max":[
				-1.6799999475479126,
				3.7599997520446777,
				1.8350017070770264
			],
			"min":[
				-5.125,
				2.319998264312744,
				-1.8449981212615967
			],
			"type":"VEC3"
		},
		{
			"bufferView":28,
			"componentType":5126,
			"count":72,
			"type":"VEC2"
		},
		{
			"bufferView":29,
			"componentType":5126,
			"count":72,
			"type":"VEC3"
		},
		{
			"bufferView":30,
			"componentType":5123,
			"count":108,
			"type":"SCALAR"
		},
		{
			"bufferView":31,
			"componentType":5126,
			"count":296,
			"max":[
				3.0399999618530273,
				3.840005874633789,
				10.240001678466797
			],
			"min":[
				-2.559999942779541,
				-6.102169209043495e-06,
				-10.239998817443848
			],
			"type":"VEC3"
		},
		{
			"bufferView":32,
			"componentType":5126,
			"count":296,
			"type":"VEC2"
		},
		{
			"bufferView":33,
			"componentType":5126,
			"count":296,
			"type":"VEC3"
		},
		{
			"bufferView":34,
			"componentType":5123,
			"count":444,
			"type":"SCALAR"
		}
	],
	"bufferViews":[
		{
			"buffer":0,
			"byteLength":36024,
			"byteOffset":0,
			"target":34962
		},
		{
			"buffer":0,
			"byteLength":24016,
			"byteOffset":36024,
			"target":34962
		},
		{
			"buffer":0,
			"byteLength":36024,
			"byteOffset":60040,
			"target":34962
		},
		{
			"buffer":0,
			"byteLength":20304,
			"byteOffset":96064,
			"target":34963
		},
		{
			"buffer":0,
			"byteLength":42768,
			"byteOffset":116368,
			"target":34962
		},
		{
			"buffer":0,
			"byteLength":28512,
			"byteOffset":159136,
			"target":34962
		},
		{
			"buffer":0,
			"byteLength":42768,
			"byteOffset":187648,
			"target":34962
		},
		{
			"buffer":0,
			"byteLength":16740,
			"byteOffset":230416,
			"target":34963
		},
		{
			"buffer":0,
			"byteLength":48,
			"byteOffset":247156,
			"target":34962
		},
		{
			"buffer":0,
			"byteLength":32,
			"byteOffset":247204,
			"target":34962
		},
		{
			"buffer":0,
			"byteLength":48,
			"byteOffset":247236,
			"target":34962
		},
		{
			"buffer":0,
			"byteLength":12,
			"byteOffset":247284,
			"target":34963
		},
		{
			"buffer":0,
			"byteLength":3168,
			"byteOffset":247296,
			"target":34962
		},
		{
			"buffer":0,
			"byteLength":2112,
			"byteOffset":250464,
			"target":34962
		},
		{
			"buffer":0,
			"byteLength":3168,
			"byteOffset":252576,
			"target":34962
		},
		{
			"buffer":0,
			"byteLength":792,
			"byteOffset":255744,
			"target":34963
		},
		{
			"buffer":0,
			"byteLength":56232,
			"byteOffset":256536,
			"target":34962
		},
		{
			"buffer":0,
			"byteLength":37488,
			"byteOffset":312768,
			"target":34962
		},
		{
			"buffer":0,
			"byteLength":56232,
			"byteOffset":350256,
			"target":34962
		},
		{
			"buffer":0,
			"byteLength":15336,
			"byteOffset":406488,
			"target":34963
		},
		{
			"buffer":0,
			"byteLength":288,
			"byteOffset":421824,
			"target":34962
		},
		{
			"buffer":0,
			"byteLength":192,
			"byteOffset":422112,
			"target":34962
		},
		{
			"buffer":0,
			"byteLength":288,
			"byteOffset":422304,
			"target":34962
		},
		{
			"buffer":0,
			"byteLength":72,
			"byteOffset":422592,
			"target":34963
		},
		{
			"buffer":0,
			"byteLength":48,
			"byteOffset":422664,
			"target":34962
		},
		{
			"buffer":0,
			"byteLength":32,
			"byteOffset":422712,
			"target":34962
		},
		{
			"buffer":0,
			"byteLength":48,
			"byteOffset":422744,
			"target":34962
		},
		{
			"buffer":0,
			"byteLength":864,
			"byteOffset":422792,
			"target":34962
		},
		{
			"buffer":0,
			"byteLength":576,
			"byteOffset":423656,
			"target":34962
		},
		{
			"buffer":0,
			"byteLength":864,
			"byteOffset":424232,
			"target":34962
		},
		{
			"buffer":0,
			"byteLength":216,
			"byteOffset":425096,
			"target":34963
		},
		{
			"buffer":0,
			"byteLength":3552,
			"byteOffset":425312,
			"target":34962
		},
		{
			"buffer":0,
			"byteLength":2368,
			"byteOffset":428864,
			"target":34962
		},
		{
			"buffer":0,
			"byteLength":3552,
			"byteOffset":431232,
			"target":34962
		},
		{
			"buffer":0,
			"byteLength":888,
			"byteOffset":434784,
			"target":34963
		}
	],
	"samplers":[
		{
			"magFilter":9729,
			"minFilter":9987
		}
	],
	"buffers":[
		{
			"byteLength":435672,
			"uri":"RZ_room2_toilets.bin"
		}
	]
}
