{
	"asset":{
		"generator":"Khronos glTF Blender I/O v3.5.30",
		"version":"2.0"
	},
	"extensionsUsed":[
		"KHR_materials_specular",
		"KHR_materials_ior"
	],
	"scene":0,
	"scenes":[
		{
			"name":"Scene",
			"nodes":[
				0
			]
		}
	],
	"nodes":[
		{
			"mesh":0,
			"name":"RZ_room2_offices2",
			"rotation":[
				0.7071068286895752,
				0,
				0,
				0.7071068286895752
			]
		}
	],
	"materials":[
		{
			"doubleSided":true,
			"extensions":{
				"KHR_materials_specular":{
					"specularColorFactor":[
						2.371357614441398,
						2.371357614441398,
						2.371357614441398
					]
				},
				"KHR_materials_ior":{
					"ior":1.4500000476837158
				}
			},
			"name":"mat0.004",
			"pbrMetallicRoughness":{
				"baseColorTexture":{
					"index":0
				},
				"metallicFactor":0,
				"roughnessFactor":0.9505894184112549
			}
		},
		{
			"doubleSided":true,
			"extensions":{
				"KHR_materials_specular":{
					"specularColorFactor":[
						2.371357614441398,
						2.371357614441398,
						2.371357614441398
					]
				},
				"KHR_materials_ior":{
					"ior":1.4500000476837158
				}
			},
			"name":"mat1.004",
			"pbrMetallicRoughness":{
				"baseColorTexture":{
					"index":1
				},
				"metallicFactor":0,
				"roughnessFactor":0.9505894184112549
			}
		},
		{
			"doubleSided":true,
			"extensions":{
				"KHR_materials_specular":{
					"specularColorFactor":[
						2.371357614441398,
						2.371357614441398,
						2.371357614441398
					]
				},
				"KHR_materials_ior":{
					"ior":1.4500000476837158
				}
			},
			"name":"mat2.004",
			"pbrMetallicRoughness":{
				"baseColorTexture":{
					"index":2
				},
				"metallicFactor":0,
				"roughnessFactor":0.9505894184112549
			}
		},
		{
			"doubleSided":true,
			"extensions":{
				"KHR_materials_specular":{
					"specularColorFactor":[
						2.371357614441398,
						2.371357614441398,
						2.371357614441398
					]
				},
				"KHR_materials_ior":{
					"ior":1.4500000476837158
				}
			},
			"name":"mat3.004",
			"pbrMetallicRoughness":{
				"baseColorTexture":{
					"index":3
				},
				"metallicFactor":0,
				"roughnessFactor":0.9505894184112549
			}
		},
		{
			"doubleSided":true,
			"extensions":{
				"KHR_materials_specular":{
					"specularColorFactor":[
						2.371357614441398,
						2.371357614441398,
						2.371357614441398
					]
				},
				"KHR_materials_ior":{
					"ior":1.4500000476837158
				}
			},
			"name":"mat4.004",
			"pbrMetallicRoughness":{
				"baseColorTexture":{
					"index":4
				},
				"metallicFactor":0,
				"roughnessFactor":0.9505894184112549
			}
		},
		{
			"doubleSided":true,
			"extensions":{
				"KHR_materials_specular":{
					"specularColorFactor":[
						2.371357614441398,
						2.371357614441398,
						2.371357614441398
					]
				},
				"KHR_materials_ior":{
					"ior":1.4500000476837158
				}
			},
			"name":"mat5.004",
			"pbrMetallicRoughness":{
				"baseColorTexture":{
					"index":5
				},
				"metallicFactor":0,
				"roughnessFactor":0.9505894184112549
			}
		},
		{
			"doubleSided":true,
			"extensions":{
				"KHR_materials_specular":{
					"specularColorFactor":[
						2.371357614441398,
						2.371357614441398,
						2.371357614441398
					]
				},
				"KHR_materials_ior":{
					"ior":1.4500000476837158
				}
			},
			"name":"mat6.004",
			"pbrMetallicRoughness":{
				"baseColorTexture":{
					"index":6
				},
				"metallicFactor":0,
				"roughnessFactor":0.9505894184112549
			}
		},
		{
			"doubleSided":true,
			"extensions":{
				"KHR_materials_specular":{
					"specularColorFactor":[
						2.371357614441398,
						2.371357614441398,
						2.371357614441398
					]
				},
				"KHR_materials_ior":{
					"ior":1.4500000476837158
				}
			},
			"name":"mat7.004",
			"pbrMetallicRoughness":{
				"baseColorTexture":{
					"index":7
				},
				"metallicFactor":0,
				"roughnessFactor":0.9505894184112549
			}
		},
		{
			"doubleSided":true,
			"extensions":{
				"KHR_materials_specular":{
					"specularColorFactor":[
						2.371357614441398,
						2.371357614441398,
						2.371357614441398
					]
				},
				"KHR_materials_ior":{
					"ior":1.4500000476837158
				}
			},
			"name":"mat8.004",
			"pbrMetallicRoughness":{
				"baseColorTexture":{
					"index":8
				},
				"metallicFactor":0,
				"roughnessFactor":0.9505894184112549
			}
		}
	],
	"meshes":[
		{
			"name":"RZ_room2_offices2",
			"primitives":[
				{
					"attributes":{
						"POSITION":0,
						"TEXCOORD_0":1,
						"NORMAL":2
					},
					"indices":3,
					"material":0
				},
				{
					"attributes":{
						"POSITION":4,
						"TEXCOORD_0":5,
						"NORMAL":6
					},
					"indices":7,
					"material":1
				},
				{
					"attributes":{
						"POSITION":8,
						"TEXCOORD_0":9,
						"NORMAL":10
					},
					"indices":11,
					"material":2
				},
				{
					"attributes":{
						"POSITION":12,
						"TEXCOORD_0":13,
						"NORMAL":14
					},
					"indices":15,
					"material":3
				},
				{
					"attributes":{
						"POSITION":16,
						"TEXCOORD_0":17,
						"NORMAL":18
					},
					"indices":19,
					"material":4
				},
				{
					"attributes":{
						"POSITION":20,
						"TEXCOORD_0":21,
						"NORMAL":22
					},
					"indices":23,
					"material":5
				},
				{
					"attributes":{
						"POSITION":24,
						"TEXCOORD_0":25,
						"NORMAL":26
					},
					"indices":27,
					"material":6
				},
				{
					"attributes":{
						"POSITION":28,
						"TEXCOORD_0":29,
						"NORMAL":30
					},
					"indices":31,
					"material":7
				},
				{
					"attributes":{
						"POSITION":32,
						"TEXCOORD_0":33,
						"NORMAL":34
					},
					"indices":35,
					"material":8
				}
			]
		}
	],
	"textures":[
		{
			"sampler":0,
			"source":0
		},
		{
			"sampler":0,
			"source":1
		},
		{
			"sampler":0,
			"source":2
		},
		{
			"sampler":0,
			"source":3
		},
		{
			"sampler":0,
			"source":4
		},
		{
			"sampler":0,
			"source":5
		},
		{
			"sampler":0,
			"source":6
		},
		{
			"sampler":0,
			"source":7
		},
		{
			"sampler":0,
			"source":8
		}
	],
	"images":[
		{
			"mimeType":"image/jpeg",
			"name":"misc",
			"uri":"misc.jpg"
		},
		{
			"mimeType":"image/jpeg",
			"name":"ceiling",
			"uri":"ceiling.jpg"
		},
		{
			"mimeType":"image/jpeg",
			"name":"metal",
			"uri":"metal.jpg"
		},
		{
			"mimeType":"image/jpeg",
			"name":"dirtymetal",
			"uri":"dirtymetal.jpg"
		},
		{
			"mimeType":"image/jpeg",
			"name":"tilefloor",
			"uri":"tilefloor.jpg"
		},
		{
			"mimeType":"image/jpeg",
			"name":"white",
			"uri":"white.jpg"
		},
		{
			"mimeType":"image/jpeg",
			"name":"officewall",
			"uri":"officewall.jpg"
		},
		{
			"mimeType":"image/jpeg",
			"name":"controlpanel",
			"uri":"controlpanel.jpg"
		},
		{
			"mimeType":"image/jpeg",
			"name":"miscsigns3",
			"uri":"miscsigns3.jpg"
		}
	],
	"accessors":[
		{
			"bufferView":0,
			"componentType":5126,
			"count":144,
			"max":[
				0.2095620036125183,
				9.949560165405273,
				-2.1591200828552246
			],
			"min":[
				-9.939997673034668,
				-9.94956111907959,
				-3.868680953979492
			],
			"type":"VEC3"
		},
		{
			"bufferView":1,
			"componentType":5126,
			"count":144,
			"type":"VEC2"
		},
		{
			"bufferView":2,
			"componentType":5126,
			"count":144,
			"type":"VEC3"
		},
		{
			"bufferView":3,
			"componentType":5123,
			"count":216,
			"type":"SCALAR"
		},
		{
			"bufferView":4,
			"componentType":5126,
			"count":4,
			"max":[
				2.880000114440918,
				10.239999771118164,
				-3.839998960494995
			],
			"min":[
				-10.239999771118164,
				-10.239999771118164,
				-3.840001106262207
			],
			"type":"VEC3"
		},
		{
			"bufferView":5,
			"componentType":5126,
			"count":4,
			"type":"VEC2"
		},
		{
			"bufferView":6,
			"componentType":5126,
			"count":4,
			"type":"VEC3"
		},
		{
			"bufferView":7,
			"componentType":5123,
			"count":6,
			"type":"SCALAR"
		},
		{
			"bufferView":8,
			"componentType":5126,
			"count":3864,
			"max":[
				-1.5927929878234863,
				5.162217140197754,
				1.9199999570846558
			],
			"min":[
				-9.844942092895508,
				-5.116177082061768,
				0
			],
			"type":"VEC3"
		},
		{
			"bufferView":9,
			"componentType":5126,
			"count":3864,
			"type":"VEC2"
		},
		{
			"bufferView":10,
			"componentType":5126,
			"count":3864,
			"type":"VEC3"
		},
		{
			"bufferView":11,
			"componentType":5123,
			"count":5796,
			"type":"SCALAR"
		},
		{
			"bufferView":12,
			"componentType":5126,
			"count":2016,
			"max":[
				-1.5900009870529175,
				5.074571132659912,
				1.9199999570846558
			],
			"min":[
				-9.847732543945312,
				-5.079999923706055,
				0
			],
			"type":"VEC3"
		},
		{
			"bufferView":13,
			"componentType":5126,
			"count":2016,
			"type":"VEC2"
		},
		{
			"bufferView":14,
			"componentType":5126,
			"count":2016,
			"type":"VEC3"
		},
		{
			"bufferView":15,
			"componentType":5123,
			"count":3024,
			"type":"SCALAR"
		},
		{
			"bufferView":16,
			"componentType":5126,
			"count":140,
			"max":[
				2.880000114440918,
				10.239999771118164,
				1.9200010299682617
			],
			"min":[
				-10.239999771118164,
				-10.239999771118164,
				-9.999999974752427e-07
			],
			"type":"VEC3"
		},
		{
			"bufferView":17,
			"componentType":5126,
			"count":140,
			"type":"VEC2"
		},
		{
			"bufferView":18,
			"componentType":5126,
			"count":140,
			"type":"VEC3"
		},
		{
			"bufferView":19,
			"componentType":5123,
			"count":210,
			"type":"SCALAR"
		},
		{
			"bufferView":20,
			"componentType":5126,
			"count":84,
			"max":[
				-0.9599999785423279,
				10.239999771118164,
				1.9200010299682617
			],
			"min":[
				-10.239999771118164,
				-10.239999771118164,
				-9.999999974752427e-07
			],
			"type":"VEC3"
		},
		{
			"bufferView":21,
			"componentType":5126,
			"count":84,
			"type":"VEC2"
		},
		{
			"bufferView":22,
			"componentType":5126,
			"count":84,
			"type":"VEC3"
		},
		{
			"bufferView":23,
			"componentType":5123,
			"count":126,
			"type":"SCALAR"
		},
		{
			"bufferView":24,
			"componentType":5126,
			"count":184,
			"max":[
				2.880000114440918,
				10.239999771118164,
				9.999999974752427e-07
			],
			"min":[
				-10.239999771118164,
				-10.239999771118164,
				-3.840001106262207
			],
			"type":"VEC3"
		},
		{
			"bufferView":25,
			"componentType":5126,
			"count":184,
			"type":"VEC2"
		},
		{
			"bufferView":26,
			"componentType":5126,
			"count":184,
			"type":"VEC3"
		},
		{
			"bufferView":27,
			"componentType":5123,
			"count":276,
			"type":"SCALAR"
		},
		{
			"bufferView":28,
			"componentType":5126,
			"count":48,
			"max":[
				2.5607810020446777,
				5.619999885559082,
				-1.9199990034103394
			],
			"min":[
				2.5207788944244385,
				0.8199999928474426,
				-2.7200000286102295
			],
			"type":"VEC3"
		},
		{
			"bufferView":29,
			"componentType":5126,
			"count":48,
			"type":"VEC2"
		},
		{
			"bufferView":30,
			"componentType":5126,
			"count":48,
			"type":"VEC3"
		},
		{
			"bufferView":31,
			"componentType":5123,
			"count":72,
			"type":"SCALAR"
		},
		{
			"bufferView":32,
			"componentType":5126,
			"count":8,
			"max":[
				2.880000114440918,
				-2.4800000190734863,
				-1.2000000476837158
			],
			"min":[
				2.549999952316284,
				-3.640000104904175,
				-2.880000114440918
			],
			"type":"VEC3"
		},
		{
			"bufferView":33,
			"componentType":5126,
			"count":8,
			"type":"VEC2"
		},
		{
			"bufferView":34,
			"componentType":5126,
			"count":8,
			"type":"VEC3"
		},
		{
			"bufferView":35,
			"componentType":5123,
			"count":12,
			"type":"SCALAR"
		}
	],
	"bufferViews":[
		{
			"buffer":0,
			"byteLength":1728,
			"byteOffset":0,
			"target":34962
		},
		{
			"buffer":0,
			"byteLength":1152,
			"byteOffset":1728,
			"target":34962
		},
		{
			"buffer":0,
			"byteLength":1728,
			"byteOffset":2880,
			"target":34962
		},
		{
			"buffer":0,
			"byteLength":432,
			"byteOffset":4608,
			"target":34963
		},
		{
			"buffer":0,
			"byteLength":48,
			"byteOffset":5040,
			"target":34962
		},
		{
			"buffer":0,
			"byteLength":32,
			"byteOffset":5088,
			"target":34962
		},
		{
			"buffer":0,
			"byteLength":48,
			"byteOffset":5120,
			"target":34962
		},
		{
			"buffer":0,
			"byteLength":12,
			"byteOffset":5168,
			"target":34963
		},
		{
			"buffer":0,
			"byteLength":46368,
			"byteOffset":5180,
			"target":34962
		},
		{
			"buffer":0,
			"byteLength":30912,
			"byteOffset":51548,
			"target":34962
		},
		{
			"buffer":0,
			"byteLength":46368,
			"byteOffset":82460,
			"target":34962
		},
		{
			"buffer":0,
			"byteLength":11592,
			"byteOffset":128828,
			"target":34963
		},
		{
			"buffer":0,
			"byteLength":24192,
			"byteOffset":140420,
			"target":34962
		},
		{
			"buffer":0,
			"byteLength":16128,
			"byteOffset":164612,
			"target":34962
		},
		{
			"buffer":0,
			"byteLength":24192,
			"byteOffset":180740,
			"target":34962
		},
		{
			"buffer":0,
			"byteLength":6048,
			"byteOffset":204932,
			"target":34963
		},
		{
			"buffer":0,
			"byteLength":1680,
			"byteOffset":210980,
			"target":34962
		},
		{
			"buffer":0,
			"byteLength":1120,
			"byteOffset":212660,
			"target":34962
		},
		{
			"buffer":0,
			"byteLength":1680,
			"byteOffset":213780,
			"target":34962
		},
		{
			"buffer":0,
			"byteLength":420,
			"byteOffset":215460,
			"target":34963
		},
		{
			"buffer":0,
			"byteLength":1008,
			"byteOffset":215880,
			"target":34962
		},
		{
			"buffer":0,
			"byteLength":672,
			"byteOffset":216888,
			"target":34962
		},
		{
			"buffer":0,
			"byteLength":1008,
			"byteOffset":217560,
			"target":34962
		},
		{
			"buffer":0,
			"byteLength":252,
			"byteOffset":218568,
			"target":34963
		},
		{
			"buffer":0,
			"byteLength":2208,
			"byteOffset":218820,
			"target":34962
		},
		{
			"buffer":0,
			"byteLength":1472,
			"byteOffset":221028,
			"target":34962
		},
		{
			"buffer":0,
			"byteLength":2208,
			"byteOffset":222500,
			"target":34962
		},
		{
			"buffer":0,
			"byteLength":552,
			"byteOffset":224708,
			"target":34963
		},
		{
			"buffer":0,
			"byteLength":576,
			"byteOffset":225260,
			"target":34962
		},
		{
			"buffer":0,
			"byteLength":384,
			"byteOffset":225836,
			"target":34962
		},
		{
			"buffer":0,
			"byteLength":576,
			"byteOffset":226220,
			"target":34962
		},
		{
			"buffer":0,
			"byteLength":144,
			"byteOffset":226796,
			"target":34963
		},
		{
			"buffer":0,
			"byteLength":96,
			"byteOffset":226940,
			"target":34962
		},
		{
			"buffer":0,
			"byteLength":64,
			"byteOffset":227036,
			"target":34962
		},
		{
			"buffer":0,
			"byteLength":96,
			"byteOffset":227100,
			"target":34962
		},
		{
			"buffer":0,
			"byteLength":24,
			"byteOffset":227196,
			"target":34963
		}
	],
	"samplers":[
		{
			"magFilter":9729,
			"minFilter":9987
		}
	],
	"buffers":[
		{
			"byteLength":227220,
			"uri":"RZ_room2_offices2.bin"
		}
	]
}
