{
	"asset":{
		"generator":"Khronos glTF Blender I/O v3.5.30",
		"version":"2.0"
	},
	"extensionsUsed":[
		"KHR_materials_specular",
		"KHR_materials_ior"
	],
	"scene":0,
	"scenes":[
		{
			"name":"Scene",
			"nodes":[
				0
			]
		}
	],
	"nodes":[
		{
			"mesh":0,
			"name":"RZ_room2C_EC"
		}
	],
	"materials":[
		{
			"doubleSided":true,
			"extensions":{
				"KHR_materials_specular":{
					"specularColorFactor":[
						2.371357614441398,
						2.371357614441398,
						2.371357614441398
					]
				},
				"KHR_materials_ior":{
					"ior":1.4500000476837158
				}
			},
			"name":"mat0.015",
			"pbrMetallicRoughness":{
				"baseColorTexture":{
					"index":0
				},
				"metallicFactor":0,
				"roughnessFactor":0.9505894184112549
			}
		},
		{
			"doubleSided":true,
			"extensions":{
				"KHR_materials_specular":{
					"specularColorFactor":[
						2.371357614441398,
						2.371357614441398,
						2.371357614441398
					]
				},
				"KHR_materials_ior":{
					"ior":1.4500000476837158
				}
			},
			"name":"mat1.015",
			"pbrMetallicRoughness":{
				"baseColorTexture":{
					"index":1
				},
				"metallicFactor":0,
				"roughnessFactor":0.9505894184112549
			}
		},
		{
			"doubleSided":true,
			"extensions":{
				"KHR_materials_specular":{
					"specularColorFactor":[
						2.371357614441398,
						2.371357614441398,
						2.371357614441398
					]
				},
				"KHR_materials_ior":{
					"ior":1.4500000476837158
				}
			},
			"name":"mat2.015",
			"pbrMetallicRoughness":{
				"baseColorTexture":{
					"index":2
				},
				"metallicFactor":0,
				"roughnessFactor":0.9505894184112549
			}
		},
		{
			"doubleSided":true,
			"extensions":{
				"KHR_materials_specular":{
					"specularColorFactor":[
						2.371357614441398,
						2.371357614441398,
						2.371357614441398
					]
				},
				"KHR_materials_ior":{
					"ior":1.4500000476837158
				}
			},
			"name":"mat3.015",
			"pbrMetallicRoughness":{
				"baseColorTexture":{
					"index":3
				},
				"metallicFactor":0,
				"roughnessFactor":0.9505894184112549
			}
		},
		{
			"doubleSided":true,
			"extensions":{
				"KHR_materials_specular":{
					"specularColorFactor":[
						2.371357614441398,
						2.371357614441398,
						2.371357614441398
					]
				},
				"KHR_materials_ior":{
					"ior":1.4500000476837158
				}
			},
			"name":"mat4.012",
			"pbrMetallicRoughness":{
				"baseColorTexture":{
					"index":4
				},
				"metallicFactor":0,
				"roughnessFactor":0.9505894184112549
			}
		},
		{
			"doubleSided":true,
			"extensions":{
				"KHR_materials_specular":{
					"specularColorFactor":[
						2.371357614441398,
						2.371357614441398,
						2.371357614441398
					]
				},
				"KHR_materials_ior":{
					"ior":1.4500000476837158
				}
			},
			"name":"mat5.012",
			"pbrMetallicRoughness":{
				"baseColorTexture":{
					"index":5
				},
				"metallicFactor":0,
				"roughnessFactor":0.9505894184112549
			}
		},
		{
			"doubleSided":true,
			"extensions":{
				"KHR_materials_specular":{
					"specularColorFactor":[
						2.371357614441398,
						2.371357614441398,
						2.371357614441398
					]
				},
				"KHR_materials_ior":{
					"ior":1.4500000476837158
				}
			},
			"name":"mat6.010",
			"pbrMetallicRoughness":{
				"baseColorTexture":{
					"index":6
				},
				"metallicFactor":0,
				"roughnessFactor":0.9505894184112549
			}
		},
		{
			"doubleSided":true,
			"extensions":{
				"KHR_materials_specular":{
					"specularColorFactor":[
						2.371357614441398,
						2.371357614441398,
						2.371357614441398
					]
				},
				"KHR_materials_ior":{
					"ior":1.4500000476837158
				}
			},
			"name":"mat7.007",
			"pbrMetallicRoughness":{
				"baseColorTexture":{
					"index":7
				},
				"metallicFactor":0,
				"roughnessFactor":0.9505894184112549
			}
		},
		{
			"doubleSided":true,
			"extensions":{
				"KHR_materials_specular":{
					"specularColorFactor":[
						2.371357614441398,
						2.371357614441398,
						2.371357614441398
					]
				},
				"KHR_materials_ior":{
					"ior":1.4500000476837158
				}
			},
			"name":"mat8.006",
			"pbrMetallicRoughness":{
				"baseColorTexture":{
					"index":8
				},
				"metallicFactor":0,
				"roughnessFactor":0.9505894184112549
			}
		},
		{
			"doubleSided":true,
			"extensions":{
				"KHR_materials_specular":{
					"specularColorFactor":[
						2.371357614441398,
						2.371357614441398,
						2.371357614441398
					]
				},
				"KHR_materials_ior":{
					"ior":1.4500000476837158
				}
			},
			"name":"mat9.004",
			"pbrMetallicRoughness":{
				"baseColorTexture":{
					"index":9
				},
				"metallicFactor":0,
				"roughnessFactor":0.9505894184112549
			}
		},
		{
			"doubleSided":true,
			"extensions":{
				"KHR_materials_specular":{
					"specularColorFactor":[
						2.371357614441398,
						2.371357614441398,
						2.371357614441398
					]
				},
				"KHR_materials_ior":{
					"ior":1.4500000476837158
				}
			},
			"name":"mat10.004",
			"pbrMetallicRoughness":{
				"baseColorTexture":{
					"index":10
				},
				"metallicFactor":0,
				"roughnessFactor":0.9505894184112549
			}
		},
		{
			"doubleSided":true,
			"extensions":{
				"KHR_materials_specular":{
					"specularColorFactor":[
						2.371357614441398,
						2.371357614441398,
						2.371357614441398
					]
				},
				"KHR_materials_ior":{
					"ior":1.4500000476837158
				}
			},
			"name":"mat11.004",
			"pbrMetallicRoughness":{
				"baseColorTexture":{
					"index":11
				},
				"metallicFactor":0,
				"roughnessFactor":0.9505894184112549
			}
		},
		{
			"doubleSided":true,
			"extensions":{
				"KHR_materials_specular":{
					"specularColorFactor":[
						2.371357614441398,
						2.371357614441398,
						2.371357614441398
					]
				},
				"KHR_materials_ior":{
					"ior":1.4500000476837158
				}
			},
			"name":"mat12.001",
			"pbrMetallicRoughness":{
				"baseColorTexture":{
					"index":12
				},
				"metallicFactor":0,
				"roughnessFactor":0.9505894184112549
			}
		}
	],
	"meshes":[
		{
			"name":"RZ_room2C_EC",
			"primitives":[
				{
					"attributes":{
						"POSITION":0,
						"TEXCOORD_0":1,
						"NORMAL":2
					},
					"indices":3,
					"material":0
				},
				{
					"attributes":{
						"POSITION":4,
						"TEXCOORD_0":5,
						"NORMAL":6
					},
					"indices":7,
					"material":1
				},
				{
					"attributes":{
						"POSITION":8,
						"TEXCOORD_0":9,
						"NORMAL":10
					},
					"indices":11,
					"material":2
				},
				{
					"attributes":{
						"POSITION":12,
						"TEXCOORD_0":13,
						"NORMAL":14
					},
					"indices":15,
					"material":3
				},
				{
					"attributes":{
						"POSITION":16,
						"TEXCOORD_0":17,
						"NORMAL":18
					},
					"indices":19,
					"material":4
				},
				{
					"attributes":{
						"POSITION":20,
						"TEXCOORD_0":21,
						"NORMAL":22
					},
					"indices":23,
					"material":5
				},
				{
					"attributes":{
						"POSITION":24,
						"TEXCOORD_0":25,
						"NORMAL":26
					},
					"indices":27,
					"material":6
				},
				{
					"attributes":{
						"POSITION":28,
						"TEXCOORD_0":29,
						"NORMAL":30
					},
					"indices":31,
					"material":7
				},
				{
					"attributes":{
						"POSITION":32,
						"TEXCOORD_0":33,
						"NORMAL":34
					},
					"indices":35,
					"material":8
				},
				{
					"attributes":{
						"POSITION":36,
						"TEXCOORD_0":37,
						"NORMAL":38
					},
					"indices":39,
					"material":9
				},
				{
					"attributes":{
						"POSITION":40,
						"TEXCOORD_0":41,
						"NORMAL":42
					},
					"indices":43,
					"material":10
				},
				{
					"attributes":{
						"POSITION":44,
						"TEXCOORD_0":45,
						"NORMAL":46
					},
					"indices":43,
					"material":11
				},
				{
					"attributes":{
						"POSITION":47,
						"TEXCOORD_0":48,
						"NORMAL":49
					},
					"indices":50,
					"material":12
				}
			]
		}
	],
	"textures":[
		{
			"sampler":0,
			"source":0
		},
		{
			"sampler":0,
			"source":1
		},
		{
			"sampler":0,
			"source":2
		},
		{
			"sampler":0,
			"source":3
		},
		{
			"sampler":0,
			"source":4
		},
		{
			"sampler":0,
			"source":5
		},
		{
			"sampler":0,
			"source":6
		},
		{
			"sampler":0,
			"source":7
		},
		{
			"sampler":0,
			"source":8
		},
		{
			"sampler":0,
			"source":9
		},
		{
			"sampler":0,
			"source":10
		},
		{
			"sampler":0,
			"source":11
		},
		{
			"sampler":0,
			"source":12
		}
	],
	"images":[
		{
			"mimeType":"image/jpeg",
			"name":"officewall",
			"uri":"officewall.jpg"
		},
		{
			"mimeType":"image/jpeg",
			"name":"white",
			"uri":"white.jpg"
		},
		{
			"mimeType":"image/jpeg",
			"name":"misc",
			"uri":"misc.jpg"
		},
		{
			"mimeType":"image/jpeg",
			"name":"concretefloor",
			"uri":"concretefloor.jpg"
		},
		{
			"mimeType":"image/jpeg",
			"name":"controlpanel",
			"uri":"controlpanel.jpg"
		},
		{
			"mimeType":"image/jpeg",
			"name":"dirtymetal",
			"uri":"dirtymetal.jpg"
		},
		{
			"mimeType":"image/jpeg",
			"name":"metal",
			"uri":"metal.jpg"
		},
		{
			"mimeType":"image/jpeg",
			"name":"tilefloor",
			"uri":"tilefloor.jpg"
		},
		{
			"mimeType":"image/jpeg",
			"name":"miscsigns",
			"uri":"miscsigns.jpg"
		},
		{
			"mimeType":"image/jpeg",
			"name":"ceiling",
			"uri":"ceiling.jpg"
		},
		{
			"mimeType":"image/jpeg",
			"name":"chatscreen",
			"uri":"chatscreen.jpg"
		},
		{
			"mimeType":"image/jpeg",
			"name":"scplogo",
			"uri":"scplogo.jpg"
		},
		{
			"mimeType":"image/jpeg",
			"name":"vent",
			"uri":"vent.jpg"
		}
	],
	"accessors":[
		{
			"bufferView":0,
			"componentType":5126,
			"count":232,
			"max":[
				10.239999771118164,
				3.840000629425049,
				10.239999771118164
			],
			"min":[
				-3.5199999809265137,
				-3.8654923173453426e-07,
				-5.12000036239624
			],
			"type":"VEC3"
		},
		{
			"bufferView":1,
			"componentType":5126,
			"count":232,
			"type":"VEC2"
		},
		{
			"bufferView":2,
			"componentType":5126,
			"count":232,
			"type":"VEC3"
		},
		{
			"bufferView":3,
			"componentType":5123,
			"count":348,
			"type":"SCALAR"
		},
		{
			"bufferView":4,
			"componentType":5126,
			"count":480,
			"max":[
				1.9199999570846558,
				13.4399995803833,
				-0.3200000822544098
			],
			"min":[
				-22.719999313354492,
				-1.3971697399028926e-06,
				-18.239999771118164
			],
			"type":"VEC3"
		},
		{
			"bufferView":5,
			"componentType":5126,
			"count":480,
			"type":"VEC2"
		},
		{
			"bufferView":6,
			"componentType":5126,
			"count":480,
			"type":"VEC3"
		},
		{
			"bufferView":7,
			"componentType":5123,
			"count":720,
			"type":"SCALAR"
		},
		{
			"bufferView":8,
			"componentType":5126,
			"count":240,
			"max":[
				3.7099997997283936,
				12.818238258361816,
				3.989999771118164
			],
			"min":[
				-14.289999961853027,
				3.2791192531585693,
				-17.9295597076416
			],
			"type":"VEC3"
		},
		{
			"bufferView":9,
			"componentType":5126,
			"count":240,
			"type":"VEC2"
		},
		{
			"bufferView":10,
			"componentType":5126,
			"count":240,
			"type":"VEC3"
		},
		{
			"bufferView":11,
			"componentType":5123,
			"count":360,
			"type":"SCALAR"
		},
		{
			"bufferView":12,
			"componentType":5126,
			"count":425,
			"max":[
				10.239999771118164,
				12.799999237060547,
				-9.663731361797545e-07
			],
			"min":[
				-22.719999313354492,
				-6.402222538781643e-07,
				-18.240001678466797
			],
			"type":"VEC3"
		},
		{
			"bufferView":13,
			"componentType":5126,
			"count":425,
			"type":"VEC2"
		},
		{
			"bufferView":14,
			"componentType":5126,
			"count":425,
			"type":"VEC3"
		},
		{
			"bufferView":15,
			"componentType":5123,
			"count":633,
			"type":"SCALAR"
		},
		{
			"bufferView":16,
			"componentType":5126,
			"count":816,
			"max":[
				-2.319999933242798,
				12.15999984741211,
				-2.0600006580352783
			],
			"min":[
				-15.979999542236328,
				8.9597806930542,
				-11.370000839233398
			],
			"type":"VEC3"
		},
		{
			"bufferView":17,
			"componentType":5126,
			"count":816,
			"type":"VEC2"
		},
		{
			"bufferView":18,
			"componentType":5126,
			"count":816,
			"type":"VEC3"
		},
		{
			"bufferView":19,
			"componentType":5123,
			"count":1224,
			"type":"SCALAR"
		},
		{
			"bufferView":20,
			"componentType":5126,
			"count":1719,
			"max":[
				-2.240000009536743,
				12.799999237060547,
				-0.6400009393692017
			],
			"min":[
				-22.399999618530273,
				8.959999084472656,
				-17.920001983642578
			],
			"type":"VEC3"
		},
		{
			"bufferView":21,
			"componentType":5126,
			"count":1719,
			"type":"VEC2"
		},
		{
			"bufferView":22,
			"componentType":5126,
			"count":1719,
			"type":"VEC3"
		},
		{
			"bufferView":23,
			"componentType":5123,
			"count":2160,
			"type":"SCALAR"
		},
		{
			"bufferView":24,
			"componentType":5126,
			"count":216,
			"max":[
				-2.869999885559082,
				12.15999984741211,
				-0.6738238334655762
			],
			"min":[
				-7.21999979019165,
				9.920000076293945,
				-5.440001010894775
			],
			"type":"VEC3"
		},
		{
			"bufferView":25,
			"componentType":5126,
			"count":216,
			"type":"VEC2"
		},
		{
			"bufferView":26,
			"componentType":5126,
			"count":216,
			"type":"VEC3"
		},
		{
			"bufferView":27,
			"componentType":5123,
			"count":324,
			"type":"SCALAR"
		},
		{
			"bufferView":28,
			"componentType":5126,
			"count":8,
			"max":[
				10.239999771118164,
				7.730984634690685e-07,
				10.239999771118164
			],
			"min":[
				-3.5199999809265137,
				-0.640000581741333,
				-8
			],
			"type":"VEC3"
		},
		{
			"bufferView":29,
			"componentType":5126,
			"count":8,
			"type":"VEC2"
		},
		{
			"bufferView":30,
			"componentType":5126,
			"count":8,
			"type":"VEC3"
		},
		{
			"bufferView":31,
			"componentType":5123,
			"count":12,
			"type":"SCALAR"
		},
		{
			"bufferView":32,
			"componentType":5126,
			"count":168,
			"max":[
				2.6399998664855957,
				11.929999351501465,
				-3.510000228881836
			],
			"min":[
				-2.3299999237060547,
				2.559999704360962,
				-6.560000896453857
			],
			"type":"VEC3"
		},
		{
			"bufferView":33,
			"componentType":5126,
			"count":168,
			"type":"VEC2"
		},
		{
			"bufferView":34,
			"componentType":5126,
			"count":168,
			"type":"VEC3"
		},
		{
			"bufferView":35,
			"componentType":5123,
			"count":252,
			"type":"SCALAR"
		},
		{
			"bufferView":36,
			"componentType":5126,
			"count":4,
			"max":[
				10.239999771118164,
				3.840000629425049,
				10.239999771118164
			],
			"min":[
				-3.5199999809265137,
				3.8399996757507324,
				-3.8400001525878906
			],
			"type":"VEC3"
		},
		{
			"bufferView":37,
			"componentType":5126,
			"count":4,
			"type":"VEC2"
		},
		{
			"bufferView":38,
			"componentType":5126,
			"count":4,
			"type":"VEC3"
		},
		{
			"bufferView":39,
			"componentType":5123,
			"count":6,
			"type":"SCALAR"
		},
		{
			"bufferView":40,
			"componentType":5126,
			"count":24,
			"max":[
				-2.319999933242798,
				11.239999771118164,
				-2.3600106239318848
			],
			"min":[
				-2.3299999237060547,
				10.679999351501465,
				-3.0800108909606934
			],
			"type":"VEC3"
		},
		{
			"bufferView":41,
			"componentType":5126,
			"count":24,
			"type":"VEC2"
		},
		{
			"bufferView":42,
			"componentType":5126,
			"count":24,
			"type":"VEC3"
		},
		{
			"bufferView":43,
			"componentType":5123,
			"count":36,
			"type":"SCALAR"
		},
		{
			"bufferView":44,
			"componentType":5126,
			"count":24,
			"max":[
				-2.319999933242798,
				12.079999923706055,
				-2.640000820159912
			],
			"min":[
				-2.3299999237060547,
				11.59999942779541,
				-4.160000801086426
			],
			"type":"VEC3"
		},
		{
			"bufferView":45,
			"componentType":5126,
			"count":24,
			"type":"VEC2"
		},
		{
			"bufferView":46,
			"componentType":5126,
			"count":24,
			"type":"VEC3"
		},
		{
			"bufferView":47,
			"componentType":5126,
			"count":72,
			"max":[
				7.349999904632568,
				1.7600005865097046,
				7.359999656677246
			],
			"min":[
				-3.1999998092651367,
				0.4699997901916504,
				-2.880000114440918
			],
			"type":"VEC3"
		},
		{
			"bufferView":48,
			"componentType":5126,
			"count":72,
			"type":"VEC2"
		},
		{
			"bufferView":49,
			"componentType":5126,
			"count":72,
			"type":"VEC3"
		},
		{
			"bufferView":50,
			"componentType":5123,
			"count":108,
			"type":"SCALAR"
		}
	],
	"bufferViews":[
		{
			"buffer":0,
			"byteLength":2784,
			"byteOffset":0,
			"target":34962
		},
		{
			"buffer":0,
			"byteLength":1856,
			"byteOffset":2784,
			"target":34962
		},
		{
			"buffer":0,
			"byteLength":2784,
			"byteOffset":4640,
			"target":34962
		},
		{
			"buffer":0,
			"byteLength":696,
			"byteOffset":7424,
			"target":34963
		},
		{
			"buffer":0,
			"byteLength":5760,
			"byteOffset":8120,
			"target":34962
		},
		{
			"buffer":0,
			"byteLength":3840,
			"byteOffset":13880,
			"target":34962
		},
		{
			"buffer":0,
			"byteLength":5760,
			"byteOffset":17720,
			"target":34962
		},
		{
			"buffer":0,
			"byteLength":1440,
			"byteOffset":23480,
			"target":34963
		},
		{
			"buffer":0,
			"byteLength":2880,
			"byteOffset":24920,
			"target":34962
		},
		{
			"buffer":0,
			"byteLength":1920,
			"byteOffset":27800,
			"target":34962
		},
		{
			"buffer":0,
			"byteLength":2880,
			"byteOffset":29720,
			"target":34962
		},
		{
			"buffer":0,
			"byteLength":720,
			"byteOffset":32600,
			"target":34963
		},
		{
			"buffer":0,
			"byteLength":5100,
			"byteOffset":33320,
			"target":34962
		},
		{
			"buffer":0,
			"byteLength":3400,
			"byteOffset":38420,
			"target":34962
		},
		{
			"buffer":0,
			"byteLength":5100,
			"byteOffset":41820,
			"target":34962
		},
		{
			"buffer":0,
			"byteLength":1266,
			"byteOffset":46920,
			"target":34963
		},
		{
			"buffer":0,
			"byteLength":9792,
			"byteOffset":48188,
			"target":34962
		},
		{
			"buffer":0,
			"byteLength":6528,
			"byteOffset":57980,
			"target":34962
		},
		{
			"buffer":0,
			"byteLength":9792,
			"byteOffset":64508,
			"target":34962
		},
		{
			"buffer":0,
			"byteLength":2448,
			"byteOffset":74300,
			"target":34963
		},
		{
			"buffer":0,
			"byteLength":20628,
			"byteOffset":76748,
			"target":34962
		},
		{
			"buffer":0,
			"byteLength":13752,
			"byteOffset":97376,
			"target":34962
		},
		{
			"buffer":0,
			"byteLength":20628,
			"byteOffset":111128,
			"target":34962
		},
		{
			"buffer":0,
			"byteLength":4320,
			"byteOffset":131756,
			"target":34963
		},
		{
			"buffer":0,
			"byteLength":2592,
			"byteOffset":136076,
			"target":34962
		},
		{
			"buffer":0,
			"byteLength":1728,
			"byteOffset":138668,
			"target":34962
		},
		{
			"buffer":0,
			"byteLength":2592,
			"byteOffset":140396,
			"target":34962
		},
		{
			"buffer":0,
			"byteLength":648,
			"byteOffset":142988,
			"target":34963
		},
		{
			"buffer":0,
			"byteLength":96,
			"byteOffset":143636,
			"target":34962
		},
		{
			"buffer":0,
			"byteLength":64,
			"byteOffset":143732,
			"target":34962
		},
		{
			"buffer":0,
			"byteLength":96,
			"byteOffset":143796,
			"target":34962
		},
		{
			"buffer":0,
			"byteLength":24,
			"byteOffset":143892,
			"target":34963
		},
		{
			"buffer":0,
			"byteLength":2016,
			"byteOffset":143916,
			"target":34962
		},
		{
			"buffer":0,
			"byteLength":1344,
			"byteOffset":145932,
			"target":34962
		},
		{
			"buffer":0,
			"byteLength":2016,
			"byteOffset":147276,
			"target":34962
		},
		{
			"buffer":0,
			"byteLength":504,
			"byteOffset":149292,
			"target":34963
		},
		{
			"buffer":0,
			"byteLength":48,
			"byteOffset":149796,
			"target":34962
		},
		{
			"buffer":0,
			"byteLength":32,
			"byteOffset":149844,
			"target":34962
		},
		{
			"buffer":0,
			"byteLength":48,
			"byteOffset":149876,
			"target":34962
		},
		{
			"buffer":0,
			"byteLength":12,
			"byteOffset":149924,
			"target":34963
		},
		{
			"buffer":0,
			"byteLength":288,
			"byteOffset":149936,
			"target":34962
		},
		{
			"buffer":0,
			"byteLength":192,
			"byteOffset":150224,
			"target":34962
		},
		{
			"buffer":0,
			"byteLength":288,
			"byteOffset":150416,
			"target":34962
		},
		{
			"buffer":0,
			"byteLength":72,
			"byteOffset":150704,
			"target":34963
		},
		{
			"buffer":0,
			"byteLength":288,
			"byteOffset":150776,
			"target":34962
		},
		{
			"buffer":0,
			"byteLength":192,
			"byteOffset":151064,
			"target":34962
		},
		{
			"buffer":0,
			"byteLength":288,
			"byteOffset":151256,
			"target":34962
		},
		{
			"buffer":0,
			"byteLength":864,
			"byteOffset":151544,
			"target":34962
		},
		{
			"buffer":0,
			"byteLength":576,
			"byteOffset":152408,
			"target":34962
		},
		{
			"buffer":0,
			"byteLength":864,
			"byteOffset":152984,
			"target":34962
		},
		{
			"buffer":0,
			"byteLength":216,
			"byteOffset":153848,
			"target":34963
		}
	],
	"samplers":[
		{
			"magFilter":9729,
			"minFilter":9987
		}
	],
	"buffers":[
		{
			"byteLength":154064,
			"uri":"RZ_room2C_EC.bin"
		}
	]
}
