{
	"asset":{
		"generator":"Khronos glTF Blender I/O v3.6.27",
		"version":"2.0"
	},
	"scene":0,
	"scenes":[
		{
			"name":"Scene",
			"nodes":[
				0,
				1,
				2,
				3
			]
		}
	],
	"nodes":[
		{
			"mesh":0,
			"name":"Cylinder.001",
			"rotation":[
				0.70710688829422,
				-0.7071066498756409,
				0,
				5.338508657359853e-08
			],
			"translation":[
				0.4518829584121704,
				0.48037344217300415,
				-0.0396563857793808
			]
		},
		{
			"mesh":1,
			"name":"1911.001",
			"rotation":[
				0.16922444105148315,
				-0.9855775237083435,
				0,
				7.371838250946894e-08
			],
			"translation":[
				0.2540820837020874,
				-0.1366184502840042,
				-0.02090330421924591
			]
		},
		{
			"mesh":2,
			"name":"1911",
			"rotation":[
				0.16922444105148315,
				-0.9855775237083435,
				0,
				7.371838250946894e-08
			],
			"translation":[
				0.2540820837020874,
				-0.1366184502840042,
				-0.02090330421924591
			]
		},
		{
			"mesh":3,
			"name":"1911.003",
			"rotation":[
				0.16922444105148315,
				-0.9855775237083435,
				0,
				7.371838250946894e-08
			],
			"translation":[
				0.2540820837020874,
				-0.1366184502840042,
				-0.02090330421924591
			]
		}
	],
	"materials":[
		{
			"doubleSided":true,
			"name":"Sights",
			"pbrMetallicRoughness":{
				"baseColorFactor":[
					0.03200038522481918,
					0.40196868777275085,
					0.008014941588044167,
					1
				],
				"metallicFactor":0,
				"roughnessFactor":0.5
			}
		},
		{
			"doubleSided":true,
			"name":"Material.001",
			"pbrMetallicRoughness":{
				"baseColorTexture":{
					"index":0
				},
				"metallicFactor":0,
				"roughnessFactor":0.5
			}
		},
		{
			"doubleSided":true,
			"name":"Material.002",
			"pbrMetallicRoughness":{
				"baseColorTexture":{
					"index":1
				},
				"metallicFactor":0,
				"roughnessFactor":0.5
			}
		}
	],
	"meshes":[
		{
			"name":"Cylinder",
			"primitives":[
				{
					"attributes":{
						"POSITION":0,
						"NORMAL":1,
						"TEXCOORD_0":2
					},
					"indices":3,
					"material":0
				}
			]
		},
		{
			"name":"Cube.004",
			"primitives":[
				{
					"attributes":{
						"POSITION":4,
						"NORMAL":5,
						"TEXCOORD_0":6
					},
					"indices":7,
					"material":1
				}
			]
		},
		{
			"name":"Cube.002",
			"primitives":[
				{
					"attributes":{
						"POSITION":8,
						"NORMAL":9,
						"TEXCOORD_0":10
					},
					"indices":11,
					"material":2
				}
			]
		},
		{
			"name":"Cube.003",
			"primitives":[
				{
					"attributes":{
						"POSITION":12,
						"NORMAL":13,
						"TEXCOORD_0":14
					},
					"indices":15,
					"material":1
				}
			]
		}
	],
	"textures":[
		{
			"sampler":0,
			"source":0
		},
		{
			"sampler":0,
			"source":1
		}
	],
	"images":[
		{
			"mimeType":"image/png",
			"name":"1911 Magazine Uv",
			"uri":"1911%20Magazine%20Uv.png"
		},
		{
			"mimeType":"image/png",
			"name":"1911 UV3",
			"uri":"1911%20UV3.png"
		}
	],
	"accessors":[
		{
			"bufferView":0,
			"componentType":5126,
			"count":833,
			"max":[
				0.014072384685277939,
				1.0003094673156738,
				0.008253535255789757
			],
			"min":[
				-0.013348742388188839,
				-0.006704440340399742,
				-0.0404948852956295
			],
			"type":"VEC3"
		},
		{
			"bufferView":1,
			"componentType":5126,
			"count":833,
			"type":"VEC3"
		},
		{
			"bufferView":2,
			"componentType":5126,
			"count":833,
			"type":"VEC2"
		},
		{
			"bufferView":3,
			"componentType":5123,
			"count":1308,
			"type":"SCALAR"
		},
		{
			"bufferView":4,
			"componentType":5126,
			"count":233,
			"max":[
				0.02710539475083351,
				0.49408531188964844,
				0.07413552701473236
			],
			"min":[
				-0.26057156920433044,
				-0.2783231735229492,
				-0.07982516288757324
			],
			"type":"VEC3"
		},
		{
			"bufferView":5,
			"componentType":5126,
			"count":233,
			"type":"VEC3"
		},
		{
			"bufferView":6,
			"componentType":5126,
			"count":233,
			"type":"VEC2"
		},
		{
			"bufferView":7,
			"componentType":5123,
			"count":732,
			"type":"SCALAR"
		},
		{
			"bufferView":8,
			"componentType":5126,
			"count":8405,
			"max":[
				0.6738219261169434,
				0.8609738945960999,
				0.06147226318717003
			],
			"min":[
				-0.501579225063324,
				-0.22747822105884552,
				-0.06429270654916763
			],
			"type":"VEC3"
		},
		{
			"bufferView":9,
			"componentType":5126,
			"count":8405,
			"type":"VEC3"
		},
		{
			"bufferView":10,
			"componentType":5126,
			"count":8405,
			"type":"VEC2"
		},
		{
			"bufferView":11,
			"componentType":5123,
			"count":36744,
			"type":"SCALAR"
		},
		{
			"bufferView":12,
			"componentType":5126,
			"count":323,
			"max":[
				0.11153610050678253,
				0.5083209872245789,
				-0.014499444514513016
			],
			"min":[
				-0.0963728278875351,
				0.38973143696784973,
				-0.05846179649233818
			],
			"type":"VEC3"
		},
		{
			"bufferView":13,
			"componentType":5126,
			"count":323,
			"type":"VEC3"
		},
		{
			"bufferView":14,
			"componentType":5126,
			"count":323,
			"type":"VEC2"
		},
		{
			"bufferView":15,
			"componentType":5123,
			"count":600,
			"type":"SCALAR"
		}
	],
	"bufferViews":[
		{
			"buffer":0,
			"byteLength":9996,
			"byteOffset":0,
			"target":34962
		},
		{
			"buffer":0,
			"byteLength":9996,
			"byteOffset":9996,
			"target":34962
		},
		{
			"buffer":0,
			"byteLength":6664,
			"byteOffset":19992,
			"target":34962
		},
		{
			"buffer":0,
			"byteLength":2616,
			"byteOffset":26656,
			"target":34963
		},
		{
			"buffer":0,
			"byteLength":2796,
			"byteOffset":29272,
			"target":34962
		},
		{
			"buffer":0,
			"byteLength":2796,
			"byteOffset":32068,
			"target":34962
		},
		{
			"buffer":0,
			"byteLength":1864,
			"byteOffset":34864,
			"target":34962
		},
		{
			"buffer":0,
			"byteLength":1464,
			"byteOffset":36728,
			"target":34963
		},
		{
			"buffer":0,
			"byteLength":100860,
			"byteOffset":38192,
			"target":34962
		},
		{
			"buffer":0,
			"byteLength":100860,
			"byteOffset":139052,
			"target":34962
		},
		{
			"buffer":0,
			"byteLength":67240,
			"byteOffset":239912,
			"target":34962
		},
		{
			"buffer":0,
			"byteLength":73488,
			"byteOffset":307152,
			"target":34963
		},
		{
			"buffer":0,
			"byteLength":3876,
			"byteOffset":380640,
			"target":34962
		},
		{
			"buffer":0,
			"byteLength":3876,
			"byteOffset":384516,
			"target":34962
		},
		{
			"buffer":0,
			"byteLength":2584,
			"byteOffset":388392,
			"target":34962
		},
		{
			"buffer":0,
			"byteLength":1200,
			"byteOffset":390976,
			"target":34963
		}
	],
	"samplers":[
		{
			"magFilter":9729,
			"minFilter":9987
		}
	],
	"buffers":[
		{
			"byteLength":392176,
			"uri":"com16.bin"
		}
	]
}
