{
	"asset":{
		"generator":"Khronos glTF Blender I/O v3.6.27",
		"version":"2.0"
	},
	"scene":0,
	"scenes":[
		{
			"name":"Scene",
			"nodes":[
				0,
				1,
				2
			]
		}
	],
	"nodes":[
		{
			"mesh":0,
			"name":"1911.001",
			"rotation":[
				0.16922444105148315,
				-0.9855775237083435,
				0,
				7.371838250946894e-08
			],
			"translation":[
				0.17288023233413696,
				-0.09142816066741943,
				0.011008950881659985
			]
		},
		{
			"mesh":1,
			"name":"1911",
			"rotation":[
				0.16922444105148315,
				-0.9855775237083435,
				0,
				7.371838250946894e-08
			],
			"translation":[
				0.17288023233413696,
				-0.09142816066741943,
				0.011008950881659985
			]
		},
		{
			"mesh":2,
			"name":"1911.003",
			"rotation":[
				0.16922444105148315,
				-0.9855775237083435,
				0,
				7.371838250946894e-08
			],
			"translation":[
				0.17288023233413696,
				-0.09142816066741943,
				0.011008950881659985
			]
		}
	],
	"materials":[
		{
			"doubleSided":true,
			"name":"Material.003",
			"pbrMetallicRoughness":{
				"baseColorTexture":{
					"index":0
				},
				"metallicFactor":0,
				"roughnessFactor":0.5
			}
		},
		{
			"doubleSided":true,
			"name":"Material.004",
			"pbrMetallicRoughness":{
				"baseColorTexture":{
					"index":1
				},
				"metallicFactor":0,
				"roughnessFactor":0.5
			}
		}
	],
	"meshes":[
		{
			"name":"Cube.001",
			"primitives":[
				{
					"attributes":{
						"POSITION":0,
						"NORMAL":1,
						"TEXCOORD_0":2
					},
					"indices":3,
					"material":0
				}
			]
		},
		{
			"name":"Cube.005",
			"primitives":[
				{
					"attributes":{
						"POSITION":4,
						"NORMAL":5,
						"TEXCOORD_0":6
					},
					"indices":7,
					"material":1
				}
			]
		},
		{
			"name":"Cube.006",
			"primitives":[
				{
					"attributes":{
						"POSITION":8,
						"NORMAL":9,
						"TEXCOORD_0":10
					},
					"indices":11,
					"material":0
				}
			]
		}
	],
	"textures":[
		{
			"sampler":0,
			"source":0
		},
		{
			"sampler":0,
			"source":1
		}
	],
	"images":[
		{
			"mimeType":"image/png",
			"name":"1911 Magazine Uv",
			"uri":"1911%20Magazine%20Uv.png"
		},
		{
			"mimeType":"image/png",
			"name":"1911 UV3",
			"uri":"1911%20UV3.png"
		}
	],
	"accessors":[
		{
			"bufferView":0,
			"componentType":5126,
			"count":273,
			"max":[
				0.016894862055778503,
				0.30796465277671814,
				0.04620886221528053
			],
			"min":[
				-0.16241493821144104,
				-0.17347955703735352,
				-0.04975522682070732
			],
			"type":"VEC3"
		},
		{
			"bufferView":1,
			"componentType":5126,
			"count":273,
			"type":"VEC3"
		},
		{
			"bufferView":2,
			"componentType":5126,
			"count":273,
			"type":"VEC2"
		},
		{
			"bufferView":3,
			"componentType":5123,
			"count":732,
			"type":"SCALAR"
		},
		{
			"bufferView":4,
			"componentType":5126,
			"count":5636,
			"max":[
				0.41999495029449463,
				0.5366472601890564,
				0.038326043635606766
			],
			"min":[
				-0.3126356303691864,
				-0.1417880654335022,
				-0.04008184373378754
			],
			"type":"VEC3"
		},
		{
			"bufferView":5,
			"componentType":5126,
			"count":5636,
			"type":"VEC3"
		},
		{
			"bufferView":6,
			"componentType":5126,
			"count":5636,
			"type":"VEC2"
		},
		{
			"bufferView":7,
			"componentType":5123,
			"count":20712,
			"type":"SCALAR"
		},
		{
			"bufferView":8,
			"componentType":5126,
			"count":329,
			"max":[
				0.0695207417011261,
				0.31683778762817383,
				-0.009037540294229984
			],
			"min":[
				-0.060069434344768524,
				0.24292060732841492,
				-0.03643938526511192
			],
			"type":"VEC3"
		},
		{
			"bufferView":9,
			"componentType":5126,
			"count":329,
			"type":"VEC3"
		},
		{
			"bufferView":10,
			"componentType":5126,
			"count":329,
			"type":"VEC2"
		},
		{
			"bufferView":11,
			"componentType":5123,
			"count":600,
			"type":"SCALAR"
		}
	],
	"bufferViews":[
		{
			"buffer":0,
			"byteLength":3276,
			"byteOffset":0,
			"target":34962
		},
		{
			"buffer":0,
			"byteLength":3276,
			"byteOffset":3276,
			"target":34962
		},
		{
			"buffer":0,
			"byteLength":2184,
			"byteOffset":6552,
			"target":34962
		},
		{
			"buffer":0,
			"byteLength":1464,
			"byteOffset":8736,
			"target":34963
		},
		{
			"buffer":0,
			"byteLength":67632,
			"byteOffset":10200,
			"target":34962
		},
		{
			"buffer":0,
			"byteLength":67632,
			"byteOffset":77832,
			"target":34962
		},
		{
			"buffer":0,
			"byteLength":45088,
			"byteOffset":145464,
			"target":34962
		},
		{
			"buffer":0,
			"byteLength":41424,
			"byteOffset":190552,
			"target":34963
		},
		{
			"buffer":0,
			"byteLength":3948,
			"byteOffset":231976,
			"target":34962
		},
		{
			"buffer":0,
			"byteLength":3948,
			"byteOffset":235924,
			"target":34962
		},
		{
			"buffer":0,
			"byteLength":2632,
			"byteOffset":239872,
			"target":34962
		},
		{
			"buffer":0,
			"byteLength":1200,
			"byteOffset":242504,
			"target":34963
		}
	],
	"samplers":[
		{
			"magFilter":9729,
			"minFilter":9987
		}
	],
	"buffers":[
		{
			"byteLength":243704,
			"uri":"com16_item.bin"
		}
	]
}
