{
	"asset":{
		"generator":"Khronos glTF Blender I/O v3.5.30",
		"version":"2.0"
	},
	"extensionsUsed":[
		"KHR_materials_specular",
		"KHR_materials_ior"
	],
	"scene":0,
	"scenes":[
		{
			"name":"Scene",
			"nodes":[
				0
			]
		}
	],
	"nodes":[
		{
			"mesh":0,
			"name":"RZ_exit1_gateb",
			"rotation":[
				0.7071068286895752,
				0,
				0,
				0.7071068286895752
			]
		}
	],
	"materials":[
		{
			"doubleSided":true,
			"extensions":{
				"KHR_materials_specular":{
					"specularColorFactor":[
						2.371357614441398,
						2.371357614441398,
						2.371357614441398
					]
				},
				"KHR_materials_ior":{
					"ior":1.4500000476837158
				}
			},
			"name":"mat0.001",
			"pbrMetallicRoughness":{
				"baseColorTexture":{
					"index":0
				},
				"metallicFactor":0,
				"roughnessFactor":0.9505894184112549
			}
		},
		{
			"doubleSided":true,
			"extensions":{
				"KHR_materials_specular":{
					"specularColorFactor":[
						2.371357614441398,
						2.371357614441398,
						2.371357614441398
					]
				},
				"KHR_materials_ior":{
					"ior":1.4500000476837158
				}
			},
			"name":"mat1.001",
			"pbrMetallicRoughness":{
				"baseColorTexture":{
					"index":1
				},
				"metallicFactor":0,
				"roughnessFactor":0.9505894184112549
			}
		},
		{
			"doubleSided":true,
			"extensions":{
				"KHR_materials_specular":{
					"specularColorFactor":[
						2.371357614441398,
						2.371357614441398,
						2.371357614441398
					]
				},
				"KHR_materials_ior":{
					"ior":1.4500000476837158
				}
			},
			"name":"mat2.001",
			"pbrMetallicRoughness":{
				"baseColorTexture":{
					"index":2
				},
				"metallicFactor":0,
				"roughnessFactor":0.9505894184112549
			}
		},
		{
			"doubleSided":true,
			"extensions":{
				"KHR_materials_specular":{
					"specularColorFactor":[
						2.371357614441398,
						2.371357614441398,
						2.371357614441398
					]
				},
				"KHR_materials_ior":{
					"ior":1.4500000476837158
				}
			},
			"name":"mat3.001",
			"pbrMetallicRoughness":{
				"baseColorTexture":{
					"index":3
				},
				"metallicFactor":0,
				"roughnessFactor":0.9505894184112549
			}
		},
		{
			"doubleSided":true,
			"extensions":{
				"KHR_materials_specular":{
					"specularColorFactor":[
						2.371357614441398,
						2.371357614441398,
						2.371357614441398
					]
				},
				"KHR_materials_ior":{
					"ior":1.4500000476837158
				}
			},
			"name":"mat4.001",
			"pbrMetallicRoughness":{
				"baseColorTexture":{
					"index":4
				},
				"metallicFactor":0,
				"roughnessFactor":0.9505894184112549
			}
		},
		{
			"doubleSided":true,
			"extensions":{
				"KHR_materials_specular":{
					"specularColorFactor":[
						2.371357614441398,
						2.371357614441398,
						2.371357614441398
					]
				},
				"KHR_materials_ior":{
					"ior":1.4500000476837158
				}
			},
			"name":"mat5.001",
			"pbrMetallicRoughness":{
				"baseColorTexture":{
					"index":5
				},
				"metallicFactor":0,
				"roughnessFactor":0.9505894184112549
			}
		},
		{
			"doubleSided":true,
			"extensions":{
				"KHR_materials_specular":{
					"specularColorFactor":[
						2.371357614441398,
						2.371357614441398,
						2.371357614441398
					]
				},
				"KHR_materials_ior":{
					"ior":1.4500000476837158
				}
			},
			"name":"mat6.001",
			"pbrMetallicRoughness":{
				"baseColorTexture":{
					"index":6
				},
				"metallicFactor":0,
				"roughnessFactor":0.9505894184112549
			}
		},
		{
			"doubleSided":true,
			"extensions":{
				"KHR_materials_specular":{
					"specularColorFactor":[
						2.371357614441398,
						2.371357614441398,
						2.371357614441398
					]
				},
				"KHR_materials_ior":{
					"ior":1.4500000476837158
				}
			},
			"name":"mat7.001",
			"pbrMetallicRoughness":{
				"baseColorTexture":{
					"index":7
				},
				"metallicFactor":0,
				"roughnessFactor":0.9505894184112549
			}
		},
		{
			"doubleSided":true,
			"extensions":{
				"KHR_materials_specular":{
					"specularColorFactor":[
						2.371357614441398,
						2.371357614441398,
						2.371357614441398
					]
				},
				"KHR_materials_ior":{
					"ior":1.4500000476837158
				}
			},
			"name":"mat8.001",
			"pbrMetallicRoughness":{
				"baseColorTexture":{
					"index":8
				},
				"metallicFactor":0,
				"roughnessFactor":0.9505894184112549
			}
		},
		{
			"doubleSided":true,
			"extensions":{
				"KHR_materials_specular":{
					"specularColorFactor":[
						2.371357614441398,
						2.371357614441398,
						2.371357614441398
					]
				},
				"KHR_materials_ior":{
					"ior":1.4500000476837158
				}
			},
			"name":"mat9.001",
			"pbrMetallicRoughness":{
				"baseColorTexture":{
					"index":9
				},
				"metallicFactor":0,
				"roughnessFactor":0.9505894184112549
			}
		},
		{
			"doubleSided":true,
			"extensions":{
				"KHR_materials_specular":{
					"specularColorFactor":[
						2.371357614441398,
						2.371357614441398,
						2.371357614441398
					]
				},
				"KHR_materials_ior":{
					"ior":1.4500000476837158
				}
			},
			"name":"mat10.001",
			"pbrMetallicRoughness":{
				"baseColorTexture":{
					"index":10
				},
				"metallicFactor":0,
				"roughnessFactor":0.9505894184112549
			}
		},
		{
			"doubleSided":true,
			"extensions":{
				"KHR_materials_specular":{
					"specularColorFactor":[
						2.371357614441398,
						2.371357614441398,
						2.371357614441398
					]
				},
				"KHR_materials_ior":{
					"ior":1.4500000476837158
				}
			},
			"name":"mat11.001",
			"pbrMetallicRoughness":{
				"baseColorTexture":{
					"index":11
				},
				"metallicFactor":0,
				"roughnessFactor":0.9505894184112549
			}
		},
		{
			"doubleSided":true,
			"extensions":{
				"KHR_materials_specular":{
					"specularColorFactor":[
						2.371357614441398,
						2.371357614441398,
						2.371357614441398
					]
				},
				"KHR_materials_ior":{
					"ior":1.4500000476837158
				}
			},
			"name":"mat12",
			"pbrMetallicRoughness":{
				"baseColorTexture":{
					"index":12
				},
				"metallicFactor":0,
				"roughnessFactor":0.9505894184112549
			}
		},
		{
			"doubleSided":true,
			"extensions":{
				"KHR_materials_specular":{
					"specularColorFactor":[
						2.371357614441398,
						2.371357614441398,
						2.371357614441398
					]
				},
				"KHR_materials_ior":{
					"ior":1.4500000476837158
				}
			},
			"name":"mat13",
			"pbrMetallicRoughness":{
				"baseColorTexture":{
					"index":13
				},
				"metallicFactor":0,
				"roughnessFactor":0.9505894184112549
			}
		},
		{
			"doubleSided":true,
			"extensions":{
				"KHR_materials_specular":{
					"specularColorFactor":[
						2.371357614441398,
						2.371357614441398,
						2.371357614441398
					]
				},
				"KHR_materials_ior":{
					"ior":1.4500000476837158
				}
			},
			"name":"mat14",
			"pbrMetallicRoughness":{
				"baseColorTexture":{
					"index":14
				},
				"metallicFactor":0,
				"roughnessFactor":0.9505894184112549
			}
		}
	],
	"meshes":[
		{
			"name":"RZ_exit1_gateb",
			"primitives":[
				{
					"attributes":{
						"POSITION":0,
						"TEXCOORD_0":1,
						"NORMAL":2
					},
					"indices":3,
					"material":0
				},
				{
					"attributes":{
						"POSITION":4,
						"TEXCOORD_0":5,
						"NORMAL":6
					},
					"indices":7,
					"material":1
				},
				{
					"attributes":{
						"POSITION":8,
						"TEXCOORD_0":9,
						"NORMAL":10
					},
					"indices":11,
					"material":2
				},
				{
					"attributes":{
						"POSITION":12,
						"TEXCOORD_0":13,
						"NORMAL":14
					},
					"indices":15,
					"material":3
				},
				{
					"attributes":{
						"POSITION":16,
						"TEXCOORD_0":17,
						"NORMAL":18
					},
					"indices":19,
					"material":4
				},
				{
					"attributes":{
						"POSITION":20,
						"TEXCOORD_0":21,
						"NORMAL":22
					},
					"indices":23,
					"material":5
				},
				{
					"attributes":{
						"POSITION":24,
						"TEXCOORD_0":25,
						"NORMAL":26
					},
					"indices":27,
					"material":6
				},
				{
					"attributes":{
						"POSITION":28,
						"TEXCOORD_0":29,
						"NORMAL":30
					},
					"indices":31,
					"material":7
				},
				{
					"attributes":{
						"POSITION":32,
						"TEXCOORD_0":33,
						"NORMAL":34
					},
					"indices":35,
					"material":8
				},
				{
					"attributes":{
						"POSITION":36,
						"TEXCOORD_0":37,
						"NORMAL":38
					},
					"indices":39,
					"material":9
				},
				{
					"attributes":{
						"POSITION":40,
						"TEXCOORD_0":41,
						"NORMAL":42
					},
					"indices":43,
					"material":10
				},
				{
					"attributes":{
						"POSITION":44,
						"TEXCOORD_0":45,
						"NORMAL":46
					},
					"indices":47,
					"material":11
				},
				{
					"attributes":{
						"POSITION":48,
						"TEXCOORD_0":49,
						"NORMAL":50
					},
					"indices":51,
					"material":12
				},
				{
					"attributes":{
						"POSITION":52,
						"TEXCOORD_0":53,
						"NORMAL":54
					},
					"indices":7,
					"material":13
				},
				{
					"attributes":{
						"POSITION":55,
						"TEXCOORD_0":56,
						"NORMAL":57
					},
					"indices":47,
					"material":14
				}
			]
		}
	],
	"textures":[
		{
			"sampler":0,
			"source":0
		},
		{
			"sampler":0,
			"source":1
		},
		{
			"sampler":0,
			"source":2
		},
		{
			"sampler":0,
			"source":3
		},
		{
			"sampler":0,
			"source":4
		},
		{
			"sampler":0,
			"source":5
		},
		{
			"sampler":0,
			"source":6
		},
		{
			"sampler":0,
			"source":7
		},
		{
			"sampler":0,
			"source":8
		},
		{
			"sampler":0,
			"source":9
		},
		{
			"sampler":0,
			"source":10
		},
		{
			"sampler":0,
			"source":11
		},
		{
			"sampler":0,
			"source":12
		},
		{
			"sampler":0,
			"source":13
		},
		{
			"sampler":0,
			"source":14
		}
	],
	"images":[
		{
			"mimeType":"image/jpeg",
			"name":"dirtymetal",
			"uri":"dirtymetal.jpg"
		},
		{
			"mimeType":"image/jpeg",
			"name":"tilefloor",
			"uri":"tilefloor.jpg"
		},
		{
			"mimeType":"image/jpeg",
			"name":"metal3",
			"uri":"metal3.jpg"
		},
		{
			"mimeType":"image/jpeg",
			"name":"whitewall",
			"uri":"whitewall.jpg"
		},
		{
			"mimeType":"image/jpeg",
			"name":"concretefloor",
			"uri":"concretefloor.jpg"
		},
		{
			"mimeType":"image/jpeg",
			"name":"metal",
			"uri":"metal.jpg"
		},
		{
			"mimeType":"image/jpeg",
			"name":"metalpanels2",
			"uri":"metalpanels2.jpg"
		},
		{
			"mimeType":"image/jpeg",
			"name":"officewall",
			"uri":"officewall.jpg"
		},
		{
			"mimeType":"image/jpeg",
			"name":"white",
			"uri":"white.jpg"
		},
		{
			"mimeType":"image/jpeg",
			"name":"door01",
			"uri":"door01.jpg"
		},
		{
			"mimeType":"image/jpeg",
			"name":"misc",
			"uri":"misc.jpg"
		},
		{
			"mimeType":"image/jpeg",
			"name":"miscsigns2",
			"uri":"miscsigns2.jpg"
		},
		{
			"mimeType":"image/jpeg",
			"name":"cable_black",
			"uri":"cable_black.jpg"
		},
		{
			"mimeType":"image/jpeg",
			"name":"vent",
			"uri":"vent.jpg"
		},
		{
			"mimeType":"image/png",
			"name":"glass",
			"uri":"glass.png"
		}
	],
	"accessors":[
		{
			"bufferView":0,
			"componentType":5126,
			"count":5250,
			"max":[
				10.15999984741211,
				8.320001602172852,
				0.20000100135803223
			],
			"min":[
				-10.9810791015625,
				-20.15110969543457,
				-8
			],
			"type":"VEC3"
		},
		{
			"bufferView":1,
			"componentType":5126,
			"count":5250,
			"type":"VEC2"
		},
		{
			"bufferView":2,
			"componentType":5126,
			"count":5250,
			"type":"VEC3"
		},
		{
			"bufferView":3,
			"componentType":5123,
			"count":8112,
			"type":"SCALAR"
		},
		{
			"bufferView":4,
			"componentType":5126,
			"count":12,
			"max":[
				10.239999771118164,
				10.231595039367676,
				9.999999974752427e-07
			],
			"min":[
				-10.880000114440918,
				-14.239999771118164,
				-3.8399999141693115
			],
			"type":"VEC3"
		},
		{
			"bufferView":5,
			"componentType":5126,
			"count":12,
			"type":"VEC2"
		},
		{
			"bufferView":6,
			"componentType":5126,
			"count":12,
			"type":"VEC3"
		},
		{
			"bufferView":7,
			"componentType":5123,
			"count":18,
			"type":"SCALAR"
		},
		{
			"bufferView":8,
			"componentType":5126,
			"count":16,
			"max":[
				10.239999771118164,
				-14.239999771118164,
				0.3200019896030426
			],
			"min":[
				4.159999847412109,
				-20.479999542236328,
				9.999999974752427e-07
			],
			"type":"VEC3"
		},
		{
			"bufferView":9,
			"componentType":5126,
			"count":16,
			"type":"VEC2"
		},
		{
			"bufferView":10,
			"componentType":5126,
			"count":16,
			"type":"VEC3"
		},
		{
			"bufferView":11,
			"componentType":5123,
			"count":24,
			"type":"SCALAR"
		},
		{
			"bufferView":12,
			"componentType":5126,
			"count":168,
			"max":[
				10.30049991607666,
				10.239999771118164,
				9.999999974752427e-07
			],
			"min":[
				-5.760000228881836,
				-14.239999771118164,
				-3.840001106262207
			],
			"type":"VEC3"
		},
		{
			"bufferView":13,
			"componentType":5126,
			"count":168,
			"type":"VEC2"
		},
		{
			"bufferView":14,
			"componentType":5126,
			"count":168,
			"type":"VEC3"
		},
		{
			"bufferView":15,
			"componentType":5123,
			"count":252,
			"type":"SCALAR"
		},
		{
			"bufferView":16,
			"componentType":5126,
			"count":152,
			"max":[
				10.239999771118164,
				10.239998817443848,
				9.999999974752427e-07
			],
			"min":[
				-10.880000114440918,
				-20.15110969543457,
				-8.010000228881836
			],
			"type":"VEC3"
		},
		{
			"bufferView":17,
			"componentType":5126,
			"count":152,
			"type":"VEC2"
		},
		{
			"bufferView":18,
			"componentType":5126,
			"count":152,
			"type":"VEC3"
		},
		{
			"bufferView":19,
			"componentType":5123,
			"count":228,
			"type":"SCALAR"
		},
		{
			"bufferView":20,
			"componentType":5126,
			"count":64,
			"max":[
				10.239999771118164,
				-14.559999465942383,
				1.9999999949504854e-06
			],
			"min":[
				4.159999847412109,
				-20.479999542236328,
				-7.999999046325684
			],
			"type":"VEC3"
		},
		{
			"bufferView":21,
			"componentType":5126,
			"count":64,
			"type":"VEC2"
		},
		{
			"bufferView":22,
			"componentType":5126,
			"count":64,
			"type":"VEC3"
		},
		{
			"bufferView":23,
			"componentType":5123,
			"count":96,
			"type":"SCALAR"
		},
		{
			"bufferView":24,
			"componentType":5126,
			"count":544,
			"max":[
				10.170000076293945,
				10.239999771118164,
				-3.8199989795684814
			],
			"min":[
				-5.760000228881836,
				-14.239999771118164,
				-6.400000095367432
			],
			"type":"VEC3"
		},
		{
			"bufferView":25,
			"componentType":5126,
			"count":544,
			"type":"VEC2"
		},
		{
			"bufferView":26,
			"componentType":5126,
			"count":544,
			"type":"VEC3"
		},
		{
			"bufferView":27,
			"componentType":5123,
			"count":816,
			"type":"SCALAR"
		},
		{
			"bufferView":28,
			"componentType":5126,
			"count":548,
			"max":[
				10.337800025939941,
				10.239999771118164,
				9.999999974752427e-07
			],
			"min":[
				-10.880000114440918,
				-14.24000072479248,
				-8.000000953674316
			],
			"type":"VEC3"
		},
		{
			"bufferView":29,
			"componentType":5126,
			"count":548,
			"type":"VEC2"
		},
		{
			"bufferView":30,
			"componentType":5126,
			"count":548,
			"type":"VEC3"
		},
		{
			"bufferView":31,
			"componentType":5123,
			"count":822,
			"type":"SCALAR"
		},
		{
			"bufferView":32,
			"componentType":5126,
			"count":88,
			"max":[
				9.920000076293945,
				8.319999694824219,
				-1.9199999570846558
			],
			"min":[
				-4.639999866485596,
				-14.5600004196167,
				-7.999999046325684
			],
			"type":"VEC3"
		},
		{
			"bufferView":33,
			"componentType":5126,
			"count":88,
			"type":"VEC2"
		},
		{
			"bufferView":34,
			"componentType":5126,
			"count":88,
			"type":"VEC3"
		},
		{
			"bufferView":35,
			"componentType":5123,
			"count":132,
			"type":"SCALAR"
		},
		{
			"bufferView":36,
			"componentType":5126,
			"count":592,
			"max":[
				-10.640822410583496,
				0.3199999928474426,
				-3.8399999141693115
			],
			"min":[
				-11.001078605651855,
				-1.6024270057678223,
				-7.045326232910156
			],
			"type":"VEC3"
		},
		{
			"bufferView":37,
			"componentType":5126,
			"count":592,
			"type":"VEC2"
		},
		{
			"bufferView":38,
			"componentType":5126,
			"count":592,
			"type":"VEC3"
		},
		{
			"bufferView":39,
			"componentType":5123,
			"count":846,
			"type":"SCALAR"
		},
		{
			"bufferView":40,
			"componentType":5126,
			"count":120,
			"max":[
				7.400000095367432,
				-4.442049026489258,
				-4.759997844696045
			],
			"min":[
				-8.872321128845215,
				-17.559999465942383,
				-7.998239994049072
			],
			"type":"VEC3"
		},
		{
			"bufferView":41,
			"componentType":5126,
			"count":120,
			"type":"VEC2"
		},
		{
			"bufferView":42,
			"componentType":5126,
			"count":120,
			"type":"VEC3"
		},
		{
			"bufferView":43,
			"componentType":5123,
			"count":180,
			"type":"SCALAR"
		},
		{
			"bufferView":44,
			"componentType":5126,
			"count":8,
			"max":[
				2.619999885559082,
				4.179999828338623,
				-4.639998912811279
			],
			"min":[
				-3.9023549556732178,
				-10.540000915527344,
				-6.56363582611084
			],
			"type":"VEC3"
		},
		{
			"bufferView":45,
			"componentType":5126,
			"count":8,
			"type":"VEC2"
		},
		{
			"bufferView":46,
			"componentType":5126,
			"count":8,
			"type":"VEC3"
		},
		{
			"bufferView":47,
			"componentType":5123,
			"count":12,
			"type":"SCALAR"
		},
		{
			"bufferView":48,
			"componentType":5126,
			"count":32,
			"max":[
				2.619999885559082,
				4.179999828338623,
				-4.639998912811279
			],
			"min":[
				-3.9023549556732178,
				-10.592874526977539,
				-6.56363582611084
			],
			"type":"VEC3"
		},
		{
			"bufferView":49,
			"componentType":5126,
			"count":32,
			"type":"VEC2"
		},
		{
			"bufferView":50,
			"componentType":5126,
			"count":32,
			"type":"VEC3"
		},
		{
			"bufferView":51,
			"componentType":5123,
			"count":48,
			"type":"SCALAR"
		},
		{
			"bufferView":52,
			"componentType":5126,
			"count":12,
			"max":[
				1.7599999904632568,
				1.7599990367889404,
				-7.599999904632568
			],
			"min":[
				-1.7599999904632568,
				1.7599990367889404,
				-7.920000076293945
			],
			"type":"VEC3"
		},
		{
			"bufferView":53,
			"componentType":5126,
			"count":12,
			"type":"VEC2"
		},
		{
			"bufferView":54,
			"componentType":5126,
			"count":12,
			"type":"VEC3"
		},
		{
			"bufferView":55,
			"componentType":5126,
			"count":8,
			"max":[
				-10.639999389648438,
				-2.5599989891052246,
				-4.799999237060547
			],
			"min":[
				-10.639999389648438,
				-9.280000686645508,
				-7.039999961853027
			],
			"type":"VEC3"
		},
		{
			"bufferView":56,
			"componentType":5126,
			"count":8,
			"type":"VEC2"
		},
		{
			"bufferView":57,
			"componentType":5126,
			"count":8,
			"type":"VEC3"
		}
	],
	"bufferViews":[
		{
			"buffer":0,
			"byteLength":63000,
			"byteOffset":0,
			"target":34962
		},
		{
			"buffer":0,
			"byteLength":42000,
			"byteOffset":63000,
			"target":34962
		},
		{
			"buffer":0,
			"byteLength":63000,
			"byteOffset":105000,
			"target":34962
		},
		{
			"buffer":0,
			"byteLength":16224,
			"byteOffset":168000,
			"target":34963
		},
		{
			"buffer":0,
			"byteLength":144,
			"byteOffset":184224,
			"target":34962
		},
		{
			"buffer":0,
			"byteLength":96,
			"byteOffset":184368,
			"target":34962
		},
		{
			"buffer":0,
			"byteLength":144,
			"byteOffset":184464,
			"target":34962
		},
		{
			"buffer":0,
			"byteLength":36,
			"byteOffset":184608,
			"target":34963
		},
		{
			"buffer":0,
			"byteLength":192,
			"byteOffset":184644,
			"target":34962
		},
		{
			"buffer":0,
			"byteLength":128,
			"byteOffset":184836,
			"target":34962
		},
		{
			"buffer":0,
			"byteLength":192,
			"byteOffset":184964,
			"target":34962
		},
		{
			"buffer":0,
			"byteLength":48,
			"byteOffset":185156,
			"target":34963
		},
		{
			"buffer":0,
			"byteLength":2016,
			"byteOffset":185204,
			"target":34962
		},
		{
			"buffer":0,
			"byteLength":1344,
			"byteOffset":187220,
			"target":34962
		},
		{
			"buffer":0,
			"byteLength":2016,
			"byteOffset":188564,
			"target":34962
		},
		{
			"buffer":0,
			"byteLength":504,
			"byteOffset":190580,
			"target":34963
		},
		{
			"buffer":0,
			"byteLength":1824,
			"byteOffset":191084,
			"target":34962
		},
		{
			"buffer":0,
			"byteLength":1216,
			"byteOffset":192908,
			"target":34962
		},
		{
			"buffer":0,
			"byteLength":1824,
			"byteOffset":194124,
			"target":34962
		},
		{
			"buffer":0,
			"byteLength":456,
			"byteOffset":195948,
			"target":34963
		},
		{
			"buffer":0,
			"byteLength":768,
			"byteOffset":196404,
			"target":34962
		},
		{
			"buffer":0,
			"byteLength":512,
			"byteOffset":197172,
			"target":34962
		},
		{
			"buffer":0,
			"byteLength":768,
			"byteOffset":197684,
			"target":34962
		},
		{
			"buffer":0,
			"byteLength":192,
			"byteOffset":198452,
			"target":34963
		},
		{
			"buffer":0,
			"byteLength":6528,
			"byteOffset":198644,
			"target":34962
		},
		{
			"buffer":0,
			"byteLength":4352,
			"byteOffset":205172,
			"target":34962
		},
		{
			"buffer":0,
			"byteLength":6528,
			"byteOffset":209524,
			"target":34962
		},
		{
			"buffer":0,
			"byteLength":1632,
			"byteOffset":216052,
			"target":34963
		},
		{
			"buffer":0,
			"byteLength":6576,
			"byteOffset":217684,
			"target":34962
		},
		{
			"buffer":0,
			"byteLength":4384,
			"byteOffset":224260,
			"target":34962
		},
		{
			"buffer":0,
			"byteLength":6576,
			"byteOffset":228644,
			"target":34962
		},
		{
			"buffer":0,
			"byteLength":1644,
			"byteOffset":235220,
			"target":34963
		},
		{
			"buffer":0,
			"byteLength":1056,
			"byteOffset":236864,
			"target":34962
		},
		{
			"buffer":0,
			"byteLength":704,
			"byteOffset":237920,
			"target":34962
		},
		{
			"buffer":0,
			"byteLength":1056,
			"byteOffset":238624,
			"target":34962
		},
		{
			"buffer":0,
			"byteLength":264,
			"byteOffset":239680,
			"target":34963
		},
		{
			"buffer":0,
			"byteLength":7104,
			"byteOffset":239944,
			"target":34962
		},
		{
			"buffer":0,
			"byteLength":4736,
			"byteOffset":247048,
			"target":34962
		},
		{
			"buffer":0,
			"byteLength":7104,
			"byteOffset":251784,
			"target":34962
		},
		{
			"buffer":0,
			"byteLength":1692,
			"byteOffset":258888,
			"target":34963
		},
		{
			"buffer":0,
			"byteLength":1440,
			"byteOffset":260580,
			"target":34962
		},
		{
			"buffer":0,
			"byteLength":960,
			"byteOffset":262020,
			"target":34962
		},
		{
			"buffer":0,
			"byteLength":1440,
			"byteOffset":262980,
			"target":34962
		},
		{
			"buffer":0,
			"byteLength":360,
			"byteOffset":264420,
			"target":34963
		},
		{
			"buffer":0,
			"byteLength":96,
			"byteOffset":264780,
			"target":34962
		},
		{
			"buffer":0,
			"byteLength":64,
			"byteOffset":264876,
			"target":34962
		},
		{
			"buffer":0,
			"byteLength":96,
			"byteOffset":264940,
			"target":34962
		},
		{
			"buffer":0,
			"byteLength":24,
			"byteOffset":265036,
			"target":34963
		},
		{
			"buffer":0,
			"byteLength":384,
			"byteOffset":265060,
			"target":34962
		},
		{
			"buffer":0,
			"byteLength":256,
			"byteOffset":265444,
			"target":34962
		},
		{
			"buffer":0,
			"byteLength":384,
			"byteOffset":265700,
			"target":34962
		},
		{
			"buffer":0,
			"byteLength":96,
			"byteOffset":266084,
			"target":34963
		},
		{
			"buffer":0,
			"byteLength":144,
			"byteOffset":266180,
			"target":34962
		},
		{
			"buffer":0,
			"byteLength":96,
			"byteOffset":266324,
			"target":34962
		},
		{
			"buffer":0,
			"byteLength":144,
			"byteOffset":266420,
			"target":34962
		},
		{
			"buffer":0,
			"byteLength":96,
			"byteOffset":266564,
			"target":34962
		},
		{
			"buffer":0,
			"byteLength":64,
			"byteOffset":266660,
			"target":34962
		},
		{
			"buffer":0,
			"byteLength":96,
			"byteOffset":266724,
			"target":34962
		}
	],
	"samplers":[
		{
			"magFilter":9729,
			"minFilter":9987
		}
	],
	"buffers":[
		{
			"byteLength":266820,
			"uri":"RZ_exit1_gateb.bin"
		}
	]
}
