{
	"asset":{
		"generator":"Khronos glTF Blender I/O v3.5.30",
		"version":"2.0"
	},
	"extensionsUsed":[
		"KHR_materials_specular",
		"KHR_materials_ior"
	],
	"scene":0,
	"scenes":[
		{
			"name":"Scene",
			"nodes":[
				0
			]
		}
	],
	"nodes":[
		{
			"mesh":0,
			"name":"RZ_room2_poffices",
			"rotation":[
				0.7071068286895752,
				0,
				0,
				0.7071068286895752
			]
		}
	],
	"materials":[
		{
			"doubleSided":true,
			"extensions":{
				"KHR_materials_specular":{
					"specularColorFactor":[
						2.371357614441398,
						2.371357614441398,
						2.371357614441398
					]
				},
				"KHR_materials_ior":{
					"ior":1.4500000476837158
				}
			},
			"name":"mat0.005",
			"pbrMetallicRoughness":{
				"baseColorTexture":{
					"index":0
				},
				"metallicFactor":0,
				"roughnessFactor":0.9505894184112549
			}
		},
		{
			"doubleSided":true,
			"extensions":{
				"KHR_materials_specular":{
					"specularColorFactor":[
						2.371357614441398,
						2.371357614441398,
						2.371357614441398
					]
				},
				"KHR_materials_ior":{
					"ior":1.4500000476837158
				}
			},
			"name":"mat1.005",
			"pbrMetallicRoughness":{
				"baseColorTexture":{
					"index":1
				},
				"metallicFactor":0,
				"roughnessFactor":0.9505894184112549
			}
		},
		{
			"doubleSided":true,
			"extensions":{
				"KHR_materials_specular":{
					"specularColorFactor":[
						2.371357614441398,
						2.371357614441398,
						2.371357614441398
					]
				},
				"KHR_materials_ior":{
					"ior":1.4500000476837158
				}
			},
			"name":"mat2.005",
			"pbrMetallicRoughness":{
				"baseColorTexture":{
					"index":2
				},
				"metallicFactor":0,
				"roughnessFactor":0.9505894184112549
			}
		},
		{
			"doubleSided":true,
			"extensions":{
				"KHR_materials_specular":{
					"specularColorFactor":[
						2.371357614441398,
						2.371357614441398,
						2.371357614441398
					]
				},
				"KHR_materials_ior":{
					"ior":1.4500000476837158
				}
			},
			"name":"mat3.005",
			"pbrMetallicRoughness":{
				"baseColorTexture":{
					"index":3
				},
				"metallicFactor":0,
				"roughnessFactor":0.9505894184112549
			}
		},
		{
			"doubleSided":true,
			"extensions":{
				"KHR_materials_specular":{
					"specularColorFactor":[
						2.371357614441398,
						2.371357614441398,
						2.371357614441398
					]
				},
				"KHR_materials_ior":{
					"ior":1.4500000476837158
				}
			},
			"name":"mat4.005",
			"pbrMetallicRoughness":{
				"baseColorTexture":{
					"index":4
				},
				"metallicFactor":0,
				"roughnessFactor":0.9505894184112549
			}
		},
		{
			"doubleSided":true,
			"extensions":{
				"KHR_materials_specular":{
					"specularColorFactor":[
						2.371357614441398,
						2.371357614441398,
						2.371357614441398
					]
				},
				"KHR_materials_ior":{
					"ior":1.4500000476837158
				}
			},
			"name":"mat5.005",
			"pbrMetallicRoughness":{
				"baseColorTexture":{
					"index":5
				},
				"metallicFactor":0,
				"roughnessFactor":0.9505894184112549
			}
		},
		{
			"doubleSided":true,
			"extensions":{
				"KHR_materials_specular":{
					"specularColorFactor":[
						2.371357614441398,
						2.371357614441398,
						2.371357614441398
					]
				},
				"KHR_materials_ior":{
					"ior":1.4500000476837158
				}
			},
			"name":"mat6.005",
			"pbrMetallicRoughness":{
				"baseColorTexture":{
					"index":6
				},
				"metallicFactor":0,
				"roughnessFactor":0.9505894184112549
			}
		},
		{
			"doubleSided":true,
			"extensions":{
				"KHR_materials_specular":{
					"specularColorFactor":[
						2.371357614441398,
						2.371357614441398,
						2.371357614441398
					]
				},
				"KHR_materials_ior":{
					"ior":1.4500000476837158
				}
			},
			"name":"mat7.005",
			"pbrMetallicRoughness":{
				"baseColorTexture":{
					"index":7
				},
				"metallicFactor":0,
				"roughnessFactor":0.9505894184112549
			}
		},
		{
			"doubleSided":true,
			"extensions":{
				"KHR_materials_specular":{
					"specularColorFactor":[
						2.371357614441398,
						2.371357614441398,
						2.371357614441398
					]
				},
				"KHR_materials_ior":{
					"ior":1.4500000476837158
				}
			},
			"name":"mat8.005",
			"pbrMetallicRoughness":{
				"baseColorTexture":{
					"index":8
				},
				"metallicFactor":0,
				"roughnessFactor":0.9505894184112549
			}
		},
		{
			"doubleSided":true,
			"extensions":{
				"KHR_materials_specular":{
					"specularColorFactor":[
						2.371357614441398,
						2.371357614441398,
						2.371357614441398
					]
				},
				"KHR_materials_ior":{
					"ior":1.4500000476837158
				}
			},
			"name":"mat9.004",
			"pbrMetallicRoughness":{
				"baseColorTexture":{
					"index":9
				},
				"metallicFactor":0,
				"roughnessFactor":0.9505894184112549
			}
		},
		{
			"doubleSided":true,
			"extensions":{
				"KHR_materials_specular":{
					"specularColorFactor":[
						2.371357614441398,
						2.371357614441398,
						2.371357614441398
					]
				},
				"KHR_materials_ior":{
					"ior":1.4500000476837158
				}
			},
			"name":"mat10.004",
			"pbrMetallicRoughness":{
				"baseColorTexture":{
					"index":10
				},
				"metallicFactor":0,
				"roughnessFactor":0.9505894184112549
			}
		},
		{
			"doubleSided":true,
			"extensions":{
				"KHR_materials_specular":{
					"specularColorFactor":[
						2.371357614441398,
						2.371357614441398,
						2.371357614441398
					]
				},
				"KHR_materials_ior":{
					"ior":1.4500000476837158
				}
			},
			"name":"mat11.003",
			"pbrMetallicRoughness":{
				"baseColorTexture":{
					"index":11
				},
				"metallicFactor":0,
				"roughnessFactor":0.9505894184112549
			}
		},
		{
			"doubleSided":true,
			"extensions":{
				"KHR_materials_specular":{
					"specularColorFactor":[
						2.371357614441398,
						2.371357614441398,
						2.371357614441398
					]
				},
				"KHR_materials_ior":{
					"ior":1.4500000476837158
				}
			},
			"name":"mat12.001",
			"pbrMetallicRoughness":{
				"baseColorTexture":{
					"index":12
				},
				"metallicFactor":0,
				"roughnessFactor":0.9505894184112549
			}
		}
	],
	"meshes":[
		{
			"name":"RZ_room2_poffices",
			"primitives":[
				{
					"attributes":{
						"POSITION":0,
						"TEXCOORD_0":1,
						"NORMAL":2
					},
					"indices":3,
					"material":0
				},
				{
					"attributes":{
						"POSITION":4,
						"TEXCOORD_0":5,
						"NORMAL":6
					},
					"indices":7,
					"material":1
				},
				{
					"attributes":{
						"POSITION":8,
						"TEXCOORD_0":9,
						"NORMAL":10
					},
					"indices":11,
					"material":2
				},
				{
					"attributes":{
						"POSITION":12,
						"TEXCOORD_0":13,
						"NORMAL":14
					},
					"indices":15,
					"material":3
				},
				{
					"attributes":{
						"POSITION":16,
						"TEXCOORD_0":17,
						"NORMAL":18
					},
					"indices":19,
					"material":4
				},
				{
					"attributes":{
						"POSITION":20,
						"TEXCOORD_0":21,
						"NORMAL":22
					},
					"indices":23,
					"material":5
				},
				{
					"attributes":{
						"POSITION":24,
						"TEXCOORD_0":25,
						"NORMAL":26
					},
					"indices":27,
					"material":6
				},
				{
					"attributes":{
						"POSITION":28,
						"TEXCOORD_0":29,
						"NORMAL":30
					},
					"indices":31,
					"material":7
				},
				{
					"attributes":{
						"POSITION":32,
						"TEXCOORD_0":33,
						"NORMAL":34
					},
					"indices":11,
					"material":8
				},
				{
					"attributes":{
						"POSITION":35,
						"TEXCOORD_0":36,
						"NORMAL":37
					},
					"indices":38,
					"material":9
				},
				{
					"attributes":{
						"POSITION":39,
						"TEXCOORD_0":40,
						"NORMAL":41
					},
					"indices":42,
					"material":10
				},
				{
					"attributes":{
						"POSITION":43,
						"TEXCOORD_0":44,
						"NORMAL":45
					},
					"indices":46,
					"material":11
				},
				{
					"attributes":{
						"POSITION":47,
						"TEXCOORD_0":48,
						"NORMAL":49
					},
					"indices":50,
					"material":12
				}
			]
		}
	],
	"textures":[
		{
			"sampler":0,
			"source":0
		},
		{
			"sampler":0,
			"source":1
		},
		{
			"sampler":0,
			"source":2
		},
		{
			"sampler":0,
			"source":3
		},
		{
			"sampler":0,
			"source":4
		},
		{
			"sampler":0,
			"source":5
		},
		{
			"sampler":0,
			"source":6
		},
		{
			"sampler":0,
			"source":7
		},
		{
			"sampler":0,
			"source":8
		},
		{
			"sampler":0,
			"source":9
		},
		{
			"sampler":0,
			"source":10
		},
		{
			"sampler":0,
			"source":11
		},
		{
			"sampler":0,
			"source":12
		}
	],
	"images":[
		{
			"mimeType":"image/jpeg",
			"name":"officewall",
			"uri":"officewall.jpg"
		},
		{
			"mimeType":"image/jpeg",
			"name":"misc",
			"uri":"misc.jpg"
		},
		{
			"mimeType":"image/jpeg",
			"name":"ceiling",
			"uri":"ceiling.jpg"
		},
		{
			"mimeType":"image/jpeg",
			"name":"tilefloor",
			"uri":"tilefloor.jpg"
		},
		{
			"mimeType":"image/jpeg",
			"name":"metal",
			"uri":"metal.jpg"
		},
		{
			"mimeType":"image/jpeg",
			"name":"dirtymetal",
			"uri":"dirtymetal.jpg"
		},
		{
			"mimeType":"image/jpeg",
			"name":"controlpanel",
			"uri":"controlpanel.jpg"
		},
		{
			"mimeType":"image/jpeg",
			"name":"chatscreen",
			"uri":"chatscreen.jpg"
		},
		{
			"mimeType":"image/jpeg",
			"name":"miscsigns2",
			"uri":"miscsigns2.jpg"
		},
		{
			"mimeType":"image/jpeg",
			"name":"papertexture",
			"uri":"papertexture.jpg"
		},
		{
			"mimeType":"image/jpeg",
			"name":"door",
			"uri":"door.jpg"
		},
		{
			"mimeType":"image/jpeg",
			"name":"red",
			"uri":"red.jpg"
		},
		{
			"mimeType":"image/jpeg",
			"name":"white",
			"uri":"white.jpg"
		}
	],
	"accessors":[
		{
			"bufferView":0,
			"componentType":5126,
			"count":448,
			"max":[
				9.760000228881836,
				10.239999771118164,
				9.999999974752427e-07
			],
			"min":[
				-15.039999961853027,
				-10.239999771118164,
				-3.840001106262207
			],
			"type":"VEC3"
		},
		{
			"bufferView":1,
			"componentType":5126,
			"count":448,
			"type":"VEC2"
		},
		{
			"bufferView":2,
			"componentType":5126,
			"count":448,
			"type":"VEC3"
		},
		{
			"bufferView":3,
			"componentType":5123,
			"count":672,
			"type":"SCALAR"
		},
		{
			"bufferView":4,
			"componentType":5126,
			"count":144,
			"max":[
				7.320000171661377,
				7.879999160766602,
				-3.8199989795684814
			],
			"min":[
				-9.800000190734863,
				-7.880000114440918,
				-3.858241081237793
			],
			"type":"VEC3"
		},
		{
			"bufferView":5,
			"componentType":5126,
			"count":144,
			"type":"VEC2"
		},
		{
			"bufferView":6,
			"componentType":5126,
			"count":144,
			"type":"VEC3"
		},
		{
			"bufferView":7,
			"componentType":5123,
			"count":216,
			"type":"SCALAR"
		},
		{
			"bufferView":8,
			"componentType":5126,
			"count":32,
			"max":[
				9.760000228881836,
				10.239999771118164,
				-3.839998960494995
			],
			"min":[
				-14.859999656677246,
				-10.239999771118164,
				-3.8499999046325684
			],
			"type":"VEC3"
		},
		{
			"bufferView":9,
			"componentType":5126,
			"count":32,
			"type":"VEC2"
		},
		{
			"bufferView":10,
			"componentType":5126,
			"count":32,
			"type":"VEC3"
		},
		{
			"bufferView":11,
			"componentType":5123,
			"count":48,
			"type":"SCALAR"
		},
		{
			"bufferView":12,
			"componentType":5126,
			"count":12,
			"max":[
				9.760001182556152,
				10.239999771118164,
				9.999999974752427e-07
			],
			"min":[
				-14.960000038146973,
				-10.239999771118164,
				-9.999999974752427e-07
			],
			"type":"VEC3"
		},
		{
			"bufferView":13,
			"componentType":5126,
			"count":12,
			"type":"VEC2"
		},
		{
			"bufferView":14,
			"componentType":5126,
			"count":12,
			"type":"VEC3"
		},
		{
			"bufferView":15,
			"componentType":5123,
			"count":18,
			"type":"SCALAR"
		},
		{
			"bufferView":16,
			"componentType":5126,
			"count":4016,
			"max":[
				9.4399995803833,
				9.920003890991211,
				9.999999974752427e-07
			],
			"min":[
				-14.624040603637695,
				-8.937960624694824,
				-3.240000009536743
			],
			"type":"VEC3"
		},
		{
			"bufferView":17,
			"componentType":5126,
			"count":4016,
			"type":"VEC2"
		},
		{
			"bufferView":18,
			"componentType":5126,
			"count":4016,
			"type":"VEC3"
		},
		{
			"bufferView":19,
			"componentType":5123,
			"count":6012,
			"type":"SCALAR"
		},
		{
			"bufferView":20,
			"componentType":5126,
			"count":2088,
			"max":[
				9.4399995803833,
				9.880003929138184,
				0
			],
			"min":[
				-14.624040603637695,
				-8.897960662841797,
				-3.200000047683716
			],
			"type":"VEC3"
		},
		{
			"bufferView":21,
			"componentType":5126,
			"count":2088,
			"type":"VEC2"
		},
		{
			"bufferView":22,
			"componentType":5126,
			"count":2088,
			"type":"VEC3"
		},
		{
			"bufferView":23,
			"componentType":5123,
			"count":3132,
			"type":"SCALAR"
		},
		{
			"bufferView":24,
			"componentType":5126,
			"count":192,
			"max":[
				8.960000038146973,
				9.940000534057617,
				-2.5599989891052246
			],
			"min":[
				2.549999952316284,
				-9.409998893737793,
				-3.3600010871887207
			],
			"type":"VEC3"
		},
		{
			"bufferView":25,
			"componentType":5126,
			"count":192,
			"type":"VEC2"
		},
		{
			"bufferView":26,
			"componentType":5126,
			"count":192,
			"type":"VEC3"
		},
		{
			"bufferView":27,
			"componentType":5123,
			"count":288,
			"type":"SCALAR"
		},
		{
			"bufferView":28,
			"componentType":5126,
			"count":24,
			"max":[
				2.569999933242798,
				-6.187495231628418,
				-2.6799991130828857
			],
			"min":[
				2.559999942779541,
				-6.892496109008789,
				-3.240000009536743
			],
			"type":"VEC3"
		},
		{
			"bufferView":29,
			"componentType":5126,
			"count":24,
			"type":"VEC2"
		},
		{
			"bufferView":30,
			"componentType":5126,
			"count":24,
			"type":"VEC3"
		},
		{
			"bufferView":31,
			"componentType":5123,
			"count":36,
			"type":"SCALAR"
		},
		{
			"bufferView":32,
			"componentType":5126,
			"count":32,
			"max":[
				2.259999990463257,
				4.480000019073486,
				-2.6399989128112793
			],
			"min":[
				-4.820000171661377,
				-6.559999942779541,
				-2.880000114440918
			],
			"type":"VEC3"
		},
		{
			"bufferView":33,
			"componentType":5126,
			"count":32,
			"type":"VEC2"
		},
		{
			"bufferView":34,
			"componentType":5126,
			"count":32,
			"type":"VEC3"
		},
		{
			"bufferView":35,
			"componentType":5126,
			"count":16,
			"max":[
				-14.00629997253418,
				-0.9191219806671143,
				-1.3550000190734863
			],
			"min":[
				-14.590140342712402,
				-1.6327489614486694,
				-1.440000057220459
			],
			"type":"VEC3"
		},
		{
			"bufferView":36,
			"componentType":5126,
			"count":16,
			"type":"VEC2"
		},
		{
			"bufferView":37,
			"componentType":5126,
			"count":16,
			"type":"VEC3"
		},
		{
			"bufferView":38,
			"componentType":5123,
			"count":24,
			"type":"SCALAR"
		},
		{
			"bufferView":39,
			"componentType":5126,
			"count":120,
			"max":[
				-14.223219871520996,
				-1.175935983657837,
				-3.200000047683716
			],
			"min":[
				-14.543219566345215,
				-1.4959360361099243,
				-3.5199999809265137
			],
			"type":"VEC3"
		},
		{
			"bufferView":40,
			"componentType":5126,
			"count":120,
			"type":"VEC2"
		},
		{
			"bufferView":41,
			"componentType":5126,
			"count":120,
			"type":"VEC3"
		},
		{
			"bufferView":42,
			"componentType":5123,
			"count":180,
			"type":"SCALAR"
		},
		{
			"bufferView":43,
			"componentType":5126,
			"count":8,
			"max":[
				-14.00629997253418,
				-0.9191219806671143,
				-1.3550000190734863
			],
			"min":[
				-14.590140342712402,
				-1.6327489614486694,
				-1.440000057220459
			],
			"type":"VEC3"
		},
		{
			"bufferView":44,
			"componentType":5126,
			"count":8,
			"type":"VEC2"
		},
		{
			"bufferView":45,
			"componentType":5126,
			"count":8,
			"type":"VEC3"
		},
		{
			"bufferView":46,
			"componentType":5123,
			"count":12,
			"type":"SCALAR"
		},
		{
			"bufferView":47,
			"componentType":5126,
			"count":632,
			"max":[
				-10.497220039367676,
				-3.1945910453796387,
				-1.2000000476837158
			],
			"min":[
				-10.737189292907715,
				-3.434556007385254,
				-1.5199999809265137
			],
			"type":"VEC3"
		},
		{
			"bufferView":48,
			"componentType":5126,
			"count":632,
			"type":"VEC2"
		},
		{
			"bufferView":49,
			"componentType":5126,
			"count":632,
			"type":"VEC3"
		},
		{
			"bufferView":50,
			"componentType":5123,
			"count":948,
			"type":"SCALAR"
		}
	],
	"bufferViews":[
		{
			"buffer":0,
			"byteLength":5376,
			"byteOffset":0,
			"target":34962
		},
		{
			"buffer":0,
			"byteLength":3584,
			"byteOffset":5376,
			"target":34962
		},
		{
			"buffer":0,
			"byteLength":5376,
			"byteOffset":8960,
			"target":34962
		},
		{
			"buffer":0,
			"byteLength":1344,
			"byteOffset":14336,
			"target":34963
		},
		{
			"buffer":0,
			"byteLength":1728,
			"byteOffset":15680,
			"target":34962
		},
		{
			"buffer":0,
			"byteLength":1152,
			"byteOffset":17408,
			"target":34962
		},
		{
			"buffer":0,
			"byteLength":1728,
			"byteOffset":18560,
			"target":34962
		},
		{
			"buffer":0,
			"byteLength":432,
			"byteOffset":20288,
			"target":34963
		},
		{
			"buffer":0,
			"byteLength":384,
			"byteOffset":20720,
			"target":34962
		},
		{
			"buffer":0,
			"byteLength":256,
			"byteOffset":21104,
			"target":34962
		},
		{
			"buffer":0,
			"byteLength":384,
			"byteOffset":21360,
			"target":34962
		},
		{
			"buffer":0,
			"byteLength":96,
			"byteOffset":21744,
			"target":34963
		},
		{
			"buffer":0,
			"byteLength":144,
			"byteOffset":21840,
			"target":34962
		},
		{
			"buffer":0,
			"byteLength":96,
			"byteOffset":21984,
			"target":34962
		},
		{
			"buffer":0,
			"byteLength":144,
			"byteOffset":22080,
			"target":34962
		},
		{
			"buffer":0,
			"byteLength":36,
			"byteOffset":22224,
			"target":34963
		},
		{
			"buffer":0,
			"byteLength":48192,
			"byteOffset":22260,
			"target":34962
		},
		{
			"buffer":0,
			"byteLength":32128,
			"byteOffset":70452,
			"target":34962
		},
		{
			"buffer":0,
			"byteLength":48192,
			"byteOffset":102580,
			"target":34962
		},
		{
			"buffer":0,
			"byteLength":12024,
			"byteOffset":150772,
			"target":34963
		},
		{
			"buffer":0,
			"byteLength":25056,
			"byteOffset":162796,
			"target":34962
		},
		{
			"buffer":0,
			"byteLength":16704,
			"byteOffset":187852,
			"target":34962
		},
		{
			"buffer":0,
			"byteLength":25056,
			"byteOffset":204556,
			"target":34962
		},
		{
			"buffer":0,
			"byteLength":6264,
			"byteOffset":229612,
			"target":34963
		},
		{
			"buffer":0,
			"byteLength":2304,
			"byteOffset":235876,
			"target":34962
		},
		{
			"buffer":0,
			"byteLength":1536,
			"byteOffset":238180,
			"target":34962
		},
		{
			"buffer":0,
			"byteLength":2304,
			"byteOffset":239716,
			"target":34962
		},
		{
			"buffer":0,
			"byteLength":576,
			"byteOffset":242020,
			"target":34963
		},
		{
			"buffer":0,
			"byteLength":288,
			"byteOffset":242596,
			"target":34962
		},
		{
			"buffer":0,
			"byteLength":192,
			"byteOffset":242884,
			"target":34962
		},
		{
			"buffer":0,
			"byteLength":288,
			"byteOffset":243076,
			"target":34962
		},
		{
			"buffer":0,
			"byteLength":72,
			"byteOffset":243364,
			"target":34963
		},
		{
			"buffer":0,
			"byteLength":384,
			"byteOffset":243436,
			"target":34962
		},
		{
			"buffer":0,
			"byteLength":256,
			"byteOffset":243820,
			"target":34962
		},
		{
			"buffer":0,
			"byteLength":384,
			"byteOffset":244076,
			"target":34962
		},
		{
			"buffer":0,
			"byteLength":192,
			"byteOffset":244460,
			"target":34962
		},
		{
			"buffer":0,
			"byteLength":128,
			"byteOffset":244652,
			"target":34962
		},
		{
			"buffer":0,
			"byteLength":192,
			"byteOffset":244780,
			"target":34962
		},
		{
			"buffer":0,
			"byteLength":48,
			"byteOffset":244972,
			"target":34963
		},
		{
			"buffer":0,
			"byteLength":1440,
			"byteOffset":245020,
			"target":34962
		},
		{
			"buffer":0,
			"byteLength":960,
			"byteOffset":246460,
			"target":34962
		},
		{
			"buffer":0,
			"byteLength":1440,
			"byteOffset":247420,
			"target":34962
		},
		{
			"buffer":0,
			"byteLength":360,
			"byteOffset":248860,
			"target":34963
		},
		{
			"buffer":0,
			"byteLength":96,
			"byteOffset":249220,
			"target":34962
		},
		{
			"buffer":0,
			"byteLength":64,
			"byteOffset":249316,
			"target":34962
		},
		{
			"buffer":0,
			"byteLength":96,
			"byteOffset":249380,
			"target":34962
		},
		{
			"buffer":0,
			"byteLength":24,
			"byteOffset":249476,
			"target":34963
		},
		{
			"buffer":0,
			"byteLength":7584,
			"byteOffset":249500,
			"target":34962
		},
		{
			"buffer":0,
			"byteLength":5056,
			"byteOffset":257084,
			"target":34962
		},
		{
			"buffer":0,
			"byteLength":7584,
			"byteOffset":262140,
			"target":34962
		},
		{
			"buffer":0,
			"byteLength":1896,
			"byteOffset":269724,
			"target":34963
		}
	],
	"samplers":[
		{
			"magFilter":9729,
			"minFilter":9987
		}
	],
	"buffers":[
		{
			"byteLength":271620,
			"uri":"RZ_room2_poffices.bin"
		}
	]
}
