{
	"asset":{
		"generator":"Khronos glTF Blender I/O v3.5.30",
		"version":"2.0"
	},
	"extensionsUsed":[
		"KHR_materials_specular",
		"KHR_materials_ior"
	],
	"scene":0,
	"scenes":[
		{
			"name":"Scene",
			"nodes":[
				0
			]
		}
	],
	"nodes":[
		{
			"mesh":0,
			"name":"room2toilets",
			"rotation":[
				0.70710688829422,
				0,
				0,
				0.7071066498756409
			]
		}
	],
	"materials":[
		{
			"doubleSided":true,
			"extensions":{
				"KHR_materials_specular":{
					"specularColorFactor":[
						2.371357614441398,
						2.371357614441398,
						2.371357614441398
					]
				},
				"KHR_materials_ior":{
					"ior":1.4500000476837158
				}
			},
			"name":"mat0.002",
			"pbrMetallicRoughness":{
				"baseColorTexture":{
					"index":0
				},
				"metallicFactor":0
			}
		},
		{
			"doubleSided":true,
			"extensions":{
				"KHR_materials_specular":{
					"specularColorFactor":[
						2.371357614441398,
						2.371357614441398,
						2.371357614441398
					]
				},
				"KHR_materials_ior":{
					"ior":1.4500000476837158
				}
			},
			"name":"mat1.002",
			"pbrMetallicRoughness":{
				"baseColorTexture":{
					"index":1
				},
				"metallicFactor":0
			}
		},
		{
			"doubleSided":true,
			"extensions":{
				"KHR_materials_specular":{
					"specularColorFactor":[
						2.371357614441398,
						2.371357614441398,
						2.371357614441398
					]
				},
				"KHR_materials_ior":{
					"ior":1.4500000476837158
				}
			},
			"name":"mat2.002",
			"pbrMetallicRoughness":{
				"baseColorTexture":{
					"index":2
				},
				"metallicFactor":0
			}
		},
		{
			"doubleSided":true,
			"extensions":{
				"KHR_materials_specular":{
					"specularColorFactor":[
						2.371357614441398,
						2.371357614441398,
						2.371357614441398
					]
				},
				"KHR_materials_ior":{
					"ior":1.4500000476837158
				}
			},
			"name":"mat3.002",
			"pbrMetallicRoughness":{
				"baseColorTexture":{
					"index":3
				},
				"metallicFactor":0
			}
		},
		{
			"doubleSided":true,
			"extensions":{
				"KHR_materials_specular":{
					"specularColorFactor":[
						2.371357614441398,
						2.371357614441398,
						2.371357614441398
					]
				},
				"KHR_materials_ior":{
					"ior":1.4500000476837158
				}
			},
			"name":"mat4.002",
			"pbrMetallicRoughness":{
				"baseColorTexture":{
					"index":4
				},
				"metallicFactor":0
			}
		},
		{
			"doubleSided":true,
			"extensions":{
				"KHR_materials_specular":{
					"specularColorFactor":[
						2.371357614441398,
						2.371357614441398,
						2.371357614441398
					]
				},
				"KHR_materials_ior":{
					"ior":1.4500000476837158
				}
			},
			"name":"mat5.002",
			"pbrMetallicRoughness":{
				"baseColorTexture":{
					"index":5
				},
				"metallicFactor":0
			}
		},
		{
			"doubleSided":true,
			"extensions":{
				"KHR_materials_specular":{
					"specularColorFactor":[
						2.371357614441398,
						2.371357614441398,
						2.371357614441398
					]
				},
				"KHR_materials_ior":{
					"ior":1.4500000476837158
				}
			},
			"name":"mat6.002",
			"pbrMetallicRoughness":{
				"baseColorTexture":{
					"index":6
				},
				"metallicFactor":0
			}
		},
		{
			"doubleSided":true,
			"extensions":{
				"KHR_materials_specular":{
					"specularColorFactor":[
						2.371357614441398,
						2.371357614441398,
						2.371357614441398
					]
				},
				"KHR_materials_ior":{
					"ior":1.4500000476837158
				}
			},
			"name":"mat7.002",
			"pbrMetallicRoughness":{
				"baseColorTexture":{
					"index":7
				},
				"metallicFactor":0
			}
		},
		{
			"doubleSided":true,
			"extensions":{
				"KHR_materials_specular":{
					"specularColorFactor":[
						2.371357614441398,
						2.371357614441398,
						2.371357614441398
					]
				},
				"KHR_materials_ior":{
					"ior":1.4500000476837158
				}
			},
			"name":"mat8.002",
			"pbrMetallicRoughness":{
				"baseColorTexture":{
					"index":8
				},
				"metallicFactor":0
			}
		}
	],
	"meshes":[
		{
			"name":"room2toilets",
			"primitives":[
				{
					"attributes":{
						"POSITION":0,
						"TEXCOORD_0":1,
						"NORMAL":2
					},
					"indices":3,
					"material":0
				},
				{
					"attributes":{
						"POSITION":4,
						"TEXCOORD_0":5,
						"NORMAL":6
					},
					"indices":7,
					"material":1
				},
				{
					"attributes":{
						"POSITION":8,
						"TEXCOORD_0":9,
						"NORMAL":10
					},
					"indices":11,
					"material":2
				},
				{
					"attributes":{
						"POSITION":12,
						"TEXCOORD_0":13,
						"NORMAL":14
					},
					"indices":15,
					"material":3
				},
				{
					"attributes":{
						"POSITION":16,
						"TEXCOORD_0":17,
						"NORMAL":18
					},
					"indices":19,
					"material":4
				},
				{
					"attributes":{
						"POSITION":20,
						"TEXCOORD_0":21,
						"NORMAL":22
					},
					"indices":23,
					"material":5
				},
				{
					"attributes":{
						"POSITION":24,
						"TEXCOORD_0":25,
						"NORMAL":26
					},
					"indices":11,
					"material":6
				},
				{
					"attributes":{
						"POSITION":27,
						"TEXCOORD_0":28,
						"NORMAL":29
					},
					"indices":30,
					"material":7
				},
				{
					"attributes":{
						"POSITION":31,
						"TEXCOORD_0":32,
						"NORMAL":33
					},
					"indices":34,
					"material":8
				}
			]
		}
	],
	"textures":[
		{
			"sampler":0,
			"source":0
		},
		{
			"sampler":0,
			"source":1
		},
		{
			"sampler":0,
			"source":2
		},
		{
			"sampler":0,
			"source":3
		},
		{
			"sampler":0,
			"source":4
		},
		{
			"sampler":0,
			"source":5
		},
		{
			"sampler":0,
			"source":6
		},
		{
			"sampler":0,
			"source":7
		},
		{
			"sampler":0,
			"source":8
		}
	],
	"images":[
		{
			"mimeType":"image/jpeg",
			"name":"whitewall",
			"uri":"whitewall.jpg"
		},
		{
			"mimeType":"image/jpeg",
			"name":"white",
			"uri":"white.jpg"
		},
		{
			"mimeType":"image/jpeg",
			"name":"concretefloor",
			"uri":"concretefloor.jpg"
		},
		{
			"mimeType":"image/jpeg",
			"name":"misc",
			"uri":"misc.jpg"
		},
		{
			"mimeType":"image/jpeg",
			"name":"dirtymetal",
			"uri":"dirtymetal.jpg"
		},
		{
			"mimeType":"image/jpeg",
			"name":"metal",
			"uri":"metal.jpg"
		},
		{
			"mimeType":"image/jpeg",
			"name":"tilefloor",
			"uri":"tilefloor.jpg"
		},
		{
			"mimeType":"image/jpeg",
			"name":"miscsigns",
			"uri":"miscsigns.jpg"
		},
		{
			"mimeType":"image/jpeg",
			"name":"officewall",
			"uri":"officewall.jpg"
		}
	],
	"accessors":[
		{
			"bufferView":0,
			"componentType":5126,
			"count":2991,
			"max":[
				-2.559999942779541,
				8.000000953674316,
				3.000000106112566e-06
			],
			"min":[
				-15.679999351501465,
				-8,
				-3.8400020599365234
			],
			"type":"VEC3"
		},
		{
			"bufferView":1,
			"componentType":5126,
			"count":2991,
			"type":"VEC2"
		},
		{
			"bufferView":2,
			"componentType":5126,
			"count":2991,
			"type":"VEC3"
		},
		{
			"bufferView":3,
			"componentType":5123,
			"count":10152,
			"type":"SCALAR"
		},
		{
			"bufferView":4,
			"componentType":5126,
			"count":3450,
			"max":[
				-2.559999942779541,
				8.000000953674316,
				3.000000106112566e-06
			],
			"min":[
				-15.359999656677246,
				-8,
				-3.8400020599365234
			],
			"type":"VEC3"
		},
		{
			"bufferView":5,
			"componentType":5126,
			"count":3450,
			"type":"VEC2"
		},
		{
			"bufferView":6,
			"componentType":5126,
			"count":3450,
			"type":"VEC3"
		},
		{
			"bufferView":7,
			"componentType":5123,
			"count":8370,
			"type":"SCALAR"
		},
		{
			"bufferView":8,
			"componentType":5126,
			"count":4,
			"max":[
				3.200000047683716,
				10.240001678466797,
				-3.8399970531463623
			],
			"min":[
				-15.679999351501465,
				-10.239997863769531,
				-3.84000301361084
			],
			"type":"VEC3"
		},
		{
			"bufferView":9,
			"componentType":5126,
			"count":4,
			"type":"VEC2"
		},
		{
			"bufferView":10,
			"componentType":5126,
			"count":4,
			"type":"VEC3"
		},
		{
			"bufferView":11,
			"componentType":5123,
			"count":6,
			"type":"SCALAR"
		},
		{
			"bufferView":12,
			"componentType":5126,
			"count":264,
			"max":[
				0.11043799668550491,
				7.519999980926514,
				1.9999999949504854e-06
			],
			"min":[
				-13.279999732971191,
				-7.519999980926514,
				-3.868683099746704
			],
			"type":"VEC3"
		},
		{
			"bufferView":13,
			"componentType":5126,
			"count":264,
			"type":"VEC2"
		},
		{
			"bufferView":14,
			"componentType":5126,
			"count":264,
			"type":"VEC3"
		},
		{
			"bufferView":15,
			"componentType":5123,
			"count":396,
			"type":"SCALAR"
		},
		{
			"bufferView":16,
			"componentType":5126,
			"count":4490,
			"max":[
				2.9600000381469727,
				8.960002899169922,
				-0.6399989724159241
			],
			"min":[
				-15.279999732971191,
				-7.679996967315674,
				-3.7799999713897705
			],
			"type":"VEC3"
		},
		{
			"bufferView":17,
			"componentType":5126,
			"count":4490,
			"type":"VEC2"
		},
		{
			"bufferView":18,
			"componentType":5126,
			"count":4490,
			"type":"VEC3"
		},
		{
			"bufferView":19,
			"componentType":5123,
			"count":7668,
			"type":"SCALAR"
		},
		{
			"bufferView":20,
			"componentType":5126,
			"count":24,
			"max":[
				-6.119999885559082,
				2.640001058578491,
				-0.31999900937080383
			],
			"min":[
				-15.239999771118164,
				-2.6310369968414307,
				-3.52000093460083
			],
			"type":"VEC3"
		},
		{
			"bufferView":21,
			"componentType":5126,
			"count":24,
			"type":"VEC2"
		},
		{
			"bufferView":22,
			"componentType":5126,
			"count":24,
			"type":"VEC3"
		},
		{
			"bufferView":23,
			"componentType":5123,
			"count":36,
			"type":"SCALAR"
		},
		{
			"bufferView":24,
			"componentType":5126,
			"count":4,
			"max":[
				2.559999942779541,
				10.239999771118164,
				3.000000106112566e-06
			],
			"min":[
				-15.679999351501465,
				-10.239999771118164,
				-3.000000106112566e-06
			],
			"type":"VEC3"
		},
		{
			"bufferView":25,
			"componentType":5126,
			"count":4,
			"type":"VEC2"
		},
		{
			"bufferView":26,
			"componentType":5126,
			"count":4,
			"type":"VEC3"
		},
		{
			"bufferView":27,
			"componentType":5126,
			"count":72,
			"max":[
				-1.6799999475479126,
				1.835000991821289,
				-2.3199989795684814
			],
			"min":[
				-5.125,
				-1.8449989557266235,
				-3.759999990463257
			],
			"type":"VEC3"
		},
		{
			"bufferView":28,
			"componentType":5126,
			"count":72,
			"type":"VEC2"
		},
		{
			"bufferView":29,
			"componentType":5126,
			"count":72,
			"type":"VEC3"
		},
		{
			"bufferView":30,
			"componentType":5123,
			"count":108,
			"type":"SCALAR"
		},
		{
			"bufferView":31,
			"componentType":5126,
			"count":296,
			"max":[
				3.0399999618530273,
				10.240001678466797,
				3.000000106112566e-06
			],
			"min":[
				-2.559999942779541,
				-10.239999771118164,
				-3.84000301361084
			],
			"type":"VEC3"
		},
		{
			"bufferView":32,
			"componentType":5126,
			"count":296,
			"type":"VEC2"
		},
		{
			"bufferView":33,
			"componentType":5126,
			"count":296,
			"type":"VEC3"
		},
		{
			"bufferView":34,
			"componentType":5123,
			"count":444,
			"type":"SCALAR"
		}
	],
	"bufferViews":[
		{
			"buffer":0,
			"byteLength":35892,
			"byteOffset":0,
			"target":34962
		},
		{
			"buffer":0,
			"byteLength":23928,
			"byteOffset":35892,
			"target":34962
		},
		{
			"buffer":0,
			"byteLength":35892,
			"byteOffset":59820,
			"target":34962
		},
		{
			"buffer":0,
			"byteLength":20304,
			"byteOffset":95712,
			"target":34963
		},
		{
			"buffer":0,
			"byteLength":41400,
			"byteOffset":116016,
			"target":34962
		},
		{
			"buffer":0,
			"byteLength":27600,
			"byteOffset":157416,
			"target":34962
		},
		{
			"buffer":0,
			"byteLength":41400,
			"byteOffset":185016,
			"target":34962
		},
		{
			"buffer":0,
			"byteLength":16740,
			"byteOffset":226416,
			"target":34963
		},
		{
			"buffer":0,
			"byteLength":48,
			"byteOffset":243156,
			"target":34962
		},
		{
			"buffer":0,
			"byteLength":32,
			"byteOffset":243204,
			"target":34962
		},
		{
			"buffer":0,
			"byteLength":48,
			"byteOffset":243236,
			"target":34962
		},
		{
			"buffer":0,
			"byteLength":12,
			"byteOffset":243284,
			"target":34963
		},
		{
			"buffer":0,
			"byteLength":3168,
			"byteOffset":243296,
			"target":34962
		},
		{
			"buffer":0,
			"byteLength":2112,
			"byteOffset":246464,
			"target":34962
		},
		{
			"buffer":0,
			"byteLength":3168,
			"byteOffset":248576,
			"target":34962
		},
		{
			"buffer":0,
			"byteLength":792,
			"byteOffset":251744,
			"target":34963
		},
		{
			"buffer":0,
			"byteLength":53880,
			"byteOffset":252536,
			"target":34962
		},
		{
			"buffer":0,
			"byteLength":35920,
			"byteOffset":306416,
			"target":34962
		},
		{
			"buffer":0,
			"byteLength":53880,
			"byteOffset":342336,
			"target":34962
		},
		{
			"buffer":0,
			"byteLength":15336,
			"byteOffset":396216,
			"target":34963
		},
		{
			"buffer":0,
			"byteLength":288,
			"byteOffset":411552,
			"target":34962
		},
		{
			"buffer":0,
			"byteLength":192,
			"byteOffset":411840,
			"target":34962
		},
		{
			"buffer":0,
			"byteLength":288,
			"byteOffset":412032,
			"target":34962
		},
		{
			"buffer":0,
			"byteLength":72,
			"byteOffset":412320,
			"target":34963
		},
		{
			"buffer":0,
			"byteLength":48,
			"byteOffset":412392,
			"target":34962
		},
		{
			"buffer":0,
			"byteLength":32,
			"byteOffset":412440,
			"target":34962
		},
		{
			"buffer":0,
			"byteLength":48,
			"byteOffset":412472,
			"target":34962
		},
		{
			"buffer":0,
			"byteLength":864,
			"byteOffset":412520,
			"target":34962
		},
		{
			"buffer":0,
			"byteLength":576,
			"byteOffset":413384,
			"target":34962
		},
		{
			"buffer":0,
			"byteLength":864,
			"byteOffset":413960,
			"target":34962
		},
		{
			"buffer":0,
			"byteLength":216,
			"byteOffset":414824,
			"target":34963
		},
		{
			"buffer":0,
			"byteLength":3552,
			"byteOffset":415040,
			"target":34962
		},
		{
			"buffer":0,
			"byteLength":2368,
			"byteOffset":418592,
			"target":34962
		},
		{
			"buffer":0,
			"byteLength":3552,
			"byteOffset":420960,
			"target":34962
		},
		{
			"buffer":0,
			"byteLength":888,
			"byteOffset":424512,
			"target":34963
		}
	],
	"samplers":[
		{
			"magFilter":9729,
			"minFilter":9987
		}
	],
	"buffers":[
		{
			"byteLength":425400,
			"uri":"RZ_room2_toilets.bin"
		}
	]
}
