{
	"asset":{
		"generator":"Khronos glTF Blender I/O v3.6.27",
		"version":"2.0"
	},
	"scene":0,
	"scenes":[
		{
			"name":"Scene",
			"nodes":[
				0,
				1,
				2,
				3,
				4,
				5
			]
		}
	],
	"nodes":[
		{
			"mesh":0,
			"name":"k\u00f6rper",
			"translation":[
				0,
				6.4839863777160645,
				0
			]
		},
		{
			"mesh":1,
			"name":"ausl\u00f6ser garde",
			"scale":[
				1.576905608177185,
				0.5992858409881592,
				0.13273893296718597
			],
			"translation":[
				-4.265119552612305,
				5.146116733551025,
				0
			]
		},
		{
			"mesh":2,
			"name":"energie balken",
			"rotation":[
				0,
				0,
				-0.7071068286895752,
				0.7071068286895752
			],
			"scale":[
				0.43750444054603577,
				4.6527299880981445,
				0.8012238144874573
			],
			"translation":[
				1.979206919670105,
				7.035332679748535,
				0
			]
		},
		{
			"mesh":3,
			"name":"ausl\u00f6ser",
			"scale":[
				0.13835197687149048,
				0.6155685782432556,
				0.03273565322160721
			],
			"translation":[
				-4.402035713195801,
				5.796601295471191,
				0
			]
		},
		{
			"mesh":4,
			"name":"magazin.001",
			"rotation":[
				0,
				0,
				-0.7071068286895752,
				0.7071068286895752
			],
			"scale":[
				0.645648717880249,
				0.8579438328742981,
				0.645648717880249
			],
			"translation":[
				-4.35878849029541,
				6.639169692993164,
				0.7209527492523193
			]
		},
		{
			"mesh":4,
			"name":"magazin",
			"rotation":[
				0,
				0,
				-0.7071068286895752,
				0.7071068286895752
			],
			"scale":[
				0.645648717880249,
				0.8579438328742981,
				0.645648717880249
			],
			"translation":[
				-4.35878849029541,
				6.639169692993164,
				-0.7209529876708984
			]
		}
	],
	"materials":[
		{
			"doubleSided":true,
			"name":"Material",
			"pbrMetallicRoughness":{
				"baseColorTexture":{
					"index":0
				},
				"metallicFactor":0,
				"roughnessFactor":0.4000000059604645
			}
		},
		{
			"doubleSided":true,
			"name":"Material.001",
			"pbrMetallicRoughness":{
				"baseColorFactor":[
					0.800000011920929,
					0.800000011920929,
					0.800000011920929,
					1
				],
				"metallicFactor":0.8500000238418579,
				"roughnessFactor":0.2545454502105713
			}
		},
		{
			"doubleSided":true,
			"name":"Material.003",
			"pbrMetallicRoughness":{
				"baseColorFactor":[
					0,
					0,
					0,
					1
				],
				"metallicFactor":0
			}
		},
		{
			"doubleSided":true,
			"name":"Material.002",
			"pbrMetallicRoughness":{
				"baseColorFactor":[
					0,
					0,
					0,
					1
				],
				"metallicFactor":0.8090909123420715,
				"roughnessFactor":0.24090909957885742
			}
		}
	],
	"meshes":[
		{
			"name":"Cube",
			"primitives":[
				{
					"attributes":{
						"POSITION":0,
						"NORMAL":1,
						"TEXCOORD_0":2
					},
					"indices":3,
					"material":0
				},
				{
					"attributes":{
						"POSITION":4,
						"NORMAL":5,
						"TEXCOORD_0":6
					},
					"indices":7,
					"material":1
				},
				{
					"attributes":{
						"POSITION":8,
						"NORMAL":9,
						"TEXCOORD_0":10
					},
					"indices":11,
					"material":2
				}
			]
		},
		{
			"name":"Cube.001",
			"primitives":[
				{
					"attributes":{
						"POSITION":12,
						"NORMAL":13,
						"TEXCOORD_0":14
					},
					"indices":15,
					"material":1
				}
			]
		},
		{
			"name":"Cylinder.001",
			"primitives":[
				{
					"attributes":{
						"POSITION":16,
						"NORMAL":17,
						"TEXCOORD_0":18
					},
					"indices":19,
					"material":1
				}
			]
		},
		{
			"name":"Cube.004",
			"primitives":[
				{
					"attributes":{
						"POSITION":20,
						"NORMAL":21,
						"TEXCOORD_0":22
					},
					"indices":23,
					"material":3
				}
			]
		},
		{
			"name":"Cylinder.002",
			"primitives":[
				{
					"attributes":{
						"POSITION":24,
						"NORMAL":25,
						"TEXCOORD_0":26
					},
					"indices":27,
					"material":3
				}
			]
		}
	],
	"textures":[
		{
			"sampler":0,
			"source":0
		}
	],
	"images":[
		{
			"mimeType":"image/png",
			"name":"Untitled",
			"uri":"Untitled.png"
		}
	],
	"accessors":[
		{
			"bufferView":0,
			"componentType":5126,
			"count":474,
			"max":[
				7.089651107788086,
				1,
				1
			],
			"min":[
				-8.727105140686035,
				-4.5228142738342285,
				-1
			],
			"type":"VEC3"
		},
		{
			"bufferView":1,
			"componentType":5126,
			"count":474,
			"type":"VEC3"
		},
		{
			"bufferView":2,
			"componentType":5126,
			"count":474,
			"type":"VEC2"
		},
		{
			"bufferView":3,
			"componentType":5123,
			"count":906,
			"type":"SCALAR"
		},
		{
			"bufferView":4,
			"componentType":5126,
			"count":156,
			"max":[
				8.238439559936523,
				0.7034067511558533,
				0.7034067511558533
			],
			"min":[
				6.906307220458984,
				-0.7034067511558533,
				-0.7034067511558533
			],
			"type":"VEC3"
		},
		{
			"bufferView":5,
			"componentType":5126,
			"count":156,
			"type":"VEC3"
		},
		{
			"bufferView":6,
			"componentType":5126,
			"count":156,
			"type":"VEC2"
		},
		{
			"bufferView":7,
			"componentType":5123,
			"count":348,
			"type":"SCALAR"
		},
		{
			"bufferView":8,
			"componentType":5126,
			"count":181,
			"max":[
				5.252712249755859,
				0.041120558977127075,
				1.289603590965271
			],
			"min":[
				-1.3803077936172485,
				-1.2047806978225708,
				-1.289603590965271
			],
			"type":"VEC3"
		},
		{
			"bufferView":9,
			"componentType":5126,
			"count":181,
			"type":"VEC3"
		},
		{
			"bufferView":10,
			"componentType":5126,
			"count":181,
			"type":"VEC2"
		},
		{
			"bufferView":11,
			"componentType":5123,
			"count":270,
			"type":"SCALAR"
		},
		{
			"bufferView":12,
			"componentType":5126,
			"count":168,
			"max":[
				0.5557929873466492,
				0.9999419450759888,
				1.000000238418579
			],
			"min":[
				-1.0385727882385254,
				-1.2890114784240723,
				-1.0000004768371582
			],
			"type":"VEC3"
		},
		{
			"bufferView":13,
			"componentType":5126,
			"count":168,
			"type":"VEC3"
		},
		{
			"bufferView":14,
			"componentType":5126,
			"count":168,
			"type":"VEC2"
		},
		{
			"bufferView":15,
			"componentType":5123,
			"count":336,
			"type":"SCALAR"
		},
		{
			"bufferView":16,
			"componentType":5126,
			"count":130,
			"max":[
				1,
				1,
				1
			],
			"min":[
				-1,
				-1,
				-1
			],
			"type":"VEC3"
		},
		{
			"bufferView":17,
			"componentType":5126,
			"count":130,
			"type":"VEC3"
		},
		{
			"bufferView":18,
			"componentType":5126,
			"count":130,
			"type":"VEC2"
		},
		{
			"bufferView":19,
			"componentType":5123,
			"count":372,
			"type":"SCALAR"
		},
		{
			"bufferView":20,
			"componentType":5126,
			"count":104,
			"max":[
				1.1639537811279297,
				0.026546120643615723,
				1
			],
			"min":[
				-2.712554454803467,
				-1.9734543561935425,
				-1
			],
			"type":"VEC3"
		},
		{
			"bufferView":21,
			"componentType":5126,
			"count":104,
			"type":"VEC3"
		},
		{
			"bufferView":22,
			"componentType":5126,
			"count":104,
			"type":"VEC2"
		},
		{
			"bufferView":23,
			"componentType":5123,
			"count":156,
			"type":"SCALAR"
		},
		{
			"bufferView":24,
			"componentType":5126,
			"count":832,
			"max":[
				1,
				1.156044602394104,
				1
			],
			"min":[
				-1,
				-1.2225713729858398,
				-1
			],
			"type":"VEC3"
		},
		{
			"bufferView":25,
			"componentType":5126,
			"count":832,
			"type":"VEC3"
		},
		{
			"bufferView":26,
			"componentType":5126,
			"count":832,
			"type":"VEC2"
		},
		{
			"bufferView":27,
			"componentType":5123,
			"count":1524,
			"type":"SCALAR"
		}
	],
	"bufferViews":[
		{
			"buffer":0,
			"byteLength":5688,
			"byteOffset":0,
			"target":34962
		},
		{
			"buffer":0,
			"byteLength":5688,
			"byteOffset":5688,
			"target":34962
		},
		{
			"buffer":0,
			"byteLength":3792,
			"byteOffset":11376,
			"target":34962
		},
		{
			"buffer":0,
			"byteLength":1812,
			"byteOffset":15168,
			"target":34963
		},
		{
			"buffer":0,
			"byteLength":1872,
			"byteOffset":16980,
			"target":34962
		},
		{
			"buffer":0,
			"byteLength":1872,
			"byteOffset":18852,
			"target":34962
		},
		{
			"buffer":0,
			"byteLength":1248,
			"byteOffset":20724,
			"target":34962
		},
		{
			"buffer":0,
			"byteLength":696,
			"byteOffset":21972,
			"target":34963
		},
		{
			"buffer":0,
			"byteLength":2172,
			"byteOffset":22668,
			"target":34962
		},
		{
			"buffer":0,
			"byteLength":2172,
			"byteOffset":24840,
			"target":34962
		},
		{
			"buffer":0,
			"byteLength":1448,
			"byteOffset":27012,
			"target":34962
		},
		{
			"buffer":0,
			"byteLength":540,
			"byteOffset":28460,
			"target":34963
		},
		{
			"buffer":0,
			"byteLength":2016,
			"byteOffset":29000,
			"target":34962
		},
		{
			"buffer":0,
			"byteLength":2016,
			"byteOffset":31016,
			"target":34962
		},
		{
			"buffer":0,
			"byteLength":1344,
			"byteOffset":33032,
			"target":34962
		},
		{
			"buffer":0,
			"byteLength":672,
			"byteOffset":34376,
			"target":34963
		},
		{
			"buffer":0,
			"byteLength":1560,
			"byteOffset":35048,
			"target":34962
		},
		{
			"buffer":0,
			"byteLength":1560,
			"byteOffset":36608,
			"target":34962
		},
		{
			"buffer":0,
			"byteLength":1040,
			"byteOffset":38168,
			"target":34962
		},
		{
			"buffer":0,
			"byteLength":744,
			"byteOffset":39208,
			"target":34963
		},
		{
			"buffer":0,
			"byteLength":1248,
			"byteOffset":39952,
			"target":34962
		},
		{
			"buffer":0,
			"byteLength":1248,
			"byteOffset":41200,
			"target":34962
		},
		{
			"buffer":0,
			"byteLength":832,
			"byteOffset":42448,
			"target":34962
		},
		{
			"buffer":0,
			"byteLength":312,
			"byteOffset":43280,
			"target":34963
		},
		{
			"buffer":0,
			"byteLength":9984,
			"byteOffset":43592,
			"target":34962
		},
		{
			"buffer":0,
			"byteLength":9984,
			"byteOffset":53576,
			"target":34962
		},
		{
			"buffer":0,
			"byteLength":6656,
			"byteOffset":63560,
			"target":34962
		},
		{
			"buffer":0,
			"byteLength":3048,
			"byteOffset":70216,
			"target":34963
		}
	],
	"samplers":[
		{
			"magFilter":9729,
			"minFilter":9987
		}
	],
	"buffers":[
		{
			"byteLength":73264,
			"uri":"tranquilizer.bin"
		}
	]
}
