{
	"asset":{
		"generator":"Khronos glTF Blender I/O v3.6.27",
		"version":"2.0"
	},
	"scene":0,
	"scenes":[
		{
			"name":"Scene",
			"nodes":[
				0,
				1
			]
		}
	],
	"nodes":[
		{
			"mesh":0,
			"name":"Cube.002"
		},
		{
			"mesh":1,
			"name":"Cube",
			"scale":[
				0.3345721960067749,
				1,
				1
			],
			"translation":[
				0.006444692611694336,
				0,
				0.0022486895322799683
			]
		}
	],
	"materials":[
		{
			"doubleSided":true,
			"name":"hold",
			"normalTexture":{
				"index":0
			},
			"pbrMetallicRoughness":{
				"baseColorTexture":{
					"index":1
				},
				"metallicRoughnessTexture":{
					"index":2
				}
			}
		},
		{
			"doubleSided":true,
			"name":"Material",
			"normalTexture":{
				"index":3
			},
			"pbrMetallicRoughness":{
				"baseColorTexture":{
					"index":4
				},
				"metallicRoughnessTexture":{
					"index":5
				}
			}
		}
	],
	"meshes":[
		{
			"name":"Cube.002",
			"primitives":[
				{
					"attributes":{
						"POSITION":0,
						"NORMAL":1,
						"TEXCOORD_0":2
					},
					"indices":3,
					"material":0
				}
			]
		},
		{
			"name":"Cube",
			"primitives":[
				{
					"attributes":{
						"POSITION":4,
						"NORMAL":5,
						"TEXCOORD_0":6
					},
					"indices":7,
					"material":1
				}
			]
		}
	],
	"textures":[
		{
			"sampler":0,
			"source":0
		},
		{
			"sampler":0,
			"source":1
		},
		{
			"sampler":0,
			"source":2
		},
		{
			"sampler":0,
			"source":3
		},
		{
			"sampler":0,
			"source":4
		},
		{
			"sampler":0,
			"source":5
		}
	],
	"images":[
		{
			"mimeType":"image/png",
			"name":"scp2306_hold_Normal",
			"uri":"scp2306_hold_Normal.png"
		},
		{
			"mimeType":"image/png",
			"name":"scp2306_hold_Albedo",
			"uri":"scp2306_hold_Albedo.png"
		},
		{
			"mimeType":"image/png",
			"name":"scp2306_hold_Metallic-scp2306_hold_Roughness",
			"uri":"scp2306_hold_Metallic-scp2306_hold_Roughness.png"
		},
		{
			"mimeType":"image/png",
			"name":"scp2306_Normal",
			"uri":"scp2306_Normal.png"
		},
		{
			"mimeType":"image/png",
			"name":"scp2306_Albedo",
			"uri":"scp2306_Albedo.png"
		},
		{
			"mimeType":"image/png",
			"name":"scp2306_Metallic-scp2306_Roughness",
			"uri":"scp2306_Metallic-scp2306_Roughness.png"
		}
	],
	"accessors":[
		{
			"bufferView":0,
			"componentType":5126,
			"count":704,
			"max":[
				1.2734155654907227,
				0.15878058969974518,
				1.216834306716919
			],
			"min":[
				-0.3239523768424988,
				-0.11700237542390823,
				-0.32002609968185425
			],
			"type":"VEC3"
		},
		{
			"bufferView":1,
			"componentType":5126,
			"count":704,
			"type":"VEC3"
		},
		{
			"bufferView":2,
			"componentType":5126,
			"count":704,
			"type":"VEC2"
		},
		{
			"bufferView":3,
			"componentType":5123,
			"count":996,
			"type":"SCALAR"
		},
		{
			"bufferView":4,
			"componentType":5126,
			"count":266,
			"max":[
				1.037685513496399,
				0.13376863300800323,
				0.4768485128879547
			],
			"min":[
				-1.079478144645691,
				-0.10127554833889008,
				-1.446293830871582
			],
			"type":"VEC3"
		},
		{
			"bufferView":5,
			"componentType":5126,
			"count":266,
			"type":"VEC3"
		},
		{
			"bufferView":6,
			"componentType":5126,
			"count":266,
			"type":"VEC2"
		},
		{
			"bufferView":7,
			"componentType":5123,
			"count":456,
			"type":"SCALAR"
		}
	],
	"bufferViews":[
		{
			"buffer":0,
			"byteLength":8448,
			"byteOffset":0,
			"target":34962
		},
		{
			"buffer":0,
			"byteLength":8448,
			"byteOffset":8448,
			"target":34962
		},
		{
			"buffer":0,
			"byteLength":5632,
			"byteOffset":16896,
			"target":34962
		},
		{
			"buffer":0,
			"byteLength":1992,
			"byteOffset":22528,
			"target":34963
		},
		{
			"buffer":0,
			"byteLength":3192,
			"byteOffset":24520,
			"target":34962
		},
		{
			"buffer":0,
			"byteLength":3192,
			"byteOffset":27712,
			"target":34962
		},
		{
			"buffer":0,
			"byteLength":2128,
			"byteOffset":30904,
			"target":34962
		},
		{
			"buffer":0,
			"byteLength":912,
			"byteOffset":33032,
			"target":34963
		}
	],
	"samplers":[
		{
			"magFilter":9729,
			"minFilter":9987
		}
	],
	"buffers":[
		{
			"byteLength":33944,
			"uri":"scp2306.bin"
		}
	]
}
