{
	"asset":{
		"generator":"Khronos glTF Blender I/O v3.5.30",
		"version":"2.0"
	},
	"extensionsUsed":[
		"KHR_materials_specular",
		"KHR_materials_ior"
	],
	"scene":0,
	"scenes":[
		{
			"name":"Scene",
			"nodes":[
				0
			]
		}
	],
	"nodes":[
		{
			"mesh":0,
			"name":"HC_cont1_173"
		}
	],
	"materials":[
		{
			"doubleSided":true,
			"extensions":{
				"KHR_materials_specular":{
					"specularColorFactor":[
						2.371357614441398,
						2.371357614441398,
						2.371357614441398
					]
				},
				"KHR_materials_ior":{
					"ior":1.4500000476837158
				}
			},
			"name":"mat0.003",
			"pbrMetallicRoughness":{
				"baseColorTexture":{
					"index":0
				},
				"metallicFactor":0,
				"roughnessFactor":0.9505894184112549
			}
		},
		{
			"doubleSided":true,
			"extensions":{
				"KHR_materials_specular":{
					"specularColorFactor":[
						2.371357614441398,
						2.371357614441398,
						2.371357614441398
					]
				},
				"KHR_materials_ior":{
					"ior":1.4500000476837158
				}
			},
			"name":"mat1.003",
			"pbrMetallicRoughness":{
				"baseColorTexture":{
					"index":1
				},
				"metallicFactor":0,
				"roughnessFactor":0.9505894184112549
			}
		},
		{
			"doubleSided":true,
			"extensions":{
				"KHR_materials_specular":{
					"specularColorFactor":[
						2.371357614441398,
						2.371357614441398,
						2.371357614441398
					]
				},
				"KHR_materials_ior":{
					"ior":1.4500000476837158
				}
			},
			"name":"mat2.003",
			"pbrMetallicRoughness":{
				"baseColorTexture":{
					"index":2
				},
				"metallicFactor":0,
				"roughnessFactor":0.9505894184112549
			}
		},
		{
			"doubleSided":true,
			"extensions":{
				"KHR_materials_specular":{
					"specularColorFactor":[
						2.371357614441398,
						2.371357614441398,
						2.371357614441398
					]
				},
				"KHR_materials_ior":{
					"ior":1.4500000476837158
				}
			},
			"name":"mat3.003",
			"pbrMetallicRoughness":{
				"baseColorTexture":{
					"index":3
				},
				"metallicFactor":0,
				"roughnessFactor":0.9505894184112549
			}
		},
		{
			"doubleSided":true,
			"extensions":{
				"KHR_materials_specular":{
					"specularColorFactor":[
						2.371357614441398,
						2.371357614441398,
						2.371357614441398
					]
				},
				"KHR_materials_ior":{
					"ior":1.4500000476837158
				}
			},
			"name":"mat4.003",
			"pbrMetallicRoughness":{
				"baseColorTexture":{
					"index":4
				},
				"metallicFactor":0,
				"roughnessFactor":0.9505894184112549
			}
		},
		{
			"doubleSided":true,
			"extensions":{
				"KHR_materials_specular":{
					"specularColorFactor":[
						2.371357614441398,
						2.371357614441398,
						2.371357614441398
					]
				},
				"KHR_materials_ior":{
					"ior":1.4500000476837158
				}
			},
			"name":"mat5.003",
			"pbrMetallicRoughness":{
				"baseColorTexture":{
					"index":5
				},
				"metallicFactor":0,
				"roughnessFactor":0.9505894184112549
			}
		},
		{
			"doubleSided":true,
			"extensions":{
				"KHR_materials_specular":{
					"specularColorFactor":[
						2.371357614441398,
						2.371357614441398,
						2.371357614441398
					]
				},
				"KHR_materials_ior":{
					"ior":1.4500000476837158
				}
			},
			"name":"mat6.003",
			"pbrMetallicRoughness":{
				"baseColorTexture":{
					"index":6
				},
				"metallicFactor":0,
				"roughnessFactor":0.9505894184112549
			}
		}
	],
	"meshes":[
		{
			"name":"HC_cont1_173",
			"primitives":[
				{
					"attributes":{
						"POSITION":0,
						"TEXCOORD_0":1,
						"NORMAL":2
					},
					"indices":3,
					"material":0
				},
				{
					"attributes":{
						"POSITION":4,
						"TEXCOORD_0":5,
						"NORMAL":6
					},
					"indices":7,
					"material":1
				},
				{
					"attributes":{
						"POSITION":8,
						"TEXCOORD_0":9,
						"NORMAL":10
					},
					"indices":11,
					"material":2
				},
				{
					"attributes":{
						"POSITION":12,
						"TEXCOORD_0":13,
						"NORMAL":14
					},
					"indices":15,
					"material":3
				},
				{
					"attributes":{
						"POSITION":16,
						"TEXCOORD_0":17,
						"NORMAL":18
					},
					"indices":19,
					"material":4
				},
				{
					"attributes":{
						"POSITION":20,
						"TEXCOORD_0":21,
						"NORMAL":22
					},
					"indices":23,
					"material":5
				},
				{
					"attributes":{
						"POSITION":24,
						"TEXCOORD_0":25,
						"NORMAL":26
					},
					"indices":27,
					"material":6
				}
			]
		}
	],
	"textures":[
		{
			"sampler":0,
			"source":0
		},
		{
			"sampler":0,
			"source":1
		},
		{
			"sampler":0,
			"source":2
		},
		{
			"sampler":0,
			"source":3
		},
		{
			"sampler":0,
			"source":4
		},
		{
			"sampler":0,
			"source":5
		},
		{
			"sampler":0,
			"source":6
		}
	],
	"images":[
		{
			"mimeType":"image/jpeg",
			"name":"metal3",
			"uri":"metal3.jpg"
		},
		{
			"mimeType":"image/jpeg",
			"name":"metal",
			"uri":"metal.jpg"
		},
		{
			"mimeType":"image/jpeg",
			"name":"misc",
			"uri":"misc.jpg"
		},
		{
			"mimeType":"image/jpeg",
			"name":"dirtymetal",
			"uri":"dirtymetal.jpg"
		},
		{
			"mimeType":"image/png",
			"name":"173wall",
			"uri":"173wall.png"
		},
		{
			"mimeType":"image/jpeg",
			"name":"concretewall",
			"uri":"concretewall.jpg"
		},
		{
			"mimeType":"image/jpeg",
			"name":"white",
			"uri":"white.jpg"
		}
	],
	"accessors":[
		{
			"bufferView":0,
			"componentType":5126,
			"count":48,
			"max":[
				10.24000072479248,
				7.730984634690685e-07,
				10.239999771118164
			],
			"min":[
				-8.320000648498535,
				-0.6400007605552673,
				-10.240002632141113
			],
			"type":"VEC3"
		},
		{
			"bufferView":1,
			"componentType":5126,
			"count":48,
			"type":"VEC2"
		},
		{
			"bufferView":2,
			"componentType":5126,
			"count":48,
			"type":"VEC3"
		},
		{
			"bufferView":3,
			"componentType":5123,
			"count":72,
			"type":"SCALAR"
		},
		{
			"bufferView":4,
			"componentType":5126,
			"count":338,
			"max":[
				10.319999694824219,
				4.880001068115234,
				10.319995880126953
			],
			"min":[
				-8.319999694824219,
				-7.670586228414322e-07,
				-10.240002632141113
			],
			"type":"VEC3"
		},
		{
			"bufferView":5,
			"componentType":5126,
			"count":338,
			"type":"VEC2"
		},
		{
			"bufferView":6,
			"componentType":5126,
			"count":338,
			"type":"VEC3"
		},
		{
			"bufferView":7,
			"componentType":5123,
			"count":504,
			"type":"SCALAR"
		},
		{
			"bufferView":8,
			"componentType":5126,
			"count":144,
			"max":[
				4.71999979019165,
				0.01000009011477232,
				1.1999999284744263
			],
			"min":[
				-6,
				-6.704213433295081e-07,
				-8.880000114440918
			],
			"type":"VEC3"
		},
		{
			"bufferView":9,
			"componentType":5126,
			"count":144,
			"type":"VEC2"
		},
		{
			"bufferView":10,
			"componentType":5126,
			"count":144,
			"type":"VEC3"
		},
		{
			"bufferView":11,
			"componentType":5123,
			"count":216,
			"type":"SCALAR"
		},
		{
			"bufferView":12,
			"componentType":5126,
			"count":856,
			"max":[
				5.12000036239624,
				4.800002098083496,
				9.920000076293945
			],
			"min":[
				-7.679999351501465,
				-0.6399998068809509,
				-10.24000072479248
			],
			"type":"VEC3"
		},
		{
			"bufferView":13,
			"componentType":5126,
			"count":856,
			"type":"VEC2"
		},
		{
			"bufferView":14,
			"componentType":5126,
			"count":856,
			"type":"VEC3"
		},
		{
			"bufferView":15,
			"componentType":5123,
			"count":1020,
			"type":"SCALAR"
		},
		{
			"bufferView":16,
			"componentType":5126,
			"count":192,
			"max":[
				5.440000057220459,
				4.9600019454956055,
				2.55999755859375
			],
			"min":[
				-7.679998397827148,
				-0.1600007712841034,
				-10.240002632141113
			],
			"type":"VEC3"
		},
		{
			"bufferView":17,
			"componentType":5126,
			"count":192,
			"type":"VEC2"
		},
		{
			"bufferView":18,
			"componentType":5126,
			"count":192,
			"type":"VEC3"
		},
		{
			"bufferView":19,
			"componentType":5123,
			"count":288,
			"type":"SCALAR"
		},
		{
			"bufferView":20,
			"componentType":5126,
			"count":240,
			"max":[
				10.239999771118164,
				5.040000915527344,
				10.239999771118164
			],
			"min":[
				-8.319999694824219,
				-7.730984634690685e-07,
				-10.239999771118164
			],
			"type":"VEC3"
		},
		{
			"bufferView":21,
			"componentType":5126,
			"count":240,
			"type":"VEC2"
		},
		{
			"bufferView":22,
			"componentType":5126,
			"count":240,
			"type":"VEC3"
		},
		{
			"bufferView":23,
			"componentType":5123,
			"count":360,
			"type":"SCALAR"
		},
		{
			"bufferView":24,
			"componentType":5126,
			"count":16,
			"max":[
				5.119998931884766,
				5.039999961853027,
				2.239997386932373
			],
			"min":[
				-7.679999828338623,
				4.12000036239624,
				1.2799972295761108
			],
			"type":"VEC3"
		},
		{
			"bufferView":25,
			"componentType":5126,
			"count":16,
			"type":"VEC2"
		},
		{
			"bufferView":26,
			"componentType":5126,
			"count":16,
			"type":"VEC3"
		},
		{
			"bufferView":27,
			"componentType":5123,
			"count":24,
			"type":"SCALAR"
		}
	],
	"bufferViews":[
		{
			"buffer":0,
			"byteLength":576,
			"byteOffset":0,
			"target":34962
		},
		{
			"buffer":0,
			"byteLength":384,
			"byteOffset":576,
			"target":34962
		},
		{
			"buffer":0,
			"byteLength":576,
			"byteOffset":960,
			"target":34962
		},
		{
			"buffer":0,
			"byteLength":144,
			"byteOffset":1536,
			"target":34963
		},
		{
			"buffer":0,
			"byteLength":4056,
			"byteOffset":1680,
			"target":34962
		},
		{
			"buffer":0,
			"byteLength":2704,
			"byteOffset":5736,
			"target":34962
		},
		{
			"buffer":0,
			"byteLength":4056,
			"byteOffset":8440,
			"target":34962
		},
		{
			"buffer":0,
			"byteLength":1008,
			"byteOffset":12496,
			"target":34963
		},
		{
			"buffer":0,
			"byteLength":1728,
			"byteOffset":13504,
			"target":34962
		},
		{
			"buffer":0,
			"byteLength":1152,
			"byteOffset":15232,
			"target":34962
		},
		{
			"buffer":0,
			"byteLength":1728,
			"byteOffset":16384,
			"target":34962
		},
		{
			"buffer":0,
			"byteLength":432,
			"byteOffset":18112,
			"target":34963
		},
		{
			"buffer":0,
			"byteLength":10272,
			"byteOffset":18544,
			"target":34962
		},
		{
			"buffer":0,
			"byteLength":6848,
			"byteOffset":28816,
			"target":34962
		},
		{
			"buffer":0,
			"byteLength":10272,
			"byteOffset":35664,
			"target":34962
		},
		{
			"buffer":0,
			"byteLength":2040,
			"byteOffset":45936,
			"target":34963
		},
		{
			"buffer":0,
			"byteLength":2304,
			"byteOffset":47976,
			"target":34962
		},
		{
			"buffer":0,
			"byteLength":1536,
			"byteOffset":50280,
			"target":34962
		},
		{
			"buffer":0,
			"byteLength":2304,
			"byteOffset":51816,
			"target":34962
		},
		{
			"buffer":0,
			"byteLength":576,
			"byteOffset":54120,
			"target":34963
		},
		{
			"buffer":0,
			"byteLength":2880,
			"byteOffset":54696,
			"target":34962
		},
		{
			"buffer":0,
			"byteLength":1920,
			"byteOffset":57576,
			"target":34962
		},
		{
			"buffer":0,
			"byteLength":2880,
			"byteOffset":59496,
			"target":34962
		},
		{
			"buffer":0,
			"byteLength":720,
			"byteOffset":62376,
			"target":34963
		},
		{
			"buffer":0,
			"byteLength":192,
			"byteOffset":63096,
			"target":34962
		},
		{
			"buffer":0,
			"byteLength":128,
			"byteOffset":63288,
			"target":34962
		},
		{
			"buffer":0,
			"byteLength":192,
			"byteOffset":63416,
			"target":34962
		},
		{
			"buffer":0,
			"byteLength":48,
			"byteOffset":63608,
			"target":34963
		}
	],
	"samplers":[
		{
			"magFilter":9729,
			"minFilter":9987
		}
	],
	"buffers":[
		{
			"byteLength":63656,
			"uri":"HC_cont1_173.bin"
		}
	]
}
