{
	"asset":{
		"generator":"Khronos glTF Blender I/O v3.5.30",
		"version":"2.0"
	},
	"extensionsUsed":[
		"KHR_materials_specular",
		"KHR_materials_ior"
	],
	"scene":0,
	"scenes":[
		{
			"name":"Scene",
			"nodes":[
				0
			]
		}
	],
	"nodes":[
		{
			"mesh":0,
			"name":"HC_cont1_173",
			"rotation":[
				0.7071068286895752,
				0,
				0,
				0.7071068286895752
			]
		}
	],
	"materials":[
		{
			"doubleSided":true,
			"extensions":{
				"KHR_materials_specular":{
					"specularColorFactor":[
						2.371357614441398,
						2.371357614441398,
						2.371357614441398
					]
				},
				"KHR_materials_ior":{
					"ior":1.4500000476837158
				}
			},
			"name":"mat0.005",
			"pbrMetallicRoughness":{
				"baseColorTexture":{
					"index":0
				},
				"metallicFactor":0,
				"roughnessFactor":0.9505894184112549
			}
		},
		{
			"doubleSided":true,
			"extensions":{
				"KHR_materials_specular":{
					"specularColorFactor":[
						2.371357614441398,
						2.371357614441398,
						2.371357614441398
					]
				},
				"KHR_materials_ior":{
					"ior":1.4500000476837158
				}
			},
			"name":"mat1.005",
			"pbrMetallicRoughness":{
				"baseColorTexture":{
					"index":1
				},
				"metallicFactor":0,
				"roughnessFactor":0.9505894184112549
			}
		},
		{
			"doubleSided":true,
			"extensions":{
				"KHR_materials_specular":{
					"specularColorFactor":[
						2.371357614441398,
						2.371357614441398,
						2.371357614441398
					]
				},
				"KHR_materials_ior":{
					"ior":1.4500000476837158
				}
			},
			"name":"mat2.005",
			"pbrMetallicRoughness":{
				"baseColorTexture":{
					"index":2
				},
				"metallicFactor":0,
				"roughnessFactor":0.9505894184112549
			}
		},
		{
			"doubleSided":true,
			"extensions":{
				"KHR_materials_specular":{
					"specularColorFactor":[
						2.371357614441398,
						2.371357614441398,
						2.371357614441398
					]
				},
				"KHR_materials_ior":{
					"ior":1.4500000476837158
				}
			},
			"name":"mat3.005",
			"pbrMetallicRoughness":{
				"baseColorTexture":{
					"index":3
				},
				"metallicFactor":0,
				"roughnessFactor":0.9505894184112549
			}
		},
		{
			"doubleSided":true,
			"extensions":{
				"KHR_materials_specular":{
					"specularColorFactor":[
						2.371357614441398,
						2.371357614441398,
						2.371357614441398
					]
				},
				"KHR_materials_ior":{
					"ior":1.4500000476837158
				}
			},
			"name":"mat4.005",
			"pbrMetallicRoughness":{
				"baseColorTexture":{
					"index":4
				},
				"metallicFactor":0,
				"roughnessFactor":0.9505894184112549
			}
		},
		{
			"doubleSided":true,
			"extensions":{
				"KHR_materials_specular":{
					"specularColorFactor":[
						2.371357614441398,
						2.371357614441398,
						2.371357614441398
					]
				},
				"KHR_materials_ior":{
					"ior":1.4500000476837158
				}
			},
			"name":"mat5.005",
			"pbrMetallicRoughness":{
				"baseColorTexture":{
					"index":5
				},
				"metallicFactor":0,
				"roughnessFactor":0.9505894184112549
			}
		},
		{
			"doubleSided":true,
			"extensions":{
				"KHR_materials_specular":{
					"specularColorFactor":[
						2.371357614441398,
						2.371357614441398,
						2.371357614441398
					]
				},
				"KHR_materials_ior":{
					"ior":1.4500000476837158
				}
			},
			"name":"mat6.005",
			"pbrMetallicRoughness":{
				"baseColorTexture":{
					"index":6
				},
				"metallicFactor":0,
				"roughnessFactor":0.9505894184112549
			}
		},
		{
			"doubleSided":true,
			"extensions":{
				"KHR_materials_specular":{
					"specularColorFactor":[
						2.371357614441398,
						2.371357614441398,
						2.371357614441398
					]
				},
				"KHR_materials_ior":{
					"ior":1.4500000476837158
				}
			},
			"name":"mat7.002",
			"pbrMetallicRoughness":{
				"baseColorTexture":{
					"index":7
				},
				"metallicFactor":0,
				"roughnessFactor":0.9505894184112549
			}
		},
		{
			"doubleSided":true,
			"extensions":{
				"KHR_materials_specular":{
					"specularColorFactor":[
						2.371357614441398,
						2.371357614441398,
						2.371357614441398
					]
				},
				"KHR_materials_ior":{
					"ior":1.4500000476837158
				}
			},
			"name":"mat8.002",
			"pbrMetallicRoughness":{
				"baseColorTexture":{
					"index":8
				},
				"metallicFactor":0,
				"roughnessFactor":0.9505894184112549
			}
		}
	],
	"meshes":[
		{
			"name":"HC_cont1_173",
			"primitives":[
				{
					"attributes":{
						"POSITION":0,
						"TEXCOORD_0":1,
						"NORMAL":2
					},
					"indices":3,
					"material":0
				},
				{
					"attributes":{
						"POSITION":4,
						"TEXCOORD_0":5,
						"NORMAL":6
					},
					"indices":7,
					"material":1
				},
				{
					"attributes":{
						"POSITION":8,
						"TEXCOORD_0":9,
						"NORMAL":10
					},
					"indices":11,
					"material":2
				},
				{
					"attributes":{
						"POSITION":12,
						"TEXCOORD_0":13,
						"NORMAL":14
					},
					"indices":15,
					"material":3
				},
				{
					"attributes":{
						"POSITION":16,
						"TEXCOORD_0":17,
						"NORMAL":18
					},
					"indices":19,
					"material":4
				},
				{
					"attributes":{
						"POSITION":20,
						"TEXCOORD_0":21,
						"NORMAL":22
					},
					"indices":19,
					"material":5
				},
				{
					"attributes":{
						"POSITION":23,
						"TEXCOORD_0":24,
						"NORMAL":25
					},
					"indices":26,
					"material":6
				},
				{
					"attributes":{
						"POSITION":27,
						"TEXCOORD_0":28,
						"NORMAL":29
					},
					"indices":30,
					"material":7
				},
				{
					"attributes":{
						"POSITION":31,
						"TEXCOORD_0":32,
						"NORMAL":33
					},
					"indices":30,
					"material":8
				}
			]
		}
	],
	"textures":[
		{
			"sampler":0,
			"source":0
		},
		{
			"sampler":0,
			"source":1
		},
		{
			"sampler":0,
			"source":2
		},
		{
			"sampler":0,
			"source":3
		},
		{
			"sampler":0,
			"source":4
		},
		{
			"sampler":0,
			"source":5
		},
		{
			"sampler":0,
			"source":6
		},
		{
			"sampler":0,
			"source":7
		},
		{
			"sampler":0,
			"source":8
		}
	],
	"images":[
		{
			"mimeType":"image/jpeg",
			"name":"concretewall",
			"uri":"concretewall.jpg"
		},
		{
			"mimeType":"image/jpeg",
			"name":"concretefloor",
			"uri":"concretefloor.jpg"
		},
		{
			"mimeType":"image/jpeg",
			"name":"metal3",
			"uri":"metal3.jpg"
		},
		{
			"mimeType":"image/jpeg",
			"name":"metal",
			"uri":"metal.jpg"
		},
		{
			"mimeType":"image/jpeg",
			"name":"misc",
			"uri":"misc.jpg"
		},
		{
			"mimeType":"image/png",
			"name":"173wall",
			"uri":"173wall.png"
		},
		{
			"mimeType":"image/jpeg",
			"name":"dirtymetal",
			"uri":"dirtymetal.jpg"
		},
		{
			"mimeType":"image/jpeg",
			"name":"white",
			"uri":"white.jpg"
		},
		{
			"mimeType":"image/jpeg",
			"name":"scplogo",
			"uri":"scplogo.jpg"
		}
	],
	"accessors":[
		{
			"bufferView":0,
			"componentType":5126,
			"count":312,
			"max":[
				10.239999771118164,
				10.239999771118164,
				0
			],
			"min":[
				-16.799999237060547,
				-15.359999656677246,
				-7.759999752044678
			],
			"type":"VEC3"
		},
		{
			"bufferView":1,
			"componentType":5126,
			"count":312,
			"type":"VEC2"
		},
		{
			"bufferView":2,
			"componentType":5126,
			"count":312,
			"type":"VEC3"
		},
		{
			"bufferView":3,
			"componentType":5123,
			"count":468,
			"type":"SCALAR"
		},
		{
			"bufferView":4,
			"componentType":5126,
			"count":12,
			"max":[
				-7.3600006103515625,
				10.239999771118164,
				-7.679999828338623
			],
			"min":[
				-16.799999237060547,
				-15.359999656677246,
				-7.690000057220459
			],
			"type":"VEC3"
		},
		{
			"bufferView":5,
			"componentType":5126,
			"count":12,
			"type":"VEC2"
		},
		{
			"bufferView":6,
			"componentType":5126,
			"count":12,
			"type":"VEC3"
		},
		{
			"bufferView":7,
			"componentType":5123,
			"count":18,
			"type":"SCALAR"
		},
		{
			"bufferView":8,
			"componentType":5126,
			"count":72,
			"max":[
				10.24000072479248,
				10.239999771118164,
				0.6399999856948853
			],
			"min":[
				-16.799999237060547,
				-15.039995193481445,
				0
			],
			"type":"VEC3"
		},
		{
			"bufferView":9,
			"componentType":5126,
			"count":72,
			"type":"VEC2"
		},
		{
			"bufferView":10,
			"componentType":5126,
			"count":72,
			"type":"VEC3"
		},
		{
			"bufferView":11,
			"componentType":5123,
			"count":108,
			"type":"SCALAR"
		},
		{
			"bufferView":12,
			"componentType":5126,
			"count":456,
			"max":[
				10.239996910095215,
				10.239999771118164,
				0
			],
			"min":[
				-16.479999542236328,
				-10.160000801086426,
				-7.679999828338623
			],
			"type":"VEC3"
		},
		{
			"bufferView":13,
			"componentType":5126,
			"count":456,
			"type":"VEC2"
		},
		{
			"bufferView":14,
			"componentType":5126,
			"count":456,
			"type":"VEC3"
		},
		{
			"bufferView":15,
			"componentType":5123,
			"count":684,
			"type":"SCALAR"
		},
		{
			"bufferView":16,
			"componentType":5126,
			"count":192,
			"max":[
				4.71999979019165,
				7.87999963760376,
				0
			],
			"min":[
				-10.350439071655273,
				-8.880000114440918,
				-7.708680629730225
			],
			"type":"VEC3"
		},
		{
			"bufferView":17,
			"componentType":5126,
			"count":192,
			"type":"VEC2"
		},
		{
			"bufferView":18,
			"componentType":5126,
			"count":192,
			"type":"VEC3"
		},
		{
			"bufferView":19,
			"componentType":5123,
			"count":288,
			"type":"SCALAR"
		},
		{
			"bufferView":20,
			"componentType":5126,
			"count":192,
			"max":[
				5.440000057220459,
				2.559999942779541,
				1.8999999440438842e-07
			],
			"min":[
				-7.679999828338623,
				-10.239998817443848,
				-4.9600019454956055
			],
			"type":"VEC3"
		},
		{
			"bufferView":21,
			"componentType":5126,
			"count":192,
			"type":"VEC2"
		},
		{
			"bufferView":22,
			"componentType":5126,
			"count":192,
			"type":"VEC3"
		},
		{
			"bufferView":23,
			"componentType":5126,
			"count":2302,
			"max":[
				5.119999408721924,
				5.319999694824219,
				0.6399999856948853
			],
			"min":[
				-16.80000114440918,
				-10.4399995803833,
				-7.680001258850098
			],
			"type":"VEC3"
		},
		{
			"bufferView":24,
			"componentType":5126,
			"count":2302,
			"type":"VEC2"
		},
		{
			"bufferView":25,
			"componentType":5126,
			"count":2302,
			"type":"VEC3"
		},
		{
			"bufferView":26,
			"componentType":5123,
			"count":2820,
			"type":"SCALAR"
		},
		{
			"bufferView":27,
			"componentType":5126,
			"count":24,
			"max":[
				-6.399999618530273,
				10.239999771118164,
				-4.119999885559082
			],
			"min":[
				-16.799999237060547,
				-15.359999656677246,
				-7.690000057220459
			],
			"type":"VEC3"
		},
		{
			"bufferView":28,
			"componentType":5126,
			"count":24,
			"type":"VEC2"
		},
		{
			"bufferView":29,
			"componentType":5126,
			"count":24,
			"type":"VEC3"
		},
		{
			"bufferView":30,
			"componentType":5123,
			"count":36,
			"type":"SCALAR"
		},
		{
			"bufferView":31,
			"componentType":5126,
			"count":24,
			"max":[
				-16.420000076293945,
				0.08235299587249756,
				-4.076362609863281
			],
			"min":[
				-16.479999542236328,
				-4.9623541831970215,
				-7.203635215759277
			],
			"type":"VEC3"
		},
		{
			"bufferView":32,
			"componentType":5126,
			"count":24,
			"type":"VEC2"
		},
		{
			"bufferView":33,
			"componentType":5126,
			"count":24,
			"type":"VEC3"
		}
	],
	"bufferViews":[
		{
			"buffer":0,
			"byteLength":3744,
			"byteOffset":0,
			"target":34962
		},
		{
			"buffer":0,
			"byteLength":2496,
			"byteOffset":3744,
			"target":34962
		},
		{
			"buffer":0,
			"byteLength":3744,
			"byteOffset":6240,
			"target":34962
		},
		{
			"buffer":0,
			"byteLength":936,
			"byteOffset":9984,
			"target":34963
		},
		{
			"buffer":0,
			"byteLength":144,
			"byteOffset":10920,
			"target":34962
		},
		{
			"buffer":0,
			"byteLength":96,
			"byteOffset":11064,
			"target":34962
		},
		{
			"buffer":0,
			"byteLength":144,
			"byteOffset":11160,
			"target":34962
		},
		{
			"buffer":0,
			"byteLength":36,
			"byteOffset":11304,
			"target":34963
		},
		{
			"buffer":0,
			"byteLength":864,
			"byteOffset":11340,
			"target":34962
		},
		{
			"buffer":0,
			"byteLength":576,
			"byteOffset":12204,
			"target":34962
		},
		{
			"buffer":0,
			"byteLength":864,
			"byteOffset":12780,
			"target":34962
		},
		{
			"buffer":0,
			"byteLength":216,
			"byteOffset":13644,
			"target":34963
		},
		{
			"buffer":0,
			"byteLength":5472,
			"byteOffset":13860,
			"target":34962
		},
		{
			"buffer":0,
			"byteLength":3648,
			"byteOffset":19332,
			"target":34962
		},
		{
			"buffer":0,
			"byteLength":5472,
			"byteOffset":22980,
			"target":34962
		},
		{
			"buffer":0,
			"byteLength":1368,
			"byteOffset":28452,
			"target":34963
		},
		{
			"buffer":0,
			"byteLength":2304,
			"byteOffset":29820,
			"target":34962
		},
		{
			"buffer":0,
			"byteLength":1536,
			"byteOffset":32124,
			"target":34962
		},
		{
			"buffer":0,
			"byteLength":2304,
			"byteOffset":33660,
			"target":34962
		},
		{
			"buffer":0,
			"byteLength":576,
			"byteOffset":35964,
			"target":34963
		},
		{
			"buffer":0,
			"byteLength":2304,
			"byteOffset":36540,
			"target":34962
		},
		{
			"buffer":0,
			"byteLength":1536,
			"byteOffset":38844,
			"target":34962
		},
		{
			"buffer":0,
			"byteLength":2304,
			"byteOffset":40380,
			"target":34962
		},
		{
			"buffer":0,
			"byteLength":27624,
			"byteOffset":42684,
			"target":34962
		},
		{
			"buffer":0,
			"byteLength":18416,
			"byteOffset":70308,
			"target":34962
		},
		{
			"buffer":0,
			"byteLength":27624,
			"byteOffset":88724,
			"target":34962
		},
		{
			"buffer":0,
			"byteLength":5640,
			"byteOffset":116348,
			"target":34963
		},
		{
			"buffer":0,
			"byteLength":288,
			"byteOffset":121988,
			"target":34962
		},
		{
			"buffer":0,
			"byteLength":192,
			"byteOffset":122276,
			"target":34962
		},
		{
			"buffer":0,
			"byteLength":288,
			"byteOffset":122468,
			"target":34962
		},
		{
			"buffer":0,
			"byteLength":72,
			"byteOffset":122756,
			"target":34963
		},
		{
			"buffer":0,
			"byteLength":288,
			"byteOffset":122828,
			"target":34962
		},
		{
			"buffer":0,
			"byteLength":192,
			"byteOffset":123116,
			"target":34962
		},
		{
			"buffer":0,
			"byteLength":288,
			"byteOffset":123308,
			"target":34962
		}
	],
	"samplers":[
		{
			"magFilter":9729,
			"minFilter":9987
		}
	],
	"buffers":[
		{
			"byteLength":123596,
			"uri":"HC_cont1_173.bin"
		}
	]
}
