{
	"asset":{
		"generator":"Khronos glTF Blender I/O v3.6.27",
		"version":"2.0"
	},
	"extensionsUsed":[
		"KHR_materials_specular",
		"KHR_materials_ior"
	],
	"scene":0,
	"scenes":[
		{
			"name":"Scene",
			"nodes":[
				0
			]
		}
	],
	"nodes":[
		{
			"mesh":0,
			"name":"HC_cont1_3199"
		}
	],
	"materials":[
		{
			"doubleSided":true,
			"extensions":{
				"KHR_materials_specular":{
					"specularColorFactor":[
						2.371357614441398,
						2.371357614441398,
						2.371357614441398
					]
				},
				"KHR_materials_ior":{
					"ior":1.4500000476837158
				}
			},
			"name":"mat0",
			"pbrMetallicRoughness":{
				"baseColorTexture":{
					"index":0
				},
				"metallicFactor":0,
				"roughnessFactor":0.9505894184112549
			}
		},
		{
			"doubleSided":true,
			"extensions":{
				"KHR_materials_specular":{
					"specularColorFactor":[
						2.371357614441398,
						2.371357614441398,
						2.371357614441398
					]
				},
				"KHR_materials_ior":{
					"ior":1.4500000476837158
				}
			},
			"name":"mat1",
			"pbrMetallicRoughness":{
				"baseColorTexture":{
					"index":1
				},
				"metallicFactor":0,
				"roughnessFactor":0.9505894184112549
			}
		},
		{
			"doubleSided":true,
			"extensions":{
				"KHR_materials_specular":{
					"specularColorFactor":[
						2.371357614441398,
						2.371357614441398,
						2.371357614441398
					]
				},
				"KHR_materials_ior":{
					"ior":1.4500000476837158
				}
			},
			"name":"mat2",
			"pbrMetallicRoughness":{
				"baseColorTexture":{
					"index":2
				},
				"metallicFactor":0,
				"roughnessFactor":0.9505894184112549
			}
		},
		{
			"doubleSided":true,
			"extensions":{
				"KHR_materials_specular":{
					"specularColorFactor":[
						2.371357614441398,
						2.371357614441398,
						2.371357614441398
					]
				},
				"KHR_materials_ior":{
					"ior":1.4500000476837158
				}
			},
			"name":"mat3",
			"pbrMetallicRoughness":{
				"baseColorTexture":{
					"index":3
				},
				"metallicFactor":0,
				"roughnessFactor":0.9505894184112549
			}
		},
		{
			"doubleSided":true,
			"extensions":{
				"KHR_materials_specular":{
					"specularColorFactor":[
						2.371357614441398,
						2.371357614441398,
						2.371357614441398
					]
				},
				"KHR_materials_ior":{
					"ior":1.4500000476837158
				}
			},
			"name":"mat4",
			"pbrMetallicRoughness":{
				"baseColorTexture":{
					"index":4
				},
				"metallicFactor":0,
				"roughnessFactor":0.9505894184112549
			}
		},
		{
			"doubleSided":true,
			"extensions":{
				"KHR_materials_specular":{
					"specularColorFactor":[
						2.371357614441398,
						2.371357614441398,
						2.371357614441398
					]
				},
				"KHR_materials_ior":{
					"ior":1.4500000476837158
				}
			},
			"name":"mat5",
			"pbrMetallicRoughness":{
				"baseColorTexture":{
					"index":5
				},
				"metallicFactor":0,
				"roughnessFactor":0.9505894184112549
			}
		}
	],
	"meshes":[
		{
			"name":"HC_cont1_3199",
			"primitives":[
				{
					"attributes":{
						"POSITION":0,
						"NORMAL":1,
						"TEXCOORD_0":2
					},
					"indices":3,
					"material":0
				},
				{
					"attributes":{
						"POSITION":4,
						"NORMAL":5,
						"TEXCOORD_0":6
					},
					"indices":3,
					"material":1
				},
				{
					"attributes":{
						"POSITION":7,
						"NORMAL":8,
						"TEXCOORD_0":9
					},
					"indices":10,
					"material":2
				},
				{
					"attributes":{
						"POSITION":11,
						"NORMAL":12,
						"TEXCOORD_0":13
					},
					"indices":14,
					"material":3
				},
				{
					"attributes":{
						"POSITION":15,
						"NORMAL":16,
						"TEXCOORD_0":17
					},
					"indices":14,
					"material":4
				},
				{
					"attributes":{
						"POSITION":18,
						"NORMAL":19,
						"TEXCOORD_0":20
					},
					"indices":21,
					"material":5
				}
			]
		}
	],
	"textures":[
		{
			"sampler":0,
			"source":0
		},
		{
			"sampler":0,
			"source":1
		},
		{
			"sampler":0,
			"source":2
		},
		{
			"sampler":0,
			"source":3
		},
		{
			"sampler":0,
			"source":4
		},
		{
			"sampler":0,
			"source":5
		}
	],
	"images":[
		{
			"mimeType":"image/jpeg",
			"name":"dirtymetal",
			"uri":"dirtymetal.jpg"
		},
		{
			"mimeType":"image/png",
			"name":"bricks066_2k_color",
			"uri":"bricks066_2k_color.png"
		},
		{
			"mimeType":"image/jpeg",
			"name":"metal_darker",
			"uri":"metal_darker.jpg"
		},
		{
			"mimeType":"image/png",
			"name":"concrete034_2k_color",
			"uri":"concrete034_2k_color.png"
		},
		{
			"mimeType":"image/png",
			"name":"tiles107_2k_color",
			"uri":"tiles107_2k_color.png"
		},
		{
			"mimeType":"image/jpeg",
			"name":"metal",
			"uri":"metal.jpg"
		}
	],
	"accessors":[
		{
			"bufferView":0,
			"componentType":5126,
			"count":288,
			"max":[
				9.879996299743652,
				1.1076927185058594,
				-2.5999999046325684
			],
			"min":[
				8.99999713897705,
				-6.004192414366116e-07,
				-7.952794075012207
			],
			"type":"VEC3"
		},
		{
			"bufferView":1,
			"componentType":5126,
			"count":288,
			"type":"VEC3"
		},
		{
			"bufferView":2,
			"componentType":5126,
			"count":288,
			"type":"VEC2"
		},
		{
			"bufferView":3,
			"componentType":5123,
			"count":432,
			"type":"SCALAR"
		},
		{
			"bufferView":4,
			"componentType":5126,
			"count":288,
			"max":[
				10.239999771118164,
				5.119999885559082,
				10.240002632141113
			],
			"min":[
				-4.159999847412109,
				-6.764611839571444e-07,
				-8.960000038146973
			],
			"type":"VEC3"
		},
		{
			"bufferView":5,
			"componentType":5126,
			"count":288,
			"type":"VEC3"
		},
		{
			"bufferView":6,
			"componentType":5126,
			"count":288,
			"type":"VEC2"
		},
		{
			"bufferView":7,
			"componentType":5126,
			"count":52,
			"max":[
				-4.16190767288208,
				4.71999979019165,
				0.1599999964237213
			],
			"min":[
				-10.241908073425293,
				-6.764611271137255e-07,
				-8.960000038146973
			],
			"type":"VEC3"
		},
		{
			"bufferView":8,
			"componentType":5126,
			"count":52,
			"type":"VEC3"
		},
		{
			"bufferView":9,
			"componentType":5126,
			"count":52,
			"type":"VEC2"
		},
		{
			"bufferView":10,
			"componentType":5123,
			"count":78,
			"type":"SCALAR"
		},
		{
			"bufferView":11,
			"componentType":5126,
			"count":24,
			"max":[
				10.239999771118164,
				4.4900007247924805,
				10.239999771118164
			],
			"min":[
				-10.239999771118164,
				4.479999542236328,
				-8.960000991821289
			],
			"type":"VEC3"
		},
		{
			"bufferView":12,
			"componentType":5126,
			"count":24,
			"type":"VEC3"
		},
		{
			"bufferView":13,
			"componentType":5126,
			"count":24,
			"type":"VEC2"
		},
		{
			"bufferView":14,
			"componentType":5123,
			"count":36,
			"type":"SCALAR"
		},
		{
			"bufferView":15,
			"componentType":5126,
			"count":24,
			"max":[
				10.239994049072266,
				7.730984066256497e-07,
				10.239998817443848
			],
			"min":[
				-10.239998817443848,
				-0.6400006413459778,
				-8.960000038146973
			],
			"type":"VEC3"
		},
		{
			"bufferView":16,
			"componentType":5126,
			"count":24,
			"type":"VEC3"
		},
		{
			"bufferView":17,
			"componentType":5126,
			"count":24,
			"type":"VEC2"
		},
		{
			"bufferView":18,
			"componentType":5126,
			"count":48,
			"max":[
				9.920000076293945,
				1.1999996900558472,
				-2.559999942779541
			],
			"min":[
				8.963821411132812,
				1.1076923608779907,
				-8
			],
			"type":"VEC3"
		},
		{
			"bufferView":19,
			"componentType":5126,
			"count":48,
			"type":"VEC3"
		},
		{
			"bufferView":20,
			"componentType":5126,
			"count":48,
			"type":"VEC2"
		},
		{
			"bufferView":21,
			"componentType":5123,
			"count":72,
			"type":"SCALAR"
		}
	],
	"bufferViews":[
		{
			"buffer":0,
			"byteLength":3456,
			"byteOffset":0,
			"target":34962
		},
		{
			"buffer":0,
			"byteLength":3456,
			"byteOffset":3456,
			"target":34962
		},
		{
			"buffer":0,
			"byteLength":2304,
			"byteOffset":6912,
			"target":34962
		},
		{
			"buffer":0,
			"byteLength":864,
			"byteOffset":9216,
			"target":34963
		},
		{
			"buffer":0,
			"byteLength":3456,
			"byteOffset":10080,
			"target":34962
		},
		{
			"buffer":0,
			"byteLength":3456,
			"byteOffset":13536,
			"target":34962
		},
		{
			"buffer":0,
			"byteLength":2304,
			"byteOffset":16992,
			"target":34962
		},
		{
			"buffer":0,
			"byteLength":624,
			"byteOffset":19296,
			"target":34962
		},
		{
			"buffer":0,
			"byteLength":624,
			"byteOffset":19920,
			"target":34962
		},
		{
			"buffer":0,
			"byteLength":416,
			"byteOffset":20544,
			"target":34962
		},
		{
			"buffer":0,
			"byteLength":156,
			"byteOffset":20960,
			"target":34963
		},
		{
			"buffer":0,
			"byteLength":288,
			"byteOffset":21116,
			"target":34962
		},
		{
			"buffer":0,
			"byteLength":288,
			"byteOffset":21404,
			"target":34962
		},
		{
			"buffer":0,
			"byteLength":192,
			"byteOffset":21692,
			"target":34962
		},
		{
			"buffer":0,
			"byteLength":72,
			"byteOffset":21884,
			"target":34963
		},
		{
			"buffer":0,
			"byteLength":288,
			"byteOffset":21956,
			"target":34962
		},
		{
			"buffer":0,
			"byteLength":288,
			"byteOffset":22244,
			"target":34962
		},
		{
			"buffer":0,
			"byteLength":192,
			"byteOffset":22532,
			"target":34962
		},
		{
			"buffer":0,
			"byteLength":576,
			"byteOffset":22724,
			"target":34962
		},
		{
			"buffer":0,
			"byteLength":576,
			"byteOffset":23300,
			"target":34962
		},
		{
			"buffer":0,
			"byteLength":384,
			"byteOffset":23876,
			"target":34962
		},
		{
			"buffer":0,
			"byteLength":144,
			"byteOffset":24260,
			"target":34963
		}
	],
	"samplers":[
		{
			"magFilter":9729,
			"minFilter":9987
		}
	],
	"buffers":[
		{
			"byteLength":24404,
			"uri":"HC_cont1_3199.bin"
		}
	]
}
