{
	"asset":{
		"generator":"Khronos glTF Blender I/O v3.6.27",
		"version":"2.0"
	},
	"extensionsUsed":[
		"KHR_materials_specular",
		"KHR_materials_ior"
	],
	"scene":0,
	"scenes":[
		{
			"name":"Scene",
			"nodes":[
				0
			]
		}
	],
	"nodes":[
		{
			"mesh":0,
			"name":"HC_cont1_106",
			"rotation":[
				0.7071068286895752,
				0,
				0,
				0.7071068286895752
			],
			"scale":[
				0.009999999776482582,
				0.009999999776482582,
				0.009999999776482582
			],
			"translation":[
				0.31999900937080383,
				0,
				0
			]
		}
	],
	"materials":[
		{
			"doubleSided":true,
			"extensions":{
				"KHR_materials_specular":{
					"specularColorFactor":[
						2.371357614441398,
						2.371357614441398,
						2.371357614441398
					]
				},
				"KHR_materials_ior":{
					"ior":1.4500000476837158
				}
			},
			"name":"mat0",
			"pbrMetallicRoughness":{
				"baseColorTexture":{
					"index":0
				},
				"metallicFactor":0,
				"roughnessFactor":0.9505894184112549
			}
		},
		{
			"doubleSided":true,
			"extensions":{
				"KHR_materials_specular":{
					"specularColorFactor":[
						2.371357614441398,
						2.371357614441398,
						2.371357614441398
					]
				},
				"KHR_materials_ior":{
					"ior":1.4500000476837158
				}
			},
			"name":"mat1",
			"pbrMetallicRoughness":{
				"baseColorTexture":{
					"index":1
				},
				"metallicFactor":0,
				"roughnessFactor":0.9505894184112549
			}
		},
		{
			"doubleSided":true,
			"extensions":{
				"KHR_materials_specular":{
					"specularColorFactor":[
						2.371357614441398,
						2.371357614441398,
						2.371357614441398
					]
				},
				"KHR_materials_ior":{
					"ior":1.4500000476837158
				}
			},
			"name":"mat2",
			"pbrMetallicRoughness":{
				"baseColorTexture":{
					"index":2
				},
				"metallicFactor":0,
				"roughnessFactor":0.9505894184112549
			}
		},
		{
			"doubleSided":true,
			"extensions":{
				"KHR_materials_specular":{
					"specularColorFactor":[
						2.371357614441398,
						2.371357614441398,
						2.371357614441398
					]
				},
				"KHR_materials_ior":{
					"ior":1.4500000476837158
				}
			},
			"name":"mat3",
			"pbrMetallicRoughness":{
				"baseColorTexture":{
					"index":3
				},
				"metallicFactor":0,
				"roughnessFactor":0.9505894184112549
			}
		},
		{
			"doubleSided":true,
			"extensions":{
				"KHR_materials_specular":{
					"specularColorFactor":[
						2.371357614441398,
						2.371357614441398,
						2.371357614441398
					]
				},
				"KHR_materials_ior":{
					"ior":1.4500000476837158
				}
			},
			"name":"mat4",
			"pbrMetallicRoughness":{
				"baseColorTexture":{
					"index":4
				},
				"metallicFactor":0,
				"roughnessFactor":0.9505894184112549
			}
		},
		{
			"doubleSided":true,
			"extensions":{
				"KHR_materials_specular":{
					"specularColorFactor":[
						2.371357614441398,
						2.371357614441398,
						2.371357614441398
					]
				},
				"KHR_materials_ior":{
					"ior":1.4500000476837158
				}
			},
			"name":"mat5",
			"pbrMetallicRoughness":{
				"baseColorTexture":{
					"index":5
				},
				"metallicFactor":0,
				"roughnessFactor":0.9505894184112549
			}
		},
		{
			"doubleSided":true,
			"extensions":{
				"KHR_materials_specular":{
					"specularColorFactor":[
						2.371357614441398,
						2.371357614441398,
						2.371357614441398
					]
				},
				"KHR_materials_ior":{
					"ior":1.4500000476837158
				}
			},
			"name":"mat6",
			"normalTexture":{
				"index":6
			},
			"pbrMetallicRoughness":{
				"baseColorTexture":{
					"index":7
				},
				"metallicFactor":0,
				"metallicRoughnessTexture":{
					"index":8
				}
			}
		},
		{
			"doubleSided":true,
			"extensions":{
				"KHR_materials_specular":{
					"specularColorFactor":[
						2.371357614441398,
						2.371357614441398,
						2.371357614441398
					]
				},
				"KHR_materials_ior":{
					"ior":1.4500000476837158
				}
			},
			"name":"mat7",
			"normalTexture":{
				"index":9
			},
			"pbrMetallicRoughness":{
				"baseColorTexture":{
					"index":10
				},
				"metallicFactor":0,
				"metallicRoughnessTexture":{
					"index":11
				}
			}
		},
		{
			"doubleSided":true,
			"extensions":{
				"KHR_materials_specular":{
					"specularColorFactor":[
						2.371357614441398,
						2.371357614441398,
						2.371357614441398
					]
				},
				"KHR_materials_ior":{
					"ior":1.4500000476837158
				}
			},
			"name":"mat8",
			"pbrMetallicRoughness":{
				"baseColorTexture":{
					"index":12
				},
				"metallicFactor":0,
				"roughnessFactor":0.9505894184112549
			}
		},
		{
			"doubleSided":true,
			"extensions":{
				"KHR_materials_specular":{
					"specularColorFactor":[
						2.371357614441398,
						2.371357614441398,
						2.371357614441398
					]
				},
				"KHR_materials_ior":{
					"ior":1.4500000476837158
				}
			},
			"name":"mat9",
			"pbrMetallicRoughness":{
				"baseColorTexture":{
					"index":13
				},
				"metallicFactor":0,
				"roughnessFactor":0.9505894184112549
			}
		},
		{
			"doubleSided":true,
			"extensions":{
				"KHR_materials_specular":{
					"specularColorFactor":[
						2.371357614441398,
						2.371357614441398,
						2.371357614441398
					]
				},
				"KHR_materials_ior":{
					"ior":1.4500000476837158
				}
			},
			"name":"mat10",
			"pbrMetallicRoughness":{
				"baseColorTexture":{
					"index":14
				},
				"metallicFactor":0,
				"roughnessFactor":0.9505894184112549
			}
		},
		{
			"doubleSided":true,
			"extensions":{
				"KHR_materials_specular":{
					"specularColorFactor":[
						2.371357614441398,
						2.371357614441398,
						2.371357614441398
					]
				},
				"KHR_materials_ior":{
					"ior":1.4500000476837158
				}
			},
			"name":"mat11",
			"pbrMetallicRoughness":{
				"baseColorTexture":{
					"index":15
				},
				"metallicFactor":0,
				"roughnessFactor":0.9505894184112549
			}
		},
		{
			"doubleSided":true,
			"extensions":{
				"KHR_materials_specular":{
					"specularColorFactor":[
						2.371357614441398,
						2.371357614441398,
						2.371357614441398
					]
				},
				"KHR_materials_ior":{
					"ior":1.4500000476837158
				}
			},
			"name":"mat12",
			"pbrMetallicRoughness":{
				"baseColorTexture":{
					"index":16
				},
				"metallicFactor":0,
				"roughnessFactor":0.9505894184112549
			}
		},
		{
			"doubleSided":true,
			"extensions":{
				"KHR_materials_specular":{
					"specularColorFactor":[
						2.371357614441398,
						2.371357614441398,
						2.371357614441398
					]
				},
				"KHR_materials_ior":{
					"ior":1.4500000476837158
				}
			},
			"name":"mat13",
			"pbrMetallicRoughness":{
				"baseColorTexture":{
					"index":17
				},
				"metallicFactor":0,
				"roughnessFactor":0.9505894184112549
			}
		}
	],
	"meshes":[
		{
			"name":"HC_cont1_106",
			"primitives":[
				{
					"attributes":{
						"POSITION":0,
						"NORMAL":1,
						"TEXCOORD_0":2
					},
					"indices":3,
					"material":0
				},
				{
					"attributes":{
						"POSITION":4,
						"NORMAL":5,
						"TEXCOORD_0":6
					},
					"indices":7,
					"material":1
				},
				{
					"attributes":{
						"POSITION":8,
						"NORMAL":9,
						"TEXCOORD_0":10
					},
					"indices":11,
					"material":2
				},
				{
					"attributes":{
						"POSITION":12,
						"NORMAL":13,
						"TEXCOORD_0":14
					},
					"indices":15,
					"material":3
				},
				{
					"attributes":{
						"POSITION":16,
						"NORMAL":17,
						"TEXCOORD_0":18
					},
					"indices":19,
					"material":4
				},
				{
					"attributes":{
						"POSITION":20,
						"NORMAL":21,
						"TEXCOORD_0":22
					},
					"indices":23,
					"material":5
				},
				{
					"attributes":{
						"POSITION":24,
						"NORMAL":25,
						"TEXCOORD_0":26
					},
					"indices":27,
					"material":6
				},
				{
					"attributes":{
						"POSITION":28,
						"NORMAL":29,
						"TEXCOORD_0":30
					},
					"indices":31,
					"material":7
				},
				{
					"attributes":{
						"POSITION":32,
						"NORMAL":33,
						"TEXCOORD_0":34
					},
					"indices":35,
					"material":8
				},
				{
					"attributes":{
						"POSITION":36,
						"NORMAL":37,
						"TEXCOORD_0":38
					},
					"indices":39,
					"material":9
				},
				{
					"attributes":{
						"POSITION":40,
						"NORMAL":41,
						"TEXCOORD_0":42
					},
					"indices":43,
					"material":10
				},
				{
					"attributes":{
						"POSITION":44,
						"NORMAL":45,
						"TEXCOORD_0":46
					},
					"indices":47,
					"material":11
				},
				{
					"attributes":{
						"POSITION":48,
						"NORMAL":49,
						"TEXCOORD_0":50
					},
					"indices":19,
					"material":12
				},
				{
					"attributes":{
						"POSITION":51,
						"NORMAL":52,
						"TEXCOORD_0":53
					},
					"indices":54,
					"material":13
				}
			]
		}
	],
	"textures":[
		{
			"sampler":0,
			"source":0
		},
		{
			"sampler":0,
			"source":1
		},
		{
			"sampler":0,
			"source":2
		},
		{
			"sampler":0,
			"source":3
		},
		{
			"sampler":0,
			"source":4
		},
		{
			"sampler":0,
			"source":5
		},
		{
			"sampler":0,
			"source":6
		},
		{
			"sampler":0,
			"source":7
		},
		{
			"sampler":0,
			"source":8
		},
		{
			"sampler":0,
			"source":9
		},
		{
			"sampler":0,
			"source":10
		},
		{
			"sampler":0,
			"source":11
		},
		{
			"sampler":0,
			"source":12
		},
		{
			"sampler":0,
			"source":13
		},
		{
			"sampler":0,
			"source":14
		},
		{
			"sampler":0,
			"source":15
		},
		{
			"sampler":0,
			"source":16
		},
		{
			"sampler":0,
			"source":17
		}
	],
	"images":[
		{
			"mimeType":"image/jpeg",
			"name":"metal3",
			"uri":"metal3.jpg"
		},
		{
			"mimeType":"image/jpeg",
			"name":"concretefloor",
			"uri":"concretefloor.jpg"
		},
		{
			"mimeType":"image/jpeg",
			"name":"metalpanels2",
			"uri":"metalpanels2.jpg"
		},
		{
			"mimeType":"image/jpeg",
			"name":"dirtymetal",
			"uri":"dirtymetal.jpg"
		},
		{
			"mimeType":"image/png",
			"name":"ctwalls2",
			"uri":"ctwalls2.png"
		},
		{
			"mimeType":"image/jpeg",
			"name":"misc",
			"uri":"misc.jpg"
		},
		{
			"mimeType":"image/png",
			"name":"Tiles107_2K_NormalGL",
			"uri":"Tiles107_2K_NormalGL.png"
		},
		{
			"mimeType":"image/png",
			"name":"Tiles107_2K_Color",
			"uri":"Tiles107_2K_Color.png"
		},
		{
			"mimeType":"image/png",
			"name":"Tiles107_2K_Roughness",
			"uri":"Tiles107_2K_Roughness.png"
		},
		{
			"mimeType":"image/png",
			"name":"Bricks066_2K_NormalGL",
			"uri":"Bricks066_2K_NormalGL.png"
		},
		{
			"mimeType":"image/png",
			"name":"Bricks066_2K_Color",
			"uri":"Bricks066_2K_Color.png"
		},
		{
			"mimeType":"image/png",
			"name":"Bricks066_2K_Roughness",
			"uri":"Bricks066_2K_Roughness.png"
		},
		{
			"mimeType":"image/jpeg",
			"name":"concretewall",
			"uri":"concretewall.jpg"
		},
		{
			"mimeType":"image/jpeg",
			"name":"whitewall",
			"uri":"whitewall.jpg"
		},
		{
			"mimeType":"image/jpeg",
			"name":"tilefloor",
			"uri":"tilefloor.jpg"
		},
		{
			"mimeType":"image/jpeg",
			"name":"metal",
			"uri":"metal.jpg"
		},
		{
			"mimeType":"image/jpeg",
			"name":"controlpanel",
			"uri":"controlpanel.jpg"
		},
		{
			"mimeType":"image/jpeg",
			"name":"label106",
			"uri":"label106.jpg"
		}
	],
	"accessors":[
		{
			"bufferView":0,
			"componentType":5126,
			"count":964,
			"max":[
				1288.6749267578125,
				992,
				8576
			],
			"min":[
				-1336.0001220703125,
				-2759.324951171875,
				7324
			],
			"type":"VEC3"
		},
		{
			"bufferView":1,
			"componentType":5126,
			"count":964,
			"type":"VEC3"
		},
		{
			"bufferView":2,
			"componentType":5126,
			"count":964,
			"type":"VEC2"
		},
		{
			"bufferView":3,
			"componentType":5123,
			"count":1446,
			"type":"SCALAR"
		},
		{
			"bufferView":4,
			"componentType":5126,
			"count":1328,
			"max":[
				2224,
				1019,
				8624
			],
			"min":[
				-1344.0006103515625,
				-3104,
				6392
			],
			"type":"VEC3"
		},
		{
			"bufferView":5,
			"componentType":5126,
			"count":1328,
			"type":"VEC3"
		},
		{
			"bufferView":6,
			"componentType":5126,
			"count":1328,
			"type":"VEC2"
		},
		{
			"bufferView":7,
			"componentType":5123,
			"count":1992,
			"type":"SCALAR"
		},
		{
			"bufferView":8,
			"componentType":5126,
			"count":192,
			"max":[
				-672.0000610351562,
				-32,
				7520
			],
			"min":[
				-1288.0001220703125,
				-1392,
				7200
			],
			"type":"VEC3"
		},
		{
			"bufferView":9,
			"componentType":5126,
			"count":192,
			"type":"VEC3"
		},
		{
			"bufferView":10,
			"componentType":5126,
			"count":192,
			"type":"VEC2"
		},
		{
			"bufferView":11,
			"componentType":5123,
			"count":288,
			"type":"SCALAR"
		},
		{
			"bufferView":12,
			"componentType":5126,
			"count":4539,
			"max":[
				2097.681884765625,
				976,
				8624
			],
			"min":[
				-1081.5960693359375,
				-3073.595947265625,
				6592
			],
			"type":"VEC3"
		},
		{
			"bufferView":13,
			"componentType":5126,
			"count":4539,
			"type":"VEC3"
		},
		{
			"bufferView":14,
			"componentType":5126,
			"count":4539,
			"type":"VEC2"
		},
		{
			"bufferView":15,
			"componentType":5123,
			"count":6654,
			"type":"SCALAR"
		},
		{
			"bufferView":16,
			"componentType":5126,
			"count":96,
			"max":[
				-672.0000610351562,
				1024,
				7423.99755859375
			],
			"min":[
				-1424,
				352,
				-768.0023803710938
			],
			"type":"VEC3"
		},
		{
			"bufferView":17,
			"componentType":5126,
			"count":96,
			"type":"VEC3"
		},
		{
			"bufferView":18,
			"componentType":5126,
			"count":96,
			"type":"VEC2"
		},
		{
			"bufferView":19,
			"componentType":5123,
			"count":144,
			"type":"SCALAR"
		},
		{
			"bufferView":20,
			"componentType":5126,
			"count":168,
			"max":[
				817.9999389648438,
				724,
				8168.087890625
			],
			"min":[
				-1010.0000610351562,
				-2788,
				6592.17578125
			],
			"type":"VEC3"
		},
		{
			"bufferView":21,
			"componentType":5126,
			"count":168,
			"type":"VEC3"
		},
		{
			"bufferView":22,
			"componentType":5126,
			"count":168,
			"type":"VEC2"
		},
		{
			"bufferView":23,
			"componentType":5123,
			"count":252,
			"type":"SCALAR"
		},
		{
			"bufferView":24,
			"componentType":5126,
			"count":24,
			"max":[
				351.99993896484375,
				1024.0001220703125,
				1
			],
			"min":[
				-688,
				368.00006103515625,
				0
			],
			"type":"VEC3"
		},
		{
			"bufferView":25,
			"componentType":5126,
			"count":24,
			"type":"VEC3"
		},
		{
			"bufferView":26,
			"componentType":5126,
			"count":24,
			"type":"VEC2"
		},
		{
			"bufferView":27,
			"componentType":5123,
			"count":36,
			"type":"SCALAR"
		},
		{
			"bufferView":28,
			"componentType":5126,
			"count":368,
			"max":[
				2192,
				1024.001220703125,
				8608
			],
			"min":[
				-688.0000610351562,
				-2416,
				-480
			],
			"type":"VEC3"
		},
		{
			"bufferView":29,
			"componentType":5126,
			"count":368,
			"type":"VEC3"
		},
		{
			"bufferView":30,
			"componentType":5126,
			"count":368,
			"type":"VEC2"
		},
		{
			"bufferView":31,
			"componentType":5123,
			"count":552,
			"type":"SCALAR"
		},
		{
			"bufferView":32,
			"componentType":5126,
			"count":196,
			"max":[
				2192,
				784,
				8608
			],
			"min":[
				-1336.0001220703125,
				-3104,
				-448
			],
			"type":"VEC3"
		},
		{
			"bufferView":33,
			"componentType":5126,
			"count":196,
			"type":"VEC3"
		},
		{
			"bufferView":34,
			"componentType":5126,
			"count":196,
			"type":"VEC2"
		},
		{
			"bufferView":35,
			"componentType":5123,
			"count":294,
			"type":"SCALAR"
		},
		{
			"bufferView":36,
			"componentType":5126,
			"count":80,
			"max":[
				311.9999084472656,
				978,
				8608
			],
			"min":[
				-1336.0001220703125,
				-3136,
				6592
			],
			"type":"VEC3"
		},
		{
			"bufferView":37,
			"componentType":5126,
			"count":80,
			"type":"VEC3"
		},
		{
			"bufferView":38,
			"componentType":5126,
			"count":80,
			"type":"VEC2"
		},
		{
			"bufferView":39,
			"componentType":5123,
			"count":120,
			"type":"SCALAR"
		},
		{
			"bufferView":40,
			"componentType":5126,
			"count":20,
			"max":[
				2224,
				1008,
				8609
			],
			"min":[
				-1024.000244140625,
				-2448,
				8608
			],
			"type":"VEC3"
		},
		{
			"bufferView":41,
			"componentType":5126,
			"count":20,
			"type":"VEC3"
		},
		{
			"bufferView":42,
			"componentType":5126,
			"count":20,
			"type":"VEC2"
		},
		{
			"bufferView":43,
			"componentType":5123,
			"count":30,
			"type":"SCALAR"
		},
		{
			"bufferView":44,
			"componentType":5126,
			"count":8628,
			"max":[
				2077.77294921875,
				352,
				8096
			],
			"min":[
				-1352.0001220703125,
				-3073.595947265625,
				-512
			],
			"type":"VEC3"
		},
		{
			"bufferView":45,
			"componentType":5126,
			"count":8628,
			"type":"VEC3"
		},
		{
			"bufferView":46,
			"componentType":5126,
			"count":8628,
			"type":"VEC2"
		},
		{
			"bufferView":47,
			"componentType":5123,
			"count":11070,
			"type":"SCALAR"
		},
		{
			"bufferView":48,
			"componentType":5126,
			"count":96,
			"max":[
				-1190.0001220703125,
				-2137,
				8096.02099609375
			],
			"min":[
				-1310.0001220703125,
				-2451.75,
				7776
			],
			"type":"VEC3"
		},
		{
			"bufferView":49,
			"componentType":5126,
			"count":96,
			"type":"VEC3"
		},
		{
			"bufferView":50,
			"componentType":5126,
			"count":96,
			"type":"VEC2"
		},
		{
			"bufferView":51,
			"componentType":5126,
			"count":8,
			"max":[
				224.74990844726562,
				776.75,
				7168
			],
			"min":[
				223.74990844726562,
				664.75,
				7056
			],
			"type":"VEC3"
		},
		{
			"bufferView":52,
			"componentType":5126,
			"count":8,
			"type":"VEC3"
		},
		{
			"bufferView":53,
			"componentType":5126,
			"count":8,
			"type":"VEC2"
		},
		{
			"bufferView":54,
			"componentType":5123,
			"count":12,
			"type":"SCALAR"
		}
	],
	"bufferViews":[
		{
			"buffer":0,
			"byteLength":11568,
			"byteOffset":0,
			"target":34962
		},
		{
			"buffer":0,
			"byteLength":11568,
			"byteOffset":11568,
			"target":34962
		},
		{
			"buffer":0,
			"byteLength":7712,
			"byteOffset":23136,
			"target":34962
		},
		{
			"buffer":0,
			"byteLength":2892,
			"byteOffset":30848,
			"target":34963
		},
		{
			"buffer":0,
			"byteLength":15936,
			"byteOffset":33740,
			"target":34962
		},
		{
			"buffer":0,
			"byteLength":15936,
			"byteOffset":49676,
			"target":34962
		},
		{
			"buffer":0,
			"byteLength":10624,
			"byteOffset":65612,
			"target":34962
		},
		{
			"buffer":0,
			"byteLength":3984,
			"byteOffset":76236,
			"target":34963
		},
		{
			"buffer":0,
			"byteLength":2304,
			"byteOffset":80220,
			"target":34962
		},
		{
			"buffer":0,
			"byteLength":2304,
			"byteOffset":82524,
			"target":34962
		},
		{
			"buffer":0,
			"byteLength":1536,
			"byteOffset":84828,
			"target":34962
		},
		{
			"buffer":0,
			"byteLength":576,
			"byteOffset":86364,
			"target":34963
		},
		{
			"buffer":0,
			"byteLength":54468,
			"byteOffset":86940,
			"target":34962
		},
		{
			"buffer":0,
			"byteLength":54468,
			"byteOffset":141408,
			"target":34962
		},
		{
			"buffer":0,
			"byteLength":36312,
			"byteOffset":195876,
			"target":34962
		},
		{
			"buffer":0,
			"byteLength":13308,
			"byteOffset":232188,
			"target":34963
		},
		{
			"buffer":0,
			"byteLength":1152,
			"byteOffset":245496,
			"target":34962
		},
		{
			"buffer":0,
			"byteLength":1152,
			"byteOffset":246648,
			"target":34962
		},
		{
			"buffer":0,
			"byteLength":768,
			"byteOffset":247800,
			"target":34962
		},
		{
			"buffer":0,
			"byteLength":288,
			"byteOffset":248568,
			"target":34963
		},
		{
			"buffer":0,
			"byteLength":2016,
			"byteOffset":248856,
			"target":34962
		},
		{
			"buffer":0,
			"byteLength":2016,
			"byteOffset":250872,
			"target":34962
		},
		{
			"buffer":0,
			"byteLength":1344,
			"byteOffset":252888,
			"target":34962
		},
		{
			"buffer":0,
			"byteLength":504,
			"byteOffset":254232,
			"target":34963
		},
		{
			"buffer":0,
			"byteLength":288,
			"byteOffset":254736,
			"target":34962
		},
		{
			"buffer":0,
			"byteLength":288,
			"byteOffset":255024,
			"target":34962
		},
		{
			"buffer":0,
			"byteLength":192,
			"byteOffset":255312,
			"target":34962
		},
		{
			"buffer":0,
			"byteLength":72,
			"byteOffset":255504,
			"target":34963
		},
		{
			"buffer":0,
			"byteLength":4416,
			"byteOffset":255576,
			"target":34962
		},
		{
			"buffer":0,
			"byteLength":4416,
			"byteOffset":259992,
			"target":34962
		},
		{
			"buffer":0,
			"byteLength":2944,
			"byteOffset":264408,
			"target":34962
		},
		{
			"buffer":0,
			"byteLength":1104,
			"byteOffset":267352,
			"target":34963
		},
		{
			"buffer":0,
			"byteLength":2352,
			"byteOffset":268456,
			"target":34962
		},
		{
			"buffer":0,
			"byteLength":2352,
			"byteOffset":270808,
			"target":34962
		},
		{
			"buffer":0,
			"byteLength":1568,
			"byteOffset":273160,
			"target":34962
		},
		{
			"buffer":0,
			"byteLength":588,
			"byteOffset":274728,
			"target":34963
		},
		{
			"buffer":0,
			"byteLength":960,
			"byteOffset":275316,
			"target":34962
		},
		{
			"buffer":0,
			"byteLength":960,
			"byteOffset":276276,
			"target":34962
		},
		{
			"buffer":0,
			"byteLength":640,
			"byteOffset":277236,
			"target":34962
		},
		{
			"buffer":0,
			"byteLength":240,
			"byteOffset":277876,
			"target":34963
		},
		{
			"buffer":0,
			"byteLength":240,
			"byteOffset":278116,
			"target":34962
		},
		{
			"buffer":0,
			"byteLength":240,
			"byteOffset":278356,
			"target":34962
		},
		{
			"buffer":0,
			"byteLength":160,
			"byteOffset":278596,
			"target":34962
		},
		{
			"buffer":0,
			"byteLength":60,
			"byteOffset":278756,
			"target":34963
		},
		{
			"buffer":0,
			"byteLength":103536,
			"byteOffset":278816,
			"target":34962
		},
		{
			"buffer":0,
			"byteLength":103536,
			"byteOffset":382352,
			"target":34962
		},
		{
			"buffer":0,
			"byteLength":69024,
			"byteOffset":485888,
			"target":34962
		},
		{
			"buffer":0,
			"byteLength":22140,
			"byteOffset":554912,
			"target":34963
		},
		{
			"buffer":0,
			"byteLength":1152,
			"byteOffset":577052,
			"target":34962
		},
		{
			"buffer":0,
			"byteLength":1152,
			"byteOffset":578204,
			"target":34962
		},
		{
			"buffer":0,
			"byteLength":768,
			"byteOffset":579356,
			"target":34962
		},
		{
			"buffer":0,
			"byteLength":96,
			"byteOffset":580124,
			"target":34962
		},
		{
			"buffer":0,
			"byteLength":96,
			"byteOffset":580220,
			"target":34962
		},
		{
			"buffer":0,
			"byteLength":64,
			"byteOffset":580316,
			"target":34962
		},
		{
			"buffer":0,
			"byteLength":24,
			"byteOffset":580380,
			"target":34963
		}
	],
	"samplers":[
		{
			"magFilter":9729,
			"minFilter":9987
		}
	],
	"buffers":[
		{
			"byteLength":580404,
			"uri":"HC_cont1_106.bin"
		}
	]
}
