{
	"asset":{
		"generator":"Khronos glTF Blender I/O v3.5.30",
		"version":"2.0"
	},
	"extensionsUsed":[
		"KHR_materials_specular",
		"KHR_materials_ior"
	],
	"scene":0,
	"scenes":[
		{
			"name":"Scene",
			"nodes":[
				0
			]
		}
	],
	"nodes":[
		{
			"mesh":0,
			"name":"HC_cont1_049"
		}
	],
	"materials":[
		{
			"doubleSided":true,
			"extensions":{
				"KHR_materials_specular":{
					"specularColorFactor":[
						2.371357614441398,
						2.371357614441398,
						2.371357614441398
					]
				},
				"KHR_materials_ior":{
					"ior":1.4500000476837158
				}
			},
			"name":"mat0.001",
			"pbrMetallicRoughness":{
				"baseColorTexture":{
					"index":0
				},
				"metallicFactor":0,
				"roughnessFactor":0.9505894184112549
			}
		},
		{
			"doubleSided":true,
			"extensions":{
				"KHR_materials_specular":{
					"specularColorFactor":[
						2.371357614441398,
						2.371357614441398,
						2.371357614441398
					]
				},
				"KHR_materials_ior":{
					"ior":1.4500000476837158
				}
			},
			"name":"mat1.001",
			"pbrMetallicRoughness":{
				"baseColorTexture":{
					"index":1
				},
				"metallicFactor":0,
				"roughnessFactor":0.9505894184112549
			}
		},
		{
			"doubleSided":true,
			"extensions":{
				"KHR_materials_specular":{
					"specularColorFactor":[
						2.371357614441398,
						2.371357614441398,
						2.371357614441398
					]
				},
				"KHR_materials_ior":{
					"ior":1.4500000476837158
				}
			},
			"name":"mat2.001",
			"pbrMetallicRoughness":{
				"baseColorTexture":{
					"index":2
				},
				"metallicFactor":0,
				"roughnessFactor":0.9505894184112549
			}
		},
		{
			"doubleSided":true,
			"extensions":{
				"KHR_materials_specular":{
					"specularColorFactor":[
						2.371357614441398,
						2.371357614441398,
						2.371357614441398
					]
				},
				"KHR_materials_ior":{
					"ior":1.4500000476837158
				}
			},
			"name":"mat3.001",
			"pbrMetallicRoughness":{
				"baseColorTexture":{
					"index":3
				},
				"metallicFactor":0,
				"roughnessFactor":0.9505894184112549
			}
		},
		{
			"doubleSided":true,
			"extensions":{
				"KHR_materials_specular":{
					"specularColorFactor":[
						2.371357614441398,
						2.371357614441398,
						2.371357614441398
					]
				},
				"KHR_materials_ior":{
					"ior":1.4500000476837158
				}
			},
			"name":"mat4.001",
			"pbrMetallicRoughness":{
				"baseColorTexture":{
					"index":4
				},
				"metallicFactor":0,
				"roughnessFactor":0.9505894184112549
			}
		},
		{
			"doubleSided":true,
			"extensions":{
				"KHR_materials_specular":{
					"specularColorFactor":[
						2.371357614441398,
						2.371357614441398,
						2.371357614441398
					]
				},
				"KHR_materials_ior":{
					"ior":1.4500000476837158
				}
			},
			"name":"mat5.001",
			"pbrMetallicRoughness":{
				"baseColorTexture":{
					"index":5
				},
				"metallicFactor":0,
				"roughnessFactor":0.9505894184112549
			}
		},
		{
			"doubleSided":true,
			"extensions":{
				"KHR_materials_specular":{
					"specularColorFactor":[
						2.371357614441398,
						2.371357614441398,
						2.371357614441398
					]
				},
				"KHR_materials_ior":{
					"ior":1.4500000476837158
				}
			},
			"name":"mat6.001",
			"pbrMetallicRoughness":{
				"baseColorTexture":{
					"index":6
				},
				"metallicFactor":0,
				"roughnessFactor":0.9505894184112549
			}
		}
	],
	"meshes":[
		{
			"name":"HC_cont1_049",
			"primitives":[
				{
					"attributes":{
						"POSITION":0,
						"TEXCOORD_0":1,
						"NORMAL":2
					},
					"indices":3,
					"material":0
				},
				{
					"attributes":{
						"POSITION":4,
						"TEXCOORD_0":5,
						"NORMAL":6
					},
					"indices":7,
					"material":1
				},
				{
					"attributes":{
						"POSITION":8,
						"TEXCOORD_0":9,
						"NORMAL":10
					},
					"indices":11,
					"material":2
				},
				{
					"attributes":{
						"POSITION":12,
						"TEXCOORD_0":13,
						"NORMAL":14
					},
					"indices":15,
					"material":3
				},
				{
					"attributes":{
						"POSITION":16,
						"TEXCOORD_0":17,
						"NORMAL":18
					},
					"indices":11,
					"material":4
				},
				{
					"attributes":{
						"POSITION":19,
						"TEXCOORD_0":20,
						"NORMAL":21
					},
					"indices":22,
					"material":5
				},
				{
					"attributes":{
						"POSITION":23,
						"TEXCOORD_0":24,
						"NORMAL":25
					},
					"indices":26,
					"material":6
				}
			]
		}
	],
	"textures":[
		{
			"sampler":0,
			"source":0
		},
		{
			"sampler":0,
			"source":1
		},
		{
			"sampler":0,
			"source":2
		},
		{
			"sampler":0,
			"source":3
		},
		{
			"sampler":0,
			"source":4
		},
		{
			"sampler":0,
			"source":5
		},
		{
			"sampler":0,
			"source":6
		}
	],
	"images":[
		{
			"mimeType":"image/jpeg",
			"name":"misc",
			"uri":"misc.jpg"
		},
		{
			"mimeType":"image/jpeg",
			"name":"dirtymetal",
			"uri":"dirtymetal.jpg"
		},
		{
			"mimeType":"image/jpeg",
			"name":"metal",
			"uri":"metal.jpg"
		},
		{
			"mimeType":"image/png",
			"name":"ctwalls",
			"uri":"ctwalls.png"
		},
		{
			"mimeType":"image/jpeg",
			"name":"concretewall",
			"uri":"concretewall.jpg"
		},
		{
			"mimeType":"image/jpeg",
			"name":"concretefloor",
			"uri":"concretefloor.jpg"
		},
		{
			"mimeType":"image/jpeg",
			"name":"metalpanels2",
			"uri":"metalpanels2.jpg"
		}
	],
	"accessors":[
		{
			"bufferView":0,
			"componentType":5126,
			"count":20,
			"max":[
				0.11999939382076263,
				4.501165390014648,
				7.879999160766602
			],
			"min":[
				-4.777224063873291,
				4.331458568572998,
				-7.880000114440918
			],
			"type":"VEC3"
		},
		{
			"bufferView":1,
			"componentType":5126,
			"count":20,
			"type":"VEC2"
		},
		{
			"bufferView":2,
			"componentType":5126,
			"count":20,
			"type":"VEC3"
		},
		{
			"bufferView":3,
			"componentType":5123,
			"count":30,
			"type":"SCALAR"
		},
		{
			"bufferView":4,
			"componentType":5126,
			"count":752,
			"max":[
				9,
				4.799999713897705,
				12.949999809265137
			],
			"min":[
				-9.880000114440918,
				-1.7590994616512035e-07,
				-7.880000114440918
			],
			"type":"VEC3"
		},
		{
			"bufferView":5,
			"componentType":5126,
			"count":752,
			"type":"VEC2"
		},
		{
			"bufferView":6,
			"componentType":5126,
			"count":752,
			"type":"VEC3"
		},
		{
			"bufferView":7,
			"componentType":5123,
			"count":1128,
			"type":"SCALAR"
		},
		{
			"bufferView":8,
			"componentType":5126,
			"count":144,
			"max":[
				8.539999961853027,
				3.240002393722534,
				3.4272069931030273
			],
			"min":[
				-9.639999389648438,
				0.0005687254015356302,
				-1.6500002145767212
			],
			"type":"VEC3"
		},
		{
			"bufferView":9,
			"componentType":5126,
			"count":144,
			"type":"VEC2"
		},
		{
			"bufferView":10,
			"componentType":5126,
			"count":144,
			"type":"VEC3"
		},
		{
			"bufferView":11,
			"componentType":5123,
			"count":216,
			"type":"SCALAR"
		},
		{
			"bufferView":12,
			"componentType":5126,
			"count":72,
			"max":[
				8.960000038146973,
				4.7200026512146,
				5.139999866485596
			],
			"min":[
				-10,
				-5.66989001526963e-07,
				-7.820000171661377
			],
			"type":"VEC3"
		},
		{
			"bufferView":13,
			"componentType":5126,
			"count":72,
			"type":"VEC2"
		},
		{
			"bufferView":14,
			"componentType":5126,
			"count":72,
			"type":"VEC3"
		},
		{
			"bufferView":15,
			"componentType":5123,
			"count":108,
			"type":"SCALAR"
		},
		{
			"bufferView":16,
			"componentType":5126,
			"count":144,
			"max":[
				8.980002403259277,
				5.0400004386901855,
				10.239999771118164
			],
			"min":[
				-9.920001029968262,
				3.472902960766078e-07,
				4.599998950958252
			],
			"type":"VEC3"
		},
		{
			"bufferView":17,
			"componentType":5126,
			"count":144,
			"type":"VEC2"
		},
		{
			"bufferView":18,
			"componentType":5126,
			"count":144,
			"type":"VEC3"
		},
		{
			"bufferView":19,
			"componentType":5126,
			"count":4,
			"max":[
				8.960000038146973,
				7.730984066256497e-07,
				10.239998817443848
			],
			"min":[
				-9.920001029968262,
				-5.700091492144566e-07,
				-7.549999713897705
			],
			"type":"VEC3"
		},
		{
			"bufferView":20,
			"componentType":5126,
			"count":4,
			"type":"VEC2"
		},
		{
			"bufferView":21,
			"componentType":5126,
			"count":4,
			"type":"VEC3"
		},
		{
			"bufferView":22,
			"componentType":5123,
			"count":6,
			"type":"SCALAR"
		},
		{
			"bufferView":23,
			"componentType":5126,
			"count":96,
			"max":[
				7.799992084503174,
				4.720002174377441,
				-1.8499979972839355
			],
			"min":[
				-9.639999389648438,
				-1.8798961320953822e-07,
				-2.4900002479553223
			],
			"type":"VEC3"
		},
		{
			"bufferView":24,
			"componentType":5126,
			"count":96,
			"type":"VEC2"
		},
		{
			"bufferView":25,
			"componentType":5126,
			"count":96,
			"type":"VEC3"
		},
		{
			"bufferView":26,
			"componentType":5123,
			"count":144,
			"type":"SCALAR"
		}
	],
	"bufferViews":[
		{
			"buffer":0,
			"byteLength":240,
			"byteOffset":0,
			"target":34962
		},
		{
			"buffer":0,
			"byteLength":160,
			"byteOffset":240,
			"target":34962
		},
		{
			"buffer":0,
			"byteLength":240,
			"byteOffset":400,
			"target":34962
		},
		{
			"buffer":0,
			"byteLength":60,
			"byteOffset":640,
			"target":34963
		},
		{
			"buffer":0,
			"byteLength":9024,
			"byteOffset":700,
			"target":34962
		},
		{
			"buffer":0,
			"byteLength":6016,
			"byteOffset":9724,
			"target":34962
		},
		{
			"buffer":0,
			"byteLength":9024,
			"byteOffset":15740,
			"target":34962
		},
		{
			"buffer":0,
			"byteLength":2256,
			"byteOffset":24764,
			"target":34963
		},
		{
			"buffer":0,
			"byteLength":1728,
			"byteOffset":27020,
			"target":34962
		},
		{
			"buffer":0,
			"byteLength":1152,
			"byteOffset":28748,
			"target":34962
		},
		{
			"buffer":0,
			"byteLength":1728,
			"byteOffset":29900,
			"target":34962
		},
		{
			"buffer":0,
			"byteLength":432,
			"byteOffset":31628,
			"target":34963
		},
		{
			"buffer":0,
			"byteLength":864,
			"byteOffset":32060,
			"target":34962
		},
		{
			"buffer":0,
			"byteLength":576,
			"byteOffset":32924,
			"target":34962
		},
		{
			"buffer":0,
			"byteLength":864,
			"byteOffset":33500,
			"target":34962
		},
		{
			"buffer":0,
			"byteLength":216,
			"byteOffset":34364,
			"target":34963
		},
		{
			"buffer":0,
			"byteLength":1728,
			"byteOffset":34580,
			"target":34962
		},
		{
			"buffer":0,
			"byteLength":1152,
			"byteOffset":36308,
			"target":34962
		},
		{
			"buffer":0,
			"byteLength":1728,
			"byteOffset":37460,
			"target":34962
		},
		{
			"buffer":0,
			"byteLength":48,
			"byteOffset":39188,
			"target":34962
		},
		{
			"buffer":0,
			"byteLength":32,
			"byteOffset":39236,
			"target":34962
		},
		{
			"buffer":0,
			"byteLength":48,
			"byteOffset":39268,
			"target":34962
		},
		{
			"buffer":0,
			"byteLength":12,
			"byteOffset":39316,
			"target":34963
		},
		{
			"buffer":0,
			"byteLength":1152,
			"byteOffset":39328,
			"target":34962
		},
		{
			"buffer":0,
			"byteLength":768,
			"byteOffset":40480,
			"target":34962
		},
		{
			"buffer":0,
			"byteLength":1152,
			"byteOffset":41248,
			"target":34962
		},
		{
			"buffer":0,
			"byteLength":288,
			"byteOffset":42400,
			"target":34963
		}
	],
	"samplers":[
		{
			"magFilter":9729,
			"minFilter":9987
		}
	],
	"buffers":[
		{
			"byteLength":42688,
			"uri":"HC_cont1_049.bin"
		}
	]
}
