{
	"asset":{
		"generator":"Khronos glTF Blender I/O v3.5.30",
		"version":"2.0"
	},
	"extensionsUsed":[
		"KHR_materials_specular",
		"KHR_materials_ior"
	],
	"scene":0,
	"scenes":[
		{
			"name":"Scene",
			"nodes":[
				0
			]
		}
	],
	"nodes":[
		{
			"mesh":0,
			"name":"HC_cont2_testroom"
		}
	],
	"materials":[
		{
			"doubleSided":true,
			"extensions":{
				"KHR_materials_specular":{
					"specularColorFactor":[
						2.371357614441398,
						2.371357614441398,
						2.371357614441398
					]
				},
				"KHR_materials_ior":{
					"ior":1.4500000476837158
				}
			},
			"name":"mat0.006",
			"pbrMetallicRoughness":{
				"baseColorTexture":{
					"index":0
				},
				"metallicFactor":0,
				"roughnessFactor":0.9505894184112549
			}
		},
		{
			"doubleSided":true,
			"extensions":{
				"KHR_materials_specular":{
					"specularColorFactor":[
						2.371357614441398,
						2.371357614441398,
						2.371357614441398
					]
				},
				"KHR_materials_ior":{
					"ior":1.4500000476837158
				}
			},
			"name":"mat1.006",
			"pbrMetallicRoughness":{
				"baseColorTexture":{
					"index":1
				},
				"metallicFactor":0,
				"roughnessFactor":0.9505894184112549
			}
		},
		{
			"doubleSided":true,
			"extensions":{
				"KHR_materials_specular":{
					"specularColorFactor":[
						2.371357614441398,
						2.371357614441398,
						2.371357614441398
					]
				},
				"KHR_materials_ior":{
					"ior":1.4500000476837158
				}
			},
			"name":"mat2.006",
			"pbrMetallicRoughness":{
				"baseColorTexture":{
					"index":2
				},
				"metallicFactor":0,
				"roughnessFactor":0.9505894184112549
			}
		},
		{
			"doubleSided":true,
			"extensions":{
				"KHR_materials_specular":{
					"specularColorFactor":[
						2.371357614441398,
						2.371357614441398,
						2.371357614441398
					]
				},
				"KHR_materials_ior":{
					"ior":1.4500000476837158
				}
			},
			"name":"mat3.006",
			"pbrMetallicRoughness":{
				"baseColorTexture":{
					"index":3
				},
				"metallicFactor":0,
				"roughnessFactor":0.9505894184112549
			}
		},
		{
			"doubleSided":true,
			"extensions":{
				"KHR_materials_specular":{
					"specularColorFactor":[
						2.371357614441398,
						2.371357614441398,
						2.371357614441398
					]
				},
				"KHR_materials_ior":{
					"ior":1.4500000476837158
				}
			},
			"name":"mat4.006",
			"pbrMetallicRoughness":{
				"baseColorTexture":{
					"index":4
				},
				"metallicFactor":0,
				"roughnessFactor":0.9505894184112549
			}
		},
		{
			"doubleSided":true,
			"extensions":{
				"KHR_materials_specular":{
					"specularColorFactor":[
						2.371357614441398,
						2.371357614441398,
						2.371357614441398
					]
				},
				"KHR_materials_ior":{
					"ior":1.4500000476837158
				}
			},
			"name":"mat5.006",
			"pbrMetallicRoughness":{
				"baseColorTexture":{
					"index":5
				},
				"metallicFactor":0,
				"roughnessFactor":0.9505894184112549
			}
		},
		{
			"doubleSided":true,
			"extensions":{
				"KHR_materials_specular":{
					"specularColorFactor":[
						2.371357614441398,
						2.371357614441398,
						2.371357614441398
					]
				},
				"KHR_materials_ior":{
					"ior":1.4500000476837158
				}
			},
			"name":"mat6.006",
			"pbrMetallicRoughness":{
				"baseColorTexture":{
					"index":6
				},
				"metallicFactor":0,
				"roughnessFactor":0.9505894184112549
			}
		},
		{
			"doubleSided":true,
			"extensions":{
				"KHR_materials_specular":{
					"specularColorFactor":[
						2.371357614441398,
						2.371357614441398,
						2.371357614441398
					]
				},
				"KHR_materials_ior":{
					"ior":1.4500000476837158
				}
			},
			"name":"mat7.003",
			"pbrMetallicRoughness":{
				"baseColorTexture":{
					"index":7
				},
				"metallicFactor":0,
				"roughnessFactor":0.9505894184112549
			}
		},
		{
			"doubleSided":true,
			"extensions":{
				"KHR_materials_specular":{
					"specularColorFactor":[
						2.371357614441398,
						2.371357614441398,
						2.371357614441398
					]
				},
				"KHR_materials_ior":{
					"ior":1.4500000476837158
				}
			},
			"name":"mat8.003",
			"pbrMetallicRoughness":{
				"baseColorTexture":{
					"index":8
				},
				"metallicFactor":0,
				"roughnessFactor":0.9505894184112549
			}
		}
	],
	"meshes":[
		{
			"name":"HC_cont2_testroom",
			"primitives":[
				{
					"attributes":{
						"POSITION":0,
						"TEXCOORD_0":1,
						"NORMAL":2
					},
					"indices":3,
					"material":0
				},
				{
					"attributes":{
						"POSITION":4,
						"TEXCOORD_0":5,
						"NORMAL":6
					},
					"indices":7,
					"material":1
				},
				{
					"attributes":{
						"POSITION":8,
						"TEXCOORD_0":9,
						"NORMAL":10
					},
					"indices":11,
					"material":2
				},
				{
					"attributes":{
						"POSITION":12,
						"TEXCOORD_0":13,
						"NORMAL":14
					},
					"indices":15,
					"material":3
				},
				{
					"attributes":{
						"POSITION":16,
						"TEXCOORD_0":17,
						"NORMAL":18
					},
					"indices":19,
					"material":4
				},
				{
					"attributes":{
						"POSITION":20,
						"TEXCOORD_0":21,
						"NORMAL":22
					},
					"indices":23,
					"material":5
				},
				{
					"attributes":{
						"POSITION":24,
						"TEXCOORD_0":25,
						"NORMAL":26
					},
					"indices":27,
					"material":6
				},
				{
					"attributes":{
						"POSITION":28,
						"TEXCOORD_0":29,
						"NORMAL":30
					},
					"indices":31,
					"material":7
				},
				{
					"attributes":{
						"POSITION":32,
						"TEXCOORD_0":33,
						"NORMAL":34
					},
					"indices":27,
					"material":8
				}
			]
		}
	],
	"textures":[
		{
			"sampler":0,
			"source":0
		},
		{
			"sampler":0,
			"source":1
		},
		{
			"sampler":0,
			"source":2
		},
		{
			"sampler":0,
			"source":3
		},
		{
			"sampler":0,
			"source":4
		},
		{
			"sampler":0,
			"source":5
		},
		{
			"sampler":0,
			"source":6
		},
		{
			"sampler":0,
			"source":7
		},
		{
			"sampler":0,
			"source":8
		}
	],
	"images":[
		{
			"mimeType":"image/jpeg",
			"name":"concretefloor",
			"uri":"concretefloor.jpg"
		},
		{
			"mimeType":"image/jpeg",
			"name":"metal3",
			"uri":"metal3.jpg"
		},
		{
			"mimeType":"image/jpeg",
			"name":"misc",
			"uri":"misc.jpg"
		},
		{
			"mimeType":"image/jpeg",
			"name":"concretewall",
			"uri":"concretewall.jpg"
		},
		{
			"mimeType":"image/jpeg",
			"name":"dirtymetal",
			"uri":"dirtymetal.jpg"
		},
		{
			"mimeType":"image/jpeg",
			"name":"tilefloor",
			"uri":"tilefloor.jpg"
		},
		{
			"mimeType":"image/jpeg",
			"name":"vent",
			"uri":"vent.jpg"
		},
		{
			"mimeType":"image/jpeg",
			"name":"metal",
			"uri":"metal.jpg"
		},
		{
			"mimeType":"image/png",
			"name":"glass",
			"uri":"glass.png"
		}
	],
	"accessors":[
		{
			"bufferView":0,
			"componentType":5126,
			"count":1193,
			"max":[
				10.239999771118164,
				8,
				10.24000072479248
			],
			"min":[
				-10.239999771118164,
				-12.800000190734863,
				-10.24000072479248
			],
			"type":"VEC3"
		},
		{
			"bufferView":1,
			"componentType":5126,
			"count":1193,
			"type":"VEC2"
		},
		{
			"bufferView":2,
			"componentType":5126,
			"count":1193,
			"type":"VEC3"
		},
		{
			"bufferView":3,
			"componentType":5123,
			"count":1785,
			"type":"SCALAR"
		},
		{
			"bufferView":4,
			"componentType":5126,
			"count":1996,
			"max":[
				9.920000076293945,
				0.040000759065151215,
				10.239999771118164
			],
			"min":[
				-9.59999942779541,
				-12.479999542236328,
				-10.239999771118164
			],
			"type":"VEC3"
		},
		{
			"bufferView":5,
			"componentType":5126,
			"count":1996,
			"type":"VEC2"
		},
		{
			"bufferView":6,
			"componentType":5126,
			"count":1996,
			"type":"VEC3"
		},
		{
			"bufferView":7,
			"componentType":5123,
			"count":2994,
			"type":"SCALAR"
		},
		{
			"bufferView":8,
			"componentType":5126,
			"count":504,
			"max":[
				7.31912088394165,
				7.348681449890137,
				9.94956111907959
			],
			"min":[
				-9.45999813079834,
				-10.960880279541016,
				-9.949559211730957
			],
			"type":"VEC3"
		},
		{
			"bufferView":9,
			"componentType":5126,
			"count":504,
			"type":"VEC2"
		},
		{
			"bufferView":10,
			"componentType":5126,
			"count":504,
			"type":"VEC3"
		},
		{
			"bufferView":11,
			"componentType":5123,
			"count":756,
			"type":"SCALAR"
		},
		{
			"bufferView":12,
			"componentType":5126,
			"count":144,
			"max":[
				10.240004539489746,
				4.159999847412109,
				10.239999771118164
			],
			"min":[
				4.480000019073486,
				-7.730984634690685e-07,
				-10.239999771118164
			],
			"type":"VEC3"
		},
		{
			"bufferView":13,
			"componentType":5126,
			"count":144,
			"type":"VEC2"
		},
		{
			"bufferView":14,
			"componentType":5126,
			"count":144,
			"type":"VEC3"
		},
		{
			"bufferView":15,
			"componentType":5123,
			"count":216,
			"type":"SCALAR"
		},
		{
			"bufferView":16,
			"componentType":5126,
			"count":7169,
			"max":[
				9.279999732971191,
				8,
				10.079999923706055
			],
			"min":[
				-9.4399995803833,
				-12.800000190734863,
				-9.920000076293945
			],
			"type":"VEC3"
		},
		{
			"bufferView":17,
			"componentType":5126,
			"count":7169,
			"type":"VEC2"
		},
		{
			"bufferView":18,
			"componentType":5126,
			"count":7169,
			"type":"VEC3"
		},
		{
			"bufferView":19,
			"componentType":5123,
			"count":10260,
			"type":"SCALAR"
		},
		{
			"bufferView":20,
			"componentType":5126,
			"count":20,
			"max":[
				9.760001182556152,
				-12.79999828338623,
				10.24000072479248
			],
			"min":[
				-9.920000076293945,
				-12.8100004196167,
				-10.239998817443848
			],
			"type":"VEC3"
		},
		{
			"bufferView":21,
			"componentType":5126,
			"count":20,
			"type":"VEC2"
		},
		{
			"bufferView":22,
			"componentType":5126,
			"count":20,
			"type":"VEC3"
		},
		{
			"bufferView":23,
			"componentType":5123,
			"count":30,
			"type":"SCALAR"
		},
		{
			"bufferView":24,
			"componentType":5126,
			"count":16,
			"max":[
				7.919999599456787,
				-8.239999771118164,
				2.0000007152557373
			],
			"min":[
				5.679999828338623,
				-8.559999465942383,
				-2.0799992084503174
			],
			"type":"VEC3"
		},
		{
			"bufferView":25,
			"componentType":5126,
			"count":16,
			"type":"VEC2"
		},
		{
			"bufferView":26,
			"componentType":5126,
			"count":16,
			"type":"VEC3"
		},
		{
			"bufferView":27,
			"componentType":5123,
			"count":24,
			"type":"SCALAR"
		},
		{
			"bufferView":28,
			"componentType":5126,
			"count":5499,
			"max":[
				-5.423181056976318,
				-6.591522216796875,
				6.076818466186523
			],
			"min":[
				-5.897730350494385,
				-7.11378812789917,
				-5.883181095123291
			],
			"type":"VEC3"
		},
		{
			"bufferView":29,
			"componentType":5126,
			"count":5499,
			"type":"VEC2"
		},
		{
			"bufferView":30,
			"componentType":5126,
			"count":5499,
			"type":"VEC3"
		},
		{
			"bufferView":31,
			"componentType":5123,
			"count":6864,
			"type":"SCALAR"
		},
		{
			"bufferView":32,
			"componentType":5126,
			"count":16,
			"max":[
				3.1999998092651367,
				-3.1999990940093994,
				9.920000076293945
			],
			"min":[
				-5.119999885559082,
				-5.760000705718994,
				-9.920000076293945
			],
			"type":"VEC3"
		},
		{
			"bufferView":33,
			"componentType":5126,
			"count":16,
			"type":"VEC2"
		},
		{
			"bufferView":34,
			"componentType":5126,
			"count":16,
			"type":"VEC3"
		}
	],
	"bufferViews":[
		{
			"buffer":0,
			"byteLength":14316,
			"byteOffset":0,
			"target":34962
		},
		{
			"buffer":0,
			"byteLength":9544,
			"byteOffset":14316,
			"target":34962
		},
		{
			"buffer":0,
			"byteLength":14316,
			"byteOffset":23860,
			"target":34962
		},
		{
			"buffer":0,
			"byteLength":3570,
			"byteOffset":38176,
			"target":34963
		},
		{
			"buffer":0,
			"byteLength":23952,
			"byteOffset":41748,
			"target":34962
		},
		{
			"buffer":0,
			"byteLength":15968,
			"byteOffset":65700,
			"target":34962
		},
		{
			"buffer":0,
			"byteLength":23952,
			"byteOffset":81668,
			"target":34962
		},
		{
			"buffer":0,
			"byteLength":5988,
			"byteOffset":105620,
			"target":34963
		},
		{
			"buffer":0,
			"byteLength":6048,
			"byteOffset":111608,
			"target":34962
		},
		{
			"buffer":0,
			"byteLength":4032,
			"byteOffset":117656,
			"target":34962
		},
		{
			"buffer":0,
			"byteLength":6048,
			"byteOffset":121688,
			"target":34962
		},
		{
			"buffer":0,
			"byteLength":1512,
			"byteOffset":127736,
			"target":34963
		},
		{
			"buffer":0,
			"byteLength":1728,
			"byteOffset":129248,
			"target":34962
		},
		{
			"buffer":0,
			"byteLength":1152,
			"byteOffset":130976,
			"target":34962
		},
		{
			"buffer":0,
			"byteLength":1728,
			"byteOffset":132128,
			"target":34962
		},
		{
			"buffer":0,
			"byteLength":432,
			"byteOffset":133856,
			"target":34963
		},
		{
			"buffer":0,
			"byteLength":86028,
			"byteOffset":134288,
			"target":34962
		},
		{
			"buffer":0,
			"byteLength":57352,
			"byteOffset":220316,
			"target":34962
		},
		{
			"buffer":0,
			"byteLength":86028,
			"byteOffset":277668,
			"target":34962
		},
		{
			"buffer":0,
			"byteLength":20520,
			"byteOffset":363696,
			"target":34963
		},
		{
			"buffer":0,
			"byteLength":240,
			"byteOffset":384216,
			"target":34962
		},
		{
			"buffer":0,
			"byteLength":160,
			"byteOffset":384456,
			"target":34962
		},
		{
			"buffer":0,
			"byteLength":240,
			"byteOffset":384616,
			"target":34962
		},
		{
			"buffer":0,
			"byteLength":60,
			"byteOffset":384856,
			"target":34963
		},
		{
			"buffer":0,
			"byteLength":192,
			"byteOffset":384916,
			"target":34962
		},
		{
			"buffer":0,
			"byteLength":128,
			"byteOffset":385108,
			"target":34962
		},
		{
			"buffer":0,
			"byteLength":192,
			"byteOffset":385236,
			"target":34962
		},
		{
			"buffer":0,
			"byteLength":48,
			"byteOffset":385428,
			"target":34963
		},
		{
			"buffer":0,
			"byteLength":65988,
			"byteOffset":385476,
			"target":34962
		},
		{
			"buffer":0,
			"byteLength":43992,
			"byteOffset":451464,
			"target":34962
		},
		{
			"buffer":0,
			"byteLength":65988,
			"byteOffset":495456,
			"target":34962
		},
		{
			"buffer":0,
			"byteLength":13728,
			"byteOffset":561444,
			"target":34963
		},
		{
			"buffer":0,
			"byteLength":192,
			"byteOffset":575172,
			"target":34962
		},
		{
			"buffer":0,
			"byteLength":128,
			"byteOffset":575364,
			"target":34962
		},
		{
			"buffer":0,
			"byteLength":192,
			"byteOffset":575492,
			"target":34962
		}
	],
	"samplers":[
		{
			"magFilter":9729,
			"minFilter":9987
		}
	],
	"buffers":[
		{
			"byteLength":575684,
			"uri":"HC_cont2_testroom.bin"
		}
	]
}
