{
	"asset":{
		"generator":"Khronos glTF Blender I/O v3.5.30",
		"version":"2.0"
	},
	"extensionsUsed":[
		"KHR_materials_specular",
		"KHR_materials_ior"
	],
	"scene":0,
	"scenes":[
		{
			"name":"Scene",
			"nodes":[
				0
			]
		}
	],
	"nodes":[
		{
			"mesh":0,
			"name":"HC_room4"
		}
	],
	"materials":[
		{
			"doubleSided":true,
			"extensions":{
				"KHR_materials_specular":{
					"specularColorFactor":[
						2.371357614441398,
						2.371357614441398,
						2.371357614441398
					]
				},
				"KHR_materials_ior":{
					"ior":1.4500000476837158
				}
			},
			"name":"mat0.013",
			"pbrMetallicRoughness":{
				"baseColorTexture":{
					"index":0
				},
				"metallicFactor":0,
				"roughnessFactor":0.9505894184112549
			}
		},
		{
			"doubleSided":true,
			"extensions":{
				"KHR_materials_specular":{
					"specularColorFactor":[
						2.371357614441398,
						2.371357614441398,
						2.371357614441398
					]
				},
				"KHR_materials_ior":{
					"ior":1.4500000476837158
				}
			},
			"name":"mat1.013",
			"pbrMetallicRoughness":{
				"baseColorTexture":{
					"index":1
				},
				"metallicFactor":0,
				"roughnessFactor":0.9505894184112549
			}
		},
		{
			"doubleSided":true,
			"extensions":{
				"KHR_materials_specular":{
					"specularColorFactor":[
						2.371357614441398,
						2.371357614441398,
						2.371357614441398
					]
				},
				"KHR_materials_ior":{
					"ior":1.4500000476837158
				}
			},
			"name":"mat2.013",
			"pbrMetallicRoughness":{
				"baseColorTexture":{
					"index":2
				},
				"metallicFactor":0,
				"roughnessFactor":0.9505894184112549
			}
		},
		{
			"doubleSided":true,
			"extensions":{
				"KHR_materials_specular":{
					"specularColorFactor":[
						2.371357614441398,
						2.371357614441398,
						2.371357614441398
					]
				},
				"KHR_materials_ior":{
					"ior":1.4500000476837158
				}
			},
			"name":"mat3.013",
			"pbrMetallicRoughness":{
				"baseColorTexture":{
					"index":3
				},
				"metallicFactor":0,
				"roughnessFactor":0.9505894184112549
			}
		},
		{
			"doubleSided":true,
			"extensions":{
				"KHR_materials_specular":{
					"specularColorFactor":[
						2.371357614441398,
						2.371357614441398,
						2.371357614441398
					]
				},
				"KHR_materials_ior":{
					"ior":1.4500000476837158
				}
			},
			"name":"mat4.010",
			"pbrMetallicRoughness":{
				"baseColorTexture":{
					"index":4
				},
				"metallicFactor":0,
				"roughnessFactor":0.9505894184112549
			}
		},
		{
			"doubleSided":true,
			"extensions":{
				"KHR_materials_specular":{
					"specularColorFactor":[
						2.371357614441398,
						2.371357614441398,
						2.371357614441398
					]
				},
				"KHR_materials_ior":{
					"ior":1.4500000476837158
				}
			},
			"name":"mat5.010",
			"pbrMetallicRoughness":{
				"baseColorTexture":{
					"index":5
				},
				"metallicFactor":0,
				"roughnessFactor":0.9505894184112549
			}
		},
		{
			"doubleSided":true,
			"extensions":{
				"KHR_materials_specular":{
					"specularColorFactor":[
						2.371357614441398,
						2.371357614441398,
						2.371357614441398
					]
				},
				"KHR_materials_ior":{
					"ior":1.4500000476837158
				}
			},
			"name":"mat6.008",
			"pbrMetallicRoughness":{
				"baseColorTexture":{
					"index":6
				},
				"metallicFactor":0,
				"roughnessFactor":0.9505894184112549
			}
		},
		{
			"doubleSided":true,
			"extensions":{
				"KHR_materials_specular":{
					"specularColorFactor":[
						2.371357614441398,
						2.371357614441398,
						2.371357614441398
					]
				},
				"KHR_materials_ior":{
					"ior":1.4500000476837158
				}
			},
			"name":"mat7.005",
			"pbrMetallicRoughness":{
				"baseColorTexture":{
					"index":7
				},
				"metallicFactor":0,
				"roughnessFactor":0.9505894184112549
			}
		}
	],
	"meshes":[
		{
			"name":"HC_room4",
			"primitives":[
				{
					"attributes":{
						"POSITION":0,
						"TEXCOORD_0":1,
						"NORMAL":2
					},
					"indices":3,
					"material":0
				},
				{
					"attributes":{
						"POSITION":4,
						"TEXCOORD_0":5,
						"NORMAL":6
					},
					"indices":7,
					"material":1
				},
				{
					"attributes":{
						"POSITION":8,
						"TEXCOORD_0":9,
						"NORMAL":10
					},
					"indices":11,
					"material":2
				},
				{
					"attributes":{
						"POSITION":12,
						"TEXCOORD_0":13,
						"NORMAL":14
					},
					"indices":15,
					"material":3
				},
				{
					"attributes":{
						"POSITION":16,
						"TEXCOORD_0":17,
						"NORMAL":18
					},
					"indices":19,
					"material":4
				},
				{
					"attributes":{
						"POSITION":20,
						"TEXCOORD_0":21,
						"NORMAL":22
					},
					"indices":23,
					"material":5
				},
				{
					"attributes":{
						"POSITION":24,
						"TEXCOORD_0":25,
						"NORMAL":26
					},
					"indices":27,
					"material":6
				},
				{
					"attributes":{
						"POSITION":28,
						"TEXCOORD_0":29,
						"NORMAL":30
					},
					"indices":31,
					"material":7
				}
			]
		}
	],
	"textures":[
		{
			"sampler":0,
			"source":0
		},
		{
			"sampler":0,
			"source":1
		},
		{
			"sampler":0,
			"source":2
		},
		{
			"sampler":0,
			"source":3
		},
		{
			"sampler":0,
			"source":4
		},
		{
			"sampler":0,
			"source":5
		},
		{
			"sampler":0,
			"source":6
		},
		{
			"sampler":0,
			"source":7
		}
	],
	"images":[
		{
			"mimeType":"image/jpeg",
			"name":"concretefloor",
			"uri":"concretefloor.jpg"
		},
		{
			"mimeType":"image/jpeg",
			"name":"dirtymetal",
			"uri":"dirtymetal.jpg"
		},
		{
			"mimeType":"image/jpeg",
			"name":"metal3",
			"uri":"metal3.jpg"
		},
		{
			"mimeType":"image/jpeg",
			"name":"misc",
			"uri":"misc.jpg"
		},
		{
			"mimeType":"image/jpeg",
			"name":"tilefloor",
			"uri":"tilefloor.jpg"
		},
		{
			"mimeType":"image/jpeg",
			"name":"metalpanels2",
			"uri":"metalpanels2.jpg"
		},
		{
			"mimeType":"image/jpeg",
			"name":"concretewall",
			"uri":"concretewall.jpg"
		},
		{
			"mimeType":"image/jpeg",
			"name":"door01",
			"uri":"door01.jpg"
		}
	],
	"accessors":[
		{
			"bufferView":0,
			"componentType":5126,
			"count":294,
			"max":[
				10.239999771118164,
				3.849999189376831,
				10.24000072479248
			],
			"min":[
				-10.239999771118164,
				-9.600000381469727,
				-10.239999771118164
			],
			"type":"VEC3"
		},
		{
			"bufferView":1,
			"componentType":5126,
			"count":294,
			"type":"VEC2"
		},
		{
			"bufferView":2,
			"componentType":5126,
			"count":294,
			"type":"VEC3"
		},
		{
			"bufferView":3,
			"componentType":5123,
			"count":420,
			"type":"SCALAR"
		},
		{
			"bufferView":4,
			"componentType":5126,
			"count":7928,
			"max":[
				9.920001029968262,
				1.4400005340576172,
				9.920003890991211
			],
			"min":[
				-10,
				-9.59999942779541,
				-9.920003890991211
			],
			"type":"VEC3"
		},
		{
			"bufferView":5,
			"componentType":5126,
			"count":7928,
			"type":"VEC2"
		},
		{
			"bufferView":6,
			"componentType":5126,
			"count":7928,
			"type":"VEC3"
		},
		{
			"bufferView":7,
			"componentType":5123,
			"count":10884,
			"type":"SCALAR"
		},
		{
			"bufferView":8,
			"componentType":5126,
			"count":140,
			"max":[
				9.920003890991211,
				7.489393851756176e-07,
				9.920003890991211
			],
			"min":[
				-9.920003890991211,
				-0.08000075072050095,
				-9.919998168945312
			],
			"type":"VEC3"
		},
		{
			"bufferView":9,
			"componentType":5126,
			"count":140,
			"type":"VEC2"
		},
		{
			"bufferView":10,
			"componentType":5126,
			"count":140,
			"type":"VEC3"
		},
		{
			"bufferView":11,
			"componentType":5123,
			"count":204,
			"type":"SCALAR"
		},
		{
			"bufferView":12,
			"componentType":5126,
			"count":96,
			"max":[
				9.760000228881836,
				3.8382415771484375,
				9.719999313354492
			],
			"min":[
				-9.719999313354492,
				3.799999237060547,
				-9.719999313354492
			],
			"type":"VEC3"
		},
		{
			"bufferView":13,
			"componentType":5126,
			"count":96,
			"type":"VEC2"
		},
		{
			"bufferView":14,
			"componentType":5126,
			"count":96,
			"type":"VEC3"
		},
		{
			"bufferView":15,
			"componentType":5123,
			"count":144,
			"type":"SCALAR"
		},
		{
			"bufferView":16,
			"componentType":5126,
			"count":20,
			"max":[
				10.239999771118164,
				-9.599997520446777,
				10.24000072479248
			],
			"min":[
				-10.239999771118164,
				-9.609999656677246,
				-9.919999122619629
			],
			"type":"VEC3"
		},
		{
			"bufferView":17,
			"componentType":5126,
			"count":20,
			"type":"VEC2"
		},
		{
			"bufferView":18,
			"componentType":5126,
			"count":20,
			"type":"VEC3"
		},
		{
			"bufferView":19,
			"componentType":5123,
			"count":30,
			"type":"SCALAR"
		},
		{
			"bufferView":20,
			"componentType":5126,
			"count":432,
			"max":[
				9.920000076293945,
				1.4000006914138794,
				9.920000076293945
			],
			"min":[
				-9.920000076293945,
				1.2799992561340332,
				-9.920000076293945
			],
			"type":"VEC3"
		},
		{
			"bufferView":21,
			"componentType":5126,
			"count":432,
			"type":"VEC2"
		},
		{
			"bufferView":22,
			"componentType":5126,
			"count":432,
			"type":"VEC3"
		},
		{
			"bufferView":23,
			"componentType":5123,
			"count":720,
			"type":"SCALAR"
		},
		{
			"bufferView":24,
			"componentType":5126,
			"count":208,
			"max":[
				10.239999771118164,
				3.840000629425049,
				10.239999771118164
			],
			"min":[
				-10.239999771118164,
				-7.730984634690685e-07,
				-10.239999771118164
			],
			"type":"VEC3"
		},
		{
			"bufferView":25,
			"componentType":5126,
			"count":208,
			"type":"VEC2"
		},
		{
			"bufferView":26,
			"componentType":5126,
			"count":208,
			"type":"VEC3"
		},
		{
			"bufferView":27,
			"componentType":5123,
			"count":312,
			"type":"SCALAR"
		},
		{
			"bufferView":28,
			"componentType":5126,
			"count":150,
			"max":[
				5.179999828338623,
				-0.9299992322921753,
				6.939998626708984
			],
			"min":[
				-5.179999828338623,
				-0.9300007224082947,
				-6.940000057220459
			],
			"type":"VEC3"
		},
		{
			"bufferView":29,
			"componentType":5126,
			"count":150,
			"type":"VEC2"
		},
		{
			"bufferView":30,
			"componentType":5126,
			"count":150,
			"type":"VEC3"
		},
		{
			"bufferView":31,
			"componentType":5123,
			"count":360,
			"type":"SCALAR"
		}
	],
	"bufferViews":[
		{
			"buffer":0,
			"byteLength":3528,
			"byteOffset":0,
			"target":34962
		},
		{
			"buffer":0,
			"byteLength":2352,
			"byteOffset":3528,
			"target":34962
		},
		{
			"buffer":0,
			"byteLength":3528,
			"byteOffset":5880,
			"target":34962
		},
		{
			"buffer":0,
			"byteLength":840,
			"byteOffset":9408,
			"target":34963
		},
		{
			"buffer":0,
			"byteLength":95136,
			"byteOffset":10248,
			"target":34962
		},
		{
			"buffer":0,
			"byteLength":63424,
			"byteOffset":105384,
			"target":34962
		},
		{
			"buffer":0,
			"byteLength":95136,
			"byteOffset":168808,
			"target":34962
		},
		{
			"buffer":0,
			"byteLength":21768,
			"byteOffset":263944,
			"target":34963
		},
		{
			"buffer":0,
			"byteLength":1680,
			"byteOffset":285712,
			"target":34962
		},
		{
			"buffer":0,
			"byteLength":1120,
			"byteOffset":287392,
			"target":34962
		},
		{
			"buffer":0,
			"byteLength":1680,
			"byteOffset":288512,
			"target":34962
		},
		{
			"buffer":0,
			"byteLength":408,
			"byteOffset":290192,
			"target":34963
		},
		{
			"buffer":0,
			"byteLength":1152,
			"byteOffset":290600,
			"target":34962
		},
		{
			"buffer":0,
			"byteLength":768,
			"byteOffset":291752,
			"target":34962
		},
		{
			"buffer":0,
			"byteLength":1152,
			"byteOffset":292520,
			"target":34962
		},
		{
			"buffer":0,
			"byteLength":288,
			"byteOffset":293672,
			"target":34963
		},
		{
			"buffer":0,
			"byteLength":240,
			"byteOffset":293960,
			"target":34962
		},
		{
			"buffer":0,
			"byteLength":160,
			"byteOffset":294200,
			"target":34962
		},
		{
			"buffer":0,
			"byteLength":240,
			"byteOffset":294360,
			"target":34962
		},
		{
			"buffer":0,
			"byteLength":60,
			"byteOffset":294600,
			"target":34963
		},
		{
			"buffer":0,
			"byteLength":5184,
			"byteOffset":294660,
			"target":34962
		},
		{
			"buffer":0,
			"byteLength":3456,
			"byteOffset":299844,
			"target":34962
		},
		{
			"buffer":0,
			"byteLength":5184,
			"byteOffset":303300,
			"target":34962
		},
		{
			"buffer":0,
			"byteLength":1440,
			"byteOffset":308484,
			"target":34963
		},
		{
			"buffer":0,
			"byteLength":2496,
			"byteOffset":309924,
			"target":34962
		},
		{
			"buffer":0,
			"byteLength":1664,
			"byteOffset":312420,
			"target":34962
		},
		{
			"buffer":0,
			"byteLength":2496,
			"byteOffset":314084,
			"target":34962
		},
		{
			"buffer":0,
			"byteLength":624,
			"byteOffset":316580,
			"target":34963
		},
		{
			"buffer":0,
			"byteLength":1800,
			"byteOffset":317204,
			"target":34962
		},
		{
			"buffer":0,
			"byteLength":1200,
			"byteOffset":319004,
			"target":34962
		},
		{
			"buffer":0,
			"byteLength":1800,
			"byteOffset":320204,
			"target":34962
		},
		{
			"buffer":0,
			"byteLength":720,
			"byteOffset":322004,
			"target":34963
		}
	],
	"samplers":[
		{
			"magFilter":9729,
			"minFilter":9987
		}
	],
	"buffers":[
		{
			"byteLength":322724,
			"uri":"HC_room4.bin"
		}
	]
}
