{
	"asset":{
		"generator":"Khronos glTF Blender I/O v3.5.30",
		"version":"2.0"
	},
	"extensionsUsed":[
		"KHR_materials_specular",
		"KHR_materials_ior"
	],
	"scene":0,
	"scenes":[
		{
			"name":"Scene",
			"nodes":[
				0
			]
		}
	],
	"nodes":[
		{
			"mesh":0,
			"name":"HC_room1_endroom"
		}
	],
	"materials":[
		{
			"doubleSided":true,
			"extensions":{
				"KHR_materials_specular":{
					"specularColorFactor":[
						2.371357614441398,
						2.371357614441398,
						2.371357614441398
					]
				},
				"KHR_materials_ior":{
					"ior":1.4500000476837158
				}
			},
			"name":"mat0.007",
			"pbrMetallicRoughness":{
				"baseColorTexture":{
					"index":0
				},
				"metallicFactor":0,
				"roughnessFactor":0.9505894184112549
			}
		},
		{
			"doubleSided":true,
			"extensions":{
				"KHR_materials_specular":{
					"specularColorFactor":[
						2.371357614441398,
						2.371357614441398,
						2.371357614441398
					]
				},
				"KHR_materials_ior":{
					"ior":1.4500000476837158
				}
			},
			"name":"mat1.007",
			"pbrMetallicRoughness":{
				"baseColorTexture":{
					"index":1
				},
				"metallicFactor":0,
				"roughnessFactor":0.9505894184112549
			}
		},
		{
			"doubleSided":true,
			"extensions":{
				"KHR_materials_specular":{
					"specularColorFactor":[
						2.371357614441398,
						2.371357614441398,
						2.371357614441398
					]
				},
				"KHR_materials_ior":{
					"ior":1.4500000476837158
				}
			},
			"name":"mat2.007",
			"pbrMetallicRoughness":{
				"baseColorTexture":{
					"index":2
				},
				"metallicFactor":0,
				"roughnessFactor":0.9505894184112549
			}
		},
		{
			"doubleSided":true,
			"extensions":{
				"KHR_materials_specular":{
					"specularColorFactor":[
						2.371357614441398,
						2.371357614441398,
						2.371357614441398
					]
				},
				"KHR_materials_ior":{
					"ior":1.4500000476837158
				}
			},
			"name":"mat3.007",
			"pbrMetallicRoughness":{
				"baseColorTexture":{
					"index":3
				},
				"metallicFactor":0,
				"roughnessFactor":0.9505894184112549
			}
		}
	],
	"meshes":[
		{
			"name":"HC_room1_endroom",
			"primitives":[
				{
					"attributes":{
						"POSITION":0,
						"TEXCOORD_0":1,
						"NORMAL":2
					},
					"indices":3,
					"material":0
				},
				{
					"attributes":{
						"POSITION":4,
						"TEXCOORD_0":5,
						"NORMAL":6
					},
					"indices":7,
					"material":1
				},
				{
					"attributes":{
						"POSITION":8,
						"TEXCOORD_0":9,
						"NORMAL":10
					},
					"indices":11,
					"material":2
				},
				{
					"attributes":{
						"POSITION":12,
						"TEXCOORD_0":13,
						"NORMAL":14
					},
					"indices":15,
					"material":3
				}
			]
		}
	],
	"textures":[
		{
			"sampler":0,
			"source":0
		},
		{
			"sampler":0,
			"source":1
		},
		{
			"sampler":0,
			"source":2
		},
		{
			"sampler":0,
			"source":3
		}
	],
	"images":[
		{
			"mimeType":"image/jpeg",
			"name":"dirtymetal",
			"uri":"dirtymetal.jpg"
		},
		{
			"mimeType":"image/jpeg",
			"name":"concretefloor",
			"uri":"concretefloor.jpg"
		},
		{
			"mimeType":"image/jpeg",
			"name":"misc",
			"uri":"misc.jpg"
		},
		{
			"mimeType":"image/jpeg",
			"name":"metalpanels",
			"uri":"metalpanels.jpg"
		}
	],
	"accessors":[
		{
			"bufferView":0,
			"componentType":5126,
			"count":72,
			"max":[
				4.639999866485596,
				4.280000686645508,
				9.920000076293945
			],
			"min":[
				-4.799999713897705,
				-2.838720831732644e-07,
				-3.759999990463257
			],
			"type":"VEC3"
		},
		{
			"bufferView":1,
			"componentType":5126,
			"count":72,
			"type":"VEC2"
		},
		{
			"bufferView":2,
			"componentType":5126,
			"count":72,
			"type":"VEC3"
		},
		{
			"bufferView":3,
			"componentType":5123,
			"count":108,
			"type":"SCALAR"
		},
		{
			"bufferView":4,
			"componentType":5126,
			"count":12,
			"max":[
				4.639999866485596,
				4.320001125335693,
				10.239999771118164
			],
			"min":[
				-4.7999982833862305,
				-1.9327461586726713e-07,
				-2.56000018119812
			],
			"type":"VEC3"
		},
		{
			"bufferView":5,
			"componentType":5126,
			"count":12,
			"type":"VEC2"
		},
		{
			"bufferView":6,
			"componentType":5126,
			"count":12,
			"type":"VEC3"
		},
		{
			"bufferView":7,
			"componentType":5123,
			"count":18,
			"type":"SCALAR"
		},
		{
			"bufferView":8,
			"componentType":5126,
			"count":96,
			"max":[
				4.329559803009033,
				4.148682117462158,
				9.65043830871582
			],
			"min":[
				-4.32956075668335,
				2.9591197967529297,
				-0.8295606970787048
			],
			"type":"VEC3"
		},
		{
			"bufferView":9,
			"componentType":5126,
			"count":96,
			"type":"VEC2"
		},
		{
			"bufferView":10,
			"componentType":5126,
			"count":96,
			"type":"VEC3"
		},
		{
			"bufferView":11,
			"componentType":5123,
			"count":144,
			"type":"SCALAR"
		},
		{
			"bufferView":12,
			"componentType":5126,
			"count":76,
			"max":[
				4.639999866485596,
				4.160000801086426,
				10.239999771118164
			],
			"min":[
				-4.639999866485596,
				-1.9327461586726713e-07,
				-2.56000018119812
			],
			"type":"VEC3"
		},
		{
			"bufferView":13,
			"componentType":5126,
			"count":76,
			"type":"VEC2"
		},
		{
			"bufferView":14,
			"componentType":5126,
			"count":76,
			"type":"VEC3"
		},
		{
			"bufferView":15,
			"componentType":5123,
			"count":114,
			"type":"SCALAR"
		}
	],
	"bufferViews":[
		{
			"buffer":0,
			"byteLength":864,
			"byteOffset":0,
			"target":34962
		},
		{
			"buffer":0,
			"byteLength":576,
			"byteOffset":864,
			"target":34962
		},
		{
			"buffer":0,
			"byteLength":864,
			"byteOffset":1440,
			"target":34962
		},
		{
			"buffer":0,
			"byteLength":216,
			"byteOffset":2304,
			"target":34963
		},
		{
			"buffer":0,
			"byteLength":144,
			"byteOffset":2520,
			"target":34962
		},
		{
			"buffer":0,
			"byteLength":96,
			"byteOffset":2664,
			"target":34962
		},
		{
			"buffer":0,
			"byteLength":144,
			"byteOffset":2760,
			"target":34962
		},
		{
			"buffer":0,
			"byteLength":36,
			"byteOffset":2904,
			"target":34963
		},
		{
			"buffer":0,
			"byteLength":1152,
			"byteOffset":2940,
			"target":34962
		},
		{
			"buffer":0,
			"byteLength":768,
			"byteOffset":4092,
			"target":34962
		},
		{
			"buffer":0,
			"byteLength":1152,
			"byteOffset":4860,
			"target":34962
		},
		{
			"buffer":0,
			"byteLength":288,
			"byteOffset":6012,
			"target":34963
		},
		{
			"buffer":0,
			"byteLength":912,
			"byteOffset":6300,
			"target":34962
		},
		{
			"buffer":0,
			"byteLength":608,
			"byteOffset":7212,
			"target":34962
		},
		{
			"buffer":0,
			"byteLength":912,
			"byteOffset":7820,
			"target":34962
		},
		{
			"buffer":0,
			"byteLength":228,
			"byteOffset":8732,
			"target":34963
		}
	],
	"samplers":[
		{
			"magFilter":9729,
			"minFilter":9987
		}
	],
	"buffers":[
		{
			"byteLength":8960,
			"uri":"HC_room1_endroom.bin"
		}
	]
}
