{
	"asset":{
		"generator":"Khronos glTF Blender I/O v3.6.28",
		"version":"2.0"
	},
	"extensionsUsed":[
		"KHR_materials_specular",
		"KHR_materials_ior"
	],
	"scene":0,
	"scenes":[
		{
			"name":"Scene",
			"nodes":[
				0,
				1,
				2
			]
		}
	],
	"nodes":[
		{
			"mesh":0,
			"name":"Plane"
		},
		{
			"mesh":1,
			"name":"LCZWallNeoCB2.001",
			"rotation":[
				0,
				0,
				0.7071068286895752,
				0.7071068286895752
			],
			"translation":[
				8.689506530761719,
				0.9956535696983337,
				-0.0871284008026123
			]
		},
		{
			"mesh":2,
			"name":"Plane.001",
			"rotation":[
				0,
				0,
				1,
				4.371138828673793e-08
			],
			"translation":[
				0,
				5.954558849334717,
				0
			]
		}
	],
	"materials":[
		{
			"doubleSided":true,
			"extensions":{
				"KHR_materials_specular":{
					"specularColorFactor":[
						2.371357614441398,
						2.371357614441398,
						2.371357614441398
					]
				},
				"KHR_materials_ior":{
					"ior":1.4500000476837158
				}
			},
			"name":"mat0.005",
			"normalTexture":{
				"index":0
			},
			"pbrMetallicRoughness":{
				"baseColorTexture":{
					"index":1
				},
				"metallicFactor":0,
				"metallicRoughnessTexture":{
					"index":2
				}
			}
		},
		{
			"doubleSided":true,
			"name":"Glow.001",
			"pbrMetallicRoughness":{
				"baseColorFactor":[
					0,
					0,
					0,
					1
				],
				"metallicFactor":0,
				"roughnessFactor":0.5
			}
		},
		{
			"doubleSided":true,
			"name":"Background.001",
			"normalTexture":{
				"index":3
			},
			"pbrMetallicRoughness":{
				"baseColorFactor":[
					0.800000011920929,
					0.800000011920929,
					0.800000011920929,
					1
				],
				"metallicFactor":0,
				"metallicRoughnessTexture":{
					"index":4
				}
			}
		},
		{
			"doubleSided":true,
			"extensions":{
				"KHR_materials_specular":{
					"specularColorFactor":[
						2.371357614441398,
						2.371357614441398,
						2.371357614441398
					]
				},
				"KHR_materials_ior":{
					"ior":1.4500000476837158
				}
			},
			"name":"OfficeCeiling",
			"normalTexture":{
				"index":5
			},
			"pbrMetallicRoughness":{
				"baseColorTexture":{
					"index":6
				},
				"metallicRoughnessTexture":{
					"index":7
				}
			}
		}
	],
	"meshes":[
		{
			"name":"Plane",
			"primitives":[
				{
					"attributes":{
						"POSITION":0,
						"NORMAL":1,
						"TEXCOORD_0":2
					},
					"indices":3,
					"material":0
				}
			]
		},
		{
			"name":"Plane.001",
			"primitives":[
				{
					"attributes":{
						"POSITION":4,
						"NORMAL":5,
						"TEXCOORD_0":6
					},
					"indices":7,
					"material":1
				},
				{
					"attributes":{
						"POSITION":8,
						"NORMAL":9,
						"TEXCOORD_0":10
					},
					"indices":11,
					"material":2
				},
				{
					"attributes":{
						"POSITION":12,
						"NORMAL":13,
						"TEXCOORD_0":14
					},
					"indices":15,
					"material":2
				},
				{
					"attributes":{
						"POSITION":16,
						"NORMAL":17,
						"TEXCOORD_0":18
					},
					"indices":19,
					"material":1
				},
				{
					"attributes":{
						"POSITION":20,
						"NORMAL":21,
						"TEXCOORD_0":22
					},
					"indices":23,
					"material":2
				},
				{
					"attributes":{
						"POSITION":24,
						"NORMAL":25,
						"TEXCOORD_0":26
					},
					"indices":27,
					"material":2
				},
				{
					"attributes":{
						"POSITION":28,
						"NORMAL":29,
						"TEXCOORD_0":30
					},
					"indices":31,
					"material":2
				}
			]
		},
		{
			"name":"Plane.002",
			"primitives":[
				{
					"attributes":{
						"POSITION":32,
						"NORMAL":33,
						"TEXCOORD_0":34
					},
					"indices":3,
					"material":3
				}
			]
		}
	],
	"textures":[
		{
			"sampler":0,
			"source":0
		},
		{
			"sampler":0,
			"source":1
		},
		{
			"sampler":0,
			"source":2
		},
		{
			"sampler":0,
			"source":3
		},
		{
			"sampler":0,
			"source":4
		},
		{
			"sampler":0,
			"source":5
		},
		{
			"sampler":0,
			"source":6
		},
		{
			"sampler":0,
			"source":7
		}
	],
	"images":[
		{
			"mimeType":"image/png",
			"name":"Tiles107_2K_NormalGL",
			"uri":"Tiles107_2K_NormalGL.png"
		},
		{
			"mimeType":"image/png",
			"name":"Tiles107_2K_Color",
			"uri":"Tiles107_2K_Color.png"
		},
		{
			"mimeType":"image/png",
			"name":"Tiles107_2K_Roughness",
			"uri":"Tiles107_2K_Roughness.png"
		},
		{
			"mimeType":"image/png",
			"name":"beige_wall_001_nor_gl_2k",
			"uri":"beige_wall_001_nor_gl_2k.png"
		},
		{
			"mimeType":"image/png",
			"name":"beige_wall_001_rough_2k",
			"uri":"beige_wall_001_rough_2k.png"
		},
		{
			"mimeType":"image/png",
			"name":"OfficeCeiling001_2K_NormalGL",
			"uri":"OfficeCeiling001_2K_NormalGL.png"
		},
		{
			"mimeType":"image/png",
			"name":"OfficeCeiling001_2K_Color",
			"uri":"OfficeCeiling001_2K_Color.png"
		},
		{
			"mimeType":"image/png",
			"name":"OfficeCeiling001_2K_Metalness-OfficeCeiling001_2K_Roughness",
			"uri":"OfficeCeiling001_2K_Metalness-OfficeCeiling001_2K_Roughness.png"
		}
	],
	"accessors":[
		{
			"bufferView":0,
			"componentType":5126,
			"count":10,
			"max":[
				10.239999771118164,
				0,
				10.239999771118164
			],
			"min":[
				-10.239999771118164,
				0,
				-10.239999771118164
			],
			"type":"VEC3"
		},
		{
			"bufferView":1,
			"componentType":5126,
			"count":10,
			"type":"VEC3"
		},
		{
			"bufferView":2,
			"componentType":5126,
			"count":10,
			"type":"VEC2"
		},
		{
			"bufferView":3,
			"componentType":5123,
			"count":24,
			"type":"SCALAR"
		},
		{
			"bufferView":4,
			"componentType":5126,
			"count":32,
			"max":[
				5.716610431671143,
				9.999999747378752e-06,
				0.96280837059021
			],
			"min":[
				-1,
				-0.5396729707717896,
				-0.9505118727684021
			],
			"type":"VEC3"
		},
		{
			"bufferView":5,
			"componentType":5126,
			"count":32,
			"type":"VEC3"
		},
		{
			"bufferView":6,
			"componentType":5126,
			"count":32,
			"type":"VEC2"
		},
		{
			"bufferView":7,
			"componentType":5123,
			"count":48,
			"type":"SCALAR"
		},
		{
			"bufferView":8,
			"componentType":5126,
			"count":16,
			"max":[
				5.716610431671143,
				-0.17966248095035553,
				0.8874163031578064
			],
			"min":[
				-1,
				-0.5396729707717896,
				-0.8884240388870239
			],
			"type":"VEC3"
		},
		{
			"bufferView":9,
			"componentType":5126,
			"count":16,
			"type":"VEC3"
		},
		{
			"bufferView":10,
			"componentType":5126,
			"count":16,
			"type":"VEC2"
		},
		{
			"bufferView":11,
			"componentType":5123,
			"count":24,
			"type":"SCALAR"
		},
		{
			"bufferView":12,
			"componentType":5126,
			"count":280,
			"max":[
				5.716610908508301,
				17.732027053833008,
				10.320951461791992
			],
			"min":[
				-1.6517000198364258,
				-0.3600001931190491,
				-10.129825592041016
			],
			"type":"VEC3"
		},
		{
			"bufferView":13,
			"componentType":5126,
			"count":280,
			"type":"VEC3"
		},
		{
			"bufferView":14,
			"componentType":5126,
			"count":280,
			"type":"VEC2"
		},
		{
			"bufferView":15,
			"componentType":5123,
			"count":486,
			"type":"SCALAR"
		},
		{
			"bufferView":16,
			"componentType":5126,
			"count":32,
			"max":[
				5.715764999389648,
				17.911701202392578,
				0.9628087282180786
			],
			"min":[
				-1.0008454322814941,
				17.37201690673828,
				-0.9505121111869812
			],
			"type":"VEC3"
		},
		{
			"bufferView":17,
			"componentType":5126,
			"count":32,
			"type":"VEC3"
		},
		{
			"bufferView":18,
			"componentType":5126,
			"count":32,
			"type":"VEC2"
		},
		{
			"bufferView":19,
			"componentType":5123,
			"count":48,
			"type":"SCALAR"
		},
		{
			"bufferView":20,
			"componentType":5126,
			"count":16,
			"max":[
				5.715764999389648,
				17.911701202392578,
				0.887416660785675
			],
			"min":[
				-1.0008454322814941,
				17.55168914794922,
				-0.8884243369102478
			],
			"type":"VEC3"
		},
		{
			"bufferView":21,
			"componentType":5126,
			"count":16,
			"type":"VEC3"
		},
		{
			"bufferView":22,
			"componentType":5126,
			"count":16,
			"type":"VEC2"
		},
		{
			"bufferView":23,
			"componentType":5123,
			"count":24,
			"type":"SCALAR"
		},
		{
			"bufferView":24,
			"componentType":5126,
			"count":48,
			"max":[
				5.715764999389648,
				17.732027053833008,
				10.320951461791992
			],
			"min":[
				-1.0008463859558105,
				11.682937622070312,
				-3.4898149967193604
			],
			"type":"VEC3"
		},
		{
			"bufferView":25,
			"componentType":5126,
			"count":48,
			"type":"VEC3"
		},
		{
			"bufferView":26,
			"componentType":5126,
			"count":48,
			"type":"VEC2"
		},
		{
			"bufferView":27,
			"componentType":5123,
			"count":72,
			"type":"SCALAR"
		},
		{
			"bufferView":28,
			"componentType":5126,
			"count":16,
			"max":[
				2.216604471206665,
				11.591540336608887,
				-5.788878917694092
			],
			"min":[
				-1.436482310295105,
				11.23153018951416,
				-7.790878772735596
			],
			"type":"VEC3"
		},
		{
			"bufferView":29,
			"componentType":5126,
			"count":16,
			"type":"VEC3"
		},
		{
			"bufferView":30,
			"componentType":5126,
			"count":16,
			"type":"VEC2"
		},
		{
			"bufferView":31,
			"componentType":5123,
			"count":24,
			"type":"SCALAR"
		},
		{
			"bufferView":32,
			"componentType":5126,
			"count":10,
			"max":[
				10.239999771118164,
				0,
				10.239999771118164
			],
			"min":[
				-10.239999771118164,
				0,
				-10.239999771118164
			],
			"type":"VEC3"
		},
		{
			"bufferView":33,
			"componentType":5126,
			"count":10,
			"type":"VEC3"
		},
		{
			"bufferView":34,
			"componentType":5126,
			"count":10,
			"type":"VEC2"
		}
	],
	"bufferViews":[
		{
			"buffer":0,
			"byteLength":120,
			"byteOffset":0,
			"target":34962
		},
		{
			"buffer":0,
			"byteLength":120,
			"byteOffset":120,
			"target":34962
		},
		{
			"buffer":0,
			"byteLength":80,
			"byteOffset":240,
			"target":34962
		},
		{
			"buffer":0,
			"byteLength":48,
			"byteOffset":320,
			"target":34963
		},
		{
			"buffer":0,
			"byteLength":384,
			"byteOffset":368,
			"target":34962
		},
		{
			"buffer":0,
			"byteLength":384,
			"byteOffset":752,
			"target":34962
		},
		{
			"buffer":0,
			"byteLength":256,
			"byteOffset":1136,
			"target":34962
		},
		{
			"buffer":0,
			"byteLength":96,
			"byteOffset":1392,
			"target":34963
		},
		{
			"buffer":0,
			"byteLength":192,
			"byteOffset":1488,
			"target":34962
		},
		{
			"buffer":0,
			"byteLength":192,
			"byteOffset":1680,
			"target":34962
		},
		{
			"buffer":0,
			"byteLength":128,
			"byteOffset":1872,
			"target":34962
		},
		{
			"buffer":0,
			"byteLength":48,
			"byteOffset":2000,
			"target":34963
		},
		{
			"buffer":0,
			"byteLength":3360,
			"byteOffset":2048,
			"target":34962
		},
		{
			"buffer":0,
			"byteLength":3360,
			"byteOffset":5408,
			"target":34962
		},
		{
			"buffer":0,
			"byteLength":2240,
			"byteOffset":8768,
			"target":34962
		},
		{
			"buffer":0,
			"byteLength":972,
			"byteOffset":11008,
			"target":34963
		},
		{
			"buffer":0,
			"byteLength":384,
			"byteOffset":11980,
			"target":34962
		},
		{
			"buffer":0,
			"byteLength":384,
			"byteOffset":12364,
			"target":34962
		},
		{
			"buffer":0,
			"byteLength":256,
			"byteOffset":12748,
			"target":34962
		},
		{
			"buffer":0,
			"byteLength":96,
			"byteOffset":13004,
			"target":34963
		},
		{
			"buffer":0,
			"byteLength":192,
			"byteOffset":13100,
			"target":34962
		},
		{
			"buffer":0,
			"byteLength":192,
			"byteOffset":13292,
			"target":34962
		},
		{
			"buffer":0,
			"byteLength":128,
			"byteOffset":13484,
			"target":34962
		},
		{
			"buffer":0,
			"byteLength":48,
			"byteOffset":13612,
			"target":34963
		},
		{
			"buffer":0,
			"byteLength":576,
			"byteOffset":13660,
			"target":34962
		},
		{
			"buffer":0,
			"byteLength":576,
			"byteOffset":14236,
			"target":34962
		},
		{
			"buffer":0,
			"byteLength":384,
			"byteOffset":14812,
			"target":34962
		},
		{
			"buffer":0,
			"byteLength":144,
			"byteOffset":15196,
			"target":34963
		},
		{
			"buffer":0,
			"byteLength":192,
			"byteOffset":15340,
			"target":34962
		},
		{
			"buffer":0,
			"byteLength":192,
			"byteOffset":15532,
			"target":34962
		},
		{
			"buffer":0,
			"byteLength":128,
			"byteOffset":15724,
			"target":34962
		},
		{
			"buffer":0,
			"byteLength":48,
			"byteOffset":15852,
			"target":34963
		},
		{
			"buffer":0,
			"byteLength":120,
			"byteOffset":15900,
			"target":34962
		},
		{
			"buffer":0,
			"byteLength":120,
			"byteOffset":16020,
			"target":34962
		},
		{
			"buffer":0,
			"byteLength":80,
			"byteOffset":16140,
			"target":34962
		}
	],
	"samplers":[
		{
			"magFilter":9729,
			"minFilter":9987
		}
	],
	"buffers":[
		{
			"byteLength":16220,
			"uri":"LC_ckpt1.bin"
		}
	]
}
