{
	"asset":{
		"generator":"Khronos glTF Blender I/O v3.6.28",
		"version":"2.0"
	},
	"scene":0,
	"scenes":[
		{
			"name":"Scene",
			"nodes":[
				0,
				1
			]
		}
	],
	"nodes":[
		{
			"mesh":0,
			"name":"Cube",
			"translation":[
				-2.8191568851470947,
				1.6061300039291382,
				0.00024667009711265564
			]
		},
		{
			"mesh":1,
			"name":"106Cube",
			"translation":[
				0,
				-0.0010019999463111162,
				0
			]
		}
	],
	"materials":[
		{
			"doubleSided":true,
			"name":"Material.002",
			"normalTexture":{
				"index":0
			},
			"pbrMetallicRoughness":{
				"baseColorTexture":{
					"index":1
				},
				"metallicRoughnessTexture":{
					"index":2
				}
			}
		},
		{
			"doubleSided":true,
			"name":"Material.001",
			"normalTexture":{
				"index":3
			},
			"pbrMetallicRoughness":{
				"baseColorTexture":{
					"index":4
				},
				"metallicRoughnessTexture":{
					"index":5
				}
			}
		}
	],
	"meshes":[
		{
			"name":"Cube.001",
			"primitives":[
				{
					"attributes":{
						"POSITION":0,
						"NORMAL":1,
						"TEXCOORD_0":2
					},
					"indices":3,
					"material":0
				}
			]
		},
		{
			"name":"Cube.004",
			"primitives":[
				{
					"attributes":{
						"POSITION":4,
						"NORMAL":5,
						"TEXCOORD_0":6
					},
					"indices":7,
					"material":1
				},
				{
					"attributes":{
						"POSITION":8,
						"NORMAL":9,
						"TEXCOORD_0":10
					},
					"indices":11,
					"material":1
				}
			]
		}
	],
	"textures":[
		{
			"sampler":0,
			"source":0
		},
		{
			"sampler":0,
			"source":1
		},
		{
			"sampler":0,
			"source":2
		},
		{
			"sampler":0,
			"source":3
		},
		{
			"sampler":0,
			"source":4
		},
		{
			"sampler":0,
			"source":5
		}
	],
	"images":[
		{
			"mimeType":"image/png",
			"name":"Metal022_2K-PNG_NormalGL",
			"uri":"Metal022_2K-PNG_NormalGL.png"
		},
		{
			"mimeType":"image/png",
			"name":"Metal022_2K-PNG_Color",
			"uri":"Metal022_2K-PNG_Color.png"
		},
		{
			"mimeType":"image/png",
			"name":"Metal022_2K-PNG_Metalness-Metal022_2K-PNG_Roughness",
			"uri":"Metal022_2K-PNG_Metalness-Metal022_2K-PNG_Roughness.png"
		},
		{
			"mimeType":"image/png",
			"name":"106cube_Material.001_Normal",
			"uri":"106cube_Material_001_Normal.png"
		},
		{
			"mimeType":"image/png",
			"name":"106cube_Material.001_Albedo",
			"uri":"106cube_Material_001_Albedo.png"
		},
		{
			"mimeType":"image/png",
			"name":"106cube_Material.001_Metallic-106cube_Material.001_Roughness",
			"uri":"106cube_Material_001_Metallic-106cube_Material_001_Roughness.png"
		}
	],
	"accessors":[
		{
			"bufferView":0,
			"componentType":5126,
			"count":24,
			"max":[
				0.4004476070404053,
				1.6061280965805054,
				1.0010000467300415
			],
			"min":[
				-0.4004476070404053,
				-1.6061280965805054,
				-1.0010000467300415
			],
			"type":"VEC3"
		},
		{
			"bufferView":1,
			"componentType":5126,
			"count":24,
			"type":"VEC3"
		},
		{
			"bufferView":2,
			"componentType":5126,
			"count":24,
			"type":"VEC2"
		},
		{
			"bufferView":3,
			"componentType":5123,
			"count":36,
			"type":"SCALAR"
		},
		{
			"bufferView":4,
			"componentType":5126,
			"count":212,
			"max":[
				3.1049997806549072,
				4.744992256164551,
				3.1049997806549072
			],
			"min":[
				-3.1049997806549072,
				-0.5243433713912964,
				-3.1049997806549072
			],
			"type":"VEC3"
		},
		{
			"bufferView":5,
			"componentType":5126,
			"count":212,
			"type":"VEC3"
		},
		{
			"bufferView":6,
			"componentType":5126,
			"count":212,
			"type":"VEC2"
		},
		{
			"bufferView":7,
			"componentType":5123,
			"count":312,
			"type":"SCALAR"
		},
		{
			"bufferView":8,
			"componentType":5126,
			"count":26,
			"max":[
				-1.8191568851470947,
				3.2132601737976074,
				1.001246690750122
			],
			"min":[
				-3.1049997806549072,
				0.001003861427307129,
				-1.000753402709961
			],
			"type":"VEC3"
		},
		{
			"bufferView":9,
			"componentType":5126,
			"count":26,
			"type":"VEC3"
		},
		{
			"bufferView":10,
			"componentType":5126,
			"count":26,
			"type":"VEC2"
		},
		{
			"bufferView":11,
			"componentType":5123,
			"count":48,
			"type":"SCALAR"
		}
	],
	"bufferViews":[
		{
			"buffer":0,
			"byteLength":288,
			"byteOffset":0,
			"target":34962
		},
		{
			"buffer":0,
			"byteLength":288,
			"byteOffset":288,
			"target":34962
		},
		{
			"buffer":0,
			"byteLength":192,
			"byteOffset":576,
			"target":34962
		},
		{
			"buffer":0,
			"byteLength":72,
			"byteOffset":768,
			"target":34963
		},
		{
			"buffer":0,
			"byteLength":2544,
			"byteOffset":840,
			"target":34962
		},
		{
			"buffer":0,
			"byteLength":2544,
			"byteOffset":3384,
			"target":34962
		},
		{
			"buffer":0,
			"byteLength":1696,
			"byteOffset":5928,
			"target":34962
		},
		{
			"buffer":0,
			"byteLength":624,
			"byteOffset":7624,
			"target":34963
		},
		{
			"buffer":0,
			"byteLength":312,
			"byteOffset":8248,
			"target":34962
		},
		{
			"buffer":0,
			"byteLength":312,
			"byteOffset":8560,
			"target":34962
		},
		{
			"buffer":0,
			"byteLength":208,
			"byteOffset":8872,
			"target":34962
		},
		{
			"buffer":0,
			"byteLength":96,
			"byteOffset":9080,
			"target":34963
		}
	],
	"samplers":[
		{
			"magFilter":9729,
			"minFilter":9987
		}
	],
	"buffers":[
		{
			"byteLength":9176,
			"uri":"106cube.bin"
		}
	]
}
