{
    "asset" : {
        "generator" : "Khronos glTF Blender I/O v1.7.33",
        "version" : "2.0"
    },
    "scene" : 0,
    "scenes" : [
        {
            "name" : "Scene",
            "nodes" : [
                2
            ]
        }
    ],
    "nodes" : [
        {
            "mesh" : 0,
            "name" : "scp914_windkey_new"
        },
        {
            "mesh" : 1,
            "name" : "scp914_windup_new"
        },
        {
            "children" : [
                0,
                1
            ],
            "name" : "SCP914_device_key",
            "rotation" : [
                0.7071068286895752,
                0,
                0,
                0.7071067094802856
            ],
            "scale" : [
                0.009999999776482582,
                0.009999999776482582,
                0.009999999776482582
            ]
        }
    ],
    "materials" : [
        {
            "doubleSided" : true,
            "name" : "windupkey",
            "normalTexture" : {
                "index" : 0
            },
            "pbrMetallicRoughness" : {
                "baseColorTexture" : {
                    "index" : 1
                },
                "metallicRoughnessTexture" : {
                    "index" : 2
                },
                "roughnessFactor" : 0.5527864098548889
            }
        }
    ],
    "meshes" : [
        {
            "name" : "Mesh.007",
            "primitives" : [
                {
                    "attributes" : {
                        "POSITION" : 0,
                        "NORMAL" : 1,
                        "TEXCOORD_0" : 2
                    },
                    "indices" : 3,
                    "material" : 0
                }
            ]
        },
        {
            "name" : "Mesh.008",
            "primitives" : [
                {
                    "attributes" : {
                        "POSITION" : 4,
                        "NORMAL" : 5,
                        "TEXCOORD_0" : 6
                    },
                    "indices" : 7,
                    "material" : 0
                }
            ]
        }
    ],
    "textures" : [
        {
            "sampler" : 0,
            "source" : 0
        },
        {
            "sampler" : 0,
            "source" : 1
        },
        {
            "sampler" : 0,
            "source" : 2
        }
    ],
    "images" : [
        {
            "mimeType" : "image/png",
            "name" : "scp914_device_windupkey_Normal",
            "uri" : "scp914_device_windupkey_Normal.png"
        },
        {
            "mimeType" : "image/png",
            "name" : "scp914_device_windupkey_AlbedoTransparency",
            "uri" : "scp914_device_windupkey_AlbedoTransparency.png"
        },
        {
            "mimeType" : "image/png",
            "name" : "scp914_device_windupkey_MetallicSmoothness",
            "uri" : "scp914_device_windupkey_MetallicSmoothness.png"
        }
    ],
    "accessors" : [
        {
            "bufferView" : 0,
            "componentType" : 5126,
            "count" : 1297,
            "max" : [
                0.05842825397849083,
                0.9037886261940002,
                1.920081615447998
            ],
            "min" : [
                -0.05842824652791023,
                0.2740112245082855,
                1.2397310733795166
            ],
            "type" : "VEC3"
        },
        {
            "bufferView" : 1,
            "componentType" : 5126,
            "count" : 1297,
            "type" : "VEC3"
        },
        {
            "bufferView" : 2,
            "componentType" : 5126,
            "count" : 1297,
            "type" : "VEC2"
        },
        {
            "bufferView" : 3,
            "componentType" : 5123,
            "count" : 6126,
            "type" : "SCALAR"
        },
        {
            "bufferView" : 4,
            "componentType" : 5126,
            "count" : 226,
            "max" : [
                0.08545385301113129,
                0.3503807485103607,
                1.665360450744629
            ],
            "min" : [
                -0.08545388281345367,
                0.2584879398345947,
                1.494452953338623
            ],
            "type" : "VEC3"
        },
        {
            "bufferView" : 5,
            "componentType" : 5126,
            "count" : 226,
            "type" : "VEC3"
        },
        {
            "bufferView" : 6,
            "componentType" : 5126,
            "count" : 226,
            "type" : "VEC2"
        },
        {
            "bufferView" : 7,
            "componentType" : 5123,
            "count" : 900,
            "type" : "SCALAR"
        }
    ],
    "bufferViews" : [
        {
            "buffer" : 0,
            "byteLength" : 15564,
            "byteOffset" : 0
        },
        {
            "buffer" : 0,
            "byteLength" : 15564,
            "byteOffset" : 15564
        },
        {
            "buffer" : 0,
            "byteLength" : 10376,
            "byteOffset" : 31128
        },
        {
            "buffer" : 0,
            "byteLength" : 12252,
            "byteOffset" : 41504
        },
        {
            "buffer" : 0,
            "byteLength" : 2712,
            "byteOffset" : 53756
        },
        {
            "buffer" : 0,
            "byteLength" : 2712,
            "byteOffset" : 56468
        },
        {
            "buffer" : 0,
            "byteLength" : 1808,
            "byteOffset" : 59180
        },
        {
            "buffer" : 0,
            "byteLength" : 1800,
            "byteOffset" : 60988
        }
    ],
    "samplers" : [
        {
            "magFilter" : 9729,
            "minFilter" : 9987
        }
    ],
    "buffers" : [
        {
            "byteLength" : 62788,
            "uri" : "scp914devicekey.bin"
        }
    ]
}
