{
	"asset":{
		"generator":"Khronos glTF Blender I/O v3.5.30",
		"version":"2.0"
	},
	"extensionsUsed":[
		"KHR_materials_specular",
		"KHR_materials_ior"
	],
	"scene":0,
	"scenes":[
		{
			"name":"Scene",
			"nodes":[
				0
			]
		}
	],
	"nodes":[
		{
			"mesh":0,
			"name":"CK_LCZ_HCZ.001",
			"rotation":[
				0.70710688829422,
				0,
				0,
				0.7071066498756409
			]
		}
	],
	"materials":[
		{
			"doubleSided":true,
			"extensions":{
				"KHR_materials_specular":{
					"specularColorFactor":[
						2.371357614441398,
						2.371357614441398,
						2.371357614441398
					]
				},
				"KHR_materials_ior":{
					"ior":1.4500000476837158
				}
			},
			"name":"mat0.001",
			"pbrMetallicRoughness":{
				"baseColorTexture":{
					"index":0
				},
				"metallicFactor":0,
				"roughnessFactor":0.9505894184112549
			}
		},
		{
			"doubleSided":true,
			"extensions":{
				"KHR_materials_specular":{
					"specularColorFactor":[
						2.371357614441398,
						2.371357614441398,
						2.371357614441398
					]
				},
				"KHR_materials_ior":{
					"ior":1.4500000476837158
				}
			},
			"name":"mat1.001",
			"pbrMetallicRoughness":{
				"baseColorTexture":{
					"index":1
				},
				"metallicFactor":0,
				"roughnessFactor":0.9505894184112549
			}
		},
		{
			"doubleSided":true,
			"extensions":{
				"KHR_materials_specular":{
					"specularColorFactor":[
						2.371357614441398,
						2.371357614441398,
						2.371357614441398
					]
				},
				"KHR_materials_ior":{
					"ior":1.4500000476837158
				}
			},
			"name":"mat2.001",
			"pbrMetallicRoughness":{
				"baseColorTexture":{
					"index":2
				},
				"metallicFactor":0,
				"roughnessFactor":0.9505894184112549
			}
		},
		{
			"doubleSided":true,
			"extensions":{
				"KHR_materials_specular":{
					"specularColorFactor":[
						2.371357614441398,
						2.371357614441398,
						2.371357614441398
					]
				},
				"KHR_materials_ior":{
					"ior":1.4500000476837158
				}
			},
			"name":"mat3.001",
			"pbrMetallicRoughness":{
				"baseColorTexture":{
					"index":3
				},
				"metallicFactor":0,
				"roughnessFactor":0.9505894184112549
			}
		},
		{
			"doubleSided":true,
			"extensions":{
				"KHR_materials_specular":{
					"specularColorFactor":[
						2.371357614441398,
						2.371357614441398,
						2.371357614441398
					]
				},
				"KHR_materials_ior":{
					"ior":1.4500000476837158
				}
			},
			"name":"mat4.001",
			"pbrMetallicRoughness":{
				"baseColorTexture":{
					"index":4
				},
				"metallicFactor":0,
				"roughnessFactor":0.9505894184112549
			}
		},
		{
			"doubleSided":true,
			"extensions":{
				"KHR_materials_specular":{
					"specularColorFactor":[
						2.371357614441398,
						2.371357614441398,
						2.371357614441398
					]
				},
				"KHR_materials_ior":{
					"ior":1.4500000476837158
				}
			},
			"name":"mat5.001",
			"pbrMetallicRoughness":{
				"baseColorTexture":{
					"index":5
				},
				"metallicFactor":0,
				"roughnessFactor":0.9505894184112549
			}
		},
		{
			"doubleSided":true,
			"extensions":{
				"KHR_materials_specular":{
					"specularColorFactor":[
						2.371357614441398,
						2.371357614441398,
						2.371357614441398
					]
				},
				"KHR_materials_ior":{
					"ior":1.4500000476837158
				}
			},
			"name":"mat6.001",
			"pbrMetallicRoughness":{
				"baseColorTexture":{
					"index":6
				},
				"metallicFactor":0,
				"roughnessFactor":0.9505894184112549
			}
		},
		{
			"doubleSided":true,
			"extensions":{
				"KHR_materials_specular":{
					"specularColorFactor":[
						2.371357614441398,
						2.371357614441398,
						2.371357614441398
					]
				},
				"KHR_materials_ior":{
					"ior":1.4500000476837158
				}
			},
			"name":"mat7.001",
			"pbrMetallicRoughness":{
				"baseColorTexture":{
					"index":7
				},
				"metallicFactor":0,
				"roughnessFactor":0.9505894184112549
			}
		},
		{
			"doubleSided":true,
			"extensions":{
				"KHR_materials_specular":{
					"specularColorFactor":[
						2.371357614441398,
						2.371357614441398,
						2.371357614441398
					]
				},
				"KHR_materials_ior":{
					"ior":1.4500000476837158
				}
			},
			"name":"mat8.001",
			"pbrMetallicRoughness":{
				"baseColorTexture":{
					"index":8
				},
				"metallicFactor":0,
				"roughnessFactor":0.9505894184112549
			}
		},
		{
			"doubleSided":true,
			"extensions":{
				"KHR_materials_specular":{
					"specularColorFactor":[
						2.371357614441398,
						2.371357614441398,
						2.371357614441398
					]
				},
				"KHR_materials_ior":{
					"ior":1.4500000476837158
				}
			},
			"name":"mat9.001",
			"pbrMetallicRoughness":{
				"baseColorTexture":{
					"index":9
				},
				"metallicFactor":0,
				"roughnessFactor":0.9505894184112549
			}
		},
		{
			"doubleSided":true,
			"extensions":{
				"KHR_materials_specular":{
					"specularColorFactor":[
						2.371357614441398,
						2.371357614441398,
						2.371357614441398
					]
				},
				"KHR_materials_ior":{
					"ior":1.4500000476837158
				}
			},
			"name":"mat10.001",
			"pbrMetallicRoughness":{
				"baseColorTexture":{
					"index":10
				},
				"metallicFactor":0,
				"roughnessFactor":0.9505894184112549
			}
		},
		{
			"doubleSided":true,
			"extensions":{
				"KHR_materials_specular":{
					"specularColorFactor":[
						2.371357614441398,
						2.371357614441398,
						2.371357614441398
					]
				},
				"KHR_materials_ior":{
					"ior":1.4500000476837158
				}
			},
			"name":"mat11.001",
			"pbrMetallicRoughness":{
				"baseColorTexture":{
					"index":11
				},
				"metallicFactor":0,
				"roughnessFactor":0.9505894184112549
			}
		}
	],
	"meshes":[
		{
			"name":"CK_LCZ_HCZ.001",
			"primitives":[
				{
					"attributes":{
						"POSITION":0,
						"TEXCOORD_0":1,
						"NORMAL":2
					},
					"indices":3,
					"material":0
				},
				{
					"attributes":{
						"POSITION":4,
						"TEXCOORD_0":5,
						"NORMAL":6
					},
					"indices":7,
					"material":1
				},
				{
					"attributes":{
						"POSITION":8,
						"TEXCOORD_0":9,
						"NORMAL":10
					},
					"indices":11,
					"material":2
				},
				{
					"attributes":{
						"POSITION":12,
						"TEXCOORD_0":13,
						"NORMAL":14
					},
					"indices":15,
					"material":3
				},
				{
					"attributes":{
						"POSITION":16,
						"TEXCOORD_0":17,
						"NORMAL":18
					},
					"indices":19,
					"material":4
				},
				{
					"attributes":{
						"POSITION":20,
						"TEXCOORD_0":21,
						"NORMAL":22
					},
					"indices":23,
					"material":5
				},
				{
					"attributes":{
						"POSITION":24,
						"TEXCOORD_0":25,
						"NORMAL":26
					},
					"indices":27,
					"material":6
				},
				{
					"attributes":{
						"POSITION":28,
						"TEXCOORD_0":29,
						"NORMAL":30
					},
					"indices":31,
					"material":7
				},
				{
					"attributes":{
						"POSITION":32,
						"TEXCOORD_0":33,
						"NORMAL":34
					},
					"indices":27,
					"material":8
				},
				{
					"attributes":{
						"POSITION":35,
						"TEXCOORD_0":36,
						"NORMAL":37
					},
					"indices":38,
					"material":9
				},
				{
					"attributes":{
						"POSITION":39,
						"TEXCOORD_0":40,
						"NORMAL":41
					},
					"indices":42,
					"material":10
				},
				{
					"attributes":{
						"POSITION":43,
						"TEXCOORD_0":44,
						"NORMAL":45
					},
					"indices":46,
					"material":11
				}
			]
		}
	],
	"textures":[
		{
			"sampler":0,
			"source":0
		},
		{
			"sampler":0,
			"source":1
		},
		{
			"sampler":0,
			"source":2
		},
		{
			"sampler":0,
			"source":3
		},
		{
			"sampler":0,
			"source":4
		},
		{
			"sampler":0,
			"source":5
		},
		{
			"sampler":0,
			"source":6
		},
		{
			"sampler":0,
			"source":7
		},
		{
			"sampler":0,
			"source":8
		},
		{
			"sampler":0,
			"source":9
		},
		{
			"sampler":0,
			"source":10
		},
		{
			"sampler":0,
			"source":11
		}
	],
	"images":[
		{
			"mimeType":"image/jpeg",
			"name":"dirtymetal",
			"uri":"dirtymetal.jpg"
		},
		{
			"mimeType":"image/jpeg",
			"name":"concretefloor",
			"uri":"concretefloor.jpg"
		},
		{
			"mimeType":"image/jpeg",
			"name":"whitewall_2k",
			"uri":"whitewall_2k.jpg"
		},
		{
			"mimeType":"image/jpeg",
			"name":"metalpanels2",
			"uri":"metalpanels2.jpg"
		},
		{
			"mimeType":"image/jpeg",
			"name":"concretewall",
			"uri":"concretewall.jpg"
		},
		{
			"mimeType":"image/jpeg",
			"name":"tilefloor",
			"uri":"tilefloor.jpg"
		},
		{
			"mimeType":"image/jpeg",
			"name":"misc",
			"uri":"misc.jpg"
		},
		{
			"mimeType":"image/jpeg",
			"name":"white",
			"uri":"white.jpg"
		},
		{
			"mimeType":"image/jpeg",
			"name":"controlpanel",
			"uri":"controlpanel.jpg"
		},
		{
			"mimeType":"image/jpeg",
			"name":"metal",
			"uri":"metal.jpg"
		},
		{
			"mimeType":"image/jpeg",
			"name":"miscsigns",
			"uri":"miscsigns.jpg"
		},
		{
			"mimeType":"image/png",
			"name":"glass",
			"uri":"glass.png"
		}
	],
	"accessors":[
		{
			"bufferView":0,
			"componentType":5126,
			"count":2104,
			"max":[
				8,
				9.960000038146973,
				0
			],
			"min":[
				-11.039999961853027,
				-9.960000038146973,
				-7.199999809265137
			],
			"type":"VEC3"
		},
		{
			"bufferView":1,
			"componentType":5126,
			"count":2104,
			"type":"VEC2"
		},
		{
			"bufferView":2,
			"componentType":5126,
			"count":2104,
			"type":"VEC3"
		},
		{
			"bufferView":3,
			"componentType":5123,
			"count":3186,
			"type":"SCALAR"
		},
		{
			"bufferView":4,
			"componentType":5126,
			"count":180,
			"max":[
				10.880000114440918,
				10.239999771118164,
				-3.5199990272521973
			],
			"min":[
				-10.239999771118164,
				-10.239999771118164,
				-7.199999809265137
			],
			"type":"VEC3"
		},
		{
			"bufferView":5,
			"componentType":5126,
			"count":180,
			"type":"VEC2"
		},
		{
			"bufferView":6,
			"componentType":5126,
			"count":180,
			"type":"VEC3"
		},
		{
			"bufferView":7,
			"componentType":5123,
			"count":252,
			"type":"SCALAR"
		},
		{
			"bufferView":8,
			"componentType":5126,
			"count":456,
			"max":[
				10.880000114440918,
				8.960000991821289,
				0
			],
			"min":[
				-9.59999942779541,
				-10.239999771118164,
				-7.039999961853027
			],
			"type":"VEC3"
		},
		{
			"bufferView":9,
			"componentType":5126,
			"count":456,
			"type":"VEC2"
		},
		{
			"bufferView":10,
			"componentType":5126,
			"count":456,
			"type":"VEC3"
		},
		{
			"bufferView":11,
			"componentType":5123,
			"count":684,
			"type":"SCALAR"
		},
		{
			"bufferView":12,
			"componentType":5126,
			"count":480,
			"max":[
				6.400001049041748,
				9.9399995803833,
				-3.5
			],
			"min":[
				-9.59999942779541,
				-10,
				-5.440000057220459
			],
			"type":"VEC3"
		},
		{
			"bufferView":13,
			"componentType":5126,
			"count":480,
			"type":"VEC2"
		},
		{
			"bufferView":14,
			"componentType":5126,
			"count":480,
			"type":"VEC3"
		},
		{
			"bufferView":15,
			"componentType":5123,
			"count":720,
			"type":"SCALAR"
		},
		{
			"bufferView":16,
			"componentType":5126,
			"count":228,
			"max":[
				10.880000114440918,
				10.239999771118164,
				0
			],
			"min":[
				-9.440006256103516,
				-7.040000915527344,
				-7.039999961853027
			],
			"type":"VEC3"
		},
		{
			"bufferView":17,
			"componentType":5126,
			"count":228,
			"type":"VEC2"
		},
		{
			"bufferView":18,
			"componentType":5126,
			"count":228,
			"type":"VEC3"
		},
		{
			"bufferView":19,
			"componentType":5123,
			"count":342,
			"type":"SCALAR"
		},
		{
			"bufferView":20,
			"componentType":5126,
			"count":4,
			"max":[
				10.880000114440918,
				10.239999771118164,
				0
			],
			"min":[
				-9.4399995803833,
				-10.239999771118164,
				0
			],
			"type":"VEC3"
		},
		{
			"bufferView":21,
			"componentType":5126,
			"count":4,
			"type":"VEC2"
		},
		{
			"bufferView":22,
			"componentType":5126,
			"count":4,
			"type":"VEC3"
		},
		{
			"bufferView":23,
			"componentType":5123,
			"count":6,
			"type":"SCALAR"
		},
		{
			"bufferView":24,
			"componentType":5126,
			"count":48,
			"max":[
				0.11043829470872879,
				5.319999694824219,
				-7.010439872741699
			],
			"min":[
				-0.12956179678440094,
				-2.759999990463257,
				-7.048680782318115
			],
			"type":"VEC3"
		},
		{
			"bufferView":25,
			"componentType":5126,
			"count":48,
			"type":"VEC2"
		},
		{
			"bufferView":26,
			"componentType":5126,
			"count":48,
			"type":"VEC3"
		},
		{
			"bufferView":27,
			"componentType":5123,
			"count":72,
			"type":"SCALAR"
		},
		{
			"bufferView":28,
			"componentType":5126,
			"count":36,
			"max":[
				6.399999618530273,
				3.3600008487701416,
				0
			],
			"min":[
				-9.4399995803833,
				-0.8000007271766663,
				-7.039999961853027
			],
			"type":"VEC3"
		},
		{
			"bufferView":29,
			"componentType":5126,
			"count":36,
			"type":"VEC2"
		},
		{
			"bufferView":30,
			"componentType":5126,
			"count":36,
			"type":"VEC3"
		},
		{
			"bufferView":31,
			"componentType":5123,
			"count":54,
			"type":"SCALAR"
		},
		{
			"bufferView":32,
			"componentType":5126,
			"count":48,
			"max":[
				10.54788875579834,
				6.240001201629639,
				-1.7599999904632568
			],
			"min":[
				10.507888793945312,
				-4.312106132507324,
				-3.279999017715454
			],
			"type":"VEC3"
		},
		{
			"bufferView":33,
			"componentType":5126,
			"count":48,
			"type":"VEC2"
		},
		{
			"bufferView":34,
			"componentType":5126,
			"count":48,
			"type":"VEC3"
		},
		{
			"bufferView":35,
			"componentType":5126,
			"count":120,
			"max":[
				7.727892875671387,
				5.229379177093506,
				-1.0799999237060547
			],
			"min":[
				-9.359999656677246,
				1.2622649669647217,
				-3.1599998474121094
			],
			"type":"VEC3"
		},
		{
			"bufferView":36,
			"componentType":5126,
			"count":120,
			"type":"VEC2"
		},
		{
			"bufferView":37,
			"componentType":5126,
			"count":120,
			"type":"VEC3"
		},
		{
			"bufferView":38,
			"componentType":5123,
			"count":180,
			"type":"SCALAR"
		},
		{
			"bufferView":39,
			"componentType":5126,
			"count":24,
			"max":[
				1.1799999475479126,
				9.899999618530273,
				-3.5199999809265137
			],
			"min":[
				-4.220000743865967,
				-9.899999618530273,
				-3.9599997997283936
			],
			"type":"VEC3"
		},
		{
			"bufferView":40,
			"componentType":5126,
			"count":24,
			"type":"VEC2"
		},
		{
			"bufferView":41,
			"componentType":5126,
			"count":24,
			"type":"VEC3"
		},
		{
			"bufferView":42,
			"componentType":5123,
			"count":36,
			"type":"SCALAR"
		},
		{
			"bufferView":43,
			"componentType":5126,
			"count":28,
			"max":[
				6.599999904632568,
				7.680001258850098,
				-1.3199999332427979
			],
			"min":[
				-9.358185768127441,
				-5.760001182556152,
				-6.559999942779541
			],
			"type":"VEC3"
		},
		{
			"bufferView":44,
			"componentType":5126,
			"count":28,
			"type":"VEC2"
		},
		{
			"bufferView":45,
			"componentType":5126,
			"count":28,
			"type":"VEC3"
		},
		{
			"bufferView":46,
			"componentType":5123,
			"count":42,
			"type":"SCALAR"
		}
	],
	"bufferViews":[
		{
			"buffer":0,
			"byteLength":25248,
			"byteOffset":0,
			"target":34962
		},
		{
			"buffer":0,
			"byteLength":16832,
			"byteOffset":25248,
			"target":34962
		},
		{
			"buffer":0,
			"byteLength":25248,
			"byteOffset":42080,
			"target":34962
		},
		{
			"buffer":0,
			"byteLength":6372,
			"byteOffset":67328,
			"target":34963
		},
		{
			"buffer":0,
			"byteLength":2160,
			"byteOffset":73700,
			"target":34962
		},
		{
			"buffer":0,
			"byteLength":1440,
			"byteOffset":75860,
			"target":34962
		},
		{
			"buffer":0,
			"byteLength":2160,
			"byteOffset":77300,
			"target":34962
		},
		{
			"buffer":0,
			"byteLength":504,
			"byteOffset":79460,
			"target":34963
		},
		{
			"buffer":0,
			"byteLength":5472,
			"byteOffset":79964,
			"target":34962
		},
		{
			"buffer":0,
			"byteLength":3648,
			"byteOffset":85436,
			"target":34962
		},
		{
			"buffer":0,
			"byteLength":5472,
			"byteOffset":89084,
			"target":34962
		},
		{
			"buffer":0,
			"byteLength":1368,
			"byteOffset":94556,
			"target":34963
		},
		{
			"buffer":0,
			"byteLength":5760,
			"byteOffset":95924,
			"target":34962
		},
		{
			"buffer":0,
			"byteLength":3840,
			"byteOffset":101684,
			"target":34962
		},
		{
			"buffer":0,
			"byteLength":5760,
			"byteOffset":105524,
			"target":34962
		},
		{
			"buffer":0,
			"byteLength":1440,
			"byteOffset":111284,
			"target":34963
		},
		{
			"buffer":0,
			"byteLength":2736,
			"byteOffset":112724,
			"target":34962
		},
		{
			"buffer":0,
			"byteLength":1824,
			"byteOffset":115460,
			"target":34962
		},
		{
			"buffer":0,
			"byteLength":2736,
			"byteOffset":117284,
			"target":34962
		},
		{
			"buffer":0,
			"byteLength":684,
			"byteOffset":120020,
			"target":34963
		},
		{
			"buffer":0,
			"byteLength":48,
			"byteOffset":120704,
			"target":34962
		},
		{
			"buffer":0,
			"byteLength":32,
			"byteOffset":120752,
			"target":34962
		},
		{
			"buffer":0,
			"byteLength":48,
			"byteOffset":120784,
			"target":34962
		},
		{
			"buffer":0,
			"byteLength":12,
			"byteOffset":120832,
			"target":34963
		},
		{
			"buffer":0,
			"byteLength":576,
			"byteOffset":120844,
			"target":34962
		},
		{
			"buffer":0,
			"byteLength":384,
			"byteOffset":121420,
			"target":34962
		},
		{
			"buffer":0,
			"byteLength":576,
			"byteOffset":121804,
			"target":34962
		},
		{
			"buffer":0,
			"byteLength":144,
			"byteOffset":122380,
			"target":34963
		},
		{
			"buffer":0,
			"byteLength":432,
			"byteOffset":122524,
			"target":34962
		},
		{
			"buffer":0,
			"byteLength":288,
			"byteOffset":122956,
			"target":34962
		},
		{
			"buffer":0,
			"byteLength":432,
			"byteOffset":123244,
			"target":34962
		},
		{
			"buffer":0,
			"byteLength":108,
			"byteOffset":123676,
			"target":34963
		},
		{
			"buffer":0,
			"byteLength":576,
			"byteOffset":123784,
			"target":34962
		},
		{
			"buffer":0,
			"byteLength":384,
			"byteOffset":124360,
			"target":34962
		},
		{
			"buffer":0,
			"byteLength":576,
			"byteOffset":124744,
			"target":34962
		},
		{
			"buffer":0,
			"byteLength":1440,
			"byteOffset":125320,
			"target":34962
		},
		{
			"buffer":0,
			"byteLength":960,
			"byteOffset":126760,
			"target":34962
		},
		{
			"buffer":0,
			"byteLength":1440,
			"byteOffset":127720,
			"target":34962
		},
		{
			"buffer":0,
			"byteLength":360,
			"byteOffset":129160,
			"target":34963
		},
		{
			"buffer":0,
			"byteLength":288,
			"byteOffset":129520,
			"target":34962
		},
		{
			"buffer":0,
			"byteLength":192,
			"byteOffset":129808,
			"target":34962
		},
		{
			"buffer":0,
			"byteLength":288,
			"byteOffset":130000,
			"target":34962
		},
		{
			"buffer":0,
			"byteLength":72,
			"byteOffset":130288,
			"target":34963
		},
		{
			"buffer":0,
			"byteLength":336,
			"byteOffset":130360,
			"target":34962
		},
		{
			"buffer":0,
			"byteLength":224,
			"byteOffset":130696,
			"target":34962
		},
		{
			"buffer":0,
			"byteLength":336,
			"byteOffset":130920,
			"target":34962
		},
		{
			"buffer":0,
			"byteLength":84,
			"byteOffset":131256,
			"target":34963
		}
	],
	"samplers":[
		{
			"magFilter":9729,
			"minFilter":9987
		}
	],
	"buffers":[
		{
			"byteLength":131340,
			"uri":"CK_LCZ_HCZ.bin"
		}
	]
}
