{
	"asset":{
		"generator":"Khronos glTF Blender I/O v3.6.27",
		"version":"2.0"
	},
	"scene":0,
	"scenes":[
		{
			"name":"Scene",
			"nodes":[
				0,
				1
			]
		}
	],
	"nodes":[
		{
			"mesh":0,
			"name":"Cage",
			"rotation":[
				0,
				0.1950903683900833,
				0,
				0.9807853698730469
			]
		},
		{
			"mesh":1,
			"name":"Cage.001",
			"rotation":[
				0,
				0.1950903683900833,
				0,
				0.9807853698730469
			]
		}
	],
	"materials":[
		{
			"doubleSided":true,
			"name":"Material.001",
			"normalTexture":{
				"index":0
			},
			"pbrMetallicRoughness":{
				"baseColorTexture":{
					"index":1
				},
				"metallicRoughnessTexture":{
					"index":2
				}
			}
		},
		{
			"doubleSided":true,
			"name":"Material.003",
			"normalTexture":{
				"index":3
			},
			"pbrMetallicRoughness":{
				"baseColorTexture":{
					"index":4
				},
				"metallicRoughnessTexture":{
					"index":5
				}
			}
		}
	],
	"meshes":[
		{
			"name":"Cylinder.001",
			"primitives":[
				{
					"attributes":{
						"POSITION":0,
						"NORMAL":1,
						"TEXCOORD_0":2
					},
					"indices":3,
					"material":0
				}
			]
		},
		{
			"name":"Cylinder.002",
			"primitives":[
				{
					"attributes":{
						"POSITION":4,
						"NORMAL":5,
						"TEXCOORD_0":6
					},
					"indices":7,
					"material":1
				}
			]
		}
	],
	"textures":[
		{
			"sampler":0,
			"source":0
		},
		{
			"sampler":0,
			"source":1
		},
		{
			"sampler":0,
			"source":2
		},
		{
			"sampler":0,
			"source":0
		},
		{
			"sampler":0,
			"source":3
		},
		{
			"sampler":0,
			"source":2
		}
	],
	"images":[
		{
			"mimeType":"image/png",
			"name":"Metal030_2K-PNG_NormalGL",
			"uri":"Metal030_2K-PNG_NormalGL.png"
		},
		{
			"mimeType":"image/png",
			"name":"Metal030_2K-PNG_Color",
			"uri":"Metal030_2K-PNG_Color.png"
		},
		{
			"mimeType":"image/png",
			"name":"Metal030_2K-PNG_Metalness-Metal030_2K-PNG_Roughness",
			"uri":"Metal030_2K-PNG_Metalness-Metal030_2K-PNG_Roughness.png"
		},
		{
			"mimeType":"image/png",
			"name":"Metal030_2K-PNG_Color_painted",
			"uri":"Metal030_2K-PNG_Color_painted.png"
		}
	],
	"accessors":[
		{
			"bufferView":0,
			"componentType":5126,
			"count":128,
			"max":[
				0.8000001907348633,
				1.599999189376831,
				0.8000001907348633
			],
			"min":[
				-0.8000001907348633,
				-1.599999189376831,
				-0.8000001907348633
			],
			"type":"VEC3"
		},
		{
			"bufferView":1,
			"componentType":5126,
			"count":128,
			"type":"VEC3"
		},
		{
			"bufferView":2,
			"componentType":5126,
			"count":128,
			"type":"VEC2"
		},
		{
			"bufferView":3,
			"componentType":5123,
			"count":210,
			"type":"SCALAR"
		},
		{
			"bufferView":4,
			"componentType":5126,
			"count":12,
			"max":[
				0.2828427851200104,
				1.4402247667312622,
				0.8000001907348633
			],
			"min":[
				-0.6828428506851196,
				-1.4149235486984253,
				0.2828427851200104
			],
			"type":"VEC3"
		},
		{
			"bufferView":5,
			"componentType":5126,
			"count":12,
			"type":"VEC3"
		},
		{
			"bufferView":6,
			"componentType":5126,
			"count":12,
			"type":"VEC2"
		},
		{
			"bufferView":7,
			"componentType":5123,
			"count":18,
			"type":"SCALAR"
		}
	],
	"bufferViews":[
		{
			"buffer":0,
			"byteLength":1536,
			"byteOffset":0,
			"target":34962
		},
		{
			"buffer":0,
			"byteLength":1536,
			"byteOffset":1536,
			"target":34962
		},
		{
			"buffer":0,
			"byteLength":1024,
			"byteOffset":3072,
			"target":34962
		},
		{
			"buffer":0,
			"byteLength":420,
			"byteOffset":4096,
			"target":34963
		},
		{
			"buffer":0,
			"byteLength":144,
			"byteOffset":4516,
			"target":34962
		},
		{
			"buffer":0,
			"byteLength":144,
			"byteOffset":4660,
			"target":34962
		},
		{
			"buffer":0,
			"byteLength":96,
			"byteOffset":4804,
			"target":34962
		},
		{
			"buffer":0,
			"byteLength":36,
			"byteOffset":4900,
			"target":34963
		}
	],
	"samplers":[
		{
			"magFilter":9729,
			"minFilter":9987
		}
	],
	"buffers":[
		{
			"byteLength":4936,
			"uri":"SCPCage_closed.bin"
		}
	]
}
