{
	"asset":{
		"generator":"Khronos glTF Blender I/O v3.6.27",
		"version":"2.0"
	},
	"scene":0,
	"scenes":[
		{
			"name":"Scene",
			"nodes":[
				0
			]
		}
	],
	"nodes":[
		{
			"mesh":0,
			"name":"Elevator"
		}
	],
	"materials":[
		{
			"doubleSided":true,
			"name":"Surface",
			"normalTexture":{
				"index":0
			},
			"pbrMetallicRoughness":{
				"baseColorTexture":{
					"index":1
				},
				"metallicRoughnessTexture":{
					"index":2
				}
			}
		},
		{
			"doubleSided":true,
			"name":"Floor",
			"normalTexture":{
				"index":3
			},
			"pbrMetallicRoughness":{
				"baseColorTexture":{
					"index":4
				},
				"metallicRoughnessTexture":{
					"index":5
				}
			}
		}
	],
	"meshes":[
		{
			"name":"Cube.002",
			"primitives":[
				{
					"attributes":{
						"POSITION":0,
						"NORMAL":1,
						"TEXCOORD_0":2
					},
					"indices":3,
					"material":0
				},
				{
					"attributes":{
						"POSITION":4,
						"NORMAL":5,
						"TEXCOORD_0":6
					},
					"indices":7,
					"material":1
				}
			]
		}
	],
	"textures":[
		{
			"sampler":0,
			"source":0
		},
		{
			"sampler":0,
			"source":1
		},
		{
			"sampler":0,
			"source":2
		},
		{
			"sampler":0,
			"source":3
		},
		{
			"sampler":0,
			"source":4
		},
		{
			"sampler":0,
			"source":5
		}
	],
	"images":[
		{
			"mimeType":"image/png",
			"name":"Elevator_uv_Floor_Normal",
			"uri":"Elevator_uv_Floor_Normal.png"
		},
		{
			"mimeType":"image/png",
			"name":"Elevator_uv_Floor_Albedo",
			"uri":"Elevator_uv_Floor_Albedo.png"
		},
		{
			"mimeType":"image/png",
			"name":"Elevator_uv_Floor_Metallic-Elevator_uv_Floor_Roughness",
			"uri":"Elevator_uv_Floor_Metallic-Elevator_uv_Floor_Roughness.png"
		},
		{
			"mimeType":"image/png",
			"name":"DiamondPlate008A_2K-PNG_NormalGL",
			"uri":"DiamondPlate008A_2K-PNG_NormalGL.png"
		},
		{
			"mimeType":"image/png",
			"name":"DiamondPlate008A_2K-PNG_Color",
			"uri":"DiamondPlate008A_2K-PNG_Color.png"
		},
		{
			"mimeType":"image/png",
			"name":"DiamondPlate008A_2K-PNG_Metalness-DiamondPlate008A_2K-PNG_Roughness",
			"uri":"DiamondPlate008A_2K-PNG_Metalness-DiamondPlate008A_2K-PNG_Roughness.png"
		}
	],
	"accessors":[
		{
			"bufferView":0,
			"componentType":5126,
			"count":146,
			"max":[
				3.5282909870147705,
				4.056360721588135,
				3.1149463653564453
			],
			"min":[
				-3.4629671573638916,
				-0.17320451140403748,
				-3.1149463653564453
			],
			"type":"VEC3"
		},
		{
			"bufferView":1,
			"componentType":5126,
			"count":146,
			"type":"VEC3"
		},
		{
			"bufferView":2,
			"componentType":5126,
			"count":146,
			"type":"VEC2"
		},
		{
			"bufferView":3,
			"componentType":5123,
			"count":264,
			"type":"SCALAR"
		},
		{
			"bufferView":4,
			"componentType":5126,
			"count":8,
			"max":[
				3.355085849761963,
				5.820766091346741e-07,
				2.9417412281036377
			],
			"min":[
				-3.289762020111084,
				5.820766091346741e-07,
				-2.9417412281036377
			],
			"type":"VEC3"
		},
		{
			"bufferView":5,
			"componentType":5126,
			"count":8,
			"type":"VEC3"
		},
		{
			"bufferView":6,
			"componentType":5126,
			"count":8,
			"type":"VEC2"
		},
		{
			"bufferView":7,
			"componentType":5123,
			"count":12,
			"type":"SCALAR"
		}
	],
	"bufferViews":[
		{
			"buffer":0,
			"byteLength":1752,
			"byteOffset":0,
			"target":34962
		},
		{
			"buffer":0,
			"byteLength":1752,
			"byteOffset":1752,
			"target":34962
		},
		{
			"buffer":0,
			"byteLength":1168,
			"byteOffset":3504,
			"target":34962
		},
		{
			"buffer":0,
			"byteLength":528,
			"byteOffset":4672,
			"target":34963
		},
		{
			"buffer":0,
			"byteLength":96,
			"byteOffset":5200,
			"target":34962
		},
		{
			"buffer":0,
			"byteLength":96,
			"byteOffset":5296,
			"target":34962
		},
		{
			"buffer":0,
			"byteLength":64,
			"byteOffset":5392,
			"target":34962
		},
		{
			"buffer":0,
			"byteLength":24,
			"byteOffset":5456,
			"target":34963
		}
	],
	"samplers":[
		{
			"magFilter":9729,
			"minFilter":9987
		}
	],
	"buffers":[
		{
			"byteLength":5480,
			"uri":"Elevator.bin"
		}
	]
}
