{
	"asset":{
		"generator":"Khronos glTF Blender I/O v3.6.27",
		"version":"2.0"
	},
	"extensionsUsed":[
		"KHR_materials_specular",
		"KHR_materials_ior"
	],
	"scene":0,
	"scenes":[
		{
			"name":"Scene",
			"nodes":[
				0
			]
		}
	],
	"nodes":[
		{
			"mesh":0,
			"name":"SZ_site19",
			"rotation":[
				0.70710688829422,
				0,
				0,
				0.7071066498756409
			],
			"scale":[
				0.009999999776482582,
				0.009999999776482582,
				0.009999999776482582
			]
		}
	],
	"materials":[
		{
			"doubleSided":true,
			"extensions":{
				"KHR_materials_specular":{
					"specularColorFactor":[
						2.371357614441398,
						2.371357614441398,
						2.371357614441398
					]
				},
				"KHR_materials_ior":{
					"ior":1.4500000476837158
				}
			},
			"name":"mat0.002",
			"normalTexture":{
				"index":0
			},
			"pbrMetallicRoughness":{
				"baseColorTexture":{
					"index":1
				},
				"metallicFactor":0,
				"metallicRoughnessTexture":{
					"index":2
				}
			}
		},
		{
			"doubleSided":true,
			"extensions":{
				"KHR_materials_specular":{
					"specularColorFactor":[
						2.371357614441398,
						2.371357614441398,
						2.371357614441398
					]
				},
				"KHR_materials_ior":{
					"ior":1.4500000476837158
				}
			},
			"name":"mat1.002",
			"normalTexture":{
				"index":3
			},
			"pbrMetallicRoughness":{
				"baseColorTexture":{
					"index":4
				},
				"metallicFactor":0,
				"metallicRoughnessTexture":{
					"index":5
				}
			}
		},
		{
			"doubleSided":true,
			"extensions":{
				"KHR_materials_specular":{
					"specularColorFactor":[
						2.371357614441398,
						2.371357614441398,
						2.371357614441398
					]
				},
				"KHR_materials_ior":{
					"ior":1.4500000476837158
				}
			},
			"name":"mat2.002",
			"pbrMetallicRoughness":{
				"baseColorTexture":{
					"index":6
				},
				"metallicFactor":0,
				"roughnessFactor":0.9505894184112549
			}
		},
		{
			"doubleSided":true,
			"extensions":{
				"KHR_materials_specular":{
					"specularColorFactor":[
						2.371357614441398,
						2.371357614441398,
						2.371357614441398
					]
				},
				"KHR_materials_ior":{
					"ior":1.4500000476837158
				}
			},
			"name":"mat3.002",
			"pbrMetallicRoughness":{
				"baseColorTexture":{
					"index":7
				},
				"metallicFactor":0,
				"roughnessFactor":0.9505894184112549
			}
		},
		{
			"doubleSided":true,
			"extensions":{
				"KHR_materials_specular":{
					"specularColorFactor":[
						2.371357614441398,
						2.371357614441398,
						2.371357614441398
					]
				},
				"KHR_materials_ior":{
					"ior":1.4500000476837158
				}
			},
			"name":"mat4.002",
			"normalTexture":{
				"index":8
			},
			"pbrMetallicRoughness":{
				"baseColorTexture":{
					"index":9
				},
				"metallicFactor":0,
				"metallicRoughnessTexture":{
					"index":10
				}
			}
		},
		{
			"doubleSided":true,
			"extensions":{
				"KHR_materials_specular":{
					"specularColorFactor":[
						2.371357614441398,
						2.371357614441398,
						2.371357614441398
					]
				},
				"KHR_materials_ior":{
					"ior":1.4500000476837158
				}
			},
			"name":"mat5.002",
			"normalTexture":{
				"index":11
			},
			"pbrMetallicRoughness":{
				"baseColorTexture":{
					"index":12
				},
				"metallicFactor":0,
				"metallicRoughnessTexture":{
					"index":13
				}
			}
		},
		{
			"doubleSided":true,
			"emissiveFactor":[
				1,
				1,
				1
			],
			"emissiveTexture":{
				"index":14
			},
			"extensions":{
				"KHR_materials_specular":{
					"specularColorFactor":[
						2.371357614441398,
						2.371357614441398,
						2.371357614441398
					]
				},
				"KHR_materials_ior":{
					"ior":1.4500000476837158
				}
			},
			"name":"mat6.001",
			"normalTexture":{
				"index":15
			},
			"pbrMetallicRoughness":{
				"baseColorTexture":{
					"index":16
				},
				"metallicRoughnessTexture":{
					"index":17
				}
			}
		},
		{
			"doubleSided":true,
			"extensions":{
				"KHR_materials_specular":{
					"specularColorFactor":[
						2.371357614441398,
						2.371357614441398,
						2.371357614441398
					]
				},
				"KHR_materials_ior":{
					"ior":1.4500000476837158
				}
			},
			"name":"mat7.001",
			"pbrMetallicRoughness":{
				"baseColorTexture":{
					"index":18
				},
				"metallicFactor":0,
				"roughnessFactor":0.9505894184112549
			}
		},
		{
			"doubleSided":true,
			"extensions":{
				"KHR_materials_specular":{
					"specularColorFactor":[
						2.371357614441398,
						2.371357614441398,
						2.371357614441398
					]
				},
				"KHR_materials_ior":{
					"ior":1.4500000476837158
				}
			},
			"name":"mat8",
			"pbrMetallicRoughness":{
				"baseColorTexture":{
					"index":19
				},
				"metallicFactor":0,
				"roughnessFactor":0.9505894184112549
			}
		},
		{
			"doubleSided":true,
			"extensions":{
				"KHR_materials_specular":{
					"specularColorFactor":[
						2.371357614441398,
						2.371357614441398,
						2.371357614441398
					]
				},
				"KHR_materials_ior":{
					"ior":1.4500000476837158
				}
			},
			"name":"mat9",
			"pbrMetallicRoughness":{
				"baseColorTexture":{
					"index":20
				},
				"metallicFactor":0,
				"roughnessFactor":0.9505894184112549
			}
		},
		{
			"doubleSided":true,
			"extensions":{
				"KHR_materials_specular":{
					"specularColorFactor":[
						2.371357614441398,
						2.371357614441398,
						2.371357614441398
					]
				},
				"KHR_materials_ior":{
					"ior":1.4500000476837158
				}
			},
			"name":"mat10",
			"pbrMetallicRoughness":{
				"baseColorTexture":{
					"index":21
				},
				"metallicFactor":0,
				"roughnessFactor":0.9505894184112549
			}
		}
	],
	"meshes":[
		{
			"name":"SZ_site19",
			"primitives":[
				{
					"attributes":{
						"POSITION":0,
						"NORMAL":1,
						"TEXCOORD_0":2
					},
					"indices":3,
					"material":0
				},
				{
					"attributes":{
						"POSITION":4,
						"NORMAL":5,
						"TEXCOORD_0":6
					},
					"indices":7,
					"material":1
				},
				{
					"attributes":{
						"POSITION":8,
						"NORMAL":9,
						"TEXCOORD_0":10
					},
					"indices":11,
					"material":2
				},
				{
					"attributes":{
						"POSITION":12,
						"NORMAL":13,
						"TEXCOORD_0":14
					},
					"indices":15,
					"material":3
				},
				{
					"attributes":{
						"POSITION":16,
						"NORMAL":17,
						"TEXCOORD_0":18
					},
					"indices":19,
					"material":4
				},
				{
					"attributes":{
						"POSITION":20,
						"NORMAL":21,
						"TEXCOORD_0":22
					},
					"indices":23,
					"material":5
				},
				{
					"attributes":{
						"POSITION":24,
						"NORMAL":25,
						"TEXCOORD_0":26
					},
					"indices":27,
					"material":6
				},
				{
					"attributes":{
						"POSITION":28,
						"NORMAL":29,
						"TEXCOORD_0":30
					},
					"indices":31,
					"material":7
				},
				{
					"attributes":{
						"POSITION":32,
						"NORMAL":33,
						"TEXCOORD_0":34
					},
					"indices":35,
					"material":8
				},
				{
					"attributes":{
						"POSITION":36,
						"NORMAL":37,
						"TEXCOORD_0":38
					},
					"indices":39,
					"material":9
				},
				{
					"attributes":{
						"POSITION":40,
						"NORMAL":41,
						"TEXCOORD_0":42
					},
					"indices":43,
					"material":10
				}
			]
		}
	],
	"textures":[
		{
			"sampler":0,
			"source":0
		},
		{
			"sampler":0,
			"source":1
		},
		{
			"sampler":0,
			"source":2
		},
		{
			"sampler":0,
			"source":3
		},
		{
			"sampler":0,
			"source":4
		},
		{
			"sampler":0,
			"source":5
		},
		{
			"sampler":0,
			"source":6
		},
		{
			"sampler":0,
			"source":7
		},
		{
			"sampler":0,
			"source":8
		},
		{
			"sampler":0,
			"source":9
		},
		{
			"sampler":0,
			"source":10
		},
		{
			"sampler":0,
			"source":11
		},
		{
			"sampler":0,
			"source":12
		},
		{
			"sampler":0,
			"source":13
		},
		{
			"sampler":0,
			"source":14
		},
		{
			"sampler":0,
			"source":15
		},
		{
			"sampler":0,
			"source":16
		},
		{
			"sampler":0,
			"source":17
		},
		{
			"sampler":0,
			"source":18
		},
		{
			"sampler":0,
			"source":19
		},
		{
			"sampler":0,
			"source":20
		},
		{
			"sampler":0,
			"source":21
		}
	],
	"images":[
		{
			"mimeType":"image/png",
			"name":"Bricks054_2K_NormalGL",
			"uri":"Bricks054_2K_NormalGL.png"
		},
		{
			"mimeType":"image/png",
			"name":"bricks054_2k_color",
			"uri":"bricks054_2k_color.png"
		},
		{
			"mimeType":"image/png",
			"name":"Bricks054_2K_Roughness",
			"uri":"Bricks054_2K_Roughness.png"
		},
		{
			"mimeType":"image/png",
			"name":"Plaster003_2K_NormalGL",
			"uri":"Plaster003_2K_NormalGL.png"
		},
		{
			"mimeType":"image/png",
			"name":"plaster003_2k_color",
			"uri":"plaster003_2k_color.png"
		},
		{
			"mimeType":"image/png",
			"name":"Plaster003_2K_Roughness",
			"uri":"Plaster003_2K_Roughness.png"
		},
		{
			"mimeType":"image/jpeg",
			"name":"metal_darker",
			"uri":"metal_darker.jpg"
		},
		{
			"mimeType":"image/jpeg",
			"name":"concretefloor",
			"uri":"concretefloor.jpg"
		},
		{
			"mimeType":"image/png",
			"name":"Tiles107_2K_NormalGL",
			"uri":"Tiles107_2K_NormalGL.png"
		},
		{
			"mimeType":"image/png",
			"name":"tiles107_2k_color",
			"uri":"tiles107_2k_color.png"
		},
		{
			"mimeType":"image/png",
			"name":"Tiles107_2K_Roughness",
			"uri":"Tiles107_2K_Roughness.png"
		},
		{
			"mimeType":"image/png",
			"name":"Wallpaper001A_2K_NormalGL",
			"uri":"Wallpaper001A_2K_NormalGL.png"
		},
		{
			"mimeType":"image/png",
			"name":"wallpaper001a_2k_color",
			"uri":"wallpaper001a_2k_color.png"
		},
		{
			"mimeType":"image/png",
			"name":"Wallpaper001A_2K_Roughness",
			"uri":"Wallpaper001A_2K_Roughness.png"
		},
		{
			"mimeType":"image/png",
			"name":"OfficeCeiling002_2K_Emission",
			"uri":"OfficeCeiling002_2K_Emission.png"
		},
		{
			"mimeType":"image/png",
			"name":"OfficeCeiling002_2K_NormalGL",
			"uri":"OfficeCeiling002_2K_NormalGL.png"
		},
		{
			"mimeType":"image/png",
			"name":"officeceiling002_2k_color",
			"uri":"officeceiling002_2k_color.png"
		},
		{
			"mimeType":"image/png",
			"name":"OfficeCeiling002_2K_Metalness-OfficeCeiling002_2K_Roughness",
			"uri":"OfficeCeiling002_2K_Metalness-OfficeCeiling002_2K_Roughness.png"
		},
		{
			"mimeType":"image/jpeg",
			"name":"dirtymetal",
			"uri":"dirtymetal.jpg"
		},
		{
			"mimeType":"image/jpeg",
			"name":"metalpanels",
			"uri":"metalpanels.jpg"
		},
		{
			"mimeType":"image/jpeg",
			"name":"metal",
			"uri":"metal.jpg"
		},
		{
			"mimeType":"image/jpeg",
			"name":"metal3",
			"uri":"metal3.jpg"
		}
	],
	"accessors":[
		{
			"bufferView":0,
			"componentType":5126,
			"count":480,
			"max":[
				640.0003662109375,
				5183.99755859375,
				1328.000244140625
			],
			"min":[
				-2336.001220703125,
				-2048.0009765625,
				15.999971389770508
			],
			"type":"VEC3"
		},
		{
			"bufferView":1,
			"componentType":5126,
			"count":480,
			"type":"VEC3"
		},
		{
			"bufferView":2,
			"componentType":5126,
			"count":480,
			"type":"VEC2"
		},
		{
			"bufferView":3,
			"componentType":5123,
			"count":720,
			"type":"SCALAR"
		},
		{
			"bufferView":4,
			"componentType":5126,
			"count":816,
			"max":[
				1008.0003051757812,
				5184,
				1344.0001220703125
			],
			"min":[
				-2336.0009765625,
				-2048.00048828125,
				-1424.0015869140625
			],
			"type":"VEC3"
		},
		{
			"bufferView":5,
			"componentType":5126,
			"count":816,
			"type":"VEC3"
		},
		{
			"bufferView":6,
			"componentType":5126,
			"count":816,
			"type":"VEC2"
		},
		{
			"bufferView":7,
			"componentType":5123,
			"count":1224,
			"type":"SCALAR"
		},
		{
			"bufferView":8,
			"componentType":5126,
			"count":96,
			"max":[
				608.0000610351562,
				3839.99951171875,
				48
			],
			"min":[
				-2304.000244140625,
				-1920.0003662109375,
				16
			],
			"type":"VEC3"
		},
		{
			"bufferView":9,
			"componentType":5126,
			"count":96,
			"type":"VEC3"
		},
		{
			"bufferView":10,
			"componentType":5126,
			"count":96,
			"type":"VEC2"
		},
		{
			"bufferView":11,
			"componentType":5123,
			"count":144,
			"type":"SCALAR"
		},
		{
			"bufferView":12,
			"componentType":5126,
			"count":162,
			"max":[
				608.0001220703125,
				5136,
				1232
			],
			"min":[
				-3056,
				-1024,
				0
			],
			"type":"VEC3"
		},
		{
			"bufferView":13,
			"componentType":5126,
			"count":162,
			"type":"VEC3"
		},
		{
			"bufferView":14,
			"componentType":5126,
			"count":162,
			"type":"VEC2"
		},
		{
			"bufferView":15,
			"componentType":5123,
			"count":240,
			"type":"SCALAR"
		},
		{
			"bufferView":16,
			"componentType":5126,
			"count":1578,
			"max":[
				992,
				5136,
				1280
			],
			"min":[
				-2304,
				-1920.0006103515625,
				-608.0001220703125
			],
			"type":"VEC3"
		},
		{
			"bufferView":17,
			"componentType":5126,
			"count":1578,
			"type":"VEC3"
		},
		{
			"bufferView":18,
			"componentType":5126,
			"count":1578,
			"type":"VEC2"
		},
		{
			"bufferView":19,
			"componentType":5123,
			"count":2364,
			"type":"SCALAR"
		},
		{
			"bufferView":20,
			"componentType":5126,
			"count":1344,
			"max":[
				992.0008544921875,
				5151.99951171875,
				608
			],
			"min":[
				-2304,
				-1456,
				-1408.00048828125
			],
			"type":"VEC3"
		},
		{
			"bufferView":21,
			"componentType":5126,
			"count":1344,
			"type":"VEC3"
		},
		{
			"bufferView":22,
			"componentType":5126,
			"count":1344,
			"type":"VEC2"
		},
		{
			"bufferView":23,
			"componentType":5123,
			"count":2016,
			"type":"SCALAR"
		},
		{
			"bufferView":24,
			"componentType":5126,
			"count":192,
			"max":[
				976.0001831054688,
				5136.00244140625,
				-407.9999694824219
			],
			"min":[
				-2304,
				-1199.99951171875,
				-1408
			],
			"type":"VEC3"
		},
		{
			"bufferView":25,
			"componentType":5126,
			"count":192,
			"type":"VEC3"
		},
		{
			"bufferView":26,
			"componentType":5126,
			"count":192,
			"type":"VEC2"
		},
		{
			"bufferView":27,
			"componentType":5123,
			"count":288,
			"type":"SCALAR"
		},
		{
			"bufferView":28,
			"componentType":5126,
			"count":940,
			"max":[
				-36.000099182128906,
				992,
				1232
			],
			"min":[
				-1408.0008544921875,
				-256,
				-590.769287109375
			],
			"type":"VEC3"
		},
		{
			"bufferView":29,
			"componentType":5126,
			"count":940,
			"type":"VEC3"
		},
		{
			"bufferView":30,
			"componentType":5126,
			"count":940,
			"type":"VEC2"
		},
		{
			"bufferView":31,
			"componentType":5123,
			"count":1410,
			"type":"SCALAR"
		},
		{
			"bufferView":32,
			"componentType":5126,
			"count":48,
			"max":[
				-640,
				276,
				-344
			],
			"min":[
				-1232,
				274,
				-352
			],
			"type":"VEC3"
		},
		{
			"bufferView":33,
			"componentType":5126,
			"count":48,
			"type":"VEC3"
		},
		{
			"bufferView":34,
			"componentType":5126,
			"count":48,
			"type":"VEC2"
		},
		{
			"bufferView":35,
			"componentType":5123,
			"count":72,
			"type":"SCALAR"
		},
		{
			"bufferView":36,
			"componentType":5126,
			"count":216,
			"max":[
				-32,
				640.0003051757812,
				1232.0001220703125
			],
			"min":[
				-1408.0008544921875,
				-255.9982147216797,
				-600
			],
			"type":"VEC3"
		},
		{
			"bufferView":37,
			"componentType":5126,
			"count":216,
			"type":"VEC3"
		},
		{
			"bufferView":38,
			"componentType":5126,
			"count":216,
			"type":"VEC2"
		},
		{
			"bufferView":39,
			"componentType":5123,
			"count":324,
			"type":"SCALAR"
		},
		{
			"bufferView":40,
			"componentType":5126,
			"count":16,
			"max":[
				-512.0010375976562,
				640.000244140625,
				1264
			],
			"min":[
				-1408.00048828125,
				-256,
				1232
			],
			"type":"VEC3"
		},
		{
			"bufferView":41,
			"componentType":5126,
			"count":16,
			"type":"VEC3"
		},
		{
			"bufferView":42,
			"componentType":5126,
			"count":16,
			"type":"VEC2"
		},
		{
			"bufferView":43,
			"componentType":5123,
			"count":24,
			"type":"SCALAR"
		}
	],
	"bufferViews":[
		{
			"buffer":0,
			"byteLength":5760,
			"byteOffset":0,
			"target":34962
		},
		{
			"buffer":0,
			"byteLength":5760,
			"byteOffset":5760,
			"target":34962
		},
		{
			"buffer":0,
			"byteLength":3840,
			"byteOffset":11520,
			"target":34962
		},
		{
			"buffer":0,
			"byteLength":1440,
			"byteOffset":15360,
			"target":34963
		},
		{
			"buffer":0,
			"byteLength":9792,
			"byteOffset":16800,
			"target":34962
		},
		{
			"buffer":0,
			"byteLength":9792,
			"byteOffset":26592,
			"target":34962
		},
		{
			"buffer":0,
			"byteLength":6528,
			"byteOffset":36384,
			"target":34962
		},
		{
			"buffer":0,
			"byteLength":2448,
			"byteOffset":42912,
			"target":34963
		},
		{
			"buffer":0,
			"byteLength":1152,
			"byteOffset":45360,
			"target":34962
		},
		{
			"buffer":0,
			"byteLength":1152,
			"byteOffset":46512,
			"target":34962
		},
		{
			"buffer":0,
			"byteLength":768,
			"byteOffset":47664,
			"target":34962
		},
		{
			"buffer":0,
			"byteLength":288,
			"byteOffset":48432,
			"target":34963
		},
		{
			"buffer":0,
			"byteLength":1944,
			"byteOffset":48720,
			"target":34962
		},
		{
			"buffer":0,
			"byteLength":1944,
			"byteOffset":50664,
			"target":34962
		},
		{
			"buffer":0,
			"byteLength":1296,
			"byteOffset":52608,
			"target":34962
		},
		{
			"buffer":0,
			"byteLength":480,
			"byteOffset":53904,
			"target":34963
		},
		{
			"buffer":0,
			"byteLength":18936,
			"byteOffset":54384,
			"target":34962
		},
		{
			"buffer":0,
			"byteLength":18936,
			"byteOffset":73320,
			"target":34962
		},
		{
			"buffer":0,
			"byteLength":12624,
			"byteOffset":92256,
			"target":34962
		},
		{
			"buffer":0,
			"byteLength":4728,
			"byteOffset":104880,
			"target":34963
		},
		{
			"buffer":0,
			"byteLength":16128,
			"byteOffset":109608,
			"target":34962
		},
		{
			"buffer":0,
			"byteLength":16128,
			"byteOffset":125736,
			"target":34962
		},
		{
			"buffer":0,
			"byteLength":10752,
			"byteOffset":141864,
			"target":34962
		},
		{
			"buffer":0,
			"byteLength":4032,
			"byteOffset":152616,
			"target":34963
		},
		{
			"buffer":0,
			"byteLength":2304,
			"byteOffset":156648,
			"target":34962
		},
		{
			"buffer":0,
			"byteLength":2304,
			"byteOffset":158952,
			"target":34962
		},
		{
			"buffer":0,
			"byteLength":1536,
			"byteOffset":161256,
			"target":34962
		},
		{
			"buffer":0,
			"byteLength":576,
			"byteOffset":162792,
			"target":34963
		},
		{
			"buffer":0,
			"byteLength":11280,
			"byteOffset":163368,
			"target":34962
		},
		{
			"buffer":0,
			"byteLength":11280,
			"byteOffset":174648,
			"target":34962
		},
		{
			"buffer":0,
			"byteLength":7520,
			"byteOffset":185928,
			"target":34962
		},
		{
			"buffer":0,
			"byteLength":2820,
			"byteOffset":193448,
			"target":34963
		},
		{
			"buffer":0,
			"byteLength":576,
			"byteOffset":196268,
			"target":34962
		},
		{
			"buffer":0,
			"byteLength":576,
			"byteOffset":196844,
			"target":34962
		},
		{
			"buffer":0,
			"byteLength":384,
			"byteOffset":197420,
			"target":34962
		},
		{
			"buffer":0,
			"byteLength":144,
			"byteOffset":197804,
			"target":34963
		},
		{
			"buffer":0,
			"byteLength":2592,
			"byteOffset":197948,
			"target":34962
		},
		{
			"buffer":0,
			"byteLength":2592,
			"byteOffset":200540,
			"target":34962
		},
		{
			"buffer":0,
			"byteLength":1728,
			"byteOffset":203132,
			"target":34962
		},
		{
			"buffer":0,
			"byteLength":648,
			"byteOffset":204860,
			"target":34963
		},
		{
			"buffer":0,
			"byteLength":192,
			"byteOffset":205508,
			"target":34962
		},
		{
			"buffer":0,
			"byteLength":192,
			"byteOffset":205700,
			"target":34962
		},
		{
			"buffer":0,
			"byteLength":128,
			"byteOffset":205892,
			"target":34962
		},
		{
			"buffer":0,
			"byteLength":48,
			"byteOffset":206020,
			"target":34963
		}
	],
	"samplers":[
		{
			"magFilter":9729,
			"minFilter":9987
		}
	],
	"buffers":[
		{
			"byteLength":206068,
			"uri":"SZ_site19.bin"
		}
	]
}
