{
	"asset":{
		"generator":"Khronos glTF Blender I/O v3.6.27",
		"version":"2.0"
	},
	"scene":0,
	"scenes":[
		{
			"name":"Scene",
			"nodes":[
				0,
				1,
				2,
				3,
				4,
				5,
				6,
				7,
				8
			]
		}
	],
	"nodes":[
		{
			"mesh":0,
			"name":"Carryhandle.000",
			"rotation":[
				-0.03421828895807266,
				-0.035913415253162384,
				-0.00043765988084487617,
				0.9987689256668091
			],
			"scale":[
				0.13129673898220062,
				0.12183092534542084,
				0.12181839346885681
			],
			"translation":[
				0.08255689591169357,
				1.995436429977417,
				-1.5334558486938477
			]
		},
		{
			"mesh":1,
			"name":"M4BoltCharge",
			"scale":[
				0.16724161803722382,
				0.16724097728729248,
				0.16724102199077606
			],
			"translation":[
				0,
				0,
				-2.6849517822265625
			]
		},
		{
			"mesh":2,
			"name":"M4ForeGrip.001",
			"scale":[
				0.17007501423358917,
				0.17007437348365784,
				0.17007435858249664
			],
			"translation":[
				0.08201838284730911,
				1.2627743482589722,
				1.3443269729614258
			]
		},
		{
			"mesh":3,
			"name":"M4Mag",
			"scale":[
				0.16724161803722382,
				0.16724097728729248,
				0.16724102199077606
			],
			"translation":[
				0.06833584606647491,
				-0.1087864562869072,
				-0.6220898628234863
			]
		},
		{
			"mesh":4,
			"name":"M4Sight.001",
			"scale":[
				0.16724161803722382,
				0.16724097728729248,
				0.16724102199077606
			],
			"translation":[
				0.08700161427259445,
				1.7212203741073608,
				3.283261775970459
			]
		},
		{
			"mesh":5,
			"name":"M4Stock2.002",
			"rotation":[
				-0.014331500045955181,
				0.01084062084555626,
				0.0018374157370999455,
				0.9998369216918945
			],
			"scale":[
				0.1554609090089798,
				0.1554604023694992,
				0.15546034276485443
			],
			"translation":[
				0.10702624917030334,
				0.9213120937347412,
				-4.475066184997559
			]
		},
		{
			"mesh":6,
			"name":"M4.002",
			"scale":[
				0.16724161803722382,
				0.16724097728729248,
				0.16724102199077606
			],
			"translation":[
				0.0911702960729599,
				1.3037322759628296,
				1.4610424041748047
			]
		},
		{
			"mesh":7,
			"name":"M4.001",
			"scale":[
				0.16724161803722382,
				0.16724097728729248,
				0.16724102199077606
			],
			"translation":[
				0,
				0,
				-2.6849517822265625
			]
		},
		{
			"mesh":8,
			"name":"M4.004"
		}
	],
	"materials":[
		{
			"doubleSided":true,
			"name":"Material.002",
			"normalTexture":{
				"index":0
			},
			"pbrMetallicRoughness":{
				"baseColorTexture":{
					"index":1
				},
				"metallicFactor":0,
				"roughnessFactor":0.5
			}
		},
		{
			"doubleSided":true,
			"name":"M4",
			"pbrMetallicRoughness":{
				"baseColorFactor":[
					0.800000011920929,
					0.800000011920929,
					0.800000011920929,
					1
				],
				"metallicFactor":0,
				"roughnessFactor":0.5
			}
		},
		{
			"doubleSided":true,
			"name":"Material.001",
			"normalTexture":{
				"index":2
			},
			"pbrMetallicRoughness":{
				"baseColorTexture":{
					"index":3
				},
				"metallicFactor":0,
				"roughnessFactor":0.5
			}
		},
		{
			"doubleSided":true,
			"name":"Material.003",
			"normalTexture":{
				"index":4
			},
			"pbrMetallicRoughness":{
				"baseColorTexture":{
					"index":5
				},
				"metallicFactor":0,
				"roughnessFactor":0.5
			}
		}
	],
	"meshes":[
		{
			"name":"ACOG.002",
			"primitives":[
				{
					"attributes":{
						"POSITION":0,
						"NORMAL":1,
						"TEXCOORD_0":2
					},
					"indices":3,
					"material":0
				}
			]
		},
		{
			"name":"M4A1.047",
			"primitives":[
				{
					"attributes":{
						"COLOR_0":4,
						"POSITION":5,
						"NORMAL":6,
						"TEXCOORD_0":7
					},
					"indices":8,
					"material":1
				}
			]
		},
		{
			"name":"M4A1.009",
			"primitives":[
				{
					"attributes":{
						"POSITION":9,
						"NORMAL":10,
						"TEXCOORD_0":11
					},
					"indices":12,
					"material":0
				}
			]
		},
		{
			"name":"M4A1.044",
			"primitives":[
				{
					"attributes":{
						"COLOR_0":13,
						"POSITION":14,
						"NORMAL":15,
						"TEXCOORD_0":16
					},
					"indices":17,
					"material":2
				}
			]
		},
		{
			"name":"(null).006",
			"primitives":[
				{
					"attributes":{
						"POSITION":18,
						"NORMAL":19,
						"TEXCOORD_0":20
					},
					"indices":21,
					"material":0
				}
			]
		},
		{
			"name":"M4Stock1.004",
			"primitives":[
				{
					"attributes":{
						"COLOR_0":22,
						"POSITION":23,
						"NORMAL":24,
						"TEXCOORD_0":25
					},
					"indices":26,
					"material":2
				}
			]
		},
		{
			"name":"M4A1.045",
			"primitives":[
				{
					"attributes":{
						"COLOR_0":27,
						"POSITION":28,
						"NORMAL":29,
						"TEXCOORD_0":30
					},
					"indices":31,
					"material":2
				}
			]
		},
		{
			"name":"M4A1.001",
			"primitives":[
				{
					"attributes":{
						"COLOR_0":32,
						"POSITION":33,
						"NORMAL":34,
						"TEXCOORD_0":35
					},
					"indices":36,
					"material":2
				}
			]
		},
		{
			"name":"M4A1.002",
			"primitives":[
				{
					"attributes":{
						"COLOR_0":37,
						"POSITION":38,
						"NORMAL":39,
						"TEXCOORD_0":40
					},
					"indices":41,
					"material":3
				}
			]
		}
	],
	"textures":[
		{
			"sampler":0,
			"source":0
		},
		{
			"sampler":0,
			"source":1
		},
		{
			"sampler":0,
			"source":0
		},
		{
			"sampler":0,
			"source":1
		},
		{
			"sampler":0,
			"source":0
		},
		{
			"sampler":0,
			"source":1
		}
	],
	"images":[
		{
			"mimeType":"image/png",
			"name":"M4NormalMap_NRM",
			"uri":"M4NormalMap_NRM.png"
		},
		{
			"mimeType":"image/png",
			"name":"M4",
			"uri":"M4.png"
		}
	],
	"accessors":[
		{
			"bufferView":0,
			"componentType":5126,
			"count":1325,
			"max":[
				2.3408749103546143,
				3.6542720794677734,
				10.709307670593262
			],
			"min":[
				-2.1357767581939697,
				-3.706373691558838,
				-10.792952537536621
			],
			"type":"VEC3"
		},
		{
			"bufferView":1,
			"componentType":5126,
			"count":1325,
			"type":"VEC3"
		},
		{
			"bufferView":2,
			"componentType":5126,
			"count":1325,
			"type":"VEC2"
		},
		{
			"bufferView":3,
			"componentType":5123,
			"count":3138,
			"type":"SCALAR"
		},
		{
			"bufferView":4,
			"componentType":5123,
			"count":324,
			"normalized":true,
			"type":"VEC4"
		},
		{
			"bufferView":5,
			"componentType":5126,
			"count":324,
			"max":[
				2.291123628616333,
				9.942543983459473,
				13.78017520904541
			],
			"min":[
				-1.3702082633972168,
				8.291382789611816,
				-1.4197819232940674
			],
			"type":"VEC3"
		},
		{
			"bufferView":6,
			"componentType":5126,
			"count":324,
			"type":"VEC3"
		},
		{
			"bufferView":7,
			"componentType":5126,
			"count":324,
			"type":"VEC2"
		},
		{
			"bufferView":8,
			"componentType":5123,
			"count":717,
			"type":"SCALAR"
		},
		{
			"bufferView":9,
			"componentType":5126,
			"count":252,
			"max":[
				2.775310754776001,
				2.992004632949829,
				9.525406837463379
			],
			"min":[
				-2.775310754776001,
				-2.4733786582946777,
				-7.65944242477417
			],
			"type":"VEC3"
		},
		{
			"bufferView":10,
			"componentType":5126,
			"count":252,
			"type":"VEC3"
		},
		{
			"bufferView":11,
			"componentType":5126,
			"count":252,
			"type":"VEC2"
		},
		{
			"bufferView":12,
			"componentType":5123,
			"count":762,
			"type":"SCALAR"
		},
		{
			"bufferView":13,
			"componentType":5123,
			"count":189,
			"normalized":true,
			"type":"VEC4"
		},
		{
			"bufferView":14,
			"componentType":5126,
			"count":189,
			"max":[
				0.9298018217086792,
				8.530721664428711,
				3.6550846099853516
			],
			"min":[
				-0.9298018217086792,
				-8.530721664428711,
				-3.6550846099853516
			],
			"type":"VEC3"
		},
		{
			"bufferView":15,
			"componentType":5126,
			"count":189,
			"type":"VEC3"
		},
		{
			"bufferView":16,
			"componentType":5126,
			"count":189,
			"type":"VEC2"
		},
		{
			"bufferView":17,
			"componentType":5123,
			"count":300,
			"type":"SCALAR"
		},
		{
			"bufferView":18,
			"componentType":5126,
			"count":508,
			"max":[
				1.0208206176757812,
				4.236580848693848,
				1.974432110786438
			],
			"min":[
				-1.0208185911178589,
				-3.540658473968506,
				-1.9744324684143066
			],
			"type":"VEC3"
		},
		{
			"bufferView":19,
			"componentType":5126,
			"count":508,
			"type":"VEC3"
		},
		{
			"bufferView":20,
			"componentType":5126,
			"count":508,
			"type":"VEC2"
		},
		{
			"bufferView":21,
			"componentType":5123,
			"count":1500,
			"type":"SCALAR"
		},
		{
			"bufferView":22,
			"componentType":5123,
			"count":392,
			"normalized":true,
			"type":"VEC4"
		},
		{
			"bufferView":23,
			"componentType":5126,
			"count":392,
			"max":[
				1.6448403596878052,
				4.506317138671875,
				9.524703979492188
			],
			"min":[
				-1.6448407173156738,
				-5.443460464477539,
				-9.404623985290527
			],
			"type":"VEC3"
		},
		{
			"bufferView":24,
			"componentType":5126,
			"count":392,
			"type":"VEC3"
		},
		{
			"bufferView":25,
			"componentType":5126,
			"count":392,
			"type":"VEC2"
		},
		{
			"bufferView":26,
			"componentType":5123,
			"count":945,
			"type":"SCALAR"
		},
		{
			"bufferView":27,
			"componentType":5123,
			"count":3222,
			"normalized":true,
			"type":"VEC4"
		},
		{
			"bufferView":28,
			"componentType":5126,
			"count":3222,
			"max":[
				2.5634865760803223,
				2.5514349937438965,
				8.743806838989258
			],
			"min":[
				-2.5634865760803223,
				-2.551436424255371,
				-8.743806838989258
			],
			"type":"VEC3"
		},
		{
			"bufferView":29,
			"componentType":5126,
			"count":3222,
			"type":"VEC3"
		},
		{
			"bufferView":30,
			"componentType":5126,
			"count":3222,
			"type":"VEC2"
		},
		{
			"bufferView":31,
			"componentType":5123,
			"count":4896,
			"type":"SCALAR"
		},
		{
			"bufferView":32,
			"componentType":5123,
			"count":3655,
			"normalized":true,
			"type":"VEC4"
		},
		{
			"bufferView":33,
			"componentType":5126,
			"count":3655,
			"max":[
				2.705742835998535,
				10.29596996307373,
				16.30347442626953
			],
			"min":[
				-3.1086723804473877,
				-5.005403995513916,
				-4.1215620040893555
			],
			"type":"VEC3"
		},
		{
			"bufferView":34,
			"componentType":5126,
			"count":3655,
			"type":"VEC3"
		},
		{
			"bufferView":35,
			"componentType":5126,
			"count":3655,
			"type":"VEC2"
		},
		{
			"bufferView":36,
			"componentType":5123,
			"count":6804,
			"type":"SCALAR"
		},
		{
			"bufferView":37,
			"componentType":5123,
			"count":532,
			"normalized":true,
			"type":"VEC4"
		},
		{
			"bufferView":38,
			"componentType":5126,
			"count":532,
			"max":[
				0.25295430421829224,
				1.4448857307434082,
				5.798196792602539
			],
			"min":[
				-0.08494403213262558,
				1.122551441192627,
				2.7175889015197754
			],
			"type":"VEC3"
		},
		{
			"bufferView":39,
			"componentType":5126,
			"count":532,
			"type":"VEC3"
		},
		{
			"bufferView":40,
			"componentType":5126,
			"count":532,
			"type":"VEC2"
		},
		{
			"bufferView":41,
			"componentType":5123,
			"count":1296,
			"type":"SCALAR"
		}
	],
	"bufferViews":[
		{
			"buffer":0,
			"byteLength":15900,
			"byteOffset":0,
			"target":34962
		},
		{
			"buffer":0,
			"byteLength":15900,
			"byteOffset":15900,
			"target":34962
		},
		{
			"buffer":0,
			"byteLength":10600,
			"byteOffset":31800,
			"target":34962
		},
		{
			"buffer":0,
			"byteLength":6276,
			"byteOffset":42400,
			"target":34963
		},
		{
			"buffer":0,
			"byteLength":2592,
			"byteOffset":48676,
			"target":34962
		},
		{
			"buffer":0,
			"byteLength":3888,
			"byteOffset":51268,
			"target":34962
		},
		{
			"buffer":0,
			"byteLength":3888,
			"byteOffset":55156,
			"target":34962
		},
		{
			"buffer":0,
			"byteLength":2592,
			"byteOffset":59044,
			"target":34962
		},
		{
			"buffer":0,
			"byteLength":1434,
			"byteOffset":61636,
			"target":34963
		},
		{
			"buffer":0,
			"byteLength":3024,
			"byteOffset":63072,
			"target":34962
		},
		{
			"buffer":0,
			"byteLength":3024,
			"byteOffset":66096,
			"target":34962
		},
		{
			"buffer":0,
			"byteLength":2016,
			"byteOffset":69120,
			"target":34962
		},
		{
			"buffer":0,
			"byteLength":1524,
			"byteOffset":71136,
			"target":34963
		},
		{
			"buffer":0,
			"byteLength":1512,
			"byteOffset":72660,
			"target":34962
		},
		{
			"buffer":0,
			"byteLength":2268,
			"byteOffset":74172,
			"target":34962
		},
		{
			"buffer":0,
			"byteLength":2268,
			"byteOffset":76440,
			"target":34962
		},
		{
			"buffer":0,
			"byteLength":1512,
			"byteOffset":78708,
			"target":34962
		},
		{
			"buffer":0,
			"byteLength":600,
			"byteOffset":80220,
			"target":34963
		},
		{
			"buffer":0,
			"byteLength":6096,
			"byteOffset":80820,
			"target":34962
		},
		{
			"buffer":0,
			"byteLength":6096,
			"byteOffset":86916,
			"target":34962
		},
		{
			"buffer":0,
			"byteLength":4064,
			"byteOffset":93012,
			"target":34962
		},
		{
			"buffer":0,
			"byteLength":3000,
			"byteOffset":97076,
			"target":34963
		},
		{
			"buffer":0,
			"byteLength":3136,
			"byteOffset":100076,
			"target":34962
		},
		{
			"buffer":0,
			"byteLength":4704,
			"byteOffset":103212,
			"target":34962
		},
		{
			"buffer":0,
			"byteLength":4704,
			"byteOffset":107916,
			"target":34962
		},
		{
			"buffer":0,
			"byteLength":3136,
			"byteOffset":112620,
			"target":34962
		},
		{
			"buffer":0,
			"byteLength":1890,
			"byteOffset":115756,
			"target":34963
		},
		{
			"buffer":0,
			"byteLength":25776,
			"byteOffset":117648,
			"target":34962
		},
		{
			"buffer":0,
			"byteLength":38664,
			"byteOffset":143424,
			"target":34962
		},
		{
			"buffer":0,
			"byteLength":38664,
			"byteOffset":182088,
			"target":34962
		},
		{
			"buffer":0,
			"byteLength":25776,
			"byteOffset":220752,
			"target":34962
		},
		{
			"buffer":0,
			"byteLength":9792,
			"byteOffset":246528,
			"target":34963
		},
		{
			"buffer":0,
			"byteLength":29240,
			"byteOffset":256320,
			"target":34962
		},
		{
			"buffer":0,
			"byteLength":43860,
			"byteOffset":285560,
			"target":34962
		},
		{
			"buffer":0,
			"byteLength":43860,
			"byteOffset":329420,
			"target":34962
		},
		{
			"buffer":0,
			"byteLength":29240,
			"byteOffset":373280,
			"target":34962
		},
		{
			"buffer":0,
			"byteLength":13608,
			"byteOffset":402520,
			"target":34963
		},
		{
			"buffer":0,
			"byteLength":4256,
			"byteOffset":416128,
			"target":34962
		},
		{
			"buffer":0,
			"byteLength":6384,
			"byteOffset":420384,
			"target":34962
		},
		{
			"buffer":0,
			"byteLength":6384,
			"byteOffset":426768,
			"target":34962
		},
		{
			"buffer":0,
			"byteLength":4256,
			"byteOffset":433152,
			"target":34962
		},
		{
			"buffer":0,
			"byteLength":2592,
			"byteOffset":437408,
			"target":34963
		}
	],
	"samplers":[
		{
			"magFilter":9729,
			"minFilter":9987
		}
	],
	"buffers":[
		{
			"byteLength":440000,
			"uri":"mtf_rifle.bin"
		}
	]
}
